G04*
G04 #@! TF.GenerationSoftware,Altium Limited,Altium Designer,18.1.9 (240)*
G04*
G04 Layer_Color=2752767*
%FSLAX25Y25*%
%MOIN*%
G70*
G01*
G75*
%ADD10C,0.00200*%
D10*
X347400Y277600D02*
Y279200D01*
X349000D01*
Y277600D01*
X347400D01*
X356600Y287300D02*
Y288900D01*
X358200D01*
Y287300D01*
X356600D01*
X360600Y291700D02*
Y293300D01*
X362200D01*
Y291700D01*
X360600D01*
X327200Y287900D02*
Y289500D01*
X328800D01*
Y287900D01*
X327200D01*
X333200Y304800D02*
Y306400D01*
X334800D01*
Y304800D01*
X333200D01*
X386300Y266200D02*
Y267800D01*
X387900D01*
Y266200D01*
X386300D01*
X376900Y302100D02*
Y303700D01*
X378500D01*
Y302100D01*
X376900D01*
X330600Y271600D02*
Y273200D01*
X332200D01*
Y271600D01*
X330600D01*
X330800Y277500D02*
Y279100D01*
X332400D01*
Y277500D01*
X330800D01*
X338000Y266400D02*
Y268000D01*
X339600D01*
Y266400D01*
X338000D01*
X334500D02*
Y268000D01*
X336100D01*
Y266400D01*
X334500D01*
X343700Y299000D02*
Y300600D01*
X345300D01*
Y299000D01*
X343700D01*
X348100Y298900D02*
Y300500D01*
X349700D01*
Y298900D01*
X348100D01*
X355200Y303700D02*
Y305300D01*
X356800D01*
Y303700D01*
X355200D01*
X386300Y297100D02*
Y298700D01*
X387900D01*
Y297100D01*
X386300D01*
X326900Y307100D02*
Y308700D01*
X328500D01*
Y307100D01*
X326900D01*
M02*
