G04*
G04 #@! TF.GenerationSoftware,Altium Limited,Altium Designer,18.1.9 (240)*
G04*
G04 Layer_Color=16711935*
%FSLAX25Y25*%
%MOIN*%
G70*
G01*
G75*
%ADD33R,0.02375X0.02769*%
%ADD38R,0.02769X0.02375*%
%ADD45C,0.04737*%
%ADD46O,0.02572X0.07493*%
%ADD47O,0.07493X0.02572*%
D33*
X363929Y261000D02*
D03*
X367472Y261000D02*
D03*
X341871Y305700D02*
D03*
X338328Y305700D02*
D03*
X351371Y261000D02*
D03*
X347828Y261000D02*
D03*
D38*
X325700Y274729D02*
D03*
Y278075D02*
D03*
X375300Y272229D02*
D03*
Y275575D02*
D03*
D45*
X381300Y298300D02*
D03*
Y288300D02*
D03*
Y278300D02*
D03*
Y268300D02*
D03*
D03*
D46*
X363924Y267179D02*
D03*
X360774D02*
D03*
X357624D02*
D03*
X354475D02*
D03*
X351325D02*
D03*
X348176D02*
D03*
X345026D02*
D03*
X341876D02*
D03*
X341876Y299669D02*
D03*
X348176D02*
D03*
X351325D02*
D03*
X354475D02*
D03*
X357624D02*
D03*
X360774D02*
D03*
X363924D02*
D03*
D47*
X336655Y272376D02*
D03*
Y275526D02*
D03*
Y278676D02*
D03*
Y281825D02*
D03*
Y284975D02*
D03*
Y288124D02*
D03*
Y291274D02*
D03*
Y294424D02*
D03*
X369145Y291274D02*
D03*
Y288124D02*
D03*
Y284975D02*
D03*
Y281825D02*
D03*
Y278676D02*
D03*
Y275526D02*
D03*
Y272376D02*
D03*
M02*
