G04*
G04 #@! TF.GenerationSoftware,Altium Limited,Altium Designer,18.1.9 (240)*
G04*
G04 Layer_Color=128*
%FSLAX25Y25*%
%MOIN*%
G70*
G01*
G75*
%ADD22R,0.01575X0.01968*%
%ADD27R,0.01968X0.01575*%
%ADD42C,0.03937*%
%ADD43O,0.01772X0.06693*%
%ADD44O,0.06693X0.01772*%
D22*
X363929Y261000D02*
D03*
X367472Y261000D02*
D03*
X341871Y305700D02*
D03*
X338328Y305700D02*
D03*
X351371Y261000D02*
D03*
X347828Y261000D02*
D03*
D27*
X325700Y274729D02*
D03*
Y278075D02*
D03*
X375300Y272229D02*
D03*
Y275575D02*
D03*
D42*
X381300Y298300D02*
D03*
Y288300D02*
D03*
Y278300D02*
D03*
Y268300D02*
D03*
D03*
D43*
X363924Y267179D02*
D03*
X360774D02*
D03*
X357624D02*
D03*
X354475D02*
D03*
X351325D02*
D03*
X348176D02*
D03*
X345026D02*
D03*
X341876D02*
D03*
X341876Y299669D02*
D03*
X348176D02*
D03*
X351325D02*
D03*
X354475D02*
D03*
X357624D02*
D03*
X360774D02*
D03*
X363924D02*
D03*
D44*
X336655Y272376D02*
D03*
Y275526D02*
D03*
Y278676D02*
D03*
Y281825D02*
D03*
Y284975D02*
D03*
Y288124D02*
D03*
Y291274D02*
D03*
Y294424D02*
D03*
X369145Y291274D02*
D03*
Y288124D02*
D03*
Y284975D02*
D03*
Y281825D02*
D03*
Y278676D02*
D03*
Y275526D02*
D03*
Y272376D02*
D03*
M02*
