G04*
G04 #@! TF.GenerationSoftware,Altium Limited,Altium Designer,18.1.9 (240)*
G04*
G04 Layer_Color=32896*
%FSLAX25Y25*%
%MOIN*%
G70*
G01*
G75*
%ADD16C,0.00600*%
%ADD40C,0.01000*%
%ADD48C,0.02000*%
G36*
X324922Y304702D02*
X324925Y304655D01*
Y304521D01*
X324928Y304497D01*
Y304414D01*
X324925Y304353D01*
X324922Y304294D01*
X324914Y304242D01*
X324906Y304192D01*
X324895Y304145D01*
X324884Y304103D01*
X324873Y304064D01*
X324859Y304029D01*
X324845Y303998D01*
X324834Y303970D01*
X324823Y303948D01*
X324812Y303929D01*
X324803Y303915D01*
X324795Y303904D01*
X324792Y303898D01*
X324790Y303895D01*
X324762Y303862D01*
X324734Y303835D01*
X324704Y303807D01*
X324670Y303787D01*
X324640Y303768D01*
X324609Y303754D01*
X324549Y303729D01*
X324496Y303718D01*
X324474Y303713D01*
X324454Y303710D01*
X324438Y303707D01*
X324427D01*
X324418D01*
X324416D01*
X324371Y303710D01*
X324330Y303721D01*
X324294Y303735D01*
X324260Y303751D01*
X324236Y303771D01*
X324216Y303785D01*
X324202Y303796D01*
X324200Y303799D01*
X324166Y303835D01*
X324141Y303871D01*
X324119Y303909D01*
X324103Y303945D01*
X324089Y303979D01*
X324080Y304004D01*
X324078Y304023D01*
X324075Y304026D01*
Y304029D01*
X324069D01*
X324053Y303981D01*
X324033Y303937D01*
X324011Y303901D01*
X323989Y303871D01*
X323967Y303846D01*
X323950Y303829D01*
X323939Y303818D01*
X323934Y303815D01*
X323895Y303790D01*
X323853Y303771D01*
X323812Y303757D01*
X323773Y303746D01*
X323740Y303740D01*
X323715Y303738D01*
X323704D01*
X323695D01*
X323693D01*
X323690D01*
X323632Y303743D01*
X323585Y303754D01*
X323540Y303774D01*
X323507Y303793D01*
X323479Y303812D01*
X323460Y303832D01*
X323446Y303843D01*
X323443Y303848D01*
X323416Y303893D01*
X323394Y303940D01*
X323380Y303990D01*
X323369Y304040D01*
X323363Y304081D01*
X323360Y304100D01*
X323358Y304117D01*
Y304256D01*
X323360Y304278D01*
Y304350D01*
X323363Y304380D01*
Y304591D01*
X323418Y304594D01*
X323479Y304596D01*
X323601Y304607D01*
X323726Y304619D01*
X323784Y304624D01*
X323842Y304630D01*
X323895Y304635D01*
X323945Y304641D01*
X323989Y304643D01*
X324028Y304649D01*
X324058Y304652D01*
X324083Y304655D01*
X324097Y304657D01*
X324103D01*
X324366Y304688D01*
X324443Y304696D01*
X324515Y304704D01*
X324582Y304710D01*
X324637Y304718D01*
X324690Y304724D01*
X324734Y304729D01*
X324776Y304732D01*
X324809Y304738D01*
X324839Y304740D01*
X324862Y304743D01*
X324881Y304746D01*
X324898Y304749D01*
X324909D01*
X324917Y304751D01*
X324920D01*
X324922D01*
Y304702D01*
D02*
G37*
G36*
X327126Y303263D02*
X327024Y303224D01*
X327029Y303340D01*
X327032Y303459D01*
X327035Y303576D01*
Y303684D01*
X327038Y303733D01*
Y303919D01*
X327035D01*
X327002Y303866D01*
X326968Y303817D01*
X326938Y303769D01*
X326910Y303728D01*
X326883Y303686D01*
X326858Y303650D01*
X326833Y303620D01*
X326813Y303589D01*
X326794Y303565D01*
X326777Y303542D01*
X326764Y303523D01*
X326752Y303509D01*
X326741Y303495D01*
X326736Y303487D01*
X326730Y303484D01*
Y303481D01*
X326686Y303432D01*
X326642Y303387D01*
X326603Y303351D01*
X326564Y303321D01*
X326534Y303299D01*
X326511Y303285D01*
X326495Y303274D01*
X326489Y303271D01*
X326442Y303249D01*
X326392Y303232D01*
X326345Y303218D01*
X326301Y303210D01*
X326265Y303204D01*
X326234Y303202D01*
X326223D01*
X326215D01*
X326209D01*
X326207D01*
X326149Y303207D01*
X326096Y303218D01*
X326052Y303238D01*
X326013Y303257D01*
X325985Y303276D01*
X325963Y303296D01*
X325952Y303307D01*
X325946Y303312D01*
X325916Y303357D01*
X325891Y303409D01*
X325874Y303462D01*
X325863Y303515D01*
X325858Y303562D01*
X325855Y303581D01*
X325852Y303598D01*
Y303675D01*
X325855Y303717D01*
X325858Y303733D01*
Y303747D01*
X325860Y303756D01*
Y303758D01*
X325869Y303805D01*
X325871Y303828D01*
X325877Y303844D01*
X325880Y303861D01*
X325883Y303872D01*
X325885Y303880D01*
Y303883D01*
X325993Y303922D01*
X325985Y303889D01*
X325977Y303858D01*
X325971Y303833D01*
X325969Y303811D01*
X325963Y303792D01*
Y303781D01*
X325960Y303772D01*
Y303769D01*
X325955Y303725D01*
X325952Y303684D01*
Y303642D01*
X325955Y303587D01*
X325963Y303537D01*
X325974Y303495D01*
X325985Y303462D01*
X325996Y303434D01*
X326007Y303415D01*
X326016Y303401D01*
X326018Y303398D01*
X326046Y303368D01*
X326077Y303346D01*
X326110Y303332D01*
X326140Y303321D01*
X326171Y303315D01*
X326193Y303310D01*
X326209D01*
X326212D01*
X326215D01*
X326265Y303312D01*
X326315Y303321D01*
X326362Y303335D01*
X326406Y303354D01*
X326448Y303373D01*
X326489Y303398D01*
X326528Y303423D01*
X326561Y303448D01*
X326594Y303476D01*
X326622Y303501D01*
X326647Y303526D01*
X326666Y303545D01*
X326683Y303565D01*
X326694Y303578D01*
X326702Y303587D01*
X326705Y303589D01*
X326744Y303639D01*
X326780Y303686D01*
X326813Y303731D01*
X326844Y303775D01*
X326869Y303811D01*
X326894Y303847D01*
X326913Y303880D01*
X326932Y303908D01*
X326949Y303936D01*
X326963Y303958D01*
X326974Y303977D01*
X326982Y303994D01*
X326988Y304005D01*
X326993Y304013D01*
X326996Y304019D01*
Y304022D01*
X327126Y304052D01*
Y303263D01*
D02*
G37*
G36*
X325446Y303488D02*
X325432Y303422D01*
X325416Y303366D01*
X325393Y303317D01*
X325371Y303281D01*
X325355Y303253D01*
X325341Y303236D01*
X325335Y303231D01*
X325288Y303186D01*
X325233Y303150D01*
X325175Y303117D01*
X325119Y303092D01*
X325069Y303073D01*
X325047Y303064D01*
X325028Y303059D01*
X325014Y303053D01*
X325003Y303051D01*
X324994Y303048D01*
X324992D01*
X324947Y303034D01*
X324898Y303017D01*
X324848Y302998D01*
X324795Y302976D01*
X324687Y302929D01*
X324582Y302879D01*
X324532Y302854D01*
X324488Y302829D01*
X324446Y302810D01*
X324410Y302790D01*
X324382Y302774D01*
X324360Y302763D01*
X324346Y302754D01*
X324341Y302751D01*
X324263Y302710D01*
X324194Y302671D01*
X324130Y302641D01*
X324072Y302613D01*
X324022Y302588D01*
X323975Y302569D01*
X323934Y302552D01*
X323898Y302541D01*
X323867Y302530D01*
X323839Y302524D01*
X323820Y302519D01*
X323801Y302513D01*
X323790D01*
X323781Y302510D01*
X323776D01*
X323773D01*
X323784Y302641D01*
X323806Y302643D01*
X323834Y302646D01*
X323892Y302663D01*
X323959Y302685D01*
X324022Y302710D01*
X324083Y302738D01*
X324111Y302749D01*
X324133Y302760D01*
X324152Y302768D01*
X324166Y302776D01*
X324177Y302779D01*
X324180Y302782D01*
X324283Y302832D01*
X324380Y302876D01*
X324421Y302896D01*
X324463Y302915D01*
X324501Y302932D01*
X324537Y302948D01*
X324568Y302962D01*
X324596Y302976D01*
X324621Y302987D01*
X324640Y302995D01*
X324657Y303004D01*
X324668Y303006D01*
X324676Y303012D01*
X324679D01*
X324723Y303031D01*
X324740Y303040D01*
X324751Y303042D01*
X324756Y303048D01*
X324759D01*
Y303062D01*
X324740D01*
X324720Y303067D01*
X324673Y303076D01*
X324651Y303081D01*
X324634Y303084D01*
X324623Y303089D01*
X324618D01*
X324573Y303100D01*
X324526Y303114D01*
X324474Y303128D01*
X324421Y303145D01*
X324374Y303159D01*
X324355Y303164D01*
X324338Y303170D01*
X324321Y303175D01*
X324310Y303178D01*
X324305Y303181D01*
X324302D01*
X324222Y303206D01*
X324180Y303220D01*
X324144Y303231D01*
X324108Y303242D01*
X324078Y303253D01*
X324050Y303261D01*
X324022Y303270D01*
X324000Y303275D01*
X323981Y303283D01*
X323950Y303292D01*
X323928Y303297D01*
X323914Y303303D01*
X323911D01*
X323881Y303311D01*
X323853Y303317D01*
X323831Y303319D01*
X323809Y303322D01*
X323795Y303325D01*
X323781D01*
X323776D01*
X323773D01*
X323787Y303447D01*
X323812Y303444D01*
X323842Y303441D01*
X323878Y303433D01*
X323917Y303422D01*
X323959Y303411D01*
X324003Y303397D01*
X324094Y303366D01*
X324139Y303353D01*
X324180Y303339D01*
X324216Y303325D01*
X324252Y303314D01*
X324280Y303303D01*
X324299Y303294D01*
X324313Y303292D01*
X324319Y303289D01*
X324393Y303261D01*
X324465Y303236D01*
X324529Y303217D01*
X324587Y303198D01*
X324640Y303181D01*
X324687Y303170D01*
X324731Y303159D01*
X324767Y303150D01*
X324801Y303145D01*
X324828Y303139D01*
X324851Y303136D01*
X324870Y303134D01*
X324884Y303131D01*
X324892D01*
X324898D01*
X324900D01*
X324936Y303134D01*
X324970Y303136D01*
X325003Y303145D01*
X325033Y303153D01*
X325058Y303162D01*
X325078Y303167D01*
X325089Y303173D01*
X325094Y303175D01*
X325130Y303195D01*
X325166Y303217D01*
X325197Y303242D01*
X325222Y303267D01*
X325244Y303289D01*
X325260Y303308D01*
X325272Y303319D01*
X325274Y303325D01*
X325302Y303364D01*
X325321Y303405D01*
X325335Y303444D01*
X325344Y303483D01*
X325349Y303516D01*
X325355Y303541D01*
Y303563D01*
X325452D01*
X325446Y303488D01*
D02*
G37*
G36*
X326711Y302930D02*
X326783Y302919D01*
X326849Y302903D01*
X326902Y302883D01*
X326924Y302872D01*
X326943Y302864D01*
X326963Y302855D01*
X326977Y302847D01*
X326988Y302839D01*
X326996Y302836D01*
X326999Y302831D01*
X327002D01*
X327027Y302808D01*
X327046Y302786D01*
X327065Y302764D01*
X327082Y302739D01*
X327107Y302686D01*
X327124Y302637D01*
X327132Y302592D01*
X327135Y302573D01*
X327137Y302556D01*
X327140Y302542D01*
Y302523D01*
X327137Y302487D01*
X327135Y302451D01*
X327121Y302387D01*
X327101Y302332D01*
X327077Y302282D01*
X327054Y302246D01*
X327035Y302216D01*
X327027Y302207D01*
X327021Y302199D01*
X327015Y302196D01*
Y302193D01*
X326966Y302149D01*
X326916Y302110D01*
X326866Y302077D01*
X326819Y302049D01*
X326777Y302030D01*
X326758Y302022D01*
X326744Y302016D01*
X326730Y302010D01*
X326722Y302008D01*
X326716Y302005D01*
X326714D01*
X326647Y301986D01*
X326586Y301969D01*
X326531Y301958D01*
X326478Y301952D01*
X326437Y301947D01*
X326420D01*
X326406Y301944D01*
X326395D01*
X326387D01*
X326381D01*
X326378D01*
X326298Y301952D01*
X326226Y301963D01*
X326162Y301983D01*
X326113Y302002D01*
X326090Y302010D01*
X326071Y302019D01*
X326054Y302030D01*
X326041Y302035D01*
X326029Y302044D01*
X326021Y302046D01*
X326018Y302052D01*
X326016D01*
X325991Y302071D01*
X325971Y302094D01*
X325952Y302116D01*
X325938Y302144D01*
X325913Y302193D01*
X325897Y302246D01*
X325888Y302293D01*
X325883Y302315D01*
Y302332D01*
X325880Y302346D01*
Y302401D01*
X325885Y302432D01*
X325899Y302492D01*
X325919Y302545D01*
X325941Y302590D01*
X325963Y302628D01*
X325982Y302656D01*
X325991Y302664D01*
X325996Y302673D01*
X325999Y302675D01*
X326002Y302678D01*
X326049Y302722D01*
X326099Y302761D01*
X326146Y302794D01*
X326193Y302822D01*
X326234Y302844D01*
X326265Y302858D01*
X326279Y302864D01*
X326287Y302869D01*
X326293Y302872D01*
X326295D01*
X326359Y302894D01*
X326420Y302908D01*
X326478Y302919D01*
X326528Y302927D01*
X326570Y302933D01*
X326586D01*
X326600Y302936D01*
X326611D01*
X326619D01*
X326625D01*
X326628D01*
X326711Y302930D01*
D02*
G37*
G36*
X327126Y300958D02*
X327024Y300919D01*
X327029Y301035D01*
X327032Y301155D01*
X327035Y301271D01*
Y301379D01*
X327038Y301429D01*
Y301614D01*
X327035D01*
X327002Y301562D01*
X326968Y301512D01*
X326938Y301465D01*
X326910Y301423D01*
X326883Y301382D01*
X326858Y301346D01*
X326833Y301315D01*
X326813Y301285D01*
X326794Y301260D01*
X326777Y301238D01*
X326764Y301218D01*
X326752Y301204D01*
X326741Y301191D01*
X326736Y301182D01*
X326730Y301180D01*
Y301177D01*
X326686Y301127D01*
X326642Y301083D01*
X326603Y301047D01*
X326564Y301016D01*
X326534Y300994D01*
X326511Y300980D01*
X326495Y300969D01*
X326489Y300966D01*
X326442Y300944D01*
X326392Y300927D01*
X326345Y300914D01*
X326301Y300905D01*
X326265Y300900D01*
X326234Y300897D01*
X326223D01*
X326215D01*
X326209D01*
X326207D01*
X326149Y300903D01*
X326096Y300914D01*
X326052Y300933D01*
X326013Y300952D01*
X325985Y300972D01*
X325963Y300991D01*
X325952Y301002D01*
X325946Y301008D01*
X325916Y301052D01*
X325891Y301105D01*
X325874Y301157D01*
X325863Y301210D01*
X325858Y301257D01*
X325855Y301276D01*
X325852Y301293D01*
Y301371D01*
X325855Y301412D01*
X325858Y301429D01*
Y301443D01*
X325860Y301451D01*
Y301454D01*
X325869Y301501D01*
X325871Y301523D01*
X325877Y301540D01*
X325880Y301556D01*
X325883Y301567D01*
X325885Y301576D01*
Y301578D01*
X325993Y301617D01*
X325985Y301584D01*
X325977Y301554D01*
X325971Y301529D01*
X325969Y301506D01*
X325963Y301487D01*
Y301476D01*
X325960Y301468D01*
Y301465D01*
X325955Y301420D01*
X325952Y301379D01*
Y301337D01*
X325955Y301282D01*
X325963Y301232D01*
X325974Y301191D01*
X325985Y301157D01*
X325996Y301130D01*
X326007Y301110D01*
X326016Y301096D01*
X326018Y301094D01*
X326046Y301063D01*
X326077Y301041D01*
X326110Y301027D01*
X326140Y301016D01*
X326171Y301011D01*
X326193Y301005D01*
X326209D01*
X326212D01*
X326215D01*
X326265Y301008D01*
X326315Y301016D01*
X326362Y301030D01*
X326406Y301049D01*
X326448Y301069D01*
X326489Y301094D01*
X326528Y301119D01*
X326561Y301144D01*
X326594Y301171D01*
X326622Y301196D01*
X326647Y301221D01*
X326666Y301240D01*
X326683Y301260D01*
X326694Y301274D01*
X326702Y301282D01*
X326705Y301285D01*
X326744Y301335D01*
X326780Y301382D01*
X326813Y301426D01*
X326844Y301470D01*
X326869Y301506D01*
X326894Y301542D01*
X326913Y301576D01*
X326932Y301603D01*
X326949Y301631D01*
X326963Y301653D01*
X326974Y301673D01*
X326982Y301689D01*
X326988Y301700D01*
X326993Y301709D01*
X326996Y301714D01*
Y301717D01*
X327126Y301747D01*
Y300958D01*
D02*
G37*
G36*
X324296Y301882D02*
X324357Y301876D01*
X324410Y301868D01*
X324463Y301857D01*
X324510Y301843D01*
X324554Y301829D01*
X324593Y301813D01*
X324629Y301796D01*
X324662Y301782D01*
X324690Y301765D01*
X324712Y301751D01*
X324731Y301738D01*
X324748Y301727D01*
X324759Y301718D01*
X324765Y301713D01*
X324767Y301710D01*
X324801Y301674D01*
X324828Y301638D01*
X324853Y301596D01*
X324875Y301558D01*
X324895Y301513D01*
X324909Y301472D01*
X324931Y301391D01*
X324939Y301353D01*
X324945Y301319D01*
X324950Y301286D01*
X324953Y301258D01*
X324956Y301236D01*
Y301162D01*
X324953Y301120D01*
X324950Y301084D01*
X324947Y301054D01*
X324945Y301026D01*
X324942Y301009D01*
X324939Y300995D01*
Y300993D01*
X324925Y300926D01*
X324917Y300898D01*
X324909Y300873D01*
X324900Y300851D01*
X324895Y300835D01*
X324889Y300824D01*
Y300821D01*
X324856Y300818D01*
X324820D01*
X324781Y300815D01*
X324743Y300813D01*
X324709Y300810D01*
X324681Y300807D01*
X324670Y300804D01*
X324662D01*
X324659D01*
X324657D01*
X324598Y300799D01*
X324543Y300790D01*
X324490Y300785D01*
X324441Y300777D01*
X324402Y300771D01*
X324371Y300765D01*
X324360D01*
X324352Y300763D01*
X324346D01*
X324344D01*
X324260Y300752D01*
Y300876D01*
X324324Y300885D01*
X324360Y300887D01*
X324393Y300890D01*
X324424Y300893D01*
X324452Y300896D01*
X324474Y300898D01*
X324490D01*
X324501Y300901D01*
X324504D01*
X324537Y300904D01*
X324576Y300907D01*
X324618Y300912D01*
X324657Y300915D01*
X324693Y300918D01*
X324723D01*
X324734Y300921D01*
X324743D01*
X324748D01*
X324751D01*
X324826Y300926D01*
X324831Y300962D01*
X324837Y300987D01*
X324842Y301012D01*
X324845Y301031D01*
X324848Y301048D01*
X324851Y301062D01*
X324853Y301073D01*
Y301081D01*
X324856Y301120D01*
Y301203D01*
X324853Y301253D01*
X324848Y301297D01*
X324839Y301342D01*
X324831Y301380D01*
X324817Y301419D01*
X324803Y301452D01*
X324790Y301486D01*
X324773Y301513D01*
X324756Y301538D01*
X324743Y301560D01*
X324729Y301577D01*
X324715Y301594D01*
X324707Y301605D01*
X324698Y301613D01*
X324693Y301619D01*
X324690Y301621D01*
X324657Y301646D01*
X324621Y301668D01*
X324582Y301691D01*
X324543Y301707D01*
X324463Y301732D01*
X324388Y301749D01*
X324352Y301757D01*
X324319Y301760D01*
X324288Y301763D01*
X324260Y301765D01*
X324241Y301768D01*
X324224D01*
X324213D01*
X324211D01*
X324152Y301765D01*
X324097Y301760D01*
X324044Y301749D01*
X323995Y301738D01*
X323948Y301721D01*
X323903Y301704D01*
X323862Y301685D01*
X323826Y301666D01*
X323790Y301649D01*
X323762Y301630D01*
X323734Y301613D01*
X323712Y301596D01*
X323695Y301585D01*
X323684Y301574D01*
X323676Y301569D01*
X323673Y301566D01*
X323635Y301527D01*
X323599Y301486D01*
X323568Y301444D01*
X323543Y301402D01*
X323521Y301358D01*
X323504Y301317D01*
X323488Y301278D01*
X323477Y301239D01*
X323468Y301203D01*
X323460Y301170D01*
X323454Y301142D01*
X323452Y301117D01*
Y301095D01*
X323449Y301081D01*
Y301067D01*
X323452Y301015D01*
X323457Y300962D01*
X323463Y300912D01*
X323471Y300865D01*
X323482Y300826D01*
X323488Y300796D01*
X323490Y300785D01*
X323493Y300777D01*
X323496Y300771D01*
Y300768D01*
X323385Y300732D01*
X323371Y300779D01*
X323366Y300801D01*
X323363Y300824D01*
X323360Y300843D01*
X323358Y300857D01*
X323355Y300868D01*
Y300871D01*
X323346Y300923D01*
X323344Y300948D01*
Y300970D01*
X323341Y300990D01*
Y301015D01*
X323344Y301084D01*
X323352Y301148D01*
X323366Y301211D01*
X323382Y301270D01*
X323402Y301325D01*
X323424Y301375D01*
X323446Y301425D01*
X323471Y301466D01*
X323496Y301505D01*
X323518Y301538D01*
X323540Y301569D01*
X323560Y301594D01*
X323576Y301613D01*
X323590Y301627D01*
X323599Y301635D01*
X323601Y301638D01*
X323651Y301682D01*
X323704Y301718D01*
X323756Y301751D01*
X323809Y301779D01*
X323862Y301804D01*
X323914Y301824D01*
X323967Y301840D01*
X324014Y301854D01*
X324061Y301865D01*
X324103Y301871D01*
X324141Y301876D01*
X324172Y301882D01*
X324200D01*
X324219Y301885D01*
X324230D01*
X324236D01*
X324296Y301882D01*
D02*
G37*
G36*
X327126Y299936D02*
X327024Y299897D01*
X327029Y300013D01*
X327032Y300132D01*
X327035Y300249D01*
Y300357D01*
X327038Y300407D01*
Y300592D01*
X327035D01*
X327002Y300540D01*
X326968Y300490D01*
X326938Y300443D01*
X326910Y300401D01*
X326883Y300360D01*
X326858Y300324D01*
X326833Y300293D01*
X326813Y300263D01*
X326794Y300238D01*
X326777Y300216D01*
X326764Y300196D01*
X326752Y300182D01*
X326741Y300168D01*
X326736Y300160D01*
X326730Y300157D01*
Y300155D01*
X326686Y300105D01*
X326642Y300060D01*
X326603Y300024D01*
X326564Y299994D01*
X326534Y299972D01*
X326511Y299958D01*
X326495Y299947D01*
X326489Y299944D01*
X326442Y299922D01*
X326392Y299905D01*
X326345Y299891D01*
X326301Y299883D01*
X326265Y299878D01*
X326234Y299875D01*
X326223D01*
X326215D01*
X326209D01*
X326207D01*
X326149Y299880D01*
X326096Y299891D01*
X326052Y299911D01*
X326013Y299930D01*
X325985Y299950D01*
X325963Y299969D01*
X325952Y299980D01*
X325946Y299986D01*
X325916Y300030D01*
X325891Y300083D01*
X325874Y300135D01*
X325863Y300188D01*
X325858Y300235D01*
X325855Y300254D01*
X325852Y300271D01*
Y300348D01*
X325855Y300390D01*
X325858Y300407D01*
Y300421D01*
X325860Y300429D01*
Y300432D01*
X325869Y300479D01*
X325871Y300501D01*
X325877Y300518D01*
X325880Y300534D01*
X325883Y300545D01*
X325885Y300553D01*
Y300556D01*
X325993Y300595D01*
X325985Y300562D01*
X325977Y300531D01*
X325971Y300506D01*
X325969Y300484D01*
X325963Y300465D01*
Y300454D01*
X325960Y300446D01*
Y300443D01*
X325955Y300398D01*
X325952Y300357D01*
Y300315D01*
X325955Y300260D01*
X325963Y300210D01*
X325974Y300168D01*
X325985Y300135D01*
X325996Y300108D01*
X326007Y300088D01*
X326016Y300074D01*
X326018Y300072D01*
X326046Y300041D01*
X326077Y300019D01*
X326110Y300005D01*
X326140Y299994D01*
X326171Y299988D01*
X326193Y299983D01*
X326209D01*
X326212D01*
X326215D01*
X326265Y299986D01*
X326315Y299994D01*
X326362Y300008D01*
X326406Y300027D01*
X326448Y300047D01*
X326489Y300072D01*
X326528Y300097D01*
X326561Y300121D01*
X326594Y300149D01*
X326622Y300174D01*
X326647Y300199D01*
X326666Y300218D01*
X326683Y300238D01*
X326694Y300252D01*
X326702Y300260D01*
X326705Y300263D01*
X326744Y300312D01*
X326780Y300360D01*
X326813Y300404D01*
X326844Y300448D01*
X326869Y300484D01*
X326894Y300520D01*
X326913Y300553D01*
X326932Y300581D01*
X326949Y300609D01*
X326963Y300631D01*
X326974Y300651D01*
X326982Y300667D01*
X326988Y300678D01*
X326993Y300687D01*
X326996Y300692D01*
Y300695D01*
X327126Y300725D01*
Y299936D01*
D02*
G37*
G36*
X324662Y300439D02*
X324717Y300428D01*
X324765Y300411D01*
X324806Y300392D01*
X324839Y300369D01*
X324870Y300342D01*
X324892Y300314D01*
X324911Y300283D01*
X324925Y300253D01*
X324936Y300225D01*
X324945Y300198D01*
X324950Y300175D01*
X324953Y300153D01*
X324956Y300139D01*
Y300126D01*
X324953Y300070D01*
X324942Y300020D01*
X324928Y299976D01*
X324914Y299937D01*
X324898Y299907D01*
X324886Y299885D01*
X324875Y299871D01*
X324873Y299865D01*
X324837Y299826D01*
X324798Y299790D01*
X324756Y299757D01*
X324715Y299729D01*
X324679Y299707D01*
X324651Y299691D01*
X324640Y299685D01*
X324632Y299680D01*
X324626Y299677D01*
X324623D01*
Y299674D01*
X324668D01*
X324707D01*
X324743D01*
X324776D01*
X324803D01*
X324831Y299671D01*
X324853D01*
X324873D01*
X324889D01*
X324903D01*
X324925Y299669D01*
X324936D01*
X324939D01*
X324920Y299547D01*
X324823Y299558D01*
X324779Y299560D01*
X324737Y299563D01*
X324701Y299566D01*
X324673D01*
X324662D01*
X324654D01*
X324651D01*
X324648D01*
X324598D01*
X324543Y299563D01*
X324490Y299560D01*
X324441Y299558D01*
X324396Y299555D01*
X324377Y299552D01*
X324360D01*
X324349D01*
X324338Y299549D01*
X324332D01*
X324330D01*
X324291Y299547D01*
X324252Y299541D01*
X324208Y299535D01*
X324161Y299530D01*
X324067Y299519D01*
X323975Y299508D01*
X323931Y299502D01*
X323892Y299500D01*
X323856Y299494D01*
X323823Y299491D01*
X323798Y299488D01*
X323779Y299486D01*
X323767Y299483D01*
X323762D01*
X323787Y299608D01*
X323809D01*
X323837D01*
X323892Y299610D01*
X323950Y299613D01*
X324008Y299619D01*
X324061Y299621D01*
X324086Y299624D01*
X324105Y299627D01*
X324122D01*
X324133Y299630D01*
X324141D01*
X324144D01*
X324247Y299638D01*
X324285Y299641D01*
X324324Y299649D01*
X324396Y299669D01*
X324465Y299693D01*
X324529Y299718D01*
X324557Y299732D01*
X324582Y299746D01*
X324604Y299757D01*
X324621Y299768D01*
X324637Y299777D01*
X324648Y299785D01*
X324654Y299788D01*
X324657Y299790D01*
X324693Y299815D01*
X324723Y299843D01*
X324751Y299871D01*
X324776Y299896D01*
X324795Y299921D01*
X324812Y299945D01*
X324826Y299970D01*
X324837Y299993D01*
X324851Y300034D01*
X324859Y300065D01*
Y300076D01*
X324862Y300084D01*
Y300092D01*
X324859Y300139D01*
X324851Y300181D01*
X324839Y300214D01*
X324828Y300239D01*
X324817Y300258D01*
X324806Y300272D01*
X324798Y300281D01*
X324795Y300283D01*
X324767Y300300D01*
X324731Y300314D01*
X324695Y300322D01*
X324657Y300330D01*
X324623Y300333D01*
X324596Y300336D01*
X324585D01*
X324576D01*
X324573D01*
X324571D01*
X324535D01*
X324499Y300333D01*
X324485D01*
X324474D01*
X324465D01*
X324463D01*
X324438D01*
X324410Y300330D01*
X324385Y300328D01*
X324357D01*
X324335Y300325D01*
X324319Y300322D01*
X324308D01*
X324302D01*
X324108Y300308D01*
X324089Y300306D01*
X324064D01*
X324033Y300303D01*
X324003Y300300D01*
X323972Y300297D01*
X323948Y300294D01*
X323931Y300292D01*
X323928D01*
X323925D01*
X323900Y300289D01*
X323875Y300286D01*
X323837Y300281D01*
X323809Y300278D01*
X323787D01*
X323773Y300275D01*
X323765D01*
X323759D01*
X323787Y300397D01*
X323815D01*
X323845D01*
X323911Y300400D01*
X323981Y300403D01*
X324050Y300405D01*
X324083Y300408D01*
X324114Y300411D01*
X324141D01*
X324164Y300414D01*
X324183D01*
X324197Y300416D01*
X324208D01*
X324211D01*
X324213D01*
X324219D01*
X324227D01*
X324238Y300419D01*
X324269Y300422D01*
X324299D01*
X324332Y300425D01*
X324360Y300428D01*
X324371Y300430D01*
X324380D01*
X324385D01*
X324388D01*
X324418Y300433D01*
X324446D01*
X324471Y300436D01*
X324493D01*
X324532Y300439D01*
X324560D01*
X324579Y300441D01*
X324593D01*
X324598D01*
X324601D01*
X324662Y300439D01*
D02*
G37*
G36*
X327063Y299653D02*
X327088Y299645D01*
X327101Y299637D01*
X327107Y299634D01*
X327121Y299612D01*
X327126Y299590D01*
X327129Y299578D01*
Y299562D01*
X327126Y299542D01*
X327124Y299526D01*
X327110Y299498D01*
X327096Y299482D01*
X327093Y299476D01*
X327090D01*
X327074Y299465D01*
X327060Y299457D01*
X327027Y299446D01*
X327013D01*
X327002Y299443D01*
X326996D01*
X326993D01*
X326963Y299446D01*
X326941Y299454D01*
X326930Y299462D01*
X326924Y299465D01*
X326907Y299484D01*
X326899Y299506D01*
X326896Y299523D01*
Y299531D01*
X326899Y299551D01*
X326902Y299570D01*
X326913Y299598D01*
X326921Y299609D01*
X326927Y299617D01*
X326930Y299620D01*
X326932Y299623D01*
X326946Y299634D01*
X326960Y299642D01*
X326991Y299651D01*
X327004Y299653D01*
X327015Y299656D01*
X327024D01*
X327027D01*
X327046D01*
X327063Y299653D01*
D02*
G37*
G36*
X324598Y299267D02*
X324654Y299258D01*
X324704Y299248D01*
X324748Y299234D01*
X324781Y299220D01*
X324806Y299209D01*
X324823Y299200D01*
X324826Y299198D01*
X324828D01*
X324867Y299167D01*
X324895Y299131D01*
X324917Y299095D01*
X324931Y299062D01*
X324939Y299031D01*
X324942Y299004D01*
X324945Y298987D01*
Y298981D01*
X324942Y298937D01*
X324934Y298896D01*
X324920Y298857D01*
X324906Y298824D01*
X324895Y298796D01*
X324881Y298774D01*
X324873Y298763D01*
X324870Y298757D01*
X324837Y298718D01*
X324801Y298685D01*
X324762Y298652D01*
X324726Y298627D01*
X324693Y298605D01*
X324665Y298588D01*
X324654Y298583D01*
X324645Y298577D01*
X324643Y298574D01*
X324640D01*
Y298569D01*
X324707D01*
X324767Y298566D01*
X324817D01*
X324859Y298563D01*
X324892D01*
X324914Y298561D01*
X324928D01*
X324934D01*
X324920Y298450D01*
X324884Y298455D01*
X324848Y298458D01*
X324812Y298461D01*
X324779D01*
X324751Y298464D01*
X324726D01*
X324712D01*
X324707D01*
X324607Y298461D01*
X324549Y298458D01*
X324490Y298455D01*
X324429Y298450D01*
X324371Y298444D01*
X324321Y298439D01*
X324302Y298436D01*
X324283Y298433D01*
X324269Y298430D01*
X324255Y298428D01*
X324249D01*
X324247D01*
X324164Y298414D01*
X324075Y298397D01*
X323989Y298383D01*
X323906Y298367D01*
X323870Y298358D01*
X323837Y298353D01*
X323806Y298347D01*
X323779Y298342D01*
X323759Y298336D01*
X323743Y298333D01*
X323731Y298331D01*
X323729D01*
X323745Y298405D01*
X323784Y298458D01*
Y298469D01*
X323787Y298536D01*
X323792Y298597D01*
X323803Y298657D01*
X323817Y298713D01*
X323834Y298763D01*
X323853Y298813D01*
X323873Y298854D01*
X323892Y298896D01*
X323914Y298932D01*
X323934Y298962D01*
X323953Y298987D01*
X323970Y299009D01*
X323984Y299029D01*
X323995Y299040D01*
X324000Y299048D01*
X324003Y299051D01*
X324044Y299090D01*
X324089Y299123D01*
X324133Y299153D01*
X324177Y299178D01*
X324224Y299198D01*
X324266Y299217D01*
X324310Y299231D01*
X324352Y299242D01*
X324388Y299250D01*
X324424Y299258D01*
X324454Y299264D01*
X324482Y299267D01*
X324504D01*
X324521Y299270D01*
X324532D01*
X324535D01*
X324598Y299267D01*
D02*
G37*
G36*
X326711Y298986D02*
X326783Y298975D01*
X326849Y298958D01*
X326902Y298939D01*
X326924Y298927D01*
X326943Y298919D01*
X326963Y298911D01*
X326977Y298903D01*
X326988Y298894D01*
X326996Y298891D01*
X326999Y298886D01*
X327002D01*
X327027Y298864D01*
X327046Y298842D01*
X327065Y298819D01*
X327082Y298795D01*
X327107Y298742D01*
X327124Y298692D01*
X327132Y298648D01*
X327135Y298628D01*
X327137Y298612D01*
X327140Y298598D01*
Y298579D01*
X327137Y298542D01*
X327135Y298506D01*
X327121Y298443D01*
X327101Y298387D01*
X327077Y298338D01*
X327054Y298302D01*
X327035Y298271D01*
X327027Y298263D01*
X327021Y298254D01*
X327015Y298252D01*
Y298249D01*
X326966Y298205D01*
X326916Y298166D01*
X326866Y298132D01*
X326819Y298105D01*
X326777Y298085D01*
X326758Y298077D01*
X326744Y298072D01*
X326730Y298066D01*
X326722Y298063D01*
X326716Y298060D01*
X326714D01*
X326647Y298041D01*
X326586Y298025D01*
X326531Y298013D01*
X326478Y298008D01*
X326437Y298002D01*
X326420D01*
X326406Y298000D01*
X326395D01*
X326387D01*
X326381D01*
X326378D01*
X326298Y298008D01*
X326226Y298019D01*
X326162Y298038D01*
X326113Y298058D01*
X326090Y298066D01*
X326071Y298074D01*
X326054Y298085D01*
X326041Y298091D01*
X326029Y298099D01*
X326021Y298102D01*
X326018Y298108D01*
X326016D01*
X325991Y298127D01*
X325971Y298149D01*
X325952Y298171D01*
X325938Y298199D01*
X325913Y298249D01*
X325897Y298302D01*
X325888Y298349D01*
X325883Y298371D01*
Y298387D01*
X325880Y298401D01*
Y298457D01*
X325885Y298487D01*
X325899Y298548D01*
X325919Y298601D01*
X325941Y298645D01*
X325963Y298684D01*
X325982Y298711D01*
X325991Y298720D01*
X325996Y298728D01*
X325999Y298731D01*
X326002Y298734D01*
X326049Y298778D01*
X326099Y298817D01*
X326146Y298850D01*
X326193Y298878D01*
X326234Y298900D01*
X326265Y298914D01*
X326279Y298919D01*
X326287Y298925D01*
X326293Y298927D01*
X326295D01*
X326359Y298950D01*
X326420Y298963D01*
X326478Y298975D01*
X326528Y298983D01*
X326570Y298989D01*
X326586D01*
X326600Y298991D01*
X326611D01*
X326619D01*
X326625D01*
X326628D01*
X326711Y298986D01*
D02*
G37*
G36*
X324922Y297951D02*
X324903Y297948D01*
X324878D01*
X324851Y297946D01*
X324820Y297943D01*
X324759Y297940D01*
X324693Y297935D01*
X324634Y297932D01*
X324607Y297929D01*
X324585D01*
X324565D01*
X324551Y297926D01*
X324540D01*
X324537D01*
X324485Y297921D01*
X324435Y297915D01*
X324338Y297893D01*
X324296Y297882D01*
X324255Y297868D01*
X324219Y297854D01*
X324183Y297840D01*
X324152Y297827D01*
X324128Y297813D01*
X324103Y297801D01*
X324083Y297790D01*
X324067Y297782D01*
X324056Y297774D01*
X324050Y297771D01*
X324047Y297768D01*
X324011Y297741D01*
X323981Y297716D01*
X323953Y297688D01*
X323928Y297660D01*
X323909Y297635D01*
X323892Y297608D01*
X323878Y297586D01*
X323867Y297561D01*
X323853Y297522D01*
X323848Y297502D01*
X323845Y297488D01*
X323842Y297477D01*
Y297461D01*
X323845Y297414D01*
X323853Y297375D01*
X323864Y297342D01*
X323875Y297317D01*
X323886Y297297D01*
X323898Y297284D01*
X323906Y297275D01*
X323909Y297272D01*
X323936Y297253D01*
X323970Y297239D01*
X324003Y297231D01*
X324039Y297223D01*
X324072Y297220D01*
X324097Y297217D01*
X324108D01*
X324116D01*
X324119D01*
X324122D01*
X324202D01*
X324288Y297223D01*
X324371Y297225D01*
X324446Y297231D01*
X324482Y297234D01*
X324515Y297236D01*
X324543Y297239D01*
X324568Y297242D01*
X324587Y297245D01*
X324601D01*
X324612Y297248D01*
X324615D01*
X324665Y297253D01*
X324709Y297259D01*
X324748Y297261D01*
X324784Y297264D01*
X324815Y297267D01*
X324839Y297270D01*
X324862Y297272D01*
X324881Y297275D01*
X324895D01*
X324906D01*
X324922Y297278D01*
X324931D01*
X324934D01*
X324922Y297156D01*
X324839D01*
X324756Y297153D01*
X324676Y297148D01*
X324601Y297145D01*
X324568Y297142D01*
X324537Y297140D01*
X324510D01*
X324488Y297137D01*
X324468D01*
X324454Y297134D01*
X324446D01*
X324443D01*
X324396Y297131D01*
X324355Y297126D01*
X324316Y297123D01*
X324280Y297120D01*
X324249D01*
X324222Y297117D01*
X324197Y297115D01*
X324177D01*
X324158D01*
X324144Y297112D01*
X324122D01*
X324108D01*
X324105D01*
X324042Y297115D01*
X323986Y297123D01*
X323942Y297137D01*
X323903Y297151D01*
X323875Y297167D01*
X323853Y297178D01*
X323839Y297189D01*
X323837Y297192D01*
X323806Y297225D01*
X323784Y297264D01*
X323770Y297303D01*
X323759Y297342D01*
X323754Y297375D01*
X323748Y297405D01*
Y297430D01*
X323751Y297483D01*
X323759Y297530D01*
X323773Y297574D01*
X323787Y297613D01*
X323803Y297644D01*
X323815Y297669D01*
X323826Y297682D01*
X323828Y297688D01*
X323862Y297729D01*
X323900Y297765D01*
X323942Y297796D01*
X323981Y297824D01*
X324017Y297846D01*
X324044Y297860D01*
X324056Y297865D01*
X324064Y297871D01*
X324069Y297873D01*
X324072D01*
Y297876D01*
X324006D01*
X323948D01*
X323895Y297879D01*
X323850D01*
X323812Y297882D01*
X323784D01*
X323776Y297885D01*
X323767D01*
X323765D01*
X323762D01*
X323790Y298007D01*
X323842Y298001D01*
X323895Y297995D01*
X323948Y297993D01*
X323995Y297990D01*
X324036Y297987D01*
X324053D01*
X324069D01*
X324080D01*
X324089D01*
X324094D01*
X324097D01*
X324144D01*
X324200Y297990D01*
X324260Y297995D01*
X324324Y298001D01*
X324393Y298007D01*
X324463Y298012D01*
X324601Y298029D01*
X324668Y298037D01*
X324729Y298042D01*
X324787Y298051D01*
X324834Y298056D01*
X324875Y298062D01*
X324892Y298065D01*
X324906Y298067D01*
X324917D01*
X324925Y298070D01*
X324931D01*
X324934D01*
X324922Y297951D01*
D02*
G37*
G36*
X327522Y297670D02*
X327500Y297664D01*
X327470Y297651D01*
X327431Y297634D01*
X327390Y297612D01*
X327345Y297590D01*
X327295Y297562D01*
X327196Y297504D01*
X327146Y297476D01*
X327101Y297448D01*
X327057Y297421D01*
X327021Y297398D01*
X326988Y297379D01*
X326963Y297365D01*
X326949Y297354D01*
X326943Y297351D01*
X326855Y297296D01*
X326775Y297246D01*
X326697Y297199D01*
X326625Y297158D01*
X326558Y297119D01*
X326498Y297085D01*
X326445Y297055D01*
X326395Y297027D01*
X326351Y297005D01*
X326312Y296986D01*
X326281Y296969D01*
X326254Y296955D01*
X326234Y296944D01*
X326218Y296939D01*
X326209Y296933D01*
X326207D01*
X326160Y296914D01*
X326118Y296894D01*
X326079Y296881D01*
X326046Y296867D01*
X326013Y296856D01*
X325985Y296847D01*
X325960Y296839D01*
X325938Y296833D01*
X325921Y296828D01*
X325905Y296825D01*
X325880Y296822D01*
X325869Y296819D01*
X325863D01*
Y297711D01*
X325985Y297734D01*
X325982Y297659D01*
X325977Y297587D01*
X325974Y297518D01*
X325971Y297454D01*
Y297376D01*
X325969Y297357D01*
Y297321D01*
X325966Y297241D01*
Y297169D01*
X325963Y297105D01*
Y296944D01*
X326002Y296953D01*
X326049Y296966D01*
X326101Y296989D01*
X326162Y297016D01*
X326226Y297049D01*
X326295Y297085D01*
X326428Y297163D01*
X326495Y297202D01*
X326556Y297241D01*
X326614Y297274D01*
X326664Y297307D01*
X326705Y297332D01*
X326722Y297343D01*
X326736Y297354D01*
X326747Y297360D01*
X326755Y297365D01*
X326761Y297371D01*
X326764D01*
X326822Y297407D01*
X326874Y297443D01*
X326924Y297476D01*
X326974Y297506D01*
X327063Y297562D01*
X327140Y297609D01*
X327209Y297648D01*
X327268Y297681D01*
X327320Y297709D01*
X327362Y297731D01*
X327398Y297747D01*
X327428Y297761D01*
X327450Y297770D01*
X327467Y297775D01*
X327481Y297781D01*
X327489Y297783D01*
X327492D01*
X327495D01*
X327522Y297670D01*
D02*
G37*
G36*
X325197Y296976D02*
X325233Y296973D01*
X325269Y296965D01*
X325299Y296957D01*
X325327Y296946D01*
X325352Y296935D01*
X325374Y296921D01*
X325393Y296907D01*
X325424Y296882D01*
X325443Y296860D01*
X325457Y296843D01*
X325460Y296840D01*
Y296838D01*
X325488Y296782D01*
X325507Y296727D01*
X325521Y296674D01*
X325529Y296624D01*
X325535Y296583D01*
X325537Y296563D01*
X325540Y296550D01*
Y296519D01*
X325537Y296472D01*
X325535Y296425D01*
X325518Y296339D01*
X325493Y296264D01*
X325479Y296231D01*
X325465Y296200D01*
X325454Y296173D01*
X325441Y296148D01*
X325427Y296126D01*
X325416Y296109D01*
X325407Y296095D01*
X325399Y296084D01*
X325396Y296079D01*
X325393Y296076D01*
X325366Y296043D01*
X325335Y296015D01*
X325305Y295990D01*
X325274Y295968D01*
X325244Y295951D01*
X325211Y295935D01*
X325152Y295912D01*
X325100Y295901D01*
X325078Y295896D01*
X325058Y295893D01*
X325042Y295890D01*
X325030D01*
X325022D01*
X325020D01*
X324978Y295896D01*
X324945Y295907D01*
X324914Y295921D01*
X324889Y295940D01*
X324870Y295959D01*
X324856Y295973D01*
X324848Y295984D01*
X324845Y295990D01*
X324823Y296029D01*
X324809Y296070D01*
X324798Y296112D01*
X324790Y296153D01*
X324784Y296187D01*
X324781Y296217D01*
Y296331D01*
X324779Y296369D01*
Y296405D01*
X324776Y296439D01*
Y296469D01*
X324773Y296494D01*
X324770Y296519D01*
Y296538D01*
X324767Y296558D01*
Y296572D01*
X324765Y296583D01*
X324762Y296599D01*
Y296605D01*
X324751Y296641D01*
X324737Y296669D01*
X324720Y296685D01*
X324701Y296699D01*
X324687Y296707D01*
X324673Y296710D01*
X324662Y296713D01*
X324659D01*
X324640Y296710D01*
X324621Y296707D01*
X324590Y296696D01*
X324579Y296691D01*
X324571Y296688D01*
X324565Y296682D01*
X324562D01*
X324532Y296657D01*
X324510Y296633D01*
X324496Y296613D01*
X324490Y296610D01*
Y296608D01*
X324499Y296583D01*
X324507Y296558D01*
X324510Y296547D01*
X324513Y296538D01*
X324515Y296533D01*
Y296530D01*
X324521Y296491D01*
X324524Y296458D01*
Y296425D01*
X324521Y296386D01*
X324518Y296347D01*
X324504Y296278D01*
X324485Y296220D01*
X324460Y296170D01*
X324438Y296128D01*
X324427Y296112D01*
X324418Y296101D01*
X324410Y296090D01*
X324405Y296081D01*
X324399Y296079D01*
Y296076D01*
X324374Y296051D01*
X324349Y296031D01*
X324321Y296012D01*
X324294Y295998D01*
X324236Y295973D01*
X324183Y295957D01*
X324136Y295948D01*
X324116Y295943D01*
X324097D01*
X324083Y295940D01*
X324072D01*
X324067D01*
X324064D01*
X324031Y295943D01*
X324000Y295948D01*
X323989Y295951D01*
X323981Y295954D01*
X323975Y295957D01*
X323972D01*
X323939Y295971D01*
X323909Y295984D01*
X323898Y295990D01*
X323889Y295995D01*
X323884Y296001D01*
X323881D01*
X323870D01*
X323848Y295990D01*
X323828Y295976D01*
X323812Y295959D01*
X323795Y295943D01*
X323773Y295901D01*
X323759Y295854D01*
X323748Y295813D01*
X323745Y295777D01*
X323743Y295763D01*
Y295743D01*
X323648Y295716D01*
X323646Y295732D01*
X323643Y295746D01*
X323640Y295757D01*
Y295763D01*
X323637Y295785D01*
Y295832D01*
X323640Y295854D01*
X323643Y295879D01*
X323651Y295899D01*
X323657Y295918D01*
X323665Y295932D01*
X323673Y295943D01*
X323676Y295951D01*
X323679Y295954D01*
X323698Y295973D01*
X323720Y295993D01*
X323767Y296020D01*
X323790Y296031D01*
X323809Y296040D01*
X323820Y296043D01*
X323826Y296045D01*
Y296051D01*
X323801Y296092D01*
X323781Y296131D01*
X323776Y296148D01*
X323770Y296162D01*
X323767Y296170D01*
Y296173D01*
X323756Y296225D01*
X323754Y296253D01*
X323751Y296278D01*
X323748Y296300D01*
Y296372D01*
X323754Y296411D01*
X323767Y296480D01*
X323787Y296538D01*
X323806Y296588D01*
X323828Y296627D01*
X323839Y296644D01*
X323848Y296657D01*
X323856Y296666D01*
X323862Y296674D01*
X323864Y296677D01*
X323867Y296680D01*
X323889Y296702D01*
X323914Y296721D01*
X323970Y296755D01*
X324025Y296777D01*
X324078Y296791D01*
X324125Y296801D01*
X324144Y296804D01*
X324161D01*
X324177Y296807D01*
X324188D01*
X324194D01*
X324197D01*
X324224Y296804D01*
X324252Y296801D01*
X324277Y296796D01*
X324299Y296788D01*
X324319Y296782D01*
X324332Y296777D01*
X324344Y296774D01*
X324346Y296771D01*
X324371Y296757D01*
X324393Y296741D01*
X324410Y296727D01*
X324424Y296713D01*
X324432Y296702D01*
X324441Y296693D01*
X324443Y296688D01*
X324446Y296685D01*
X324452D01*
X324477Y296707D01*
X324499Y296729D01*
X324543Y296763D01*
X324585Y296785D01*
X324618Y296801D01*
X324645Y296810D01*
X324668Y296815D01*
X324679Y296818D01*
X324684D01*
X324707Y296815D01*
X324729Y296810D01*
X324745Y296804D01*
X324748Y296801D01*
X324751D01*
X324776Y296785D01*
X324792Y296765D01*
X324803Y296752D01*
X324806Y296749D01*
Y296746D01*
X324809D01*
X324828Y296785D01*
X324851Y296821D01*
X324875Y296849D01*
X324898Y296874D01*
X324917Y296893D01*
X324934Y296907D01*
X324945Y296915D01*
X324947Y296918D01*
X324981Y296937D01*
X325017Y296954D01*
X325053Y296965D01*
X325083Y296971D01*
X325114Y296976D01*
X325136Y296979D01*
X325150D01*
X325152D01*
X325155D01*
X325197Y296976D01*
D02*
G37*
G36*
X327063Y296681D02*
X327088Y296673D01*
X327101Y296664D01*
X327107Y296662D01*
X327121Y296639D01*
X327126Y296617D01*
X327129Y296606D01*
Y296590D01*
X327126Y296570D01*
X327124Y296554D01*
X327110Y296526D01*
X327096Y296509D01*
X327093Y296504D01*
X327090D01*
X327074Y296493D01*
X327060Y296484D01*
X327027Y296473D01*
X327013D01*
X327002Y296470D01*
X326996D01*
X326993D01*
X326963Y296473D01*
X326941Y296482D01*
X326930Y296490D01*
X326924Y296493D01*
X326907Y296512D01*
X326899Y296534D01*
X326896Y296551D01*
Y296559D01*
X326899Y296579D01*
X326902Y296598D01*
X326913Y296626D01*
X326921Y296637D01*
X326927Y296645D01*
X326930Y296648D01*
X326932Y296651D01*
X326946Y296662D01*
X326960Y296670D01*
X326991Y296678D01*
X327004Y296681D01*
X327015Y296684D01*
X327024D01*
X327027D01*
X327046D01*
X327063Y296681D01*
D02*
G37*
G36*
X326711Y296013D02*
X326783Y296002D01*
X326849Y295986D01*
X326902Y295966D01*
X326924Y295955D01*
X326943Y295947D01*
X326963Y295939D01*
X326977Y295930D01*
X326988Y295922D01*
X326996Y295919D01*
X326999Y295914D01*
X327002D01*
X327027Y295892D01*
X327046Y295869D01*
X327065Y295847D01*
X327082Y295822D01*
X327107Y295770D01*
X327124Y295720D01*
X327132Y295675D01*
X327135Y295656D01*
X327137Y295639D01*
X327140Y295626D01*
Y295606D01*
X327137Y295570D01*
X327135Y295534D01*
X327121Y295471D01*
X327101Y295415D01*
X327077Y295365D01*
X327054Y295329D01*
X327035Y295299D01*
X327027Y295290D01*
X327021Y295282D01*
X327015Y295279D01*
Y295277D01*
X326966Y295232D01*
X326916Y295194D01*
X326866Y295160D01*
X326819Y295133D01*
X326777Y295113D01*
X326758Y295105D01*
X326744Y295099D01*
X326730Y295094D01*
X326722Y295091D01*
X326716Y295088D01*
X326714D01*
X326647Y295069D01*
X326586Y295052D01*
X326531Y295041D01*
X326478Y295036D01*
X326437Y295030D01*
X326420D01*
X326406Y295027D01*
X326395D01*
X326387D01*
X326381D01*
X326378D01*
X326298Y295036D01*
X326226Y295047D01*
X326162Y295066D01*
X326113Y295086D01*
X326090Y295094D01*
X326071Y295102D01*
X326054Y295113D01*
X326041Y295119D01*
X326029Y295127D01*
X326021Y295130D01*
X326018Y295135D01*
X326016D01*
X325991Y295155D01*
X325971Y295177D01*
X325952Y295199D01*
X325938Y295227D01*
X325913Y295277D01*
X325897Y295329D01*
X325888Y295376D01*
X325883Y295398D01*
Y295415D01*
X325880Y295429D01*
Y295484D01*
X325885Y295515D01*
X325899Y295576D01*
X325919Y295628D01*
X325941Y295673D01*
X325963Y295711D01*
X325982Y295739D01*
X325991Y295748D01*
X325996Y295756D01*
X325999Y295759D01*
X326002Y295761D01*
X326049Y295806D01*
X326099Y295845D01*
X326146Y295878D01*
X326193Y295905D01*
X326234Y295928D01*
X326265Y295941D01*
X326279Y295947D01*
X326287Y295953D01*
X326293Y295955D01*
X326295D01*
X326359Y295977D01*
X326420Y295991D01*
X326478Y296002D01*
X326528Y296011D01*
X326570Y296016D01*
X326586D01*
X326600Y296019D01*
X326611D01*
X326619D01*
X326625D01*
X326628D01*
X326711Y296013D01*
D02*
G37*
G36*
X324934Y295752D02*
X324939Y295719D01*
X324942Y295702D01*
Y295691D01*
X324945Y295683D01*
Y295680D01*
X324950Y295630D01*
X324953Y295608D01*
Y295585D01*
X324956Y295569D01*
Y295544D01*
X324953Y295497D01*
X324950Y295455D01*
X324942Y295417D01*
X324931Y295380D01*
X324920Y295347D01*
X324906Y295317D01*
X324892Y295289D01*
X324875Y295264D01*
X324862Y295245D01*
X324848Y295225D01*
X324834Y295212D01*
X324823Y295200D01*
X324812Y295189D01*
X324803Y295184D01*
X324801Y295178D01*
X324798D01*
X324765Y295159D01*
X324729Y295140D01*
X324690Y295123D01*
X324648Y295106D01*
X324560Y295081D01*
X324474Y295059D01*
X324435Y295051D01*
X324396Y295045D01*
X324360Y295037D01*
X324330Y295034D01*
X324308Y295031D01*
X324288Y295029D01*
X324274Y295026D01*
X324272D01*
X324205Y295018D01*
X324141Y295012D01*
X324083Y295004D01*
X324028Y294998D01*
X323975Y294993D01*
X323928Y294987D01*
X323884Y294982D01*
X323845Y294976D01*
X323809Y294973D01*
X323779Y294971D01*
X323754Y294968D01*
X323731Y294965D01*
X323715Y294962D01*
X323704Y294959D01*
X323695D01*
X323693D01*
X323615Y294951D01*
X323549Y294943D01*
X323493Y294935D01*
X323446Y294926D01*
X323410Y294921D01*
X323385Y294915D01*
X323369Y294912D01*
X323363D01*
Y295045D01*
X323471Y295051D01*
X323524Y295054D01*
X323571Y295059D01*
X323612Y295062D01*
X323629Y295065D01*
X323646D01*
X323657D01*
X323665Y295068D01*
X323671D01*
X323673D01*
X323707Y295070D01*
X323743Y295073D01*
X323817Y295081D01*
X323892Y295090D01*
X323967Y295098D01*
X324000Y295104D01*
X324033Y295106D01*
X324061Y295109D01*
X324086Y295112D01*
X324105Y295115D01*
X324119D01*
X324130Y295117D01*
X324133D01*
X324296Y295134D01*
X324352Y295140D01*
X324402Y295148D01*
X324446Y295156D01*
X324490Y295164D01*
X324529Y295176D01*
X324565Y295184D01*
X324596Y295195D01*
X324623Y295203D01*
X324648Y295212D01*
X324670Y295223D01*
X324690Y295228D01*
X324704Y295236D01*
X324715Y295242D01*
X324723Y295248D01*
X324726Y295250D01*
X324729D01*
X324751Y295267D01*
X324770Y295286D01*
X324803Y295333D01*
X324826Y295380D01*
X324842Y295430D01*
X324851Y295475D01*
X324856Y295494D01*
Y295511D01*
X324859Y295525D01*
Y295544D01*
X324856Y295585D01*
X324853Y295624D01*
X324851Y295638D01*
Y295649D01*
X324848Y295657D01*
Y295660D01*
X324837Y295699D01*
X324828Y295730D01*
X324823Y295741D01*
X324820Y295749D01*
X324817Y295755D01*
Y295757D01*
X324925Y295785D01*
X324934Y295752D01*
D02*
G37*
G36*
X324922Y294563D02*
X324809Y294555D01*
X324756Y294552D01*
X324707Y294547D01*
X324662Y294544D01*
X324618Y294538D01*
X324576Y294536D01*
X324540Y294533D01*
X324507Y294530D01*
X324479Y294527D01*
X324454Y294525D01*
X324432Y294522D01*
X324416D01*
X324405Y294519D01*
X324396D01*
X324393D01*
X324241Y294502D01*
X324180Y294497D01*
X324122Y294491D01*
X324069Y294486D01*
X324022Y294480D01*
X323978Y294475D01*
X323939Y294472D01*
X323906Y294469D01*
X323873Y294466D01*
X323848Y294464D01*
X323826D01*
X323806Y294461D01*
X323790D01*
X323779Y294458D01*
X323770D01*
X323767D01*
X323765D01*
X323792Y294583D01*
X323839D01*
X323889Y294586D01*
X323939D01*
X323989Y294588D01*
X324033Y294591D01*
X324053D01*
X324069D01*
X324083Y294594D01*
X324094D01*
X324100D01*
X324103D01*
X324172Y294597D01*
X324230Y294602D01*
X324280Y294605D01*
X324321Y294611D01*
X324352Y294613D01*
X324377Y294616D01*
X324388Y294619D01*
X324393D01*
X324501Y294630D01*
X324560Y294635D01*
X324615Y294641D01*
X324662Y294647D01*
X324707Y294652D01*
X324745Y294658D01*
X324781Y294660D01*
X324812Y294666D01*
X324839Y294669D01*
X324864Y294671D01*
X324884Y294674D01*
X324900D01*
X324911Y294677D01*
X324922D01*
X324928Y294680D01*
X324934D01*
X324922Y294563D01*
D02*
G37*
G36*
X323477Y294580D02*
X323496Y294572D01*
X323513Y294558D01*
X323521Y294544D01*
X323526Y294530D01*
X323529Y294516D01*
X323532Y294508D01*
Y294505D01*
X323526Y294475D01*
X323515Y294450D01*
X323496Y294433D01*
X323477Y294422D01*
X323457Y294417D01*
X323438Y294411D01*
X323427D01*
X323421D01*
X323391Y294414D01*
X323369Y294422D01*
X323355Y294436D01*
X323344Y294450D01*
X323338Y294464D01*
X323333Y294478D01*
Y294489D01*
X323338Y294519D01*
X323352Y294544D01*
X323369Y294561D01*
X323391Y294572D01*
X323413Y294577D01*
X323429Y294580D01*
X323443Y294583D01*
X323449D01*
X323477Y294580D01*
D02*
G37*
G36*
X324922Y294034D02*
X324903Y294032D01*
X324878D01*
X324851Y294029D01*
X324820Y294026D01*
X324759Y294023D01*
X324693Y294018D01*
X324634Y294015D01*
X324607Y294012D01*
X324585D01*
X324565D01*
X324551Y294009D01*
X324540D01*
X324537D01*
X324485Y294004D01*
X324435Y293998D01*
X324338Y293976D01*
X324296Y293965D01*
X324255Y293951D01*
X324219Y293937D01*
X324183Y293923D01*
X324152Y293910D01*
X324128Y293896D01*
X324103Y293885D01*
X324083Y293874D01*
X324067Y293865D01*
X324056Y293857D01*
X324050Y293854D01*
X324047Y293851D01*
X324011Y293824D01*
X323981Y293799D01*
X323953Y293771D01*
X323928Y293743D01*
X323909Y293719D01*
X323892Y293691D01*
X323878Y293669D01*
X323867Y293644D01*
X323853Y293605D01*
X323848Y293586D01*
X323845Y293572D01*
X323842Y293561D01*
Y293544D01*
X323845Y293497D01*
X323853Y293458D01*
X323864Y293425D01*
X323875Y293400D01*
X323886Y293381D01*
X323898Y293367D01*
X323906Y293358D01*
X323909Y293356D01*
X323936Y293336D01*
X323970Y293322D01*
X324003Y293314D01*
X324039Y293306D01*
X324072Y293303D01*
X324097Y293300D01*
X324108D01*
X324116D01*
X324119D01*
X324122D01*
X324202D01*
X324288Y293306D01*
X324371Y293309D01*
X324446Y293314D01*
X324482Y293317D01*
X324515Y293320D01*
X324543Y293322D01*
X324568Y293325D01*
X324587Y293328D01*
X324601D01*
X324612Y293331D01*
X324615D01*
X324665Y293336D01*
X324709Y293342D01*
X324748Y293345D01*
X324784Y293347D01*
X324815Y293350D01*
X324839Y293353D01*
X324862Y293356D01*
X324881Y293358D01*
X324895D01*
X324906D01*
X324922Y293361D01*
X324931D01*
X324934D01*
X324922Y293239D01*
X324839D01*
X324756Y293237D01*
X324676Y293231D01*
X324601Y293228D01*
X324568Y293226D01*
X324537Y293223D01*
X324510D01*
X324488Y293220D01*
X324468D01*
X324454Y293217D01*
X324446D01*
X324443D01*
X324396Y293214D01*
X324355Y293209D01*
X324316Y293206D01*
X324280Y293203D01*
X324249D01*
X324222Y293201D01*
X324197Y293198D01*
X324177D01*
X324158D01*
X324144Y293195D01*
X324122D01*
X324108D01*
X324105D01*
X324042Y293198D01*
X323986Y293206D01*
X323942Y293220D01*
X323903Y293234D01*
X323875Y293250D01*
X323853Y293262D01*
X323839Y293273D01*
X323837Y293275D01*
X323806Y293309D01*
X323784Y293347D01*
X323770Y293386D01*
X323759Y293425D01*
X323754Y293458D01*
X323748Y293489D01*
Y293514D01*
X323751Y293566D01*
X323759Y293613D01*
X323773Y293658D01*
X323787Y293696D01*
X323803Y293727D01*
X323815Y293752D01*
X323826Y293766D01*
X323828Y293771D01*
X323862Y293813D01*
X323900Y293849D01*
X323942Y293879D01*
X323981Y293907D01*
X324017Y293929D01*
X324044Y293943D01*
X324056Y293949D01*
X324064Y293954D01*
X324069Y293957D01*
X324072D01*
Y293959D01*
X324006D01*
X323948D01*
X323895Y293962D01*
X323850D01*
X323812Y293965D01*
X323784D01*
X323776Y293968D01*
X323767D01*
X323765D01*
X323762D01*
X323790Y294090D01*
X323842Y294084D01*
X323895Y294079D01*
X323948Y294076D01*
X323995Y294073D01*
X324036Y294070D01*
X324053D01*
X324069D01*
X324080D01*
X324089D01*
X324094D01*
X324097D01*
X324144D01*
X324200Y294073D01*
X324260Y294079D01*
X324324Y294084D01*
X324393Y294090D01*
X324463Y294095D01*
X324601Y294112D01*
X324668Y294120D01*
X324729Y294126D01*
X324787Y294134D01*
X324834Y294140D01*
X324875Y294145D01*
X324892Y294148D01*
X324906Y294151D01*
X324917D01*
X324925Y294153D01*
X324931D01*
X324934D01*
X324922Y294034D01*
D02*
G37*
G36*
X327600Y294869D02*
X327592Y294806D01*
X327583Y294745D01*
X327572Y294687D01*
X327561Y294634D01*
X327550Y294584D01*
X327539Y294537D01*
X327525Y294493D01*
X327514Y294454D01*
X327503Y294421D01*
X327492Y294390D01*
X327481Y294363D01*
X327473Y294340D01*
X327467Y294324D01*
X327462Y294313D01*
X327456Y294304D01*
Y294302D01*
X327437Y294263D01*
X327414Y294227D01*
X327395Y294191D01*
X327373Y294160D01*
X327354Y294133D01*
X327334Y294108D01*
X327298Y294066D01*
X327265Y294036D01*
X327240Y294014D01*
X327223Y294000D01*
X327221Y293997D01*
X327218D01*
X327165Y293966D01*
X327113Y293944D01*
X327063Y293930D01*
X327013Y293919D01*
X326971Y293914D01*
X326955Y293911D01*
X326941Y293908D01*
X326927D01*
X326919D01*
X326913D01*
X326910D01*
X326852Y293914D01*
X326802Y293925D01*
X326761Y293939D01*
X326725Y293958D01*
X326697Y293977D01*
X326678Y293991D01*
X326664Y294003D01*
X326661Y294008D01*
X326630Y294047D01*
X326606Y294091D01*
X326586Y294135D01*
X326570Y294177D01*
X326558Y294216D01*
X326550Y294246D01*
X326547Y294257D01*
X326545Y294266D01*
Y294274D01*
X326536D01*
X326514Y294216D01*
X326489Y294160D01*
X326464Y294116D01*
X326439Y294075D01*
X326414Y294044D01*
X326395Y294022D01*
X326384Y294008D01*
X326378Y294003D01*
X326337Y293966D01*
X326295Y293939D01*
X326257Y293919D01*
X326220Y293908D01*
X326190Y293900D01*
X326165Y293897D01*
X326149Y293894D01*
X326143D01*
X326090Y293900D01*
X326046Y293911D01*
X326007Y293925D01*
X325977Y293944D01*
X325955Y293964D01*
X325938Y293977D01*
X325927Y293989D01*
X325924Y293994D01*
X325899Y294036D01*
X325883Y294080D01*
X325869Y294127D01*
X325860Y294174D01*
X325855Y294216D01*
X325852Y294249D01*
Y294280D01*
X325855Y294340D01*
X325858Y294401D01*
X325866Y294460D01*
X325871Y294512D01*
X325880Y294556D01*
X325883Y294576D01*
X325888Y294592D01*
X325891Y294606D01*
Y294617D01*
X325894Y294623D01*
Y294626D01*
X325996Y294648D01*
X325988Y294606D01*
X325982Y294570D01*
X325977Y294534D01*
X325971Y294504D01*
X325966Y294473D01*
X325963Y294448D01*
X325957Y294404D01*
X325955Y294368D01*
X325952Y294346D01*
Y294326D01*
X325955Y294263D01*
X325960Y294210D01*
X325969Y294166D01*
X325977Y294133D01*
X325985Y294105D01*
X325993Y294088D01*
X325999Y294077D01*
X326002Y294075D01*
X326021Y294050D01*
X326046Y294033D01*
X326068Y294019D01*
X326090Y294011D01*
X326113Y294005D01*
X326129Y294003D01*
X326140D01*
X326143D01*
X326173Y294005D01*
X326201Y294011D01*
X326226Y294019D01*
X326251Y294030D01*
X326298Y294058D01*
X326334Y294088D01*
X326365Y294119D01*
X326387Y294146D01*
X326395Y294158D01*
X326401Y294166D01*
X326406Y294171D01*
Y294174D01*
X326439Y294241D01*
X326464Y294310D01*
X326484Y294376D01*
X326495Y294440D01*
X326500Y294468D01*
X326503Y294496D01*
X326506Y294518D01*
Y294540D01*
X326509Y294556D01*
Y294579D01*
X326608Y294612D01*
Y294556D01*
X326611Y294504D01*
X326617Y294454D01*
X326619Y294410D01*
X326625Y294371D01*
X326633Y294332D01*
X326639Y294299D01*
X326647Y294268D01*
X326655Y294243D01*
X326661Y294221D01*
X326666Y294202D01*
X326675Y294188D01*
X326678Y294174D01*
X326683Y294166D01*
X326686Y294163D01*
Y294160D01*
X326700Y294135D01*
X326719Y294113D01*
X326736Y294094D01*
X326758Y294077D01*
X326800Y294052D01*
X326841Y294033D01*
X326877Y294025D01*
X326910Y294019D01*
X326921Y294016D01*
X326930D01*
X326935D01*
X326938D01*
X326988Y294019D01*
X327035Y294027D01*
X327074Y294041D01*
X327110Y294055D01*
X327140Y294069D01*
X327160Y294083D01*
X327173Y294091D01*
X327179Y294094D01*
X327218Y294127D01*
X327254Y294166D01*
X327287Y294207D01*
X327318Y294249D01*
X327342Y294288D01*
X327359Y294318D01*
X327367Y294332D01*
X327370Y294340D01*
X327376Y294346D01*
Y294349D01*
X327392Y294385D01*
X327406Y294424D01*
X327434Y294507D01*
X327456Y294595D01*
X327473Y294681D01*
X327481Y294723D01*
X327486Y294759D01*
X327492Y294795D01*
X327495Y294822D01*
X327500Y294847D01*
Y294864D01*
X327503Y294878D01*
Y294881D01*
X327600Y294869D01*
D02*
G37*
%LPC*%
G36*
X324028Y304544D02*
X323970Y304538D01*
X323914Y304530D01*
X323864Y304524D01*
X323820Y304521D01*
X323781Y304516D01*
X323745Y304510D01*
X323712Y304508D01*
X323684Y304505D01*
X323662Y304499D01*
X323640D01*
X323623Y304497D01*
X323609Y304494D01*
X323601D01*
X323593Y304491D01*
X323587D01*
X323549Y304486D01*
X323518Y304480D01*
X323496Y304477D01*
X323482D01*
X323471Y304474D01*
X323465D01*
X323463D01*
X323457Y304430D01*
X323454Y304391D01*
X323452Y304375D01*
Y304328D01*
X323449Y304297D01*
Y304172D01*
X323452Y304114D01*
X323460Y304064D01*
X323471Y304020D01*
X323488Y303984D01*
X323507Y303951D01*
X323529Y303926D01*
X323551Y303904D01*
X323576Y303887D01*
X323601Y303873D01*
X323623Y303862D01*
X323646Y303857D01*
X323665Y303851D01*
X323679Y303848D01*
X323693Y303846D01*
X323701D01*
X323704D01*
X323734D01*
X323765Y303851D01*
X323817Y303865D01*
X323859Y303884D01*
X323895Y303904D01*
X323923Y303926D01*
X323942Y303945D01*
X323953Y303959D01*
X323956Y303962D01*
Y303965D01*
X323970Y303990D01*
X323981Y304017D01*
X324000Y304078D01*
X324014Y304145D01*
X324022Y304211D01*
X324028Y304272D01*
X324031Y304300D01*
X324033Y304322D01*
Y304369D01*
X324031Y304447D01*
X324028Y304488D01*
Y304544D01*
D02*
G37*
G36*
X324820Y304621D02*
X324773Y304619D01*
X324723Y304613D01*
X324670Y304607D01*
X324615Y304602D01*
X324499Y304591D01*
X324388Y304580D01*
X324335Y304574D01*
X324285Y304571D01*
X324241Y304566D01*
X324202Y304563D01*
X324172Y304560D01*
X324147Y304557D01*
X324133Y304555D01*
X324128D01*
X324125Y304513D01*
Y304408D01*
X324122Y304380D01*
Y304264D01*
X324125Y304192D01*
X324136Y304125D01*
X324150Y304070D01*
X324164Y304026D01*
X324180Y303987D01*
X324194Y303962D01*
X324205Y303945D01*
X324208Y303940D01*
X324224Y303918D01*
X324241Y303901D01*
X324277Y303871D01*
X324316Y303848D01*
X324352Y303835D01*
X324385Y303826D01*
X324410Y303823D01*
X324421Y303821D01*
X324429D01*
X324432D01*
X324435D01*
X324468Y303823D01*
X324501Y303826D01*
X324560Y303846D01*
X324609Y303871D01*
X324651Y303898D01*
X324684Y303926D01*
X324709Y303951D01*
X324723Y303970D01*
X324729Y303973D01*
Y303976D01*
X324765Y304037D01*
X324790Y304103D01*
X324809Y304170D01*
X324820Y304234D01*
X324826Y304264D01*
X324828Y304292D01*
X324831Y304314D01*
Y304336D01*
X324834Y304353D01*
Y304427D01*
X324831Y304474D01*
X324828Y304516D01*
X324826Y304552D01*
Y304580D01*
X324823Y304602D01*
X324820Y304616D01*
Y304621D01*
D02*
G37*
G36*
X326653Y302828D02*
X326639D01*
X326628D01*
X326622D01*
X326619D01*
X326578D01*
X326534Y302825D01*
X326489Y302819D01*
X326445Y302811D01*
X326406Y302800D01*
X326370Y302792D01*
X326345Y302783D01*
X326334Y302781D01*
X326326Y302778D01*
X326323Y302775D01*
X326320D01*
X326268Y302753D01*
X326220Y302731D01*
X326179Y302706D01*
X326143Y302681D01*
X326113Y302659D01*
X326093Y302642D01*
X326079Y302631D01*
X326074Y302625D01*
X326041Y302587D01*
X326016Y302545D01*
X325996Y302504D01*
X325985Y302462D01*
X325977Y302429D01*
X325974Y302401D01*
X325971Y302390D01*
Y302376D01*
X325977Y302315D01*
X325988Y302265D01*
X326007Y302224D01*
X326027Y302188D01*
X326049Y302163D01*
X326068Y302144D01*
X326079Y302132D01*
X326085Y302130D01*
X326132Y302105D01*
X326182Y302085D01*
X326237Y302071D01*
X326287Y302060D01*
X326334Y302055D01*
X326354D01*
X326373Y302052D01*
X326387D01*
X326398D01*
X326403D01*
X326406D01*
X326456Y302058D01*
X326503Y302063D01*
X326550Y302071D01*
X326594Y302082D01*
X326630Y302091D01*
X326658Y302096D01*
X326669Y302099D01*
X326678Y302102D01*
X326680Y302105D01*
X326683D01*
X326736Y302124D01*
X326786Y302146D01*
X326827Y302171D01*
X326866Y302193D01*
X326896Y302216D01*
X326919Y302235D01*
X326932Y302246D01*
X326938Y302252D01*
X326974Y302290D01*
X327002Y302335D01*
X327018Y302379D01*
X327032Y302418D01*
X327041Y302456D01*
X327043Y302484D01*
X327046Y302495D01*
Y302512D01*
X327041Y302573D01*
X327029Y302623D01*
X327010Y302667D01*
X326991Y302700D01*
X326971Y302725D01*
X326952Y302745D01*
X326941Y302756D01*
X326935Y302758D01*
X326888Y302781D01*
X326838Y302797D01*
X326786Y302811D01*
X326736Y302819D01*
X326689Y302825D01*
X326669D01*
X326653Y302828D01*
D02*
G37*
G36*
X324540Y299164D02*
X324529D01*
X324521D01*
X324515D01*
X324513D01*
X324468Y299162D01*
X324424Y299156D01*
X324382Y299148D01*
X324341Y299137D01*
X324269Y299112D01*
X324236Y299095D01*
X324202Y299078D01*
X324175Y299065D01*
X324150Y299048D01*
X324130Y299034D01*
X324111Y299020D01*
X324097Y299012D01*
X324086Y299004D01*
X324080Y298998D01*
X324078Y298995D01*
X324044Y298962D01*
X324014Y298923D01*
X323986Y298885D01*
X323964Y298843D01*
X323945Y298801D01*
X323928Y298757D01*
X323917Y298716D01*
X323906Y298674D01*
X323898Y298635D01*
X323889Y298599D01*
X323886Y298566D01*
X323881Y298536D01*
Y298513D01*
X323878Y298494D01*
Y298480D01*
X323953Y298483D01*
X324031Y298491D01*
X324105Y298502D01*
X324175Y298513D01*
X324208Y298519D01*
X324238Y298524D01*
X324263Y298527D01*
X324285Y298533D01*
X324305Y298536D01*
X324319Y298538D01*
X324327Y298541D01*
X324330D01*
X324377Y298552D01*
X324421Y298566D01*
X324463Y298577D01*
X324501Y298594D01*
X324537Y298608D01*
X324568Y298624D01*
X324598Y298638D01*
X324623Y298652D01*
X324648Y298669D01*
X324668Y298680D01*
X324684Y298693D01*
X324698Y298702D01*
X324709Y298713D01*
X324717Y298718D01*
X324720Y298721D01*
X324723Y298724D01*
X324745Y298746D01*
X324765Y298768D01*
X324798Y298813D01*
X324820Y298851D01*
X324837Y298885D01*
X324845Y298915D01*
X324851Y298935D01*
X324853Y298948D01*
Y298954D01*
X324851Y298993D01*
X324839Y299023D01*
X324828Y299051D01*
X324812Y299076D01*
X324798Y299092D01*
X324784Y299103D01*
X324776Y299112D01*
X324773Y299114D01*
X324737Y299131D01*
X324698Y299142D01*
X324654Y299153D01*
X324612Y299159D01*
X324573Y299162D01*
X324540Y299164D01*
D02*
G37*
G36*
X326653Y298883D02*
X326639D01*
X326628D01*
X326622D01*
X326619D01*
X326578D01*
X326534Y298880D01*
X326489Y298875D01*
X326445Y298867D01*
X326406Y298855D01*
X326370Y298847D01*
X326345Y298839D01*
X326334Y298836D01*
X326326Y298833D01*
X326323Y298831D01*
X326320D01*
X326268Y298808D01*
X326220Y298786D01*
X326179Y298761D01*
X326143Y298736D01*
X326113Y298714D01*
X326093Y298698D01*
X326079Y298687D01*
X326074Y298681D01*
X326041Y298642D01*
X326016Y298601D01*
X325996Y298559D01*
X325985Y298518D01*
X325977Y298484D01*
X325974Y298457D01*
X325971Y298446D01*
Y298432D01*
X325977Y298371D01*
X325988Y298321D01*
X326007Y298279D01*
X326027Y298243D01*
X326049Y298218D01*
X326068Y298199D01*
X326079Y298188D01*
X326085Y298185D01*
X326132Y298160D01*
X326182Y298141D01*
X326237Y298127D01*
X326287Y298116D01*
X326334Y298110D01*
X326354D01*
X326373Y298108D01*
X326387D01*
X326398D01*
X326403D01*
X326406D01*
X326456Y298113D01*
X326503Y298119D01*
X326550Y298127D01*
X326594Y298138D01*
X326630Y298146D01*
X326658Y298152D01*
X326669Y298155D01*
X326678Y298158D01*
X326680Y298160D01*
X326683D01*
X326736Y298180D01*
X326786Y298202D01*
X326827Y298227D01*
X326866Y298249D01*
X326896Y298271D01*
X326919Y298290D01*
X326932Y298302D01*
X326938Y298307D01*
X326974Y298346D01*
X327002Y298390D01*
X327018Y298434D01*
X327032Y298473D01*
X327041Y298512D01*
X327043Y298540D01*
X327046Y298551D01*
Y298567D01*
X327041Y298628D01*
X327029Y298678D01*
X327010Y298723D01*
X326991Y298756D01*
X326971Y298781D01*
X326952Y298800D01*
X326941Y298811D01*
X326935Y298814D01*
X326888Y298836D01*
X326838Y298853D01*
X326786Y298867D01*
X326736Y298875D01*
X326689Y298880D01*
X326669D01*
X326653Y298883D01*
D02*
G37*
G36*
X324200Y296702D02*
X324183D01*
X324180D01*
X324177D01*
X324122Y296699D01*
X324072Y296688D01*
X324031Y296674D01*
X323995Y296655D01*
X323967Y296638D01*
X323945Y296624D01*
X323934Y296613D01*
X323928Y296610D01*
X323895Y296574D01*
X323873Y296533D01*
X323856Y296491D01*
X323842Y296452D01*
X323837Y296416D01*
X323834Y296386D01*
X323831Y296375D01*
Y296328D01*
X323834Y296297D01*
X323842Y296245D01*
X323853Y296200D01*
X323864Y296167D01*
X323875Y296142D01*
X323886Y296126D01*
X323895Y296115D01*
X323898Y296112D01*
X323925Y296090D01*
X323956Y296073D01*
X323989Y296062D01*
X324025Y296054D01*
X324056Y296048D01*
X324080Y296045D01*
X324097D01*
X324100D01*
X324103D01*
X324155Y296051D01*
X324202Y296062D01*
X324241Y296076D01*
X324277Y296095D01*
X324305Y296115D01*
X324324Y296128D01*
X324335Y296140D01*
X324341Y296145D01*
X324371Y296187D01*
X324393Y296231D01*
X324410Y296275D01*
X324421Y296320D01*
X324427Y296361D01*
X324429Y296392D01*
X324432Y296405D01*
Y296422D01*
X324429Y296472D01*
X324424Y296514D01*
X324413Y296550D01*
X324402Y296580D01*
X324391Y296602D01*
X324380Y296619D01*
X324374Y296630D01*
X324371Y296633D01*
X324346Y296655D01*
X324316Y296671D01*
X324283Y296685D01*
X324252Y296693D01*
X324222Y296699D01*
X324200Y296702D01*
D02*
G37*
G36*
X325152Y296879D02*
X325144D01*
X325141D01*
X325139D01*
X325108Y296876D01*
X325078Y296871D01*
X325053Y296860D01*
X325025Y296849D01*
X324978Y296818D01*
X324939Y296779D01*
X324906Y296743D01*
X324884Y296713D01*
X324875Y296702D01*
X324870Y296691D01*
X324864Y296685D01*
Y296682D01*
X324870Y296638D01*
X324873Y296594D01*
X324878Y296555D01*
Y296519D01*
X324881Y296488D01*
Y296347D01*
X324884Y296306D01*
X324886Y296267D01*
X324889Y296234D01*
X324892Y296203D01*
X324895Y296178D01*
X324898Y296153D01*
X324900Y296134D01*
X324903Y296120D01*
X324906Y296106D01*
X324909Y296095D01*
X324911Y296081D01*
X324914Y296079D01*
X324928Y296051D01*
X324950Y296031D01*
X324972Y296015D01*
X324997Y296007D01*
X325020Y296001D01*
X325039Y295995D01*
X325053D01*
X325058D01*
X325086Y295998D01*
X325116Y296001D01*
X325166Y296018D01*
X325213Y296043D01*
X325255Y296070D01*
X325288Y296098D01*
X325313Y296123D01*
X325327Y296140D01*
X325330Y296142D01*
X325332Y296145D01*
X325371Y296203D01*
X325399Y296267D01*
X325421Y296328D01*
X325435Y296386D01*
X325443Y296436D01*
X325446Y296458D01*
Y296478D01*
X325449Y296491D01*
Y296514D01*
X325446Y296580D01*
X325438Y296638D01*
X325424Y296688D01*
X325410Y296727D01*
X325396Y296755D01*
X325382Y296777D01*
X325374Y296788D01*
X325371Y296793D01*
X325338Y296821D01*
X325302Y296843D01*
X325263Y296857D01*
X325224Y296868D01*
X325191Y296874D01*
X325164Y296876D01*
X325152Y296879D01*
D02*
G37*
G36*
X326653Y295911D02*
X326639D01*
X326628D01*
X326622D01*
X326619D01*
X326578D01*
X326534Y295908D01*
X326489Y295903D01*
X326445Y295894D01*
X326406Y295883D01*
X326370Y295875D01*
X326345Y295867D01*
X326334Y295864D01*
X326326Y295861D01*
X326323Y295858D01*
X326320D01*
X326268Y295836D01*
X326220Y295814D01*
X326179Y295789D01*
X326143Y295764D01*
X326113Y295742D01*
X326093Y295725D01*
X326079Y295714D01*
X326074Y295709D01*
X326041Y295670D01*
X326016Y295628D01*
X325996Y295587D01*
X325985Y295545D01*
X325977Y295512D01*
X325974Y295484D01*
X325971Y295473D01*
Y295460D01*
X325977Y295398D01*
X325988Y295349D01*
X326007Y295307D01*
X326027Y295271D01*
X326049Y295246D01*
X326068Y295227D01*
X326079Y295216D01*
X326085Y295213D01*
X326132Y295188D01*
X326182Y295169D01*
X326237Y295155D01*
X326287Y295144D01*
X326334Y295138D01*
X326354D01*
X326373Y295135D01*
X326387D01*
X326398D01*
X326403D01*
X326406D01*
X326456Y295141D01*
X326503Y295146D01*
X326550Y295155D01*
X326594Y295166D01*
X326630Y295174D01*
X326658Y295180D01*
X326669Y295182D01*
X326678Y295185D01*
X326680Y295188D01*
X326683D01*
X326736Y295207D01*
X326786Y295230D01*
X326827Y295254D01*
X326866Y295277D01*
X326896Y295299D01*
X326919Y295318D01*
X326932Y295329D01*
X326938Y295335D01*
X326974Y295374D01*
X327002Y295418D01*
X327018Y295462D01*
X327032Y295501D01*
X327041Y295540D01*
X327043Y295567D01*
X327046Y295579D01*
Y295595D01*
X327041Y295656D01*
X327029Y295706D01*
X327010Y295750D01*
X326991Y295784D01*
X326971Y295809D01*
X326952Y295828D01*
X326941Y295839D01*
X326935Y295842D01*
X326888Y295864D01*
X326838Y295881D01*
X326786Y295894D01*
X326736Y295903D01*
X326689Y295908D01*
X326669D01*
X326653Y295911D01*
D02*
G37*
%LPD*%
D16*
X323929Y273154D02*
X327472D01*
X323929Y279650D02*
X327472D01*
Y273154D02*
Y279650D01*
X323929Y273154D02*
Y279650D01*
X365700Y260400D02*
Y261600D01*
X362354Y259228D02*
Y262771D01*
X369045Y259228D02*
X369046Y259229D01*
Y262771D01*
X366700D02*
X369046D01*
X362354D02*
X364700D01*
X366700Y259229D02*
X369046D01*
X362354D02*
X364700D01*
X373529Y270654D02*
X377072D01*
X373529Y277150D02*
X377072D01*
Y270654D02*
Y277150D01*
X373529Y270654D02*
Y277150D01*
X340100Y305100D02*
Y306300D01*
X343446Y303929D02*
Y307472D01*
X336754Y307471D02*
X336754Y307472D01*
X336754Y303929D02*
Y307471D01*
Y303929D02*
X339100D01*
X341100D02*
X343446D01*
X336754Y307471D02*
X339100D01*
X341100D02*
X343446D01*
X349600Y260400D02*
Y261600D01*
X352946Y259229D02*
Y262772D01*
X346254Y262771D02*
X346254Y262772D01*
X346254Y259229D02*
Y262771D01*
Y259229D02*
X348600D01*
X350600D02*
X352946D01*
X346254Y262771D02*
X348600D01*
X350600D02*
X352946D01*
D40*
X341900Y272400D02*
Y294400D01*
X363900D01*
Y272400D02*
Y294400D01*
X341900Y272400D02*
X363900D01*
D48*
X368884Y265900D02*
G03*
X368884Y265900I-984J0D01*
G01*
M02*
