G04*
G04 #@! TF.GenerationSoftware,Altium Limited,Altium Designer,18.1.9 (240)*
G04*
G04 Layer_Physical_Order=1*
G04 Layer_Color=255*
%FSLAX25Y25*%
%MOIN*%
G70*
G01*
G75*
%ADD17R,0.01968X0.05906*%
%ADD18O,0.01968X0.05906*%
%ADD19R,0.01968X0.03937*%
G04:AMPARAMS|DCode=20|XSize=39.37mil|YSize=59.06mil|CornerRadius=9.84mil|HoleSize=0mil|Usage=FLASHONLY|Rotation=90.000|XOffset=0mil|YOffset=0mil|HoleType=Round|Shape=RoundedRectangle|*
%AMROUNDEDRECTD20*
21,1,0.03937,0.03937,0,0,90.0*
21,1,0.01968,0.05906,0,0,90.0*
1,1,0.01968,0.01968,0.00984*
1,1,0.01968,0.01968,-0.00984*
1,1,0.01968,-0.01968,-0.00984*
1,1,0.01968,-0.01968,0.00984*
%
%ADD20ROUNDEDRECTD20*%
G04:AMPARAMS|DCode=21|XSize=15.75mil|YSize=59.06mil|CornerRadius=3.94mil|HoleSize=0mil|Usage=FLASHONLY|Rotation=270.000|XOffset=0mil|YOffset=0mil|HoleType=Round|Shape=RoundedRectangle|*
%AMROUNDEDRECTD21*
21,1,0.01575,0.05118,0,0,270.0*
21,1,0.00787,0.05906,0,0,270.0*
1,1,0.00787,-0.02559,-0.00394*
1,1,0.00787,-0.02559,0.00394*
1,1,0.00787,0.02559,0.00394*
1,1,0.00787,0.02559,-0.00394*
%
%ADD21ROUNDEDRECTD21*%
%ADD22R,0.01575X0.01968*%
%ADD23O,0.00984X0.03150*%
%ADD24O,0.03150X0.00984*%
%ADD25R,0.03150X0.00984*%
%ADD26R,0.03937X0.03937*%
%ADD27R,0.01968X0.01575*%
%ADD39C,0.01500*%
%ADD40C,0.01000*%
%ADD41C,0.01600*%
G36*
X356508Y305122D02*
X356528Y305117D01*
X356557Y305113D01*
X356642Y305107D01*
X356918Y305100D01*
X357009Y305100D01*
X357173Y304100D01*
X357083Y304099D01*
X356803Y304079D01*
X356753Y304070D01*
X356712Y304059D01*
X356679Y304046D01*
X356654Y304032D01*
X356637Y304016D01*
X356497Y305127D01*
X356508Y305122D01*
D02*
G37*
G36*
X345374Y304320D02*
Y301456D01*
X344873Y301153D01*
X344500Y301227D01*
X343954Y301119D01*
X343491Y300809D01*
X343181Y300346D01*
X343128Y300078D01*
X342954Y299880D01*
X342903Y299829D01*
X342876Y299762D01*
X342436Y299322D01*
X342193Y298958D01*
X342107Y298529D01*
X342107Y298529D01*
Y298254D01*
X342079Y298192D01*
X342069Y297852D01*
X342063Y297785D01*
X341841D01*
Y297263D01*
X341804Y297173D01*
X341828Y297113D01*
X341815Y297051D01*
X341841Y297011D01*
Y295360D01*
X341808Y295299D01*
X341813Y295280D01*
X341805Y295263D01*
X341841Y295159D01*
Y294616D01*
X342321D01*
X342383Y294583D01*
X342401Y294588D01*
X342419Y294580D01*
X342518Y294574D01*
X342587Y294563D01*
X342662Y294544D01*
X342743Y294514D01*
X342831Y294473D01*
X342926Y294420D01*
X343020Y294357D01*
X343255Y294167D01*
X343377Y294051D01*
X343441Y294026D01*
X346288Y291179D01*
X346313Y291115D01*
X346451Y290970D01*
X346561Y290843D01*
X346652Y290725D01*
X346724Y290617D01*
X346778Y290520D01*
X346816Y290436D01*
X346840Y290365D01*
X346852Y290308D01*
X346856Y290263D01*
X346852Y290180D01*
X346865Y290145D01*
Y289991D01*
X346916Y289734D01*
X346917Y289714D01*
X346665Y289327D01*
X346564Y289243D01*
X341639D01*
X341639Y289243D01*
X341156Y289656D01*
Y290787D01*
X341156D01*
X340959Y291016D01*
Y292500D01*
X339172D01*
Y293500D01*
X340959D01*
Y294984D01*
X340959D01*
X340959Y295316D01*
X340959Y295316D01*
Y296800D01*
X339172D01*
Y297800D01*
X340959D01*
Y299284D01*
X340959D01*
X340959Y299616D01*
X340959Y299616D01*
Y301100D01*
X339172D01*
Y302100D01*
X340959D01*
Y303584D01*
X340223D01*
X340145Y303702D01*
X340145Y303702D01*
X337773Y306073D01*
X337980Y306574D01*
X343120D01*
X345374Y304320D01*
D02*
G37*
G36*
X334853Y302573D02*
X334865Y300749D01*
X334849Y300891D01*
X334803Y301019D01*
X334727Y301131D01*
X334621Y301229D01*
X334485Y301311D01*
X334319Y301379D01*
X334122Y301431D01*
X333896Y301469D01*
X333640Y301491D01*
X333353Y301499D01*
Y302999D01*
X334853Y302573D01*
D02*
G37*
G36*
X331416Y303606D02*
X331461Y303479D01*
X331537Y303366D01*
X331642Y303269D01*
X331778Y303186D01*
X331945Y303119D01*
X332141Y303066D01*
X332368Y303029D01*
X332625Y303006D01*
X332912Y302999D01*
Y301499D01*
X332625Y301491D01*
X332368Y301469D01*
X332141Y301431D01*
X331945Y301379D01*
X331778Y301311D01*
X331642Y301229D01*
X331537Y301131D01*
X331461Y301019D01*
X331416Y300891D01*
X331400Y300749D01*
Y303749D01*
X331416Y303606D01*
D02*
G37*
G36*
X324993Y304232D02*
X324699Y303928D01*
X324237Y303381D01*
X324069Y303138D01*
X323942Y302916D01*
X323911Y302843D01*
X323957Y302689D01*
X324048Y302483D01*
X324172Y302265D01*
X324328Y302035D01*
X324517Y301794D01*
X324739Y301541D01*
X324993Y301277D01*
X324916Y299232D01*
X324564Y299574D01*
X323952Y300102D01*
X323693Y300287D01*
X323465Y300421D01*
X323269Y300502D01*
X323103Y300531D01*
X322969Y300507D01*
X322867Y300432D01*
X322795Y300304D01*
X323587Y302482D01*
X321988Y304205D01*
X322161Y304216D01*
X322339Y304248D01*
X322520Y304301D01*
X322706Y304375D01*
X322896Y304470D01*
X323089Y304587D01*
X323287Y304725D01*
X323489Y304884D01*
X323905Y305266D01*
X324993Y304232D01*
D02*
G37*
G36*
X344492Y299000D02*
X344473Y298997D01*
X344448Y298987D01*
X344419Y298970D01*
X344385Y298947D01*
X344345Y298917D01*
X344251Y298836D01*
X344073Y298665D01*
X343366Y299373D01*
X343429Y299437D01*
X343647Y299685D01*
X343670Y299719D01*
X343687Y299748D01*
X343697Y299773D01*
X343700Y299792D01*
X344492Y299000D01*
D02*
G37*
G36*
X339942Y300613D02*
X339938Y300568D01*
X339931Y300388D01*
X339925Y299579D01*
X339947Y298272D01*
X338396D01*
X338401Y298287D01*
X338405Y298332D01*
X338412Y298512D01*
X338418Y299321D01*
X338396Y300628D01*
X339947D01*
X339942Y300613D01*
D02*
G37*
G36*
X343731Y297983D02*
X343754Y297663D01*
X343773Y297533D01*
X343797Y297423D01*
X343828Y297333D01*
X343864Y297263D01*
X343905Y297213D01*
X343952Y297183D01*
X344004Y297173D01*
X342453D01*
X342506Y297183D01*
X342552Y297213D01*
X342594Y297263D01*
X342630Y297333D01*
X342660Y297423D01*
X342685Y297533D01*
X342704Y297663D01*
X342718Y297813D01*
X342729Y298173D01*
X343729D01*
X343731Y297983D01*
D02*
G37*
G36*
X376265Y301207D02*
X376659Y300867D01*
X376845Y300729D01*
X377024Y300613D01*
X377195Y300517D01*
X377358Y300443D01*
X377514Y300390D01*
X377663Y300358D01*
X377804Y300348D01*
X376253Y298403D01*
X377804D01*
X377813Y298388D01*
X377821Y298343D01*
X377828Y298268D01*
X377843Y297863D01*
X377850Y296903D01*
X376350D01*
X376349Y297188D01*
X376272Y298388D01*
X376253Y298403D01*
X376243Y298544D01*
X376211Y298693D01*
X376158Y298849D01*
X376084Y299013D01*
X375988Y299184D01*
X375871Y299362D01*
X375734Y299548D01*
X375394Y299942D01*
X375193Y300151D01*
X376056Y301408D01*
X376265Y301207D01*
D02*
G37*
G36*
X334964Y299028D02*
X335836Y298267D01*
X335880Y298252D01*
X335905Y298261D01*
X334865Y296827D01*
X334868Y296858D01*
X334846Y296910D01*
X334800Y296982D01*
X334729Y297076D01*
X334515Y297326D01*
X333793Y298076D01*
X334759Y299230D01*
X334964Y299028D01*
D02*
G37*
G36*
X358271Y295240D02*
X358203Y295304D01*
X358119Y295338D01*
X358018Y295342D01*
X357901Y295315D01*
X357768Y295258D01*
X357618Y295171D01*
X357452Y295054D01*
X357270Y294907D01*
X356856Y294521D01*
X356346Y295425D01*
X356537Y295622D01*
X356838Y295980D01*
X356950Y296140D01*
X357035Y296287D01*
X357094Y296423D01*
X357126Y296545D01*
X357132Y296656D01*
X357112Y296754D01*
X357065Y296839D01*
X358271Y295240D01*
D02*
G37*
G36*
X352789Y297671D02*
X353170Y297346D01*
X353336Y297229D01*
X353485Y297142D01*
X353619Y297085D01*
X353736Y297059D01*
X353836Y297062D01*
X353921Y297096D01*
X353988Y297160D01*
X353265Y296200D01*
X353988Y295240D01*
X353921Y295304D01*
X353836Y295338D01*
X353736Y295341D01*
X353619Y295315D01*
X353485Y295258D01*
X353336Y295171D01*
X353170Y295054D01*
X352988Y294906D01*
X352574Y294521D01*
X352064Y295425D01*
X352254Y295622D01*
X352556Y295979D01*
X352668Y296139D01*
X352702Y296200D01*
X352668Y296261D01*
X352556Y296421D01*
X352418Y296593D01*
X352064Y296975D01*
X352574Y297879D01*
X352789Y297671D01*
D02*
G37*
G36*
X347498Y298388D02*
X347427Y297308D01*
X347404Y297233D01*
X347379Y297188D01*
X347351Y297173D01*
X347365Y297130D01*
X347410Y297093D01*
X347485Y297059D01*
X347590Y297030D01*
X347726Y297006D01*
X347890Y296986D01*
X348310Y296959D01*
X348314Y296959D01*
X349050Y297006D01*
X349185Y297030D01*
X349290Y297059D01*
X349365Y297092D01*
X349410Y297130D01*
X349425Y297172D01*
Y295228D01*
X349410Y295270D01*
X349365Y295308D01*
X349290Y295341D01*
X349185Y295370D01*
X349050Y295395D01*
X348885Y295415D01*
X348465Y295441D01*
X348461Y295442D01*
X347726Y295395D01*
X347590Y295370D01*
X347485Y295341D01*
X347410Y295308D01*
X347365Y295270D01*
X347351Y295228D01*
Y297173D01*
X345800D01*
X345838Y297188D01*
X345872Y297233D01*
X345902Y297308D01*
X345928Y297413D01*
X345950Y297548D01*
X345968Y297713D01*
X345998Y298388D01*
X346000Y298673D01*
X347500D01*
X347498Y298388D01*
D02*
G37*
G36*
X372105Y296299D02*
X373078Y295185D01*
X373042Y295176D01*
X372950Y295219D01*
X372801Y295312D01*
X371239Y295050D01*
X371343Y295079D01*
X371416Y295126D01*
X371458Y295190D01*
X371468Y295272D01*
X371446Y295371D01*
X371392Y295488D01*
X371307Y295623D01*
X371190Y295775D01*
X371041Y295945D01*
X370861Y296132D01*
X371744Y296663D01*
X372105Y296299D01*
D02*
G37*
G36*
X382852Y296451D02*
X382931Y295252D01*
X382956Y295140D01*
X382984Y295053D01*
X383016Y294990D01*
X381184D01*
X381216Y295053D01*
X381244Y295140D01*
X381269Y295252D01*
X381290Y295389D01*
X381324Y295739D01*
X381348Y296451D01*
X381350Y296739D01*
X382850D01*
X382852Y296451D01*
D02*
G37*
G36*
X377852D02*
X377931Y295252D01*
X377956Y295140D01*
X377984Y295053D01*
X378016Y294990D01*
X376184D01*
X376216Y295053D01*
X376244Y295140D01*
X376269Y295252D01*
X376290Y295389D01*
X376324Y295739D01*
X376348Y296451D01*
X376350Y296739D01*
X377850D01*
X377852Y296451D01*
D02*
G37*
G36*
X343930Y296393D02*
X343897Y296307D01*
X343895Y296206D01*
X343922Y296088D01*
X343979Y295955D01*
X344066Y295805D01*
X344182Y295640D01*
X344329Y295459D01*
X344711Y295049D01*
X343825Y294521D01*
X343684Y294655D01*
X343404Y294882D01*
X343266Y294973D01*
X343128Y295051D01*
X342992Y295115D01*
X342856Y295164D01*
X342721Y295200D01*
X342587Y295221D01*
X342453Y295228D01*
X343992Y296463D01*
X343930Y296393D01*
D02*
G37*
G36*
X362095Y295218D02*
X362048Y295188D01*
X362007Y295138D01*
X361971Y295068D01*
X361941Y294978D01*
X361916Y294868D01*
X361896Y294738D01*
X361883Y294588D01*
X361872Y294228D01*
X360872D01*
X360869Y294418D01*
X360847Y294738D01*
X360828Y294868D01*
X360803Y294978D01*
X360772Y295068D01*
X360737Y295138D01*
X360695Y295188D01*
X360649Y295218D01*
X360596Y295228D01*
X362147D01*
X362095Y295218D01*
D02*
G37*
G36*
X336399Y296313D02*
X336395Y296268D01*
X336388Y296088D01*
X336382Y295279D01*
X336404Y293973D01*
X334853D01*
X334858Y293988D01*
X334862Y294033D01*
X334870Y294213D01*
X334875Y295021D01*
X334853Y296328D01*
X336404D01*
X336399Y296313D01*
D02*
G37*
G36*
X339942Y296313D02*
X339938Y296268D01*
X339931Y296088D01*
X339925Y295279D01*
X339947Y293972D01*
X338396D01*
X338401Y293987D01*
X338405Y294032D01*
X338412Y294212D01*
X338418Y295021D01*
X338396Y296328D01*
X339947D01*
X339942Y296313D01*
D02*
G37*
G36*
X323932Y294757D02*
X321988Y293541D01*
X322094Y293636D01*
X322154Y293757D01*
X322166Y293903D01*
X322131Y294076D01*
X322049Y294275D01*
X321919Y294501D01*
X321742Y294752D01*
X321518Y295029D01*
X320927Y295662D01*
X322363Y296347D01*
X323932Y294757D01*
D02*
G37*
G36*
X387645Y310652D02*
X388573Y310267D01*
X389370Y309656D01*
X389981Y308859D01*
X390365Y307932D01*
X390474Y307104D01*
X390474Y307104D01*
X390474D01*
X390478Y307100D01*
Y261817D01*
X390352Y260855D01*
X389967Y259927D01*
X389356Y259131D01*
X388560Y258519D01*
X387632Y258135D01*
X386804Y258026D01*
X386804Y258026D01*
Y258026D01*
X386333Y257922D01*
X323456Y257922D01*
X323440Y257919D01*
X322455Y258048D01*
X321527Y258433D01*
X320730Y259044D01*
X320119Y259840D01*
X319735Y260768D01*
X319626Y261596D01*
X319626Y261596D01*
X319626D01*
X319621Y261600D01*
Y263161D01*
X320122Y263433D01*
X320632Y263332D01*
X324569D01*
X325187Y263455D01*
X325711Y263805D01*
X326061Y264329D01*
X326184Y264947D01*
Y266916D01*
X326061Y267534D01*
X325711Y268058D01*
X325187Y268408D01*
X324569Y268531D01*
X320632D01*
X320122Y268430D01*
X319621Y268702D01*
Y284098D01*
X320122Y284370D01*
X320632Y284269D01*
X324569D01*
X325187Y284392D01*
X325711Y284742D01*
X326061Y285266D01*
X326184Y285884D01*
Y287278D01*
X326684Y287430D01*
X326702Y287402D01*
X327298Y287004D01*
X327500Y286964D01*
Y288700D01*
X328500D01*
Y286964D01*
X328564Y286977D01*
X329064Y286690D01*
Y286460D01*
X329169Y285933D01*
X329467Y285487D01*
X332033Y282920D01*
X332039Y282895D01*
X332091Y282863D01*
X332115Y282806D01*
X333337Y281610D01*
X333348Y281606D01*
X333352Y281602D01*
X333356Y281592D01*
X333408Y281546D01*
X333621Y281332D01*
X333823Y281197D01*
X333824Y281195D01*
X334153Y280976D01*
X334541Y280899D01*
X339659D01*
X339851Y280937D01*
X340351Y280623D01*
Y280051D01*
X339851Y279737D01*
X339659Y279775D01*
X334541D01*
X334434Y279754D01*
X334392Y279771D01*
X334274Y279722D01*
X334153Y279698D01*
X334143Y279692D01*
X334058Y279679D01*
X334004Y279646D01*
X333964Y279627D01*
X333912Y279607D01*
X333845Y279587D01*
X333765Y279568D01*
X333685Y279553D01*
X333303Y279520D01*
X333163Y279518D01*
X333099Y279490D01*
X332719D01*
X332656Y279518D01*
X332361Y279524D01*
X332291Y279529D01*
X332288Y279529D01*
X332277Y279531D01*
X332146Y279619D01*
X331600Y279727D01*
X331054Y279619D01*
X330591Y279309D01*
X330505Y279181D01*
X330475Y279162D01*
X330061Y278748D01*
X329749Y278473D01*
X329742Y278459D01*
X329729Y278454D01*
X329698Y278384D01*
X328507Y277193D01*
X328264Y276829D01*
X328178Y276400D01*
X328179Y276400D01*
Y266837D01*
X328178Y266837D01*
X328264Y266408D01*
X328507Y266044D01*
X333644Y260907D01*
X333644Y260907D01*
X334008Y260664D01*
X334437Y260578D01*
X370843D01*
X370843Y260578D01*
X371272Y260664D01*
X371636Y260907D01*
X380444Y269715D01*
X380958Y269847D01*
X381482Y269497D01*
X382100Y269374D01*
X382718Y269497D01*
X383242Y269847D01*
X383592Y270371D01*
X383715Y270989D01*
Y274926D01*
X383592Y275544D01*
X383242Y276068D01*
X382718Y276418D01*
X382100Y276541D01*
X381482Y276418D01*
X380958Y276068D01*
X380608Y275544D01*
X380485Y274926D01*
Y273429D01*
X380471Y273399D01*
X380469Y273299D01*
X380459Y273230D01*
X380440Y273155D01*
X380411Y273073D01*
X380370Y272982D01*
X380315Y272884D01*
X380246Y272779D01*
X380160Y272667D01*
X380059Y272548D01*
X379931Y272414D01*
X379907Y272350D01*
X379177Y271621D01*
X378715Y271812D01*
Y274926D01*
X378592Y275544D01*
X378242Y276068D01*
X377718Y276418D01*
X377100Y276541D01*
X376482Y276418D01*
X375958Y276068D01*
X375608Y275544D01*
X375485Y274926D01*
Y273429D01*
X375471Y273399D01*
X375469Y273299D01*
X375459Y273230D01*
X375441Y273155D01*
X375411Y273073D01*
X375370Y272982D01*
X375315Y272884D01*
X375246Y272779D01*
X375161Y272667D01*
X375059Y272548D01*
X374931Y272414D01*
X374907Y272350D01*
X374177Y271621D01*
X373715Y271812D01*
Y274926D01*
X373592Y275544D01*
X373242Y276068D01*
X372718Y276418D01*
X372100Y276541D01*
X371482Y276418D01*
X370958Y276068D01*
X370608Y275544D01*
X370485Y274926D01*
Y270989D01*
X370608Y270371D01*
X370958Y269847D01*
X371400Y269551D01*
X371565Y269009D01*
X367578Y265021D01*
X339727D01*
X339522Y265484D01*
X339528Y265522D01*
X340098Y265902D01*
X340496Y266498D01*
X340536Y266700D01*
X338800D01*
Y267700D01*
X340536D01*
X340496Y267902D01*
X340240Y268285D01*
X340232Y268386D01*
X340340Y268849D01*
X340380Y268906D01*
X340664Y269096D01*
X340972Y269557D01*
X340996Y269678D01*
X341539Y269843D01*
X345241Y266141D01*
X345700Y265951D01*
X349135D01*
X349254Y266000D01*
X349384D01*
X349475Y266091D01*
X349594Y266141D01*
X349624Y266213D01*
X349958Y266551D01*
X349999Y266564D01*
X350428Y266478D01*
X361200D01*
X361200Y266478D01*
X361629Y266564D01*
X361993Y266807D01*
X363572Y268386D01*
X363572Y268386D01*
X363815Y268749D01*
X363900Y269179D01*
X363900Y269179D01*
Y277814D01*
X365287Y279201D01*
X365353Y279227D01*
X365775Y279642D01*
X366031Y279879D01*
X366168Y279989D01*
X366288Y280072D01*
X366358Y280113D01*
X366655D01*
X366729Y280094D01*
X366762Y280113D01*
X367584D01*
Y280267D01*
X367973Y280527D01*
X369573Y282127D01*
X369872Y282573D01*
X369976Y283100D01*
Y294700D01*
X369872Y295227D01*
X369573Y295673D01*
X362723Y302523D01*
X362277Y302822D01*
X361750Y302926D01*
X357560D01*
X357559Y302927D01*
X357364Y303427D01*
X357420Y303479D01*
X362635D01*
X370302Y295812D01*
X370304Y295798D01*
X370351Y295763D01*
X370368Y295746D01*
X370393Y295682D01*
X370674Y295371D01*
X370667Y295318D01*
X370608Y295229D01*
X370485Y294611D01*
Y290674D01*
X370608Y290056D01*
X370958Y289532D01*
X371482Y289182D01*
X372100Y289059D01*
X372718Y289182D01*
X373242Y289532D01*
X373592Y290056D01*
X373715Y290674D01*
Y294611D01*
X373648Y294951D01*
X373655Y294998D01*
X373726Y295141D01*
X373695Y295234D01*
X373711Y295331D01*
X373618Y295461D01*
X373567Y295612D01*
X372919Y296355D01*
X372893Y296393D01*
X372893Y296393D01*
X372831Y296455D01*
X372594Y296726D01*
X372574Y296736D01*
X372566Y296757D01*
X372206Y297120D01*
X372138Y297148D01*
X363893Y305393D01*
X363529Y305636D01*
X363100Y305722D01*
X363100Y305721D01*
X357078D01*
X357011Y305749D01*
X356926Y305750D01*
X356675Y305756D01*
X356636Y305759D01*
X356546Y305819D01*
X356000Y305927D01*
X355454Y305819D01*
X354991Y305509D01*
X354681Y305046D01*
X354573Y304500D01*
X354681Y303954D01*
X354991Y303491D01*
X355087Y303427D01*
X354935Y302926D01*
X350661D01*
X345375Y308212D01*
X345567Y308674D01*
X365784D01*
X374705Y299753D01*
X374726Y299699D01*
X374914Y299505D01*
X375226Y299142D01*
X375338Y298991D01*
X375432Y298847D01*
X375503Y298720D01*
X375553Y298610D01*
X375584Y298520D01*
X375598Y298451D01*
X375606Y298355D01*
X375610Y298346D01*
X375607Y298338D01*
X375609Y298334D01*
X375608Y298330D01*
X375627Y298296D01*
X375641Y298072D01*
Y297791D01*
X375659D01*
X375700Y297166D01*
X375701Y296901D01*
X375724Y296846D01*
Y296797D01*
X375701Y296742D01*
X375699Y296464D01*
X375675Y295781D01*
X375646Y295470D01*
X375630Y295373D01*
X375617Y295310D01*
X375613Y295301D01*
X375605Y295284D01*
X375604Y295271D01*
X375598Y295252D01*
X375600Y295222D01*
X375596Y295172D01*
X375584Y295109D01*
X375535Y294990D01*
X375552Y294949D01*
X375485Y294611D01*
Y290674D01*
X375608Y290056D01*
X375958Y289532D01*
X376482Y289182D01*
X377100Y289059D01*
X377718Y289182D01*
X378242Y289532D01*
X378592Y290056D01*
X378715Y290674D01*
Y294611D01*
X378648Y294949D01*
X378665Y294990D01*
X378616Y295109D01*
X378604Y295172D01*
X378600Y295222D01*
X378602Y295252D01*
X378596Y295271D01*
X378595Y295284D01*
X378587Y295301D01*
X378584Y295310D01*
X378576Y295344D01*
X378501Y296474D01*
X378499Y296742D01*
X378477Y296797D01*
Y296848D01*
X378499Y296903D01*
X378498Y296906D01*
X378499Y296908D01*
X378499Y297009D01*
X378996Y297391D01*
X380530D01*
X380724Y297223D01*
Y296797D01*
X380701Y296742D01*
X380699Y296464D01*
X380685Y296052D01*
X380669Y296042D01*
X380231Y295385D01*
X380077Y294611D01*
Y293143D01*
X384123D01*
Y294611D01*
X383969Y295385D01*
X383531Y296042D01*
X383530Y296042D01*
X383501Y296474D01*
X383499Y296742D01*
X383476Y296797D01*
Y297847D01*
X383372Y298374D01*
X383073Y298820D01*
X383073Y298820D01*
X382896Y298997D01*
X382876Y299050D01*
X382441Y299501D01*
X382359Y299597D01*
Y301359D01*
X381072D01*
Y299762D01*
X381335Y300106D01*
X381312Y300046D01*
X381318Y299967D01*
X381353Y299867D01*
X381416Y299747D01*
X381509Y299607D01*
X381631Y299446D01*
X381961Y299063D01*
X382408Y298600D01*
X381544Y297342D01*
X381292Y297590D01*
X380508Y298269D01*
X380369Y298361D01*
X380253Y298421D01*
X380158Y298450D01*
X380087Y298448D01*
X380038Y298415D01*
X380775Y299375D01*
X380072D01*
Y301359D01*
X379437D01*
X379170Y301859D01*
X379396Y302198D01*
X379436Y302400D01*
X377700D01*
Y302900D01*
X377200D01*
Y304636D01*
X376998Y304596D01*
X376402Y304198D01*
X376004Y303602D01*
X375913Y303145D01*
X375380Y302971D01*
X368034Y310316D01*
X368226Y310778D01*
X386649D01*
X386663Y310781D01*
X387645Y310652D01*
D02*
G37*
G36*
X346920Y292846D02*
X347035Y292751D01*
X347145Y292673D01*
X347251Y292612D01*
X347352Y292568D01*
X347449Y292542D01*
X347541Y292533D01*
X347629Y292541D01*
X347712Y292566D01*
X347791Y292609D01*
X347501Y290149D01*
X347507Y290275D01*
X347496Y290405D01*
X347467Y290538D01*
X347421Y290674D01*
X347358Y290814D01*
X347277Y290957D01*
X347180Y291103D01*
X347064Y291253D01*
X346932Y291407D01*
X346782Y291564D01*
X346801Y292959D01*
X346920Y292846D01*
D02*
G37*
G36*
X327526Y290847D02*
X327510Y290821D01*
X327496Y290778D01*
X327484Y290719D01*
X327473Y290642D01*
X327458Y290436D01*
X327450Y290000D01*
X325950D01*
X325949Y290162D01*
X325916Y290719D01*
X325904Y290778D01*
X325890Y290821D01*
X325874Y290847D01*
X325856Y290856D01*
X327543D01*
X327526Y290847D01*
D02*
G37*
G36*
X339942Y292013D02*
X339938Y291968D01*
X339931Y291788D01*
X339925Y290974D01*
X339977Y290150D01*
X340002Y290015D01*
X340031Y289910D01*
X340064Y289835D01*
X340102Y289790D01*
X340144Y289775D01*
X338199D01*
X338242Y289790D01*
X338279Y289835D01*
X338313Y289910D01*
X338342Y290015D01*
X338366Y290150D01*
X338386Y290315D01*
X338413Y290735D01*
X338415Y290896D01*
X338396Y292028D01*
X339947D01*
X339942Y292013D01*
D02*
G37*
G36*
X331370Y290828D02*
X331332Y290784D01*
X331299Y290708D01*
X331270Y290603D01*
X331246Y290469D01*
X331226Y290303D01*
X331199Y289883D01*
X331190Y289344D01*
X329690D01*
X329688Y289629D01*
X329635Y290469D01*
X329610Y290603D01*
X329581Y290708D01*
X329548Y290784D01*
X329510Y290828D01*
X329468Y290844D01*
X331412D01*
X331370Y290828D01*
D02*
G37*
G36*
X349086Y287621D02*
X348731Y287616D01*
X348467Y287600D01*
X348369Y287589D01*
X348293Y287574D01*
X348240Y287557D01*
X348210Y287538D01*
X348202Y287515D01*
X348217Y287491D01*
X347379Y286914D01*
X347234Y287049D01*
X347084Y287169D01*
X346928Y287275D01*
X346766Y287367D01*
X346598Y287444D01*
X346425Y287508D01*
X346245Y287558D01*
X346060Y287593D01*
X345869Y287614D01*
X345672Y287621D01*
X346879Y288621D01*
X349086Y287621D01*
D02*
G37*
G36*
X340851Y286626D02*
X340643Y286411D01*
X340423Y286154D01*
X341298D01*
X341318Y286174D01*
X341343Y286239D01*
X341390Y286286D01*
X341417Y286307D01*
X341417Y286313D01*
X341951Y286847D01*
X342028Y286815D01*
X342451Y286629D01*
X342451D01*
X342830Y286153D01*
X342915Y285727D01*
X343156Y285365D01*
Y284972D01*
X342915Y284610D01*
X342830Y284184D01*
X342915Y283758D01*
X343156Y283397D01*
Y283003D01*
X342915Y282642D01*
X342830Y282216D01*
X342915Y281790D01*
X343156Y281428D01*
Y281035D01*
X342915Y280673D01*
X342830Y280247D01*
X342915Y279821D01*
X343156Y279460D01*
Y279066D01*
X342915Y278705D01*
X342830Y278279D01*
X342915Y277853D01*
X343156Y277491D01*
X343517Y277250D01*
X343943Y277165D01*
X346109D01*
X346535Y277250D01*
X346721Y277374D01*
X346902Y277102D01*
X347059Y276998D01*
X346950Y276835D01*
X346865Y276409D01*
Y274243D01*
X346950Y273817D01*
X347191Y273456D01*
X347553Y273215D01*
X347979Y273130D01*
X348233Y273180D01*
X348672Y272875D01*
X348694Y272451D01*
X348588Y272346D01*
X348581Y272345D01*
X348561Y272318D01*
X348520Y272277D01*
X348458Y272254D01*
X348061Y271884D01*
X347913Y271764D01*
X347799Y271684D01*
X347609D01*
X347577Y271703D01*
X347521Y271689D01*
X347468Y271709D01*
X347412Y271684D01*
X346541D01*
Y268516D01*
X347412D01*
X347468Y268491D01*
X347521Y268511D01*
X347577Y268497D01*
X347609Y268516D01*
X347799D01*
X347906Y268441D01*
X348249Y268148D01*
X348449Y267954D01*
X348514Y267928D01*
X348561Y267882D01*
X348581Y267855D01*
X348588Y267854D01*
X349342Y267100D01*
X349135Y266600D01*
X345700D01*
X340900Y271400D01*
X341000Y271500D01*
Y282900D01*
X340496Y283404D01*
X340687Y283866D01*
X341156D01*
Y285154D01*
X339172D01*
Y285935D01*
X338533Y286417D01*
X338618Y286370D01*
X338716Y286350D01*
X338827Y286356D01*
X338949Y286389D01*
X339085Y286447D01*
X339232Y286532D01*
X339392Y286644D01*
X339565Y286782D01*
X339947Y287136D01*
X340851Y286626D01*
D02*
G37*
G36*
X367224Y293877D02*
Y286830D01*
X366500D01*
Y285749D01*
X366554Y285760D01*
X366639Y285806D01*
X366500Y285702D01*
Y285043D01*
X365626D01*
X365040Y284601D01*
X365104Y284669D01*
X365138Y284753D01*
X365142Y284854D01*
X365115Y284971D01*
X365058Y285104D01*
X364971Y285254D01*
X364854Y285420D01*
X364707Y285602D01*
X364321Y286015D01*
X365225Y286526D01*
X365422Y286335D01*
X365500Y286269D01*
Y287129D01*
X363715Y288914D01*
X363351Y289157D01*
X362922Y289243D01*
X362922Y289243D01*
X362864D01*
X362493Y289491D01*
Y291066D01*
X362698Y291202D01*
X363096Y291798D01*
X363136Y292000D01*
X361400D01*
Y293000D01*
X363136D01*
X363096Y293202D01*
X362753Y293716D01*
X362845Y294022D01*
X362972Y294216D01*
X363159D01*
Y295700D01*
X361372D01*
Y296700D01*
X363159D01*
Y297288D01*
X363621Y297479D01*
X367224Y293877D01*
D02*
G37*
G36*
X334034Y296888D02*
X334223Y296668D01*
X334241Y296644D01*
Y296418D01*
X334204Y296328D01*
X334206Y296323D01*
X334204Y296317D01*
X334226Y295018D01*
X334220Y294228D01*
X334214Y294076D01*
X334212Y294050D01*
X334222Y294016D01*
X334204Y293973D01*
X334241Y293882D01*
Y291416D01*
X337016D01*
X337384Y291098D01*
X337187Y290787D01*
X337187Y290787D01*
X337187Y290787D01*
Y289500D01*
X339172D01*
Y288500D01*
X337187D01*
Y287213D01*
X337587Y287041D01*
Y284266D01*
X339106D01*
X339406Y283766D01*
X339377Y283712D01*
X336036D01*
X336025Y283719D01*
X335998Y283712D01*
X335375D01*
X335229Y283796D01*
X335037Y283929D01*
X334542Y284347D01*
X334262Y284616D01*
X334209Y284637D01*
X331817Y287030D01*
Y289280D01*
X331839Y289333D01*
X331848Y289858D01*
X331872Y290231D01*
X332024D01*
Y290753D01*
X332062Y290844D01*
X332024Y290934D01*
Y295369D01*
X331735D01*
X331712Y295487D01*
X331414Y295933D01*
X331413Y295933D01*
X330485Y296862D01*
X330676Y297323D01*
X333615D01*
X334034Y296888D01*
D02*
G37*
G36*
X334107Y283864D02*
X334642Y283413D01*
X334882Y283247D01*
X335103Y283120D01*
X335306Y283032D01*
X335490Y282984D01*
X335656Y282976D01*
X335804Y283006D01*
X335933Y283076D01*
X334181Y281763D01*
X334170Y281754D01*
X334125Y281781D01*
X334047Y281844D01*
X333791Y282074D01*
X332569Y283270D01*
X333812Y284149D01*
X334107Y283864D01*
D02*
G37*
G36*
X366639Y280737D02*
X366553Y280783D01*
X366455Y280803D01*
X366345Y280797D01*
X366222Y280765D01*
X366087Y280706D01*
X365939Y280621D01*
X365779Y280510D01*
X365607Y280372D01*
X365326Y280112D01*
X364898Y279691D01*
X364191Y280398D01*
X364582Y280805D01*
X364854Y281123D01*
X364971Y281289D01*
X365058Y281439D01*
X365115Y281572D01*
X365142Y281689D01*
X365138Y281790D01*
X365104Y281874D01*
X365040Y281942D01*
X366639Y280737D01*
D02*
G37*
G36*
X356500Y279500D02*
X349200Y279500D01*
X349200Y285600D01*
X350100Y286500D01*
X356500D01*
X356500Y279500D01*
D02*
G37*
G36*
X332135Y278900D02*
X332156Y278893D01*
X332187Y278887D01*
X332226Y278882D01*
X332330Y278875D01*
X332643Y278869D01*
X332754Y277869D01*
X332663Y277868D01*
X332383Y277849D01*
X332334Y277841D01*
X332292Y277831D01*
X332259Y277819D01*
X332234Y277806D01*
X332217Y277791D01*
X332121Y278907D01*
X332135Y278900D01*
D02*
G37*
G36*
X334392Y277615D02*
X334312Y277663D01*
X334222Y277706D01*
X334123Y277744D01*
X334015Y277777D01*
X333898Y277805D01*
X333771Y277828D01*
X333490Y277858D01*
X333336Y277866D01*
X333173Y277869D01*
Y278869D01*
X333336Y278871D01*
X333771Y278909D01*
X333898Y278932D01*
X334015Y278960D01*
X334123Y278993D01*
X334222Y279031D01*
X334312Y279074D01*
X334392Y279122D01*
Y277615D01*
D02*
G37*
G36*
X331310Y277554D02*
X331286Y277559D01*
X331258Y277556D01*
X331225Y277546D01*
X331188Y277528D01*
X331146Y277502D01*
X331100Y277469D01*
X331049Y277429D01*
X330934Y277326D01*
X330870Y277263D01*
X330178Y277985D01*
X330849Y278575D01*
X331310Y277554D01*
D02*
G37*
G36*
X351916Y276984D02*
X352416D01*
X351416Y275777D01*
X351409Y275974D01*
X351388Y276165D01*
X351352Y276351D01*
X351303Y276530D01*
X351239Y276704D01*
X351161Y276872D01*
X351069Y277034D01*
X350963Y277190D01*
X350843Y277340D01*
X350709Y277484D01*
X351916Y276984D01*
D02*
G37*
G36*
X334266Y273763D02*
X334236Y273795D01*
X334192Y273823D01*
X334134Y273849D01*
X334062Y273871D01*
X333976Y273889D01*
X333875Y273904D01*
X333632Y273925D01*
X333331Y273932D01*
Y274932D01*
X333489Y274933D01*
X333875Y274958D01*
X333976Y274974D01*
X334062Y274992D01*
X334134Y275014D01*
X334192Y275040D01*
X334236Y275068D01*
X334266Y275100D01*
Y273763D01*
D02*
G37*
G36*
X332520Y272913D02*
X332457Y272849D01*
X332272Y272638D01*
X332243Y272596D01*
X332221Y272560D01*
X332206Y272528D01*
X332198Y272501D01*
X332196Y272479D01*
X331337Y273198D01*
X331352Y273202D01*
X331371Y273213D01*
X331397Y273230D01*
X331428Y273254D01*
X331555Y273367D01*
X331732Y273539D01*
X332520Y272913D01*
D02*
G37*
G36*
X331799Y271707D02*
X331781Y271691D01*
X331764Y271667D01*
X331749Y271635D01*
X331736Y271595D01*
X331725Y271546D01*
X331716Y271489D01*
X331704Y271350D01*
X331700Y271178D01*
X330700Y271533D01*
X330715Y271987D01*
X331799Y271707D01*
D02*
G37*
G36*
X352247Y271072D02*
X350916Y271060D01*
X351011Y271071D01*
X351096Y271102D01*
X351171Y271153D01*
X351236Y271224D01*
X351291Y271315D01*
X351336Y271426D01*
X351371Y271558D01*
X351396Y271709D01*
X351411Y271881D01*
X351416Y272072D01*
X352416D01*
X352247Y271072D01*
D02*
G37*
G36*
X349411Y270875D02*
X349220Y270678D01*
X348919Y270321D01*
X348807Y270161D01*
X348772Y270100D01*
X348807Y270039D01*
X348919Y269879D01*
X349056Y269707D01*
X349411Y269325D01*
X348901Y268421D01*
X348686Y268629D01*
X348305Y268954D01*
X348139Y269071D01*
X347989Y269158D01*
X347856Y269215D01*
X347739Y269241D01*
X347639Y269238D01*
X347554Y269204D01*
X347486Y269140D01*
X348210Y270100D01*
X347486Y271060D01*
X347554Y270996D01*
X347639Y270962D01*
X347739Y270958D01*
X347856Y270985D01*
X347989Y271042D01*
X348139Y271129D01*
X348305Y271246D01*
X348487Y271394D01*
X348901Y271779D01*
X349411Y270875D01*
D02*
G37*
G36*
X381193Y270627D02*
X381182Y270752D01*
X381155Y270847D01*
X381114Y270913D01*
X381058Y270950D01*
X380986Y270957D01*
X380899Y270935D01*
X380798Y270883D01*
X380681Y270802D01*
X380549Y270692D01*
X380402Y270552D01*
Y271966D01*
X380541Y272113D01*
X380666Y272259D01*
X380776Y272403D01*
X380870Y272546D01*
X380950Y272688D01*
X381014Y272829D01*
X381064Y272969D01*
X381098Y273107D01*
X381117Y273244D01*
X381121Y273380D01*
X381193Y270627D01*
D02*
G37*
G36*
X376193D02*
X376182Y270752D01*
X376155Y270847D01*
X376114Y270913D01*
X376058Y270950D01*
X375986Y270957D01*
X375899Y270935D01*
X375798Y270883D01*
X375681Y270802D01*
X375549Y270692D01*
X375402Y270552D01*
Y271966D01*
X375541Y272113D01*
X375666Y272259D01*
X375776Y272403D01*
X375870Y272546D01*
X375950Y272688D01*
X376014Y272829D01*
X376063Y272969D01*
X376098Y273107D01*
X376117Y273244D01*
X376121Y273380D01*
X376193Y270627D01*
D02*
G37*
G36*
X354563Y271579D02*
X354928Y271264D01*
X355086Y271149D01*
X355228Y271063D01*
X355354Y271005D01*
X355463Y270976D01*
X355557Y270976D01*
X355634Y271004D01*
X355695Y271061D01*
X354565Y269538D01*
X354606Y269615D01*
X354621Y269705D01*
X354611Y269807D01*
X354577Y269922D01*
X354517Y270050D01*
X354433Y270190D01*
X354324Y270343D01*
X354189Y270508D01*
X353846Y270876D01*
X354356Y271780D01*
X354563Y271579D01*
D02*
G37*
G36*
X358114Y271571D02*
X358495Y271246D01*
X358661Y271129D01*
X358811Y271042D01*
X358944Y270985D01*
X359061Y270958D01*
X359161Y270962D01*
X359246Y270996D01*
X359314Y271060D01*
X358108Y269461D01*
X358155Y269547D01*
X358175Y269645D01*
X358169Y269755D01*
X358137Y269878D01*
X358078Y270013D01*
X357993Y270161D01*
X357881Y270321D01*
X357744Y270493D01*
X357389Y270875D01*
X357899Y271779D01*
X358114Y271571D01*
D02*
G37*
G36*
X339703Y269740D02*
X339618Y269708D01*
X339544Y269655D01*
X339479Y269582D01*
X339424Y269488D01*
X339380Y269374D01*
X339345Y269239D01*
X339320Y269084D01*
X339305Y268908D01*
X339300Y268712D01*
X338300D01*
X338295Y268905D01*
X338280Y269078D01*
X338255Y269231D01*
X338220Y269363D01*
X338175Y269474D01*
X338120Y269565D01*
X338055Y269635D01*
X337980Y269685D01*
X337895Y269715D01*
X337800Y269724D01*
X339798Y269751D01*
X339703Y269740D01*
D02*
G37*
G36*
X336300Y269724D02*
X336205Y269718D01*
X336120Y269690D01*
X336045Y269642D01*
X335980Y269572D01*
X335925Y269482D01*
X335880Y269370D01*
X335845Y269237D01*
X335820Y269083D01*
X335805Y268908D01*
X335800Y268712D01*
X334800D01*
X334795Y268917D01*
X334780Y269101D01*
X334756Y269264D01*
X334721Y269406D01*
X334677Y269526D01*
X334622Y269626D01*
X334558Y269704D01*
X334484Y269762D01*
X334400Y269798D01*
X334307Y269813D01*
X336300Y269724D01*
D02*
G37*
G36*
X339301Y268214D02*
X339322Y267885D01*
X339329Y267844D01*
X339338Y267811D01*
X339349Y267787D01*
X339360Y267771D01*
X338240D01*
X338251Y267787D01*
X338262Y267811D01*
X338271Y267844D01*
X338278Y267885D01*
X338285Y267934D01*
X338295Y268057D01*
X338300Y268304D01*
X339300D01*
X339301Y268214D01*
D02*
G37*
G36*
X335801D02*
X335822Y267885D01*
X335829Y267844D01*
X335838Y267811D01*
X335849Y267787D01*
X335860Y267771D01*
X334740D01*
X334751Y267787D01*
X334762Y267811D01*
X334771Y267844D01*
X334778Y267885D01*
X334785Y267934D01*
X334795Y268057D01*
X334800Y268304D01*
X335800D01*
X335801Y268214D01*
D02*
G37*
%LPC*%
G36*
X378200Y304636D02*
Y303400D01*
X379436D01*
X379396Y303602D01*
X378998Y304198D01*
X378402Y304596D01*
X378200Y304636D01*
D02*
G37*
G36*
X387100Y299327D02*
X386554Y299219D01*
X386091Y298909D01*
X385781Y298446D01*
X385673Y297900D01*
X385781Y297354D01*
X385933Y297126D01*
X385950Y296864D01*
X385951Y296791D01*
X385979Y296725D01*
Y296662D01*
X385951Y296599D01*
X385946Y296428D01*
X385936Y296301D01*
X385921Y296204D01*
X385918Y296195D01*
X385516D01*
Y295674D01*
X385478Y295583D01*
X385493Y295548D01*
X385482Y295511D01*
X385516Y295451D01*
Y289090D01*
X388684D01*
Y295451D01*
X388718Y295511D01*
X388707Y295548D01*
X388722Y295583D01*
X388684Y295674D01*
Y296195D01*
X388282D01*
X388279Y296204D01*
X388264Y296301D01*
X388253Y296428D01*
X388249Y296599D01*
X388222Y296662D01*
Y296718D01*
X388249Y296781D01*
X388254Y297010D01*
X388261Y297097D01*
X388263Y297109D01*
X388264Y297115D01*
X388264Y297117D01*
X388265Y297124D01*
X388419Y297354D01*
X388527Y297900D01*
X388419Y298446D01*
X388109Y298909D01*
X387646Y299219D01*
X387100Y299327D01*
D02*
G37*
G36*
X384123Y292143D02*
X382600D01*
Y288750D01*
X382874Y288805D01*
X383531Y289244D01*
X383969Y289900D01*
X384123Y290674D01*
Y292143D01*
D02*
G37*
G36*
X381600D02*
X380077D01*
Y290674D01*
X380231Y289900D01*
X380669Y289244D01*
X381326Y288805D01*
X381600Y288750D01*
Y292143D01*
D02*
G37*
G36*
X387600Y276850D02*
Y273458D01*
X389123D01*
Y274926D01*
X388969Y275700D01*
X388531Y276357D01*
X387874Y276795D01*
X387600Y276850D01*
D02*
G37*
G36*
X386600D02*
X386326Y276795D01*
X385669Y276357D01*
X385231Y275700D01*
X385077Y274926D01*
Y273458D01*
X386600D01*
Y276850D01*
D02*
G37*
G36*
X389123Y272458D02*
X385077D01*
Y270989D01*
X385231Y270215D01*
X385669Y269558D01*
X385670Y269558D01*
X385699Y269126D01*
X385701Y268858D01*
X385723Y268803D01*
Y268180D01*
X385404Y267702D01*
X385364Y267500D01*
X388836D01*
X388796Y267702D01*
X388476Y268180D01*
Y268803D01*
X388499Y268858D01*
X388501Y269136D01*
X388515Y269548D01*
X388531Y269558D01*
X388969Y270215D01*
X389123Y270989D01*
Y272458D01*
D02*
G37*
G36*
X388836Y266500D02*
X387600D01*
Y265264D01*
X387802Y265304D01*
X388398Y265702D01*
X388796Y266298D01*
X388836Y266500D01*
D02*
G37*
G36*
X386600D02*
X385364D01*
X385404Y266298D01*
X385802Y265702D01*
X386398Y265304D01*
X386600Y265264D01*
Y266500D01*
D02*
G37*
%LPD*%
G36*
X387649Y297313D02*
X387638Y297288D01*
X387629Y297256D01*
X387622Y297215D01*
X387615Y297166D01*
X387605Y297043D01*
X387600Y296796D01*
X386600D01*
X386599Y296886D01*
X386578Y297215D01*
X386571Y297256D01*
X386562Y297288D01*
X386551Y297313D01*
X386540Y297329D01*
X387660D01*
X387649Y297313D01*
D02*
G37*
G36*
X387605Y296393D02*
X387619Y296223D01*
X387643Y296073D01*
X387676Y295943D01*
X387718Y295833D01*
X387770Y295743D01*
X387831Y295673D01*
X387902Y295623D01*
X387983Y295593D01*
X388072Y295583D01*
X386128D01*
X386217Y295593D01*
X386298Y295623D01*
X386369Y295673D01*
X386430Y295743D01*
X386482Y295833D01*
X386524Y295943D01*
X386558Y296073D01*
X386581Y296223D01*
X386595Y296393D01*
X386600Y296583D01*
X387600D01*
X387605Y296393D01*
D02*
G37*
G36*
X387984Y270548D02*
X387956Y270460D01*
X387931Y270348D01*
X387910Y270211D01*
X387877Y269861D01*
X387852Y269149D01*
X387850Y268861D01*
X386350D01*
X386348Y269149D01*
X386269Y270348D01*
X386244Y270460D01*
X386216Y270548D01*
X386184Y270610D01*
X388016D01*
X387984Y270548D01*
D02*
G37*
D17*
X387100Y292642D02*
D03*
D18*
X382100D02*
D03*
X377100D02*
D03*
X372100D02*
D03*
X387100Y272957D02*
D03*
X382100D02*
D03*
X377100D02*
D03*
X372100D02*
D03*
D19*
X330440Y302249D02*
D03*
X322960D02*
D03*
X326700Y292800D02*
D03*
X322960D02*
D03*
X330440D02*
D03*
D20*
X322600Y265932D02*
D03*
Y286869D02*
D03*
D21*
X337100Y270495D02*
D03*
Y274431D02*
D03*
Y278368D02*
D03*
Y282306D02*
D03*
D22*
X377029Y299375D02*
D03*
X380572Y299375D02*
D03*
X335629Y293000D02*
D03*
X339172Y293000D02*
D03*
X335629Y297300D02*
D03*
X339172Y297300D02*
D03*
X335629Y301600D02*
D03*
X339172Y301600D02*
D03*
X353547Y296200D02*
D03*
X350200D02*
D03*
X343229Y296200D02*
D03*
X346575D02*
D03*
X357829D02*
D03*
X361372Y296200D02*
D03*
X351471Y270100D02*
D03*
X347928Y270100D02*
D03*
X355329Y270100D02*
D03*
X358872Y270100D02*
D03*
D23*
X357821Y291074D02*
D03*
X355853D02*
D03*
X353884D02*
D03*
X351916D02*
D03*
X349947D02*
D03*
X347979D02*
D03*
Y275326D02*
D03*
X349947D02*
D03*
X351916D02*
D03*
X353884D02*
D03*
X355853D02*
D03*
X357821D02*
D03*
D24*
X360774Y278279D02*
D03*
Y280247D02*
D03*
Y282216D02*
D03*
Y284184D02*
D03*
Y286153D02*
D03*
Y288121D02*
D03*
X345026Y286153D02*
D03*
Y284184D02*
D03*
Y282216D02*
D03*
Y280247D02*
D03*
Y278279D02*
D03*
D25*
Y288121D02*
D03*
D26*
X352900Y283200D02*
D03*
D27*
X339172Y285653D02*
D03*
Y289000D02*
D03*
X366000Y281500D02*
D03*
X366000Y285043D02*
D03*
D39*
X366354Y310050D02*
X377029Y299375D01*
X325424Y310050D02*
X366354D01*
X320350Y304977D02*
X325424Y310050D01*
X343690Y307950D02*
X350091Y301550D01*
X322960Y303260D02*
X327650Y307950D01*
X343690D01*
X320350Y297300D02*
Y304977D01*
X326700Y290000D02*
X328000Y288700D01*
X326700Y290000D02*
Y292800D01*
X334000Y305600D02*
X336300D01*
X339172Y302728D01*
Y301600D02*
Y302728D01*
Y289000D02*
Y293000D01*
X387100Y267000D02*
Y272957D01*
X339172Y293000D02*
Y297300D01*
X361750Y301550D02*
X368600Y294700D01*
Y283100D02*
Y294700D01*
X367000Y281500D02*
X368600Y283100D01*
X346750Y296375D02*
Y304850D01*
X346575Y296200D02*
X346750Y296375D01*
X350091Y301550D02*
X361750D01*
X350200Y296200D02*
X350200Y296200D01*
X346575Y296200D02*
X350200D01*
X334594Y282306D02*
X337100D01*
X330440Y286460D02*
X334594Y282306D01*
X330440Y286460D02*
Y292800D01*
X366000Y281500D02*
X367000D01*
X382100Y292642D02*
Y297847D01*
X380572Y299375D02*
X382100Y297847D01*
X377029Y299375D02*
X377100Y299304D01*
Y292642D02*
Y299304D01*
X322960Y294690D02*
Y294888D01*
X320350Y297300D02*
X322960Y294690D01*
Y292800D02*
Y294690D01*
Y302249D02*
Y303260D01*
Y302249D02*
X326509Y298700D01*
X334980Y302249D02*
X335629Y301600D01*
X330440Y302249D02*
X334980D01*
X339172Y297300D02*
Y301600D01*
X335629Y293000D02*
Y297300D01*
X334229Y298700D02*
X335629Y297300D01*
X326509Y298700D02*
X334229D01*
X330440Y292800D02*
Y294960D01*
X328900Y296500D02*
X330440Y294960D01*
X324571Y296500D02*
X328900D01*
X322960Y294888D02*
X324571Y296500D01*
D40*
X341639Y288121D02*
X345026D01*
X339172Y285653D02*
X341639Y288121D01*
X362779Y269179D02*
Y278279D01*
X331200Y272300D02*
X333331Y274431D01*
X331269Y278368D02*
X337100D01*
X329300Y276400D02*
X331269Y278368D01*
X329300Y266837D02*
Y276400D01*
Y266837D02*
X334437Y261700D01*
X370843D01*
X382100Y272957D01*
X333331Y274431D02*
X337100D01*
X331200Y267200D02*
Y272300D01*
X338800Y267200D02*
Y270495D01*
X368042Y263900D02*
X377100Y272957D01*
X334500Y263900D02*
X368042D01*
X331200Y267200D02*
X334500Y263900D01*
X335300Y267200D02*
Y270495D01*
X346879Y288121D02*
X360774D01*
X345026D02*
X346879D01*
X351916Y276984D02*
Y277016D01*
Y275326D02*
Y276984D01*
X355853Y275326D02*
Y277347D01*
X355100Y278100D02*
X355853Y277347D01*
X353000Y278100D02*
X355100D01*
X351916Y277016D02*
X353000Y278100D01*
X350737Y278163D02*
X351916Y276984D01*
X361200Y267600D02*
X362779Y269179D01*
X350428Y267600D02*
X361200D01*
X347928Y270100D02*
X350428Y267600D01*
X343229Y298529D02*
X344500Y299800D01*
X343229Y296200D02*
Y298529D01*
X350046Y299700D02*
X353547Y296200D01*
X348900Y299700D02*
X350046D01*
X343229Y295824D02*
Y296200D01*
Y295824D02*
X347979Y291074D01*
X349947Y292601D02*
X353547Y296200D01*
X349947Y291074D02*
Y292601D01*
X356100Y304600D02*
X363100D01*
X356000Y304500D02*
X356100Y304600D01*
X363100D02*
X372100Y295600D01*
Y292642D02*
Y295600D01*
X387100Y292642D02*
Y297900D01*
X362922Y288121D02*
X366000Y285043D01*
X360774Y288121D02*
X362922D01*
X348507Y278163D02*
X350737D01*
X347863Y278807D02*
X348507Y278163D01*
X347863Y278807D02*
Y287137D01*
X346879Y288121D02*
X347863Y287137D01*
X355853Y291074D02*
Y294224D01*
X357829Y296200D01*
X360774Y288121D02*
X361372Y288719D01*
Y296200D01*
X362779Y278279D02*
X366000Y281500D01*
X347928Y270100D02*
X349947Y272119D01*
Y275326D01*
X355853Y273119D02*
X358872Y270100D01*
X355853Y273119D02*
Y275326D01*
X353884Y271545D02*
X355329Y270100D01*
X353884Y271545D02*
Y275326D01*
X351471Y270100D02*
X351916Y270544D01*
Y275326D01*
D41*
X348200Y278400D02*
D03*
X357400Y288100D02*
D03*
X361400Y292500D02*
D03*
X328000Y288700D02*
D03*
X334000Y305600D02*
D03*
X387100Y267000D02*
D03*
X377700Y302900D02*
D03*
X331400Y272400D02*
D03*
X331600Y278300D02*
D03*
X338800Y267200D02*
D03*
X335300D02*
D03*
X344500Y299800D02*
D03*
X348900Y299700D02*
D03*
X356000Y304500D02*
D03*
X387100Y297900D02*
D03*
X327700Y307900D02*
D03*
M02*
