G04*
G04 #@! TF.GenerationSoftware,Altium Limited,Altium Designer,18.1.9 (240)*
G04*
G04 Layer_Color=32768*
%FSLAX25Y25*%
%MOIN*%
G70*
G01*
G75*
%ADD49C,0.00394*%
%ADD51C,0.00100*%
%ADD52C,0.00197*%
D49*
X369364Y296800D02*
X389836D01*
X369364Y268800D02*
X389836D01*
Y296800D01*
X369364Y268800D02*
Y296800D01*
X342270Y293830D02*
X363530D01*
X342270Y272570D02*
Y293830D01*
Y272570D02*
X363530D01*
Y293830D01*
D51*
X326200Y276500D02*
G03*
X326200Y276500I-500J0D01*
G01*
X366200Y261000D02*
G03*
X366200Y261000I-500J0D01*
G01*
X375800Y274000D02*
G03*
X375800Y274000I-500J0D01*
G01*
X340600Y305700D02*
G03*
X340600Y305700I-500J0D01*
G01*
X350100Y261000D02*
G03*
X350100Y261000I-500J0D01*
G01*
X379300Y299375D02*
G03*
X379300Y299375I-500J0D01*
G01*
X337900Y293000D02*
G03*
X337900Y293000I-500J0D01*
G01*
Y297300D02*
G03*
X337900Y297300I-500J0D01*
G01*
Y301600D02*
G03*
X337900Y301600I-500J0D01*
G01*
X352275Y296200D02*
G03*
X352275Y296200I-500J0D01*
G01*
X345500Y296200D02*
G03*
X345500Y296200I-500J0D01*
G01*
X360100D02*
G03*
X360100Y296200I-500J0D01*
G01*
X350200Y270100D02*
G03*
X350200Y270100I-500J0D01*
G01*
X339672Y287425D02*
G03*
X339672Y287425I-500J0D01*
G01*
X357600Y270100D02*
G03*
X357600Y270100I-500J0D01*
G01*
X366500Y283271D02*
G03*
X366500Y283271I-500J0D01*
G01*
X325700Y275713D02*
Y277287D01*
X324913Y276500D02*
X326487D01*
X364913Y261000D02*
X366487D01*
X365700Y260213D02*
Y261787D01*
X375300Y273213D02*
Y274787D01*
X374513Y274000D02*
X376087D01*
X339313Y305700D02*
X340887D01*
X340100Y304913D02*
Y306487D01*
X348813Y261000D02*
X350387D01*
X349600Y260213D02*
Y261787D01*
X378013Y299375D02*
X379587D01*
X378800Y298588D02*
Y300163D01*
X336613Y293000D02*
X338187D01*
X337400Y292213D02*
Y293787D01*
X336613Y297300D02*
X338187D01*
X337400Y296513D02*
Y298087D01*
X336613Y301600D02*
X338187D01*
X337400Y300813D02*
Y302387D01*
X350988Y296200D02*
X352562D01*
X351775Y295413D02*
Y296988D01*
X344213Y296200D02*
X345787D01*
X345000Y295413D02*
Y296987D01*
X358813Y296200D02*
X360387D01*
X359600Y295413D02*
Y296987D01*
X348913Y270100D02*
X350487D01*
X349700Y269313D02*
Y270887D01*
X339172Y286637D02*
Y288212D01*
X338385Y287425D02*
X339959D01*
X356313Y270100D02*
X357887D01*
X357100Y269313D02*
Y270887D01*
X366000Y282484D02*
Y284059D01*
X365213Y283271D02*
X366788D01*
D52*
X380978Y282800D02*
G03*
X380978Y282800I-1378J0D01*
G01*
X354278Y283200D02*
G03*
X354278Y283200I-1378J0D01*
G01*
X377631Y282800D02*
X381569D01*
X379600Y280832D02*
Y284769D01*
X352900Y281231D02*
Y285169D01*
X350932Y283200D02*
X354869D01*
M02*
