G04*
G04 #@! TF.GenerationSoftware,Altium Limited,Altium Designer,18.1.9 (240)*
G04*
G04 Layer_Color=65535*
%FSLAX25Y25*%
%MOIN*%
G70*
G01*
G75*
%ADD10C,0.01968*%
%ADD11C,0.00800*%
%ADD12C,0.00984*%
%ADD13C,0.00500*%
%ADD14C,0.00787*%
%ADD15C,0.00700*%
%ADD16C,0.00600*%
D10*
X392208Y292800D02*
G03*
X392208Y292800I-608J0D01*
G01*
D11*
X389442Y284800D02*
G03*
X387442Y282800I0J-2000D01*
G01*
X387442Y282800D02*
G03*
X389442Y280800I2000J0D01*
G01*
X389442Y284800D02*
Y288800D01*
Y276800D02*
Y280800D01*
D12*
X343451Y290090D02*
G03*
X343451Y290090I-394J0D01*
G01*
D13*
X337400Y284079D02*
X339721D01*
X340943Y282857D01*
Y271457D02*
Y282857D01*
Y271457D02*
X345700Y266700D01*
X361700D01*
X368700Y273700D01*
Y292500D01*
X360400Y300800D02*
X368700Y292500D01*
X354300Y300800D02*
X360400D01*
X342500D02*
X354300D01*
X341600Y299900D02*
X342500Y300800D01*
X341600Y289157D02*
Y299900D01*
X339770Y287327D02*
X341600Y289157D01*
X337400Y287327D02*
X339770D01*
D14*
X369758Y288800D02*
X389442D01*
X369758Y276800D02*
X389442D01*
X369758D02*
Y288800D01*
D15*
X320795Y294375D02*
Y300674D01*
X332606Y294375D02*
Y300674D01*
X320795D02*
X332606D01*
X320795Y294375D02*
X332606D01*
X359199Y291491D02*
X361191D01*
Y289499D02*
Y291491D01*
Y274909D02*
Y276901D01*
X359199Y274909D02*
X361191D01*
X344609D02*
X346601D01*
X344609D02*
Y276901D01*
Y291491D02*
X346601D01*
X344609Y289499D02*
Y291491D01*
D16*
X378800Y298775D02*
Y299975D01*
X375454Y297604D02*
Y301147D01*
X382146D02*
X382146Y301147D01*
Y297604D02*
Y301147D01*
X379800Y297604D02*
X382146D01*
X375454D02*
X377800D01*
X379800Y301147D02*
X382146D01*
X375454D02*
X377800D01*
X337400Y292400D02*
Y293600D01*
X334054Y291229D02*
Y294772D01*
X340745D02*
X340746Y294771D01*
Y291229D02*
Y294771D01*
X338400Y291229D02*
X340746D01*
X334054D02*
X336400D01*
X338400Y294771D02*
X340746D01*
X334054D02*
X336400D01*
X337400Y296700D02*
Y297900D01*
X334054Y295529D02*
Y299072D01*
X340745D02*
X340746Y299071D01*
Y295529D02*
Y299071D01*
X338400Y295529D02*
X340746D01*
X334054D02*
X336400D01*
X338400Y299071D02*
X340746D01*
X334054D02*
X336400D01*
X337400Y301000D02*
Y302200D01*
X334054Y299829D02*
Y303372D01*
X340745D02*
X340746Y303371D01*
Y299829D02*
Y303371D01*
X338400Y299829D02*
X340746D01*
X334054D02*
X336400D01*
X338400Y303371D02*
X340746D01*
X334054D02*
X336400D01*
X355121Y294428D02*
Y297972D01*
X348625Y294428D02*
Y297972D01*
Y294428D02*
X355121D01*
X348625Y297972D02*
X355121D01*
X341654Y294429D02*
Y297972D01*
X348150Y294429D02*
Y297972D01*
X341654D02*
X348150D01*
X341654Y294429D02*
X348150D01*
X359600Y295600D02*
Y296800D01*
X356254Y294429D02*
Y297972D01*
X362946D02*
X362946Y297971D01*
Y294429D02*
Y297971D01*
X360600Y294429D02*
X362946D01*
X356254D02*
X358600D01*
X360600Y297971D02*
X362946D01*
X356254D02*
X358600D01*
X349700Y269500D02*
Y270700D01*
X353046Y268328D02*
Y271871D01*
X346354Y268329D02*
X346355Y268328D01*
X346354Y268329D02*
Y271871D01*
X348700D01*
X350700D02*
X353046D01*
X346354Y268329D02*
X348700D01*
X350700D02*
X353046D01*
X337400Y284079D02*
X340943D01*
X337400Y290575D02*
X340943D01*
X337400Y284079D02*
Y290575D01*
X340943Y284079D02*
Y290575D01*
X357100Y269500D02*
Y270700D01*
X353754Y268329D02*
Y271872D01*
X360445D02*
X360446Y271871D01*
Y268329D02*
Y271871D01*
X358100Y268329D02*
X360446D01*
X353754D02*
X356100D01*
X358100Y271871D02*
X360446D01*
X353754D02*
X356100D01*
X365400Y283271D02*
X366600D01*
X364228Y279925D02*
X367772D01*
X364228Y286617D02*
X364229Y286617D01*
X367772D01*
Y284271D02*
Y286617D01*
Y279925D02*
Y282271D01*
X364229Y284271D02*
Y286617D01*
Y279925D02*
Y282271D01*
M02*
