G04*
G04 #@! TF.GenerationSoftware,Altium Limited,Altium Designer,18.1.9 (240)*
G04*
G04 Layer_Color=128*
%FSLAX25Y25*%
%MOIN*%
G70*
G01*
G75*
%ADD10C,0.00200*%
D10*
X347600Y278400D02*
X348800D01*
X348200Y277800D02*
Y279000D01*
X356800Y288100D02*
X358000D01*
X357400Y287500D02*
Y288700D01*
X360800Y292500D02*
X362000D01*
X361400Y291900D02*
Y293100D01*
X327400Y288700D02*
X328600D01*
X328000Y288100D02*
Y289300D01*
X333400Y305600D02*
X334600D01*
X334000Y305000D02*
Y306200D01*
X386500Y267000D02*
X387700D01*
X387100Y266400D02*
Y267600D01*
X377100Y302900D02*
X378300D01*
X377700Y302300D02*
Y303500D01*
X330800Y272400D02*
X332000D01*
X331400Y271800D02*
Y273000D01*
X331000Y278300D02*
X332200D01*
X331600Y277700D02*
Y278900D01*
X338200Y267200D02*
X339400D01*
X338800Y266600D02*
Y267800D01*
X334700Y267200D02*
X335900D01*
X335300Y266600D02*
Y267800D01*
X343900Y299800D02*
X345100D01*
X344500Y299200D02*
Y300400D01*
X348300Y299700D02*
X349500D01*
X348900Y299100D02*
Y300300D01*
X355400Y304500D02*
X356600D01*
X356000Y303900D02*
Y305100D01*
X386500Y297900D02*
X387700D01*
X387100Y297300D02*
Y298500D01*
X327100Y307900D02*
X328300D01*
X327700Y307300D02*
Y308500D01*
M02*
