G04*
G04 #@! TF.GenerationSoftware,Altium Limited,Altium Designer,18.1.9 (240)*
G04*
G04 Layer_Physical_Order=1*
G04 Layer_Color=255*
%FSLAX25Y25*%
%MOIN*%
G70*
G01*
G75*
%ADD10C,0.01000*%
%ADD15R,0.03000X0.03000*%
%ADD16R,0.03000X0.03000*%
%ADD17R,0.05000X0.06500*%
%ADD18R,0.04724X0.05512*%
%ADD19R,0.08268X0.12598*%
%ADD20R,0.08268X0.03543*%
%ADD32C,0.05000*%
%ADD33C,0.02000*%
%ADD34C,0.01500*%
%ADD35R,0.06693X0.06693*%
%ADD36C,0.06693*%
%ADD37R,0.06693X0.06693*%
%ADD38C,0.05906*%
%ADD39R,0.04724X0.11811*%
%ADD40C,0.01600*%
G36*
X225254Y20991D02*
Y11318D01*
X225248Y10818D01*
X225238Y10721D01*
X225276Y10332D01*
X225369Y9386D01*
X225759Y8104D01*
X226390Y6921D01*
X227241Y5885D01*
X228277Y5034D01*
X229459Y4403D01*
X230742Y4013D01*
X232076Y3882D01*
X233411Y4013D01*
X234693Y4403D01*
X235876Y5034D01*
X236912Y5885D01*
X237762Y6921D01*
X238394Y8104D01*
X238783Y9386D01*
X238915Y10721D01*
X238899D01*
Y21202D01*
X241275Y23577D01*
X263958D01*
X263976Y23559D01*
X263976Y23559D01*
X263976Y23559D01*
X265927Y23431D01*
X268311Y22956D01*
X270614Y22175D01*
X272795Y21099D01*
X274817Y19748D01*
X276645Y18145D01*
X278248Y16317D01*
X279599Y14295D01*
X280675Y12114D01*
X281456Y9811D01*
X281931Y7427D01*
X282088Y5028D01*
X282082Y5000D01*
X282082Y-195476D01*
X282059Y-195976D01*
X282059D01*
X282059Y-195976D01*
X281931Y-197926D01*
X281456Y-200311D01*
X280675Y-202614D01*
X279599Y-204795D01*
X278248Y-206817D01*
X276645Y-208645D01*
X274817Y-210248D01*
X272795Y-211599D01*
X270614Y-212675D01*
X268311Y-213456D01*
X265927Y-213931D01*
X263780Y-214071D01*
X263751Y-214052D01*
X263400Y-213982D01*
X241380D01*
X239494Y-212096D01*
Y-203291D01*
X239512D01*
X239369Y-201841D01*
X238946Y-200446D01*
X238259Y-199160D01*
X237334Y-198033D01*
X236208Y-197109D01*
X234922Y-196422D01*
X233527Y-195998D01*
X232076Y-195855D01*
X230626Y-195998D01*
X229231Y-196422D01*
X227945Y-197109D01*
X226818Y-198033D01*
X225894Y-199160D01*
X225207Y-200446D01*
X224783Y-201841D01*
X224641Y-203291D01*
X224659D01*
Y-211944D01*
X222520Y-214082D01*
X219604D01*
Y-201494D01*
X213679D01*
Y-214082D01*
X187320D01*
Y-201627D01*
X187320Y-201494D01*
X187640Y-201127D01*
X189205D01*
X197062Y-208984D01*
X197397Y-209792D01*
X197966Y-210534D01*
X198708Y-211103D01*
X199573Y-211461D01*
X200500Y-211583D01*
X201427Y-211461D01*
X202292Y-211103D01*
X203034Y-210534D01*
X203603Y-209792D01*
X203961Y-208927D01*
X204083Y-208000D01*
X203961Y-207073D01*
X203603Y-206208D01*
X203034Y-205466D01*
X202292Y-204897D01*
X201484Y-204562D01*
X192711Y-195789D01*
X192063Y-195292D01*
X191309Y-194980D01*
X190500Y-194873D01*
X190500Y-194873D01*
X98500D01*
X97691Y-194980D01*
X96937Y-195292D01*
X96289Y-195789D01*
X96289Y-195789D01*
X95936Y-196142D01*
X95883Y-196163D01*
X93850Y-198126D01*
X92868Y-198986D01*
X92500Y-199274D01*
X92218Y-199468D01*
X92062Y-199552D01*
X92003Y-199528D01*
X91942Y-199554D01*
X89053D01*
Y-207447D01*
X96947D01*
Y-204558D01*
X96972Y-204497D01*
X96948Y-204438D01*
X97014Y-204315D01*
X99601Y-201361D01*
X99832Y-201127D01*
X181076D01*
X181396Y-201494D01*
X181396Y-201627D01*
Y-214082D01*
X51680D01*
X50023Y-212425D01*
Y-203300D01*
X50038D01*
X49907Y-201966D01*
X49518Y-200683D01*
X48886Y-199501D01*
X48035Y-198465D01*
X46999Y-197614D01*
X45817Y-196982D01*
X44534Y-196593D01*
X43200Y-196462D01*
X41866Y-196593D01*
X40583Y-196982D01*
X39401Y-197614D01*
X38364Y-198465D01*
X37514Y-199501D01*
X36882Y-200683D01*
X36493Y-201966D01*
X36396Y-202947D01*
X36362Y-203300D01*
X36375Y-203436D01*
X36378Y-203934D01*
Y-212124D01*
X34520Y-213982D01*
X18094D01*
X17788Y-214043D01*
X16073Y-213931D01*
X13689Y-213456D01*
X11386Y-212675D01*
X9205Y-211599D01*
X7183Y-210248D01*
X5355Y-208645D01*
X3752Y-206817D01*
X2401Y-204795D01*
X1325Y-202614D01*
X544Y-200311D01*
X69Y-197926D01*
X-88Y-195528D01*
X-82Y-195500D01*
X-82Y4976D01*
X-59Y5476D01*
X-59D01*
X-59Y5476D01*
X69Y7427D01*
X544Y9811D01*
X1325Y12114D01*
X2401Y14295D01*
X3752Y16317D01*
X5355Y18145D01*
X7183Y19748D01*
X9205Y21099D01*
X11386Y22175D01*
X13689Y22956D01*
X16073Y23431D01*
X18223Y23572D01*
X18243Y23558D01*
X18595Y23488D01*
X34514D01*
X36277Y21725D01*
Y10721D01*
X36262D01*
X36393Y9386D01*
X36782Y8104D01*
X37414Y6921D01*
X38265Y5885D01*
X39301Y5034D01*
X40483Y4403D01*
X41766Y4013D01*
X43100Y3882D01*
X44434Y4013D01*
X45717Y4403D01*
X46899Y5034D01*
X47936Y5885D01*
X48786Y6921D01*
X49418Y8104D01*
X49807Y9386D01*
X49938Y10721D01*
X49923D01*
Y21420D01*
X52086Y23582D01*
X222663D01*
X225254Y20991D01*
D02*
G37*
G36*
X99870Y-200166D02*
X99125Y-200918D01*
X96477Y-203942D01*
X96339Y-204198D01*
X96287Y-204383D01*
X96323Y-204497D01*
X92003Y-200178D01*
X92117Y-200213D01*
X92302Y-200161D01*
X92558Y-200023D01*
X92884Y-199798D01*
X93282Y-199487D01*
X94290Y-198604D01*
X96334Y-196630D01*
X99870Y-200166D01*
D02*
G37*
%LPC*%
G36*
X215000Y-4201D02*
Y-5437D01*
X216236D01*
X216196Y-5235D01*
X215798Y-4639D01*
X215202Y-4241D01*
X215000Y-4201D01*
D02*
G37*
G36*
X78937D02*
X78735Y-4241D01*
X78139Y-4639D01*
X77741Y-5235D01*
X77701Y-5437D01*
X78937D01*
Y-4201D01*
D02*
G37*
G36*
X214000D02*
X213798Y-4241D01*
X213202Y-4639D01*
X212804Y-5235D01*
X212692Y-5798D01*
X210867Y-7624D01*
X173112D01*
X171287Y-5798D01*
X171175Y-5235D01*
X170777Y-4639D01*
X170181Y-4241D01*
X169979Y-4201D01*
Y-5937D01*
X168979D01*
Y-4201D01*
X168777Y-4241D01*
X168181Y-4639D01*
X167783Y-5235D01*
X167671Y-5798D01*
X165846Y-7624D01*
X128091D01*
X126266Y-5798D01*
X126154Y-5235D01*
X125756Y-4639D01*
X125160Y-4241D01*
X124958Y-4201D01*
Y-5937D01*
X123958D01*
Y-4201D01*
X123756Y-4241D01*
X123160Y-4639D01*
X122762Y-5235D01*
X122650Y-5798D01*
X120825Y-7624D01*
X83070D01*
X81245Y-5798D01*
X81133Y-5235D01*
X80735Y-4639D01*
X80139Y-4241D01*
X79937Y-4201D01*
Y-5937D01*
X79437D01*
Y-6437D01*
X77701D01*
X77741Y-6639D01*
X78139Y-7235D01*
X78735Y-7633D01*
X79298Y-7745D01*
X81527Y-9973D01*
X81973Y-10272D01*
X82500Y-10376D01*
X119531D01*
X119683Y-10876D01*
X119512Y-10991D01*
X119367Y-11208D01*
X116951Y-13624D01*
X79070D01*
X76654Y-11208D01*
X76509Y-10991D01*
X76046Y-10681D01*
X75500Y-10573D01*
X74954Y-10681D01*
X74491Y-10991D01*
X74181Y-11454D01*
X74073Y-12000D01*
X74181Y-12546D01*
X74491Y-13009D01*
X74708Y-13155D01*
X77527Y-15973D01*
X77973Y-16272D01*
X78500Y-16376D01*
X115500D01*
X115651Y-16876D01*
X115575Y-16928D01*
X115429Y-17145D01*
X112951Y-19624D01*
X75196D01*
X72717Y-17145D01*
X72572Y-16928D01*
X72109Y-16618D01*
X71563Y-16510D01*
X71017Y-16618D01*
X70554Y-16928D01*
X70244Y-17391D01*
X70136Y-17937D01*
X70244Y-18483D01*
X70554Y-18946D01*
X70771Y-19092D01*
X73653Y-21973D01*
X74099Y-22272D01*
X74626Y-22376D01*
X113521D01*
X114048Y-22272D01*
X114494Y-21973D01*
X116584Y-19884D01*
X118674Y-21973D01*
X119120Y-22272D01*
X119647Y-22376D01*
X158542D01*
X159069Y-22272D01*
X159515Y-21973D01*
X161605Y-19884D01*
X163695Y-21973D01*
X164141Y-22272D01*
X164668Y-22376D01*
X203563D01*
X204090Y-22272D01*
X204536Y-21973D01*
X207418Y-19092D01*
X207635Y-18946D01*
X207945Y-18483D01*
X208053Y-17937D01*
X207945Y-17391D01*
X207635Y-16928D01*
X207559Y-16876D01*
X207560Y-16661D01*
X207677Y-16354D01*
X208090Y-16272D01*
X208536Y-15973D01*
X211355Y-13155D01*
X211572Y-13009D01*
X211882Y-12546D01*
X211990Y-12000D01*
X211882Y-11454D01*
X211572Y-10991D01*
X211401Y-10876D01*
X211421Y-10602D01*
X211526Y-10359D01*
X211964Y-10272D01*
X212410Y-9973D01*
X214639Y-7745D01*
X215202Y-7633D01*
X215798Y-7235D01*
X216196Y-6639D01*
X216236Y-6437D01*
X214500D01*
Y-5937D01*
X214000D01*
Y-4201D01*
D02*
G37*
G36*
X67626Y-21747D02*
X66817Y-21854D01*
X66063Y-22166D01*
X65415Y-22663D01*
X64918Y-23311D01*
X64606Y-24065D01*
X64499Y-24874D01*
Y-76272D01*
X58982Y-81789D01*
X58982Y-81789D01*
X57627Y-83144D01*
X55731D01*
Y-85040D01*
X53289Y-87482D01*
X52792Y-88130D01*
X52480Y-88884D01*
X52373Y-89693D01*
X52373Y-89693D01*
Y-99705D01*
X48705Y-103373D01*
X42279D01*
X41470Y-103480D01*
X40716Y-103792D01*
X40278Y-104128D01*
X37546D01*
Y-108872D01*
X40278D01*
X40716Y-109208D01*
X41470Y-109520D01*
X42279Y-109627D01*
X50000D01*
X50000Y-109627D01*
X50809Y-109520D01*
X51563Y-109208D01*
X52211Y-108711D01*
X57711Y-103211D01*
X57711Y-103211D01*
X58208Y-102563D01*
X58520Y-101809D01*
X58627Y-101000D01*
Y-90988D01*
X59759Y-89856D01*
X61655D01*
Y-87960D01*
X62488Y-87127D01*
X64000D01*
Y-88618D01*
X66500D01*
X67855D01*
X67988Y-88485D01*
X67903Y-88601D01*
X67898Y-88618D01*
X69000D01*
Y-87127D01*
X76205D01*
X87373Y-98295D01*
Y-166269D01*
X87053Y-166686D01*
X86655Y-167646D01*
X86519Y-168676D01*
X86655Y-169707D01*
X87053Y-170667D01*
X87685Y-171491D01*
X88510Y-172124D01*
X89470Y-172521D01*
X90500Y-172657D01*
X91530Y-172521D01*
X92490Y-172124D01*
X93315Y-171491D01*
X93947Y-170667D01*
X94345Y-169707D01*
X94481Y-168676D01*
X94345Y-167646D01*
X93947Y-166686D01*
X93627Y-166269D01*
Y-97000D01*
X93520Y-96191D01*
X93208Y-95437D01*
X92711Y-94789D01*
X92711Y-94789D01*
X79711Y-81789D01*
X79063Y-81292D01*
X78309Y-80980D01*
X77500Y-80873D01*
X77500Y-80873D01*
X69395D01*
X69204Y-80411D01*
X69837Y-79778D01*
X69837Y-79778D01*
X70334Y-79130D01*
X70646Y-78376D01*
X70753Y-77567D01*
Y-28876D01*
X110021D01*
X110548Y-28772D01*
X110994Y-28473D01*
X112647Y-26821D01*
X114300Y-28473D01*
X114300Y-28473D01*
X114746Y-28772D01*
X115273Y-28877D01*
X115273Y-28876D01*
X155042D01*
X155569Y-28772D01*
X156015Y-28473D01*
X157668Y-26821D01*
X159321Y-28473D01*
X159321Y-28473D01*
X159767Y-28772D01*
X160294Y-28877D01*
X160294Y-28876D01*
X200063D01*
X200590Y-28772D01*
X201036Y-28473D01*
X203481Y-26029D01*
X203698Y-25883D01*
X204008Y-25420D01*
X204116Y-24874D01*
X204008Y-24328D01*
X203698Y-23865D01*
X203235Y-23555D01*
X202689Y-23447D01*
X202143Y-23555D01*
X201680Y-23865D01*
X201534Y-24082D01*
X199493Y-26124D01*
X160864D01*
X158823Y-24082D01*
X158677Y-23865D01*
X158214Y-23555D01*
X157668Y-23447D01*
X157122Y-23555D01*
X156659Y-23865D01*
X156513Y-24082D01*
X154472Y-26124D01*
X115843D01*
X113802Y-24082D01*
X113656Y-23865D01*
X113193Y-23555D01*
X112647Y-23447D01*
X112101Y-23555D01*
X111638Y-23865D01*
X111492Y-24082D01*
X109451Y-26124D01*
X71080D01*
X71043Y-26001D01*
X70800Y-24812D01*
X70745Y-24439D01*
X70681Y-24332D01*
X70646Y-24065D01*
X70334Y-23311D01*
X69837Y-22663D01*
X69189Y-22166D01*
X68435Y-21854D01*
X67626Y-21747D01*
D02*
G37*
G36*
X48669Y-82744D02*
X45807D01*
Y-86000D01*
X48669D01*
Y-82744D01*
D02*
G37*
G36*
X44807D02*
X41945D01*
Y-86000D01*
X44807D01*
Y-82744D01*
D02*
G37*
G36*
X48669Y-87000D02*
X45807D01*
Y-90256D01*
X48669D01*
Y-87000D01*
D02*
G37*
G36*
X66000Y-89618D02*
X64000D01*
Y-91618D01*
X66000D01*
Y-90516D01*
X65983Y-90521D01*
X65867Y-90606D01*
X66000Y-90473D01*
Y-89618D01*
D02*
G37*
G36*
X69017D02*
X68195D01*
X68285Y-89747D01*
X68497Y-90012D01*
X69049Y-90606D01*
X67988Y-91667D01*
X67680Y-91370D01*
X67129Y-90903D01*
X67000Y-90813D01*
Y-91645D01*
X67245Y-91852D01*
X67537Y-92134D01*
X67590Y-92155D01*
X71192Y-95757D01*
X71304Y-96320D01*
X71702Y-96916D01*
X72298Y-97314D01*
X72500Y-97354D01*
Y-95618D01*
X73000D01*
Y-95118D01*
X74736D01*
X74696Y-94916D01*
X74298Y-94320D01*
X73702Y-93923D01*
X73139Y-93810D01*
X69543Y-90215D01*
X69525Y-90164D01*
X69017Y-89618D01*
D02*
G37*
G36*
X44807Y-87000D02*
X41945D01*
Y-87555D01*
X41126Y-88374D01*
X40772Y-88903D01*
X40648Y-89528D01*
Y-93628D01*
X40630Y-93668D01*
X40621Y-94031D01*
X40595Y-94328D01*
X40554Y-94574D01*
X40527Y-94673D01*
X37146D01*
Y-96945D01*
X42279D01*
X47413D01*
Y-94673D01*
X44032D01*
X44005Y-94574D01*
X43964Y-94328D01*
X43938Y-94031D01*
X43929Y-93668D01*
X43911Y-93628D01*
Y-90256D01*
X44807D01*
Y-87000D01*
D02*
G37*
G36*
X74736Y-96118D02*
X73500D01*
Y-97354D01*
X73702Y-97314D01*
X74298Y-96916D01*
X74696Y-96320D01*
X74736Y-96118D01*
D02*
G37*
G36*
X47413Y-97945D02*
X42779D01*
Y-100216D01*
X47413D01*
Y-97945D01*
D02*
G37*
G36*
X41780D02*
X37146D01*
Y-100216D01*
X41780D01*
Y-97945D01*
D02*
G37*
G36*
X69454Y-99601D02*
X59987D01*
Y-113399D01*
X69454D01*
Y-99601D01*
D02*
G37*
G36*
X65248Y-122744D02*
X62386D01*
Y-126000D01*
X65248D01*
Y-122744D01*
D02*
G37*
G36*
X61386D02*
X58524D01*
Y-126000D01*
X61386D01*
Y-122744D01*
D02*
G37*
G36*
X43000Y-129618D02*
X41000D01*
Y-131618D01*
X43000D01*
Y-129618D01*
D02*
G37*
G36*
X40000D02*
X38000D01*
Y-131618D01*
X40000D01*
Y-129618D01*
D02*
G37*
G36*
X65248Y-127000D02*
X58524D01*
Y-130256D01*
X60132D01*
X60160Y-130362D01*
X60201Y-130606D01*
X60227Y-130901D01*
X60237Y-131261D01*
X60255Y-131301D01*
Y-140402D01*
X60190Y-140498D01*
X60150Y-140700D01*
X63622D01*
X63581Y-140498D01*
X63517Y-140402D01*
Y-131301D01*
X63535Y-131261D01*
X63544Y-130901D01*
X63571Y-130606D01*
X63611Y-130362D01*
X63640Y-130256D01*
X65248D01*
Y-127000D01*
D02*
G37*
G36*
X63622Y-141700D02*
X60150D01*
X60190Y-141902D01*
X60255Y-141998D01*
Y-152984D01*
X60245Y-152998D01*
X60205Y-153200D01*
X63676D01*
X63636Y-152998D01*
X63517Y-152820D01*
Y-141998D01*
X63581Y-141902D01*
X63622Y-141700D01*
D02*
G37*
G36*
X277847Y-149653D02*
X274000D01*
Y-153500D01*
X277847D01*
Y-149653D01*
D02*
G37*
G36*
X273000D02*
X269153D01*
Y-153500D01*
X273000D01*
Y-149653D01*
D02*
G37*
G36*
X277847Y-154500D02*
X274000D01*
Y-158346D01*
X277847D01*
Y-154500D01*
D02*
G37*
G36*
X273000D02*
X269153D01*
Y-158346D01*
X273000D01*
Y-154500D01*
D02*
G37*
G36*
X273500Y-160020D02*
X272470Y-160155D01*
X271510Y-160553D01*
X270685Y-161185D01*
X270053Y-162010D01*
X269655Y-162970D01*
X269519Y-164000D01*
X269655Y-165030D01*
X270053Y-165990D01*
X270685Y-166815D01*
X271510Y-167447D01*
X272470Y-167845D01*
X273500Y-167981D01*
X274530Y-167845D01*
X275490Y-167447D01*
X276315Y-166815D01*
X276947Y-165990D01*
X277345Y-165030D01*
X277481Y-164000D01*
X277345Y-162970D01*
X276947Y-162010D01*
X276315Y-161185D01*
X275490Y-160553D01*
X274530Y-160155D01*
X273500Y-160020D01*
D02*
G37*
G36*
X124846Y-164330D02*
X121000D01*
Y-168176D01*
X124846D01*
Y-164330D01*
D02*
G37*
G36*
X63676Y-154200D02*
X60205D01*
X60245Y-154402D01*
X60255Y-154416D01*
Y-165141D01*
X60236Y-165184D01*
X60234Y-165556D01*
X60214Y-166170D01*
X60214Y-166176D01*
X59617D01*
Y-168176D01*
X64617D01*
Y-166176D01*
X63606D01*
X63594Y-166118D01*
X63542Y-165533D01*
X63535Y-165176D01*
X63517Y-165135D01*
Y-154580D01*
X63636Y-154402D01*
X63676Y-154200D01*
D02*
G37*
G36*
X120000Y-164330D02*
X116154D01*
Y-168176D01*
X120000D01*
Y-164330D01*
D02*
G37*
G36*
X64617Y-169176D02*
X62617D01*
Y-171177D01*
X64617D01*
Y-169176D01*
D02*
G37*
G36*
X61617D02*
X59617D01*
Y-171177D01*
X61617D01*
Y-169176D01*
D02*
G37*
G36*
X110500Y-164696D02*
X109470Y-164832D01*
X108510Y-165229D01*
X107685Y-165862D01*
X107053Y-166686D01*
X106655Y-167646D01*
X106519Y-168676D01*
X106655Y-169707D01*
X107053Y-170667D01*
X107685Y-171491D01*
X108510Y-172124D01*
X109470Y-172521D01*
X110500Y-172657D01*
X111530Y-172521D01*
X112490Y-172124D01*
X113315Y-171491D01*
X113947Y-170667D01*
X114345Y-169707D01*
X114480Y-168676D01*
X114345Y-167646D01*
X113947Y-166686D01*
X113315Y-165862D01*
X112490Y-165229D01*
X111530Y-164832D01*
X110500Y-164696D01*
D02*
G37*
G36*
X100500D02*
X99470Y-164832D01*
X98510Y-165229D01*
X97685Y-165862D01*
X97053Y-166686D01*
X96655Y-167646D01*
X96520Y-168676D01*
X96655Y-169707D01*
X97053Y-170667D01*
X97685Y-171491D01*
X98510Y-172124D01*
X99470Y-172521D01*
X100500Y-172657D01*
X101530Y-172521D01*
X102490Y-172124D01*
X103315Y-171491D01*
X103947Y-170667D01*
X104345Y-169707D01*
X104481Y-168676D01*
X104345Y-167646D01*
X103947Y-166686D01*
X103315Y-165862D01*
X102490Y-165229D01*
X101530Y-164832D01*
X100500Y-164696D01*
D02*
G37*
G36*
X124846Y-169176D02*
X121000D01*
Y-173023D01*
X124846D01*
Y-169176D01*
D02*
G37*
G36*
X120000D02*
X116154D01*
Y-173023D01*
X120000D01*
Y-169176D01*
D02*
G37*
G36*
X42279Y-112428D02*
X41470Y-112535D01*
X40716Y-112847D01*
X40278Y-113183D01*
X37546D01*
Y-116366D01*
X37480Y-116525D01*
X37373Y-117335D01*
X37373Y-117335D01*
Y-124000D01*
X37480Y-124809D01*
X37792Y-125563D01*
X38218Y-126118D01*
X38070Y-126618D01*
X38000D01*
Y-128618D01*
X40500D01*
X43000D01*
Y-127127D01*
X44705D01*
X45373Y-127795D01*
Y-178000D01*
X45373Y-178000D01*
X45480Y-178809D01*
X45792Y-179563D01*
X46289Y-180211D01*
X58289Y-192211D01*
X58289Y-192211D01*
X58937Y-192708D01*
X59691Y-193020D01*
X60500Y-193127D01*
X187199D01*
X187251Y-193149D01*
X189036Y-193179D01*
X190402Y-193265D01*
X190916Y-193327D01*
X191318Y-193400D01*
X191594Y-193475D01*
X191650Y-193500D01*
Y-193850D01*
X192172D01*
X192262Y-193887D01*
X192352Y-193850D01*
X197850D01*
Y-190203D01*
X197877Y-190000D01*
X197850Y-189797D01*
Y-186150D01*
X192352D01*
X192262Y-186113D01*
X192172Y-186150D01*
X191650D01*
Y-186500D01*
X191593Y-186525D01*
X191318Y-186600D01*
X190934Y-186670D01*
X188189Y-186843D01*
X187257Y-186851D01*
X187203Y-186873D01*
X82809D01*
Y-183698D01*
X82839Y-183648D01*
X82827Y-183599D01*
X82846Y-183551D01*
X82809Y-183461D01*
Y-182939D01*
X82344D01*
X82330Y-182931D01*
X82326Y-182925D01*
X82288Y-182834D01*
X82244Y-182682D01*
X82207Y-182483D01*
X82156Y-181897D01*
X82149Y-181539D01*
X82131Y-181498D01*
Y-173944D01*
X82149Y-173907D01*
X82161Y-173639D01*
X82193Y-173404D01*
X82247Y-173171D01*
X82323Y-172939D01*
X82422Y-172707D01*
X82546Y-172474D01*
X82694Y-172239D01*
X82868Y-172004D01*
X83069Y-171767D01*
X83310Y-171517D01*
X83327Y-171476D01*
X83947Y-170667D01*
X84345Y-169707D01*
X84481Y-168676D01*
X84345Y-167646D01*
X83947Y-166686D01*
X83315Y-165862D01*
X82490Y-165229D01*
X81530Y-164832D01*
X80500Y-164696D01*
X79470Y-164832D01*
X78510Y-165229D01*
X77701Y-165850D01*
X77660Y-165866D01*
X77409Y-166107D01*
X77173Y-166308D01*
X76937Y-166482D01*
X76703Y-166631D01*
X76469Y-166754D01*
X76237Y-166853D01*
X76005Y-166929D01*
X75772Y-166983D01*
X75537Y-167016D01*
X75269Y-167028D01*
X75232Y-167045D01*
X70773D01*
X70731Y-167027D01*
X70367Y-167022D01*
X69765Y-166986D01*
X69549Y-166957D01*
X69380Y-166924D01*
X69335Y-166910D01*
Y-166577D01*
X68813D01*
X68723Y-166539D01*
X68657Y-166567D01*
X68586Y-166554D01*
X68553Y-166577D01*
X65135D01*
Y-170776D01*
X68553D01*
X68586Y-170799D01*
X68657Y-170786D01*
X68723Y-170814D01*
X68813Y-170776D01*
X69335D01*
Y-170443D01*
X69380Y-170430D01*
X69533Y-170399D01*
X70373Y-170331D01*
X70731Y-170326D01*
X70773Y-170308D01*
X75232D01*
X75269Y-170325D01*
X75537Y-170337D01*
X75772Y-170370D01*
X76005Y-170423D01*
X76237Y-170500D01*
X76469Y-170599D01*
X76703Y-170722D01*
X76937Y-170870D01*
X77173Y-171045D01*
X77409Y-171246D01*
X77660Y-171487D01*
X77681Y-171495D01*
X77690Y-171517D01*
X77931Y-171767D01*
X78132Y-172004D01*
X78306Y-172239D01*
X78454Y-172474D01*
X78578Y-172707D01*
X78677Y-172939D01*
X78753Y-173171D01*
X78807Y-173404D01*
X78839Y-173639D01*
X78851Y-173907D01*
X78869Y-173944D01*
Y-181500D01*
X78851Y-181541D01*
X78840Y-182247D01*
X78808Y-182775D01*
X78789Y-182939D01*
X78609D01*
Y-183461D01*
X78571Y-183551D01*
X78609Y-183642D01*
Y-186873D01*
X61795D01*
X51627Y-176705D01*
Y-126500D01*
X51520Y-125691D01*
X51462Y-125551D01*
Y-123144D01*
X49566D01*
X48211Y-121789D01*
X47563Y-121292D01*
X46809Y-120980D01*
X46000Y-120873D01*
X46000Y-120873D01*
X43627D01*
Y-118630D01*
X44330Y-117927D01*
X47013D01*
Y-113183D01*
X44281D01*
X43843Y-112847D01*
X43089Y-112535D01*
X42279Y-112428D01*
D02*
G37*
G36*
X83500Y-199182D02*
Y-203000D01*
X87318D01*
X87235Y-202365D01*
X86797Y-201308D01*
X86100Y-200400D01*
X85192Y-199703D01*
X84135Y-199265D01*
X83500Y-199182D01*
D02*
G37*
G36*
X82500D02*
X81865Y-199265D01*
X80808Y-199703D01*
X79900Y-200400D01*
X79203Y-201308D01*
X78765Y-202365D01*
X78682Y-203000D01*
X82500D01*
Y-199182D01*
D02*
G37*
G36*
X87318Y-204000D02*
X83500D01*
Y-207818D01*
X84135Y-207735D01*
X85192Y-207297D01*
X86100Y-206600D01*
X86797Y-205692D01*
X87235Y-204635D01*
X87318Y-204000D01*
D02*
G37*
G36*
X82500D02*
X78682D01*
X78765Y-204635D01*
X79203Y-205692D01*
X79900Y-206600D01*
X80808Y-207297D01*
X81865Y-207735D01*
X82500Y-207818D01*
Y-204000D01*
D02*
G37*
G36*
X211350Y-186150D02*
X205150D01*
Y-189797D01*
X205123Y-190000D01*
X205150Y-190203D01*
Y-193850D01*
X205247D01*
Y-206264D01*
X204912Y-207072D01*
X204790Y-208000D01*
X204912Y-208927D01*
X205270Y-209791D01*
X205840Y-210533D01*
X206582Y-211103D01*
X207446Y-211461D01*
X208374Y-211583D01*
X209301Y-211461D01*
X210165Y-211103D01*
X210908Y-210533D01*
X211477Y-209791D01*
X211835Y-208927D01*
X211957Y-208000D01*
X211835Y-207072D01*
X211501Y-206264D01*
Y-190124D01*
X211501Y-190124D01*
X211394Y-189314D01*
X211350Y-189208D01*
Y-186150D01*
D02*
G37*
%LPD*%
G36*
X70160Y-24924D02*
X70413Y-26161D01*
X70482Y-26388D01*
X70554Y-26583D01*
X70627Y-26744D01*
X70704Y-26873D01*
X70782Y-26970D01*
X69722Y-28030D01*
X69626Y-27952D01*
X69497Y-27876D01*
X69335Y-27802D01*
X69140Y-27730D01*
X68913Y-27661D01*
X68360Y-27530D01*
X67676Y-27408D01*
X67285Y-27351D01*
X70103Y-24533D01*
X70160Y-24924D01*
D02*
G37*
G36*
X43290Y-94068D02*
X43319Y-94410D01*
X43369Y-94711D01*
X43439Y-94973D01*
X43529Y-95194D01*
X43639Y-95375D01*
X43769Y-95516D01*
X43920Y-95617D01*
X44089Y-95677D01*
X44280Y-95697D01*
X40279D01*
X40470Y-95677D01*
X40639Y-95617D01*
X40789Y-95516D01*
X40920Y-95375D01*
X41030Y-95194D01*
X41120Y-94973D01*
X41190Y-94711D01*
X41240Y-94410D01*
X41269Y-94068D01*
X41280Y-93685D01*
X43279D01*
X43290Y-94068D01*
D02*
G37*
G36*
X63696Y-129264D02*
X63526Y-129324D01*
X63376Y-129424D01*
X63246Y-129564D01*
X63136Y-129744D01*
X63046Y-129964D01*
X62976Y-130224D01*
X62926Y-130524D01*
X62896Y-130864D01*
X62886Y-131244D01*
X60886D01*
X60876Y-130864D01*
X60846Y-130524D01*
X60796Y-130224D01*
X60726Y-129964D01*
X60636Y-129744D01*
X60526Y-129564D01*
X60396Y-129424D01*
X60246Y-129324D01*
X60076Y-129264D01*
X59886Y-129244D01*
X63886D01*
X63696Y-129264D01*
D02*
G37*
G36*
X62893Y-165568D02*
X62950Y-166209D01*
X63001Y-166469D01*
X63066Y-166689D01*
X63145Y-166868D01*
X63238Y-167008D01*
X63346Y-167109D01*
X63468Y-167168D01*
X63605Y-167189D01*
X60629D01*
X60678Y-167168D01*
X60721Y-167109D01*
X60760Y-167008D01*
X60793Y-166868D01*
X60822Y-166689D01*
X60863Y-166209D01*
X60883Y-165568D01*
X60886Y-165189D01*
X62886D01*
X62893Y-165568D01*
D02*
G37*
G36*
X68743Y-167281D02*
X68803Y-167364D01*
X68903Y-167437D01*
X69043Y-167501D01*
X69223Y-167554D01*
X69443Y-167598D01*
X69703Y-167633D01*
X70343Y-167672D01*
X70723Y-167676D01*
Y-169676D01*
X70343Y-169681D01*
X69443Y-169755D01*
X69223Y-169799D01*
X69043Y-169852D01*
X68903Y-169916D01*
X68803Y-169989D01*
X68743Y-170072D01*
X68723Y-170165D01*
Y-167189D01*
X68743Y-167281D01*
D02*
G37*
G36*
X78110Y-171019D02*
X77845Y-170764D01*
X77577Y-170536D01*
X77304Y-170334D01*
X77029Y-170160D01*
X76749Y-170012D01*
X76466Y-169891D01*
X76180Y-169797D01*
X75890Y-169730D01*
X75596Y-169690D01*
X75299Y-169676D01*
Y-167676D01*
X75596Y-167663D01*
X75890Y-167623D01*
X76180Y-167556D01*
X76466Y-167462D01*
X76749Y-167341D01*
X77029Y-167193D01*
X77304Y-167019D01*
X77577Y-166817D01*
X77845Y-166589D01*
X78110Y-166334D01*
Y-171019D01*
D02*
G37*
G36*
X82587Y-171331D02*
X82359Y-171600D01*
X82158Y-171872D01*
X81983Y-172148D01*
X81836Y-172427D01*
X81715Y-172710D01*
X81621Y-172997D01*
X81554Y-173287D01*
X81513Y-173581D01*
X81500Y-173878D01*
X79500D01*
X79487Y-173581D01*
X79446Y-173287D01*
X79379Y-172997D01*
X79285Y-172710D01*
X79164Y-172427D01*
X79017Y-172148D01*
X78842Y-171872D01*
X78641Y-171600D01*
X78412Y-171331D01*
X78158Y-171066D01*
X82842D01*
X82587Y-171331D01*
D02*
G37*
G36*
X81507Y-181931D02*
X81563Y-182571D01*
X81612Y-182831D01*
X81674Y-183051D01*
X81751Y-183231D01*
X81841Y-183371D01*
X81946Y-183471D01*
X82064Y-183531D01*
X82197Y-183551D01*
X79221D01*
X79274Y-183531D01*
X79321Y-183471D01*
X79363Y-183371D01*
X79399Y-183231D01*
X79430Y-183051D01*
X79455Y-182831D01*
X79489Y-182271D01*
X79500Y-181551D01*
X81500D01*
X81507Y-181931D01*
D02*
G37*
G36*
X192262Y-193238D02*
X192212Y-193098D01*
X192062Y-192972D01*
X191812Y-192862D01*
X191462Y-192766D01*
X191012Y-192684D01*
X190462Y-192618D01*
X189062Y-192529D01*
X187262Y-192500D01*
Y-187500D01*
X188212Y-187493D01*
X191012Y-187315D01*
X191462Y-187234D01*
X191812Y-187138D01*
X192062Y-187028D01*
X192212Y-186902D01*
X192262Y-186762D01*
Y-193238D01*
D02*
G37*
D10*
X67059Y-168500D02*
X67235Y-168676D01*
D15*
X80709Y-190157D02*
D03*
Y-185039D02*
D03*
X66500Y-89118D02*
D03*
Y-84000D02*
D03*
X40500Y-129118D02*
D03*
Y-124000D02*
D03*
D16*
X67235Y-168676D02*
D03*
X62117D02*
D03*
D17*
X194750Y-190000D02*
D03*
X208250D02*
D03*
D18*
X58693Y-86500D02*
D03*
X45307D02*
D03*
X48500Y-126500D02*
D03*
X61886D02*
D03*
D19*
X64720Y-106500D02*
D03*
D20*
X42279Y-115555D02*
D03*
Y-106500D02*
D03*
Y-97445D02*
D03*
D32*
X61193Y-84000D02*
X67626Y-77567D01*
X77500Y-84000D02*
X90500Y-97000D01*
Y-168676D02*
Y-97000D01*
X58693Y-86500D02*
X61193Y-84000D01*
X67626Y-77567D02*
Y-24874D01*
X66500Y-84000D02*
X77500D01*
X48500Y-178000D02*
Y-126500D01*
Y-178000D02*
X60500Y-190000D01*
X61193Y-84000D02*
X66500D01*
X55500Y-89693D02*
X58693Y-86500D01*
X55500Y-101000D02*
Y-89693D01*
X50000Y-106500D02*
X55500Y-101000D01*
X42279Y-106500D02*
X50000D01*
X40500Y-117335D02*
X42279Y-115555D01*
X40500Y-124000D02*
Y-117335D01*
Y-124000D02*
X46000D01*
X48500Y-126500D01*
X60500Y-190000D02*
X194750D01*
X208250D02*
X208374Y-190124D01*
Y-208000D02*
Y-190124D01*
X190500Y-198000D02*
X200500Y-208000D01*
X98500Y-198000D02*
X190500D01*
X93000Y-203500D02*
X98500Y-198000D01*
D33*
X80500Y-184831D02*
X80709Y-185039D01*
X80500Y-184831D02*
Y-168676D01*
X67235D02*
X80500D01*
X61886Y-167745D02*
Y-126500D01*
Y-167745D02*
X62641Y-168500D01*
X61886Y-126500D02*
X61941Y-126555D01*
X42279Y-89528D02*
X45307Y-86500D01*
X42279Y-97445D02*
Y-89528D01*
D34*
X66500Y-89118D02*
X73000Y-95618D01*
X211437Y-9000D02*
X214500Y-5937D01*
X172542Y-9000D02*
X211437D01*
X169479Y-5937D02*
X172542Y-9000D01*
X207563Y-15000D02*
X210563Y-12000D01*
X168542Y-15000D02*
X207563D01*
X165542Y-12000D02*
X168542Y-15000D01*
X203563Y-21000D02*
X206626Y-17937D01*
X164668Y-21000D02*
X203563D01*
X161605Y-17937D02*
X164668Y-21000D01*
X200063Y-27500D02*
X202689Y-24874D01*
X160294Y-27500D02*
X200063D01*
X157668Y-24874D02*
X160294Y-27500D01*
X166416Y-9000D02*
X169479Y-5937D01*
X127521Y-9000D02*
X166416D01*
X124458Y-5937D02*
X127521Y-9000D01*
X162542Y-15000D02*
X165542Y-12000D01*
X123521Y-15000D02*
X162542D01*
X120521Y-12000D02*
X123521Y-15000D01*
X158542Y-21000D02*
X161605Y-17937D01*
X119647Y-21000D02*
X158542D01*
X116584Y-17937D02*
X119647Y-21000D01*
X155042Y-27500D02*
X157668Y-24874D01*
X115273Y-27500D02*
X155042D01*
X112647Y-24874D02*
X115273Y-27500D01*
X110021D02*
X112647Y-24874D01*
X70252Y-27500D02*
X110021D01*
X67626Y-24874D02*
X70252Y-27500D01*
X113521Y-21000D02*
X116584Y-17937D01*
X74626Y-21000D02*
X113521D01*
X71563Y-17937D02*
X74626Y-21000D01*
X117521Y-15000D02*
X120521Y-12000D01*
X78500Y-15000D02*
X117521D01*
X75500Y-12000D02*
X78500Y-15000D01*
X121395Y-9000D02*
X124458Y-5937D01*
X82500Y-9000D02*
X121395D01*
X79437Y-5937D02*
X82500Y-9000D01*
D35*
X273500Y-154000D02*
D03*
D36*
Y-164000D02*
D03*
X83000Y-203500D02*
D03*
X80500Y-168676D02*
D03*
X90500D02*
D03*
X100500D02*
D03*
X110500D02*
D03*
D37*
X93000Y-203500D02*
D03*
X120500Y-168676D02*
D03*
D38*
X208374Y-208000D02*
D03*
X200500Y-208000D02*
D03*
D39*
X216641Y-208000D02*
D03*
X184358D02*
D03*
D40*
X61941Y-153700D02*
D03*
X61886Y-141200D02*
D03*
X73000Y-95618D02*
D03*
X214500Y-5937D02*
D03*
X210563Y-12000D02*
D03*
X206626Y-17937D02*
D03*
X202689Y-24874D02*
D03*
X169479Y-5937D02*
D03*
X165542Y-12000D02*
D03*
X161605Y-17937D02*
D03*
X157668Y-24874D02*
D03*
X71563Y-17937D02*
D03*
X79437Y-5937D02*
D03*
X75500Y-12000D02*
D03*
X124458Y-5937D02*
D03*
X120521Y-12000D02*
D03*
X116584Y-17937D02*
D03*
X112647Y-24874D02*
D03*
X67626D02*
D03*
M02*
