G04*
G04 #@! TF.GenerationSoftware,Altium Limited,Altium Designer,18.1.9 (240)*
G04*
G04 Layer_Color=8388736*
%FSLAX25Y25*%
%MOIN*%
G70*
G01*
G75*
%ADD21R,0.03800X0.03800*%
%ADD22R,0.03800X0.03800*%
%ADD23R,0.05800X0.07300*%
%ADD24R,0.05524X0.06312*%
%ADD25R,0.09068X0.13398*%
%ADD26R,0.09068X0.04343*%
%ADD27R,0.07493X0.07493*%
%ADD28C,0.07493*%
%ADD29R,0.07493X0.07493*%
%ADD30C,0.06706*%
%ADD31R,0.05524X0.12611*%
D21*
X80709Y-190157D02*
D03*
Y-185039D02*
D03*
X66500Y-89118D02*
D03*
Y-84000D02*
D03*
X40500Y-129118D02*
D03*
Y-124000D02*
D03*
D22*
X67235Y-168676D02*
D03*
X62117D02*
D03*
D23*
X194750Y-190000D02*
D03*
X208250D02*
D03*
D24*
X58693Y-86500D02*
D03*
X45307D02*
D03*
X48500Y-126500D02*
D03*
X61886D02*
D03*
D25*
X64720Y-106500D02*
D03*
D26*
X42279Y-115555D02*
D03*
Y-106500D02*
D03*
Y-97445D02*
D03*
D27*
X273500Y-154000D02*
D03*
D28*
Y-164000D02*
D03*
X83000Y-203500D02*
D03*
X80500Y-168676D02*
D03*
X90500D02*
D03*
X100500D02*
D03*
X110500D02*
D03*
D29*
X93000Y-203500D02*
D03*
X120500Y-168676D02*
D03*
D30*
X208374Y-208000D02*
D03*
X200500Y-208000D02*
D03*
D31*
X216641Y-208000D02*
D03*
X184358D02*
D03*
M02*
