G04*
G04 #@! TF.GenerationSoftware,Altium Limited,Altium Designer,18.1.9 (240)*
G04*
G04 Layer_Color=16711935*
%FSLAX25Y25*%
%MOIN*%
G70*
G01*
G75*
%ADD11C,0.00600*%
D11*
X49106Y-203300D02*
G03*
X37296Y-203418I-5906J0D01*
G01*
X238576Y-203291D02*
G03*
X225576Y-203291I-6500J0D01*
G01*
X37194Y10721D02*
G03*
X49005Y10721I5906J0D01*
G01*
X226171Y10805D02*
G03*
X237982Y10721I5905J-84D01*
G01*
X-1000Y-195500D02*
G03*
X18000Y-214994I19500J0D01*
G01*
X263500Y-215000D02*
G03*
X282994Y-196000I0J19500D01*
G01*
X283000Y5000D02*
G03*
X264000Y24494I-19500J0D01*
G01*
X18500Y24500D02*
G03*
X-994Y5500I0J-19500D01*
G01*
X49106Y-212806D02*
Y-203300D01*
Y-212806D02*
X51300Y-215000D01*
X222900D01*
X37296Y-212504D02*
Y-203418D01*
X34900Y-214900D02*
X37296Y-212504D01*
X18094Y-214900D02*
X34900D01*
X223043Y24500D02*
X226171Y21372D01*
X51705Y24500D02*
X223043D01*
X37194Y10721D02*
Y22106D01*
X34894Y24406D02*
X37194Y22106D01*
X18595Y24406D02*
X34894D01*
X49005Y10721D02*
Y21800D01*
X225576Y-212324D02*
Y-203291D01*
X222900Y-215000D02*
X225576Y-212324D01*
X238576Y-212476D02*
Y-203291D01*
Y-212476D02*
X241000Y-214900D01*
X263400D01*
X49005Y21800D02*
X51705Y24500D01*
X237982Y10721D02*
Y21582D01*
X240895Y24495D01*
X263999D01*
X226171Y10805D02*
Y21372D01*
X-1000Y5500D02*
X-1000Y-195500D01*
X283000Y5000D02*
X283000Y-196000D01*
M02*
