M48
;Layer_Color=9474304
;FILE_FORMAT=2:5
INCH,TZ
;TYPE=PLATED
T1F00S00C0.01200
T2F00S00C0.02756
T3F00S00C0.03543
;TYPE=NON_PLATED
%
T01
X61941Y-153700
X61886Y-141200
X73000Y-95618
X67626Y-24874
X71563Y-17937
X75500Y-12000
X79437Y-5937
X124458
X120521Y-12000
X116584Y-17937
X112647Y-24874
X157668
X161605Y-17937
X165542Y-12000
X169479Y-5937
X214500
X210563Y-12000
X206626Y-17937
X202689Y-24874
T02
X200500Y-208000
X208374Y-208000
T03
X273500Y-164000
Y-154000
X120500Y-168676
X110500
X100500
X90500
X80500
X83000Y-203500
X93000
M30
