G04*
G04 #@! TF.GenerationSoftware,Altium Limited,Altium Designer,18.1.9 (240)*
G04*
G04 Layer_Color=65535*
%FSLAX25Y25*%
%MOIN*%
G70*
G01*
G75*
%ADD10C,0.01000*%
%ADD11C,0.00600*%
%ADD12C,0.00984*%
%ADD13C,0.00800*%
%ADD14C,0.00787*%
D10*
X201500Y-190000D02*
G03*
X198752Y-190362I-1299J-750D01*
G01*
X201500Y-190000D02*
G03*
X204248Y-189638I1299J750D01*
G01*
X191000Y-185500D02*
X195000D01*
X191000Y-194500D02*
Y-185500D01*
Y-194500D02*
X195000D01*
X201500D02*
X210500D01*
X192500Y-185500D02*
X201500D01*
X208000D02*
X212000D01*
Y-194500D02*
Y-185500D01*
X208000Y-194500D02*
X212000D01*
D11*
X234900Y-23622D02*
G03*
X223500Y-12500I-11261J-139D01*
G01*
X223778Y-182929D02*
G03*
X234900Y-171807I0J11122D01*
G01*
X32000Y-171978D02*
G03*
X43264Y-182929I11107J157D01*
G01*
X43222Y-12500D02*
G03*
X32000Y-23600I-61J-11161D01*
G01*
X43100Y-203291D02*
X232076D01*
Y10721D01*
X43100D02*
X232076D01*
X43100D02*
Y24500D01*
X-878Y-173677D02*
X75532D01*
X66500Y-86559D02*
Y-86259D01*
Y-86859D02*
Y-86559D01*
X65600D02*
X67400D01*
X40500Y-126559D02*
Y-126259D01*
Y-126859D02*
Y-126559D01*
X39600D02*
X41400D01*
X80500Y-182929D02*
Y-168676D01*
X183500D02*
X234700D01*
X134645Y-182929D02*
X234900D01*
Y-160177D01*
X0Y-30000D02*
X31496D01*
X81000Y-12000D02*
Y-189D01*
X32000Y-171978D02*
Y-23600D01*
X43264Y-182929D02*
X223778D01*
X234900Y-171807D02*
Y-23622D01*
X43222Y-12500D02*
X223500D01*
X77666Y-206000D02*
X75000D01*
X77666Y-203334D01*
Y-202668D01*
X76999Y-202001D01*
X75666D01*
X75000Y-202668D01*
X38200Y-85901D02*
Y-88567D01*
X39533Y-89900D01*
X40866Y-88567D01*
Y-85901D01*
X42199Y-89900D02*
X43532D01*
X42865D01*
Y-85901D01*
X42199Y-86568D01*
X61735Y-165176D02*
Y-161178D01*
X63734D01*
X64401Y-161844D01*
Y-163177D01*
X63734Y-163844D01*
X61735D01*
X63068D02*
X64401Y-165176D01*
X68399D02*
X65734D01*
X68399Y-162511D01*
Y-161844D01*
X67733Y-161178D01*
X66400D01*
X65734Y-161844D01*
X76709Y-189599D02*
X72710D01*
Y-187599D01*
X73377Y-186933D01*
X74710D01*
X75376Y-187599D01*
Y-189599D01*
Y-188266D02*
X76709Y-186933D01*
Y-185600D02*
Y-184267D01*
Y-184934D01*
X72710D01*
X73377Y-185600D01*
X78366Y-156701D02*
X77033D01*
X77699D01*
Y-160034D01*
X77033Y-160700D01*
X76366D01*
X75700Y-160034D01*
X79699Y-160700D02*
Y-156701D01*
X81698D01*
X82364Y-157368D01*
Y-158701D01*
X81698Y-159367D01*
X79699D01*
X83697Y-160700D02*
X85030D01*
X84364D01*
Y-156701D01*
X83697Y-157368D01*
X187166Y-188001D02*
X184500D01*
Y-190001D01*
X185833D01*
X184500D01*
Y-192000D01*
X188499D02*
X189832D01*
X189165D01*
Y-188001D01*
X188499Y-188668D01*
X40499Y-86166D02*
Y-83500D01*
X36500D01*
Y-86166D01*
X38499Y-83500D02*
Y-84833D01*
X36500Y-90165D02*
Y-87499D01*
X39166Y-90165D01*
X39832D01*
X40499Y-89498D01*
Y-88165D01*
X39832Y-87499D01*
X70885Y-125666D02*
Y-123000D01*
X66886D01*
Y-125666D01*
X68885Y-123000D02*
Y-124333D01*
X66886Y-126999D02*
Y-128332D01*
Y-127665D01*
X70885D01*
X70218Y-126999D01*
X67832Y-76724D02*
X68498Y-76058D01*
Y-74725D01*
X67832Y-74059D01*
X65166D01*
X64500Y-74725D01*
Y-76058D01*
X65166Y-76724D01*
X64500Y-80723D02*
Y-78057D01*
X67165Y-80723D01*
X67832D01*
X68498Y-80057D01*
Y-78724D01*
X67832Y-78057D01*
X41832Y-135166D02*
X42499Y-134499D01*
Y-133167D01*
X41832Y-132500D01*
X39166D01*
X38500Y-133167D01*
Y-134499D01*
X39166Y-135166D01*
X38500Y-136499D02*
Y-137832D01*
Y-137165D01*
X42499D01*
X41832Y-136499D01*
D12*
X42772Y-93508D02*
G03*
X42772Y-93508I-492J0D01*
G01*
D13*
X78150Y-192717D02*
Y-182480D01*
Y-192717D02*
X83268D01*
Y-182480D01*
X78150D02*
X83268D01*
X59558Y-171236D02*
X69794D01*
Y-166117D01*
X59558D02*
X69794D01*
X59558Y-171236D02*
Y-166117D01*
X69059Y-85059D02*
Y-81441D01*
X63941Y-85059D02*
Y-81441D01*
X69059Y-91677D02*
Y-88059D01*
X63941Y-91677D02*
Y-88059D01*
Y-91677D02*
X69059D01*
X63941Y-81441D02*
X69059D01*
X43059Y-125059D02*
Y-121441D01*
X37941Y-125059D02*
Y-121441D01*
X43059Y-131677D02*
Y-128059D01*
X37941Y-131677D02*
Y-128059D01*
Y-131677D02*
X43059D01*
X37941Y-121441D02*
X43059D01*
D14*
X61500Y-90500D02*
X62800Y-89200D01*
Y-83800D01*
X55000Y-90500D02*
X61500D01*
Y-82500D02*
X62800Y-83800D01*
X55000Y-82500D02*
X61500D01*
X41500Y-90500D02*
X48500D01*
X41500D02*
Y-82500D01*
X48500D01*
X44393Y-123800D02*
X45693Y-122500D01*
X44393Y-129200D02*
Y-123800D01*
X45693Y-122500D02*
X52193D01*
X44393Y-129200D02*
X45693Y-130500D01*
X52193D01*
X58693Y-122500D02*
X65693D01*
Y-130500D02*
Y-122500D01*
X58693Y-130500D02*
X65693D01*
X47594Y-119689D02*
X59405D01*
X47594Y-93311D02*
X59405D01*
X59405Y-119689D02*
X59405Y-93311D01*
X47594D02*
X47594Y-119689D01*
X125500Y-173677D02*
Y-163677D01*
X75500Y-173677D02*
X125500D01*
X75500Y-163677D02*
X125500D01*
X75500Y-173677D02*
Y-163677D01*
M02*
