G04*
G04 #@! TF.GenerationSoftware,Altium Limited,Altium Designer,18.1.9 (240)*
G04*
G04 Layer_Color=32896*
%FSLAX25Y25*%
%MOIN*%
G70*
G01*
G75*
%ADD10C,0.01000*%
%ADD11C,0.00600*%
%ADD13C,0.00800*%
D10*
X293413Y-162000D02*
X293500Y-163000D01*
X303500D01*
Y-164000D02*
Y-163000D01*
Y-174000D02*
Y-164000D01*
X273500Y-174000D02*
X303500D01*
X273500D02*
Y-169921D01*
Y-150165D02*
X277366D01*
X277421Y-150221D01*
Y-157921D02*
Y-150221D01*
X277366Y-157866D02*
X277421Y-157921D01*
X273500Y-160118D02*
X277445D01*
Y-167465D02*
Y-160118D01*
X277390Y-167520D02*
X277445Y-167465D01*
X273500Y-167520D02*
X277390D01*
X273500Y-169921D02*
Y-167567D01*
X293413Y-162000D02*
Y-155000D01*
X303138D01*
Y-143409D01*
X303035Y-143307D02*
X303138Y-143409D01*
X273500Y-160118D02*
Y-157866D01*
X277366D01*
X273500Y-150165D02*
Y-147110D01*
X275791Y-144819D01*
X277303Y-143307D02*
X303035D01*
X275791Y-144819D02*
X277303Y-143307D01*
D11*
X0Y-196850D02*
Y0D01*
Y-196850D02*
X267717D01*
Y0D01*
X0D02*
X267717D01*
X123212Y-94757D02*
Y-90758D01*
Y-94757D02*
X124926D01*
X125497Y-94567D01*
X125688Y-94376D01*
X125878Y-93995D01*
Y-93615D01*
X125688Y-93234D01*
X125497Y-93043D01*
X124926Y-92853D01*
X123212D02*
X124926D01*
X125497Y-92662D01*
X125688Y-92472D01*
X125878Y-92091D01*
Y-91520D01*
X125688Y-91139D01*
X125497Y-90948D01*
X124926Y-90758D01*
X123212D01*
X126963Y-93424D02*
X128106Y-90758D01*
X129249Y-93424D02*
X128106Y-90758D01*
X127725Y-89996D01*
X127344Y-89615D01*
X126963Y-89425D01*
X126773D01*
X135914Y-93805D02*
X135723Y-94186D01*
X135343Y-94567D01*
X134962Y-94757D01*
X134200D01*
X133819Y-94567D01*
X133438Y-94186D01*
X133248Y-93805D01*
X133057Y-93234D01*
Y-92282D01*
X133248Y-91710D01*
X133438Y-91329D01*
X133819Y-90948D01*
X134200Y-90758D01*
X134962D01*
X135343Y-90948D01*
X135723Y-91329D01*
X135914Y-91710D01*
Y-92282D01*
X134962D02*
X135914D01*
X136828Y-93424D02*
Y-91520D01*
X137018Y-90948D01*
X137399Y-90758D01*
X137971D01*
X138351Y-90948D01*
X138923Y-91520D01*
Y-93424D02*
Y-90758D01*
X142255Y-93424D02*
Y-90758D01*
Y-92853D02*
X141875Y-93234D01*
X141494Y-93424D01*
X140922D01*
X140541Y-93234D01*
X140161Y-92853D01*
X139970Y-92282D01*
Y-91901D01*
X140161Y-91329D01*
X140541Y-90948D01*
X140922Y-90758D01*
X141494D01*
X141875Y-90948D01*
X142255Y-91329D01*
X143322Y-93424D02*
Y-90758D01*
Y-92662D02*
X143893Y-93234D01*
X144274Y-93424D01*
X144845D01*
X145226Y-93234D01*
X145417Y-92662D01*
Y-90758D01*
X148749Y-93424D02*
Y-90377D01*
X148559Y-89806D01*
X148368Y-89615D01*
X147987Y-89425D01*
X147416D01*
X147035Y-89615D01*
X148749Y-92853D02*
X148368Y-93234D01*
X147987Y-93424D01*
X147416D01*
X147035Y-93234D01*
X146654Y-92853D01*
X146464Y-92282D01*
Y-91901D01*
X146654Y-91329D01*
X147035Y-90948D01*
X147416Y-90758D01*
X147987D01*
X148368Y-90948D01*
X148749Y-91329D01*
X151720Y-94757D02*
Y-91710D01*
X151530Y-91139D01*
X151339Y-90948D01*
X150958Y-90758D01*
X150577D01*
X150197Y-90948D01*
X150006Y-91139D01*
X149816Y-91710D01*
Y-92091D01*
X153129Y-94757D02*
X153320Y-94567D01*
X153510Y-94757D01*
X153320Y-94948D01*
X153129Y-94757D01*
X153320Y-93424D02*
Y-90758D01*
X154215Y-93424D02*
Y-90758D01*
Y-92662D02*
X154786Y-93234D01*
X155167Y-93424D01*
X155738D01*
X156119Y-93234D01*
X156309Y-92662D01*
Y-90758D01*
X124897Y-86233D02*
Y-86423D01*
X125088Y-86804D01*
X125278Y-86995D01*
X125659Y-87185D01*
X126421D01*
X126802Y-86995D01*
X126992Y-86804D01*
X127182Y-86423D01*
Y-86042D01*
X126992Y-85662D01*
X126611Y-85090D01*
X124707Y-83186D01*
X127373D01*
X129411Y-87185D02*
X128839Y-86995D01*
X128458Y-86423D01*
X128268Y-85471D01*
Y-84900D01*
X128458Y-83948D01*
X128839Y-83376D01*
X129411Y-83186D01*
X129791D01*
X130363Y-83376D01*
X130744Y-83948D01*
X130934Y-84900D01*
Y-85471D01*
X130744Y-86423D01*
X130363Y-86995D01*
X129791Y-87185D01*
X129411D01*
X132019Y-86233D02*
Y-86423D01*
X132210Y-86804D01*
X132400Y-86995D01*
X132781Y-87185D01*
X133543D01*
X133924Y-86995D01*
X134114Y-86804D01*
X134305Y-86423D01*
Y-86042D01*
X134114Y-85662D01*
X133733Y-85090D01*
X131829Y-83186D01*
X134495D01*
X135581Y-86233D02*
Y-86423D01*
X135771Y-86804D01*
X135961Y-86995D01*
X136342Y-87185D01*
X137104D01*
X137485Y-86995D01*
X137675Y-86804D01*
X137866Y-86423D01*
Y-86042D01*
X137675Y-85662D01*
X137294Y-85090D01*
X135390Y-83186D01*
X138056D01*
X139142Y-83567D02*
X138951Y-83376D01*
X139142Y-83186D01*
X139332Y-83376D01*
X139142Y-83567D01*
X141351Y-87185D02*
X140779Y-86995D01*
X140399Y-86423D01*
X140208Y-85471D01*
Y-84900D01*
X140399Y-83948D01*
X140779Y-83376D01*
X141351Y-83186D01*
X141732D01*
X142303Y-83376D01*
X142684Y-83948D01*
X142874Y-84900D01*
Y-85471D01*
X142684Y-86423D01*
X142303Y-86995D01*
X141732Y-87185D01*
X141351D01*
X145674D02*
X143769Y-84519D01*
X146626D01*
X145674Y-87185D02*
Y-83186D01*
X147521Y-83567D02*
X147330Y-83376D01*
X147521Y-83186D01*
X147711Y-83376D01*
X147521Y-83567D01*
X148968Y-87185D02*
X151063D01*
X149920Y-85662D01*
X150492D01*
X150873Y-85471D01*
X151063Y-85281D01*
X151253Y-84710D01*
Y-84329D01*
X151063Y-83757D01*
X150682Y-83376D01*
X150111Y-83186D01*
X149539D01*
X148968Y-83376D01*
X148778Y-83567D01*
X148587Y-83948D01*
X153291Y-87185D02*
X152720Y-86995D01*
X152339Y-86423D01*
X152148Y-85471D01*
Y-84900D01*
X152339Y-83948D01*
X152720Y-83376D01*
X153291Y-83186D01*
X153672D01*
X154243Y-83376D01*
X154624Y-83948D01*
X154815Y-84900D01*
Y-85471D01*
X154624Y-86423D01*
X154243Y-86995D01*
X153672Y-87185D01*
X153291D01*
X216134Y-192668D02*
X216801Y-192001D01*
X218134D01*
X218800Y-192668D01*
Y-193334D01*
X218134Y-194001D01*
X216801D01*
X216134Y-194667D01*
Y-195334D01*
X216801Y-196000D01*
X218134D01*
X218800Y-195334D01*
X214801Y-196000D02*
X213468D01*
X214135D01*
Y-192001D01*
X214801Y-192668D01*
X92500Y10500D02*
Y14499D01*
X90501D01*
X89834Y13832D01*
Y12499D01*
X90501Y11833D01*
X92500D01*
X86502Y10500D02*
Y14499D01*
X88501Y12499D01*
X85835D01*
X138500Y11500D02*
Y15499D01*
X136501D01*
X135834Y14832D01*
Y13499D01*
X136501Y12833D01*
X138500D01*
X134501Y14832D02*
X133835Y15499D01*
X132502D01*
X131835Y14832D01*
Y14166D01*
X132502Y13499D01*
X133168D01*
X132502D01*
X131835Y12833D01*
Y12167D01*
X132502Y11500D01*
X133835D01*
X134501Y12167D01*
X228500Y11500D02*
Y15499D01*
X226501D01*
X225834Y14832D01*
Y13499D01*
X226501Y12833D01*
X228500D01*
X221835Y11500D02*
X224501D01*
X221835Y14166D01*
Y14832D01*
X222502Y15499D01*
X223835D01*
X224501Y14832D01*
X182000Y11000D02*
Y14999D01*
X180001D01*
X179334Y14332D01*
Y12999D01*
X180001Y12333D01*
X182000D01*
X178001Y11000D02*
X176668D01*
X177335D01*
Y14999D01*
X178001Y14332D01*
X269500Y-168500D02*
X270833D01*
X270166D01*
Y-172499D01*
X269500Y-171832D01*
D13*
X200964Y-227000D02*
X203500D01*
X203500Y-227000D01*
X205000Y-225500D01*
X206500Y-227000D01*
X206500Y-227000D01*
X208838D01*
X200964D02*
Y-217000D01*
X208838Y-227000D02*
Y-217000D01*
X217500D02*
Y-215000D01*
X183500Y-217000D02*
Y-215000D01*
Y-201000D02*
Y-199000D01*
X217500D01*
Y-201000D02*
Y-199000D01*
X183500Y-217000D02*
X217500D01*
M02*
