G04*
G04 #@! TF.GenerationSoftware,Altium Limited,Altium Designer,18.1.9 (240)*
G04*
G04 Layer_Color=16711935*
%FSLAX25Y25*%
%MOIN*%
G70*
G01*
G75*
%ADD27R,0.07493X0.07493*%
%ADD28C,0.07493*%
%ADD29R,0.07493X0.07493*%
%ADD30C,0.06706*%
%ADD31R,0.05524X0.12611*%
G04:AMPARAMS|DCode=43|XSize=47.37mil|YSize=67.06mil|CornerRadius=13.84mil|HoleSize=0mil|Usage=FLASHONLY|Rotation=180.000|XOffset=0mil|YOffset=0mil|HoleType=Round|Shape=RoundedRectangle|*
%AMROUNDEDRECTD43*
21,1,0.04737,0.03937,0,0,180.0*
21,1,0.01968,0.06706,0,0,180.0*
1,1,0.02769,-0.00984,0.01968*
1,1,0.02769,0.00984,0.01968*
1,1,0.02769,0.00984,-0.01968*
1,1,0.02769,-0.00984,-0.01968*
%
%ADD43ROUNDEDRECTD43*%
G04:AMPARAMS|DCode=44|XSize=23.75mil|YSize=67.06mil|CornerRadius=7.94mil|HoleSize=0mil|Usage=FLASHONLY|Rotation=0.000|XOffset=0mil|YOffset=0mil|HoleType=Round|Shape=RoundedRectangle|*
%AMROUNDEDRECTD44*
21,1,0.02375,0.05118,0,0,0.0*
21,1,0.00787,0.06706,0,0,0.0*
1,1,0.01587,0.00394,-0.02559*
1,1,0.01587,-0.00394,-0.02559*
1,1,0.01587,-0.00394,0.02559*
1,1,0.01587,0.00394,0.02559*
%
%ADD44ROUNDEDRECTD44*%
D27*
X273500Y-154000D02*
D03*
D28*
Y-164000D02*
D03*
X83000Y-203500D02*
D03*
X80500Y-168676D02*
D03*
X90500D02*
D03*
X100500D02*
D03*
X110500D02*
D03*
D29*
X93000Y-203500D02*
D03*
X120500Y-168676D02*
D03*
D30*
X208374Y-208000D02*
D03*
X200500Y-208000D02*
D03*
D31*
X216641Y-208000D02*
D03*
X184358D02*
D03*
D43*
X219063Y20500D02*
D03*
X198126Y20500D02*
D03*
X174042Y20500D02*
D03*
X153105Y20500D02*
D03*
X84000D02*
D03*
X63063Y20500D02*
D03*
X129021Y20500D02*
D03*
X108084Y20500D02*
D03*
D44*
X214500Y6000D02*
D03*
X210563D02*
D03*
X206626D02*
D03*
X202689D02*
D03*
X169479D02*
D03*
X165542D02*
D03*
X161605D02*
D03*
X157668D02*
D03*
X79437D02*
D03*
X75500D02*
D03*
X71563D02*
D03*
X67626D02*
D03*
X124458D02*
D03*
X120521D02*
D03*
X116584D02*
D03*
X112647D02*
D03*
M02*
