M48
;Layer_Color=9474304
;FILE_FORMAT=2:5
INCH,TZ
;TYPE=PLATED
T1F00S00C0.01200
T4F00S00C0.03543
;TYPE=NON_PLATED
T5F00S00C0.02953
%
T01
X-30000Y-182800
Y-176993
X-29900Y-157200
X-28300Y-151200
X-14923Y-168307
X-5500Y-166400
X3400
X12000
X34600Y-167900
X35200Y-186000
X3677Y-187823
X-5379Y-181420
X29900Y-152600
Y-139400
X51500Y-151979
X53755Y-166945
X67600Y-163300
X73100Y-197100
X-46100Y-191000
X-45845Y-187061
X-66200Y-176800
X-66300Y-164500
Y-149000
X-45200Y-144550
X-44500Y-153200
X-66600Y-205200
X-83300Y-207400
X-87800Y-202800
X-63100Y-130887
X-53100
X-43100
X-52600Y-96687
X-47700Y-61987
X-57700
X-62700
X-37700
X-32700Y-76987
X-29400Y-83987
X-29700Y-90587
Y-93987
X-29500Y-98987
X-29800Y-102287
X-29700Y-108987
X-12800Y-115100
X-10100Y-113100
X-6700Y-112100
X900Y-114800
X-1400Y-117200
X10000Y-112900
X16702Y-121426
X8500Y-129300
X-955Y-137183
X-14700Y-137783
X-27000Y-130287
X27400Y-132300
X40825Y-124357
Y-118452
X32153Y-98947
X25576Y-96216
X23092Y-96516
X22792Y-99000
X20308Y-99300
X26300Y-93800
X29900Y-82500
X28800Y-80000
X19205Y-60505
X106Y-57500
X-15100Y-56800
X-6196Y-83669
X-5891Y-86147
X-3413Y-86453
X-3107Y-88931
X3800Y-90000
Y-85500
Y-94800
X40825Y-59397
Y-53491
X67600Y-73300
X81800Y-63900
X93975Y-124357
T04
X13200Y-200300
X23200
X33200
X43200
X53200
X-74500Y-204000
Y-194000
Y-184000
Y-174000
Y-164000
Y-154000
Y-144000
Y-134000
Y-124000
Y-114000
Y-104000
Y-94000
Y-84000
Y-74000
Y-64000
Y-54000
T05
X81175Y-170677
Y-147922
M30
