G04*
G04 #@! TF.GenerationSoftware,Altium Limited,Altium Designer,18.1.9 (240)*
G04*
G04 Layer_Color=128*
%FSLAX25Y25*%
%MOIN*%
G70*
G01*
G75*
%ADD21R,0.01968X0.01575*%
%ADD22R,0.05500X0.05000*%
G04:AMPARAMS|DCode=23|XSize=55mil|YSize=50mil|CornerRadius=0mil|HoleSize=0mil|Usage=FLASHONLY|Rotation=180.000|XOffset=0mil|YOffset=0mil|HoleType=Round|Shape=Octagon|*
%AMOCTAGOND23*
4,1,8,-0.02750,0.01250,-0.02750,-0.01250,-0.01500,-0.02500,0.01500,-0.02500,0.02750,-0.01250,0.02750,0.01250,0.01500,0.02500,-0.01500,0.02500,-0.02750,0.01250,0.0*
%
%ADD23OCTAGOND23*%

%ADD25R,0.01575X0.01968*%
%ADD100O,0.08268X0.02165*%
%ADD101R,0.08268X0.02165*%
%ADD102C,0.03937*%
D21*
X76200Y-67247D02*
D03*
Y-63900D02*
D03*
D22*
X67300Y-64800D02*
D03*
X54100Y-73300D02*
D03*
D23*
X53800Y-64800D02*
D03*
X67600Y-73300D02*
D03*
D25*
X56871Y-80400D02*
D03*
X53525D02*
D03*
X39571Y-208000D02*
D03*
X36225D02*
D03*
D100*
X-62482Y-83987D02*
D03*
X-62482Y-78987D02*
D03*
Y-73987D02*
D03*
Y-68987D02*
D03*
X-22718Y-118987D02*
D03*
Y-123987D02*
D03*
X-62482D02*
D03*
Y-118987D02*
D03*
Y-113987D02*
D03*
X-62482Y-108987D02*
D03*
X-62482Y-103987D02*
D03*
Y-98987D02*
D03*
Y-93987D02*
D03*
Y-88987D02*
D03*
X-22718Y-113987D02*
D03*
X-22718Y-108987D02*
D03*
X-22718Y-103987D02*
D03*
Y-98987D02*
D03*
Y-93987D02*
D03*
Y-88987D02*
D03*
X-22718Y-83987D02*
D03*
X-22718Y-78987D02*
D03*
Y-73987D02*
D03*
D101*
Y-68987D02*
D03*
D102*
X12206Y-51000D02*
D03*
D03*
X22206D02*
D03*
X32206D02*
D03*
M02*
