G04*
G04 #@! TF.GenerationSoftware,Altium Limited,Altium Designer,18.1.9 (240)*
G04*
G04 Layer_Color=128*
%FSLAX25Y25*%
%MOIN*%
G70*
G01*
G75*
%ADD10C,0.00200*%
D10*
X51428Y-200300D02*
X54972D01*
X53200Y-202072D02*
Y-198528D01*
X41428Y-200300D02*
X44972D01*
X43200Y-202072D02*
Y-198528D01*
X31428Y-200300D02*
X34972D01*
X33200Y-202072D02*
Y-198528D01*
X21428Y-200300D02*
X24972D01*
X23200Y-202072D02*
Y-198528D01*
X11428Y-200300D02*
X14972D01*
X13200Y-202072D02*
Y-198528D01*
X77828Y-177017D02*
X80584D01*
X79206Y-178395D02*
Y-175639D01*
X77828Y-141583D02*
X80584D01*
X79206Y-142961D02*
Y-140205D01*
X93970Y-141583D02*
X97120D01*
X95545Y-143158D02*
Y-140009D01*
X93970Y-177017D02*
X97120D01*
X95545Y-178591D02*
Y-175442D01*
X79698Y-147922D02*
X82651D01*
X81175Y-149398D02*
Y-146445D01*
X79698Y-170677D02*
X82651D01*
X81175Y-172154D02*
Y-169201D01*
X-76272Y-74000D02*
X-72728D01*
X-74500Y-75772D02*
Y-72228D01*
X-76272Y-94000D02*
X-72728D01*
X-74500Y-95772D02*
Y-92228D01*
X-76272Y-134000D02*
X-72728D01*
X-74500Y-135772D02*
Y-132228D01*
X-76272Y-144000D02*
X-72728D01*
X-74500Y-145772D02*
Y-142228D01*
X-76272Y-164000D02*
X-72728D01*
X-74500Y-165772D02*
Y-162228D01*
X-76272Y-204000D02*
X-72728D01*
X-74500Y-205772D02*
Y-202228D01*
X-76272Y-194000D02*
X-72728D01*
X-74500Y-195772D02*
Y-192228D01*
X-76272Y-184000D02*
X-72728D01*
X-74500Y-185772D02*
Y-182228D01*
X-76272Y-174000D02*
X-72728D01*
X-74500Y-175772D02*
Y-172228D01*
X-76272Y-154000D02*
X-72728D01*
X-74500Y-155772D02*
Y-152228D01*
X-76272Y-124000D02*
X-72728D01*
X-74500Y-125772D02*
Y-122228D01*
X-76272Y-114000D02*
X-72728D01*
X-74500Y-115772D02*
Y-112228D01*
X-76272Y-104000D02*
X-72728D01*
X-74500Y-105772D02*
Y-102228D01*
X-76272Y-84000D02*
X-72728D01*
X-74500Y-85772D02*
Y-82228D01*
X-76272Y-64000D02*
X-72728D01*
X-74500Y-65772D02*
Y-62228D01*
X-76272Y-54000D02*
X-72728D01*
X-74500Y-55772D02*
Y-52228D01*
X-5979Y-181420D02*
X-4779D01*
X-5379Y-182020D02*
Y-180820D01*
X50900Y-151979D02*
X52100D01*
X51500Y-152579D02*
Y-151379D01*
X93375Y-124357D02*
X94575D01*
X93975Y-124958D02*
Y-123758D01*
X40225Y-124357D02*
X41425D01*
X40825Y-124958D02*
Y-123758D01*
X67000Y-73300D02*
X68200D01*
X67600Y-73900D02*
Y-72700D01*
X81200Y-63900D02*
X82400D01*
X81800Y-64500D02*
Y-63300D01*
X29300Y-139400D02*
X30500D01*
X29900Y-140000D02*
Y-138800D01*
X26800Y-132300D02*
X28000D01*
X27400Y-132900D02*
Y-131700D01*
X40225Y-59397D02*
X41425D01*
X40825Y-59997D02*
Y-58797D01*
X40225Y-53491D02*
X41425D01*
X40825Y-54091D02*
Y-52891D01*
X40225Y-118452D02*
X41425D01*
X40825Y-119052D02*
Y-117852D01*
X3077Y-187823D02*
X4276D01*
X3677Y-188424D02*
Y-187223D01*
X72500Y-197100D02*
X73700D01*
X73100Y-197700D02*
Y-196500D01*
X-13698Y-204500D02*
X-12498D01*
X-13098Y-205100D02*
Y-203900D01*
X-14600Y-201600D02*
X-13400D01*
X-14000Y-202200D02*
Y-201000D01*
X-30500Y-93993D02*
X-29300D01*
X-29900Y-94593D02*
Y-93393D01*
X-24808Y-68692D02*
X-23608D01*
X-24208Y-69292D02*
Y-68092D01*
X-48600Y-166400D02*
X-47400D01*
X-48000Y-167000D02*
Y-165800D01*
X-61900Y-133300D02*
X-60700D01*
X-61300Y-133900D02*
Y-132700D01*
X-28700Y-146700D02*
X-27500D01*
X-28100Y-147300D02*
Y-146100D01*
X11400Y-166400D02*
X12600D01*
X12000Y-167000D02*
Y-165800D01*
X-6100Y-166400D02*
X-4900D01*
X-5500Y-167000D02*
Y-165800D01*
X2800Y-166400D02*
X4000D01*
X3400Y-167000D02*
Y-165800D01*
X-10700Y-113100D02*
X-9500D01*
X-10100Y-113700D02*
Y-112500D01*
X-7300Y-112100D02*
X-6100D01*
X-6700Y-112700D02*
Y-111500D01*
X29300Y-152600D02*
X30500D01*
X29900Y-153200D02*
Y-152000D01*
X34000Y-167900D02*
X35200D01*
X34600Y-168500D02*
Y-167300D01*
Y-186000D02*
X35800D01*
X35200Y-186600D02*
Y-185400D01*
X24976Y-96216D02*
X26176D01*
X25576Y-96816D02*
Y-95616D01*
X22492Y-96516D02*
X23692D01*
X23092Y-97116D02*
Y-95916D01*
X19708Y-99300D02*
X20908D01*
X20308Y-99900D02*
Y-98700D01*
X22192Y-99000D02*
X23392D01*
X22792Y-99600D02*
Y-98400D01*
X67000Y-163300D02*
X68200D01*
X67600Y-163900D02*
Y-162700D01*
X53155Y-166945D02*
X54355D01*
X53755Y-167545D02*
Y-166345D01*
X31553Y-98947D02*
X32753D01*
X32153Y-99547D02*
Y-98347D01*
X25700Y-93800D02*
X26900D01*
X26300Y-94400D02*
Y-93200D01*
X29300Y-82500D02*
X30500D01*
X29900Y-83100D02*
Y-81900D01*
X28200Y-80000D02*
X29400D01*
X28800Y-80600D02*
Y-79400D01*
X18605Y-60505D02*
X19805D01*
X19205Y-61105D02*
Y-59905D01*
X-2076Y-80300D02*
X-876D01*
X-1476Y-80900D02*
Y-79700D01*
X3200Y-92900D02*
X4400D01*
X3800Y-93500D02*
Y-92300D01*
X3200Y-85576D02*
X4400D01*
X3800Y-86176D02*
Y-84976D01*
X3200Y-76200D02*
X4400D01*
X3800Y-76800D02*
Y-75600D01*
X-13400Y-115100D02*
X-12200D01*
X-12800Y-115700D02*
Y-114500D01*
X300Y-114800D02*
X1500D01*
X900Y-115400D02*
Y-114200D01*
X-2000Y-117200D02*
X-800D01*
X-1400Y-117800D02*
Y-116600D01*
X9400Y-112900D02*
X10600D01*
X10000Y-113500D02*
Y-112300D01*
X-15700Y-56800D02*
X-14500D01*
X-15100Y-57400D02*
Y-56200D01*
X-18700Y-198700D02*
X-17500D01*
X-18100Y-199300D02*
Y-198100D01*
X-45800Y-61650D02*
X-44600D01*
X-45200Y-62250D02*
Y-61050D01*
X-46700Y-108100D02*
X-45500D01*
X-46100Y-108700D02*
Y-107500D01*
X-11232Y-99240D02*
X-10032D01*
X-10632Y-99840D02*
Y-98640D01*
X-11538Y-96762D02*
X-10338D01*
X-10938Y-97362D02*
Y-96162D01*
X-14016Y-96456D02*
X-12816D01*
X-13416Y-97056D02*
Y-95856D01*
X-14322Y-93978D02*
X-13122D01*
X-13722Y-94578D02*
Y-93378D01*
X-16800Y-93672D02*
X-15600D01*
X-16200Y-94272D02*
Y-93072D01*
X-62600Y-200600D02*
X-61400D01*
X-62000Y-201200D02*
Y-200000D01*
X-18950Y-125050D02*
X-17750D01*
X-18350Y-125650D02*
Y-124450D01*
X-19000Y-128900D02*
X-17800D01*
X-18400Y-129500D02*
Y-128300D01*
X-18718Y-133100D02*
X-17518D01*
X-18118Y-133700D02*
Y-132500D01*
X-25400Y-153700D02*
X-24200D01*
X-24800Y-154300D02*
Y-153100D01*
X-25700Y-160300D02*
X-24500D01*
X-25100Y-160900D02*
Y-159700D01*
X-25700Y-163700D02*
X-24500D01*
X-25100Y-164300D02*
Y-163100D01*
X-25500Y-168700D02*
X-24300D01*
X-24900Y-169300D02*
Y-168100D01*
X-25800Y-172000D02*
X-24600D01*
X-25200Y-172600D02*
Y-171400D01*
X-25700Y-178700D02*
X-24500D01*
X-25100Y-179300D02*
Y-178100D01*
X-63954Y-104946D02*
X-62754D01*
X-63354Y-105546D02*
Y-104346D01*
X-66800Y-93900D02*
X-65600D01*
X-66200Y-94500D02*
Y-93300D01*
X-66900Y-81600D02*
X-65700D01*
X-66300Y-82200D02*
Y-81000D01*
X-66900Y-66100D02*
X-65700D01*
X-66300Y-66700D02*
Y-65500D01*
X-28900Y-68300D02*
X-27700D01*
X-28300Y-68900D02*
Y-67700D01*
X-30600Y-99900D02*
X-29400D01*
X-30000Y-100500D02*
Y-99300D01*
X-45100Y-70300D02*
X-43900D01*
X-44500Y-70900D02*
Y-69700D01*
X-30500Y-74300D02*
X-29300D01*
X-29900Y-74900D02*
Y-73700D01*
X-46446Y-104161D02*
X-45246D01*
X-45845Y-104761D02*
Y-103561D01*
X-495Y-57500D02*
X705D01*
X106Y-58100D02*
Y-56900D01*
X7900Y-129300D02*
X9100D01*
X8500Y-129900D02*
Y-128700D01*
X-1555Y-137183D02*
X-355D01*
X-955Y-137783D02*
Y-136583D01*
X16102Y-121426D02*
X17302D01*
X16702Y-122026D02*
Y-120826D01*
M02*
