M48
;Layer_Color=9474304
;FILE_FORMAT=2:5
INCH,TZ
;TYPE=PLATED
T1F00S00C0.01200
T4F00S00C0.03543
;TYPE=NON_PLATED
T5F00S00C0.02953
%
T01
X-13098Y-204500
X-14000Y-201600
X-18100Y-198700
X-25100Y-178700
X-25200Y-172000
X-24900Y-168700
X-25100Y-163700
Y-160300
X-24800Y-153700
X-28100Y-146700
X-5500Y-166400
X3400
X12000
X34600Y-167900
X35200Y-186000
X3677Y-187823
X-5379Y-181420
X29900Y-152600
Y-139400
X51500Y-151979
X53755Y-166945
X67600Y-163300
X73100Y-197100
X-62000Y-200600
X-48000Y-166400
X-61300Y-133300
X-63354Y-104946
X-66200Y-93900
X-66300Y-81600
Y-66100
X-45200Y-61650
X-44500Y-70300
X-45845Y-104161
X-46100Y-108100
X-30000Y-99900
X-29900Y-93993
X-16200Y-93672
X-13722Y-93978
X-13416Y-96456
X-10938Y-96762
X-10632Y-99240
X-10100Y-113100
X-6700Y-112100
X-12800Y-115100
X-1400Y-117200
X900Y-114800
X10000Y-112900
X16702Y-121426
X8500Y-129300
X-955Y-137183
X-18118Y-133100
X-18400Y-128900
X-18350Y-125050
X27400Y-132300
X40825Y-124357
Y-118452
X32153Y-98947
X25576Y-96216
X23092Y-96516
X22792Y-99000
X20308Y-99300
X26300Y-93800
X29900Y-82500
X28800Y-80000
X3800Y-76200
X-1476Y-80300
X3800Y-85576
Y-92900
X106Y-57500
X-15100Y-56800
X-24208Y-68692
X-28300Y-68300
X-29900Y-74300
X19205Y-60505
X40825Y-59397
Y-53491
X67600Y-73300
X81800Y-63900
X93975Y-124357
T04
X13200Y-200300
X23200
X33200
X43200
X53200
X-74500Y-204000
Y-194000
Y-184000
Y-174000
Y-164000
Y-154000
Y-144000
Y-134000
Y-124000
Y-114000
Y-104000
Y-94000
Y-84000
Y-74000
Y-64000
Y-54000
T05
X81175Y-170677
Y-147922
M30
