G04*
G04 #@! TF.GenerationSoftware,Altium Limited,Altium Designer,18.1.9 (240)*
G04*
G04 Layer_Color=16711935*
%FSLAX25Y25*%
%MOIN*%
G70*
G01*
G75*
%ADD55R,0.02375X0.02769*%
%ADD73R,0.02769X0.02375*%
G04:AMPARAMS|DCode=81|XSize=63mil|YSize=58mil|CornerRadius=0mil|HoleSize=0mil|Usage=FLASHONLY|Rotation=180.000|XOffset=0mil|YOffset=0mil|HoleType=Round|Shape=Octagon|*
%AMOCTAGOND81*
4,1,8,-0.03150,0.01450,-0.03150,-0.01450,-0.01700,-0.02900,0.01700,-0.02900,0.03150,-0.01450,0.03150,0.01450,0.01700,0.02900,-0.01700,0.02900,-0.03150,0.01450,0.0*
%
%ADD81OCTAGOND81*%

%ADD82R,0.06300X0.05800*%
%ADD86R,0.07493X0.07493*%
%ADD87C,0.07493*%
%ADD88O,0.09855X0.05524*%
%ADD89O,0.08674X0.05524*%
%ADD90C,0.03753*%
%ADD91R,0.07493X0.07493*%
%ADD103R,0.09068X0.02965*%
%ADD104O,0.09068X0.02965*%
%ADD105C,0.04737*%
D55*
X56871Y-80400D02*
D03*
X53525D02*
D03*
X39571Y-208000D02*
D03*
X36225D02*
D03*
D73*
X76200Y-67247D02*
D03*
Y-63900D02*
D03*
D81*
X53800Y-64800D02*
D03*
X67600Y-73300D02*
D03*
D82*
X67300Y-64800D02*
D03*
X54100Y-73300D02*
D03*
D86*
X53200Y-200300D02*
D03*
D87*
X43200D02*
D03*
X33200D02*
D03*
X23200D02*
D03*
X13200D02*
D03*
X-74500Y-74000D02*
D03*
Y-94000D02*
D03*
Y-134000D02*
D03*
Y-144000D02*
D03*
Y-164000D02*
D03*
Y-194000D02*
D03*
Y-184000D02*
D03*
Y-174000D02*
D03*
Y-154000D02*
D03*
Y-124000D02*
D03*
Y-114000D02*
D03*
Y-104000D02*
D03*
Y-84000D02*
D03*
Y-64000D02*
D03*
Y-54000D02*
D03*
D88*
X79206Y-177017D02*
D03*
X79206Y-141584D02*
D03*
D89*
X95545Y-141583D02*
D03*
X95545Y-177016D02*
D03*
D90*
X81175Y-147922D02*
D03*
Y-170677D02*
D03*
D91*
X-74500Y-204000D02*
D03*
D103*
X-18118Y-138700D02*
D03*
D104*
Y-143700D02*
D03*
Y-148700D02*
D03*
X-18118Y-153700D02*
D03*
X-18118Y-158700D02*
D03*
Y-163700D02*
D03*
Y-168700D02*
D03*
Y-173700D02*
D03*
X-18118Y-178700D02*
D03*
X-18118Y-183700D02*
D03*
X-57882Y-158700D02*
D03*
Y-163700D02*
D03*
Y-168700D02*
D03*
Y-173700D02*
D03*
X-57882Y-178700D02*
D03*
X-57882Y-183700D02*
D03*
Y-188700D02*
D03*
Y-193700D02*
D03*
X-18118D02*
D03*
Y-188700D02*
D03*
X-57882Y-138700D02*
D03*
Y-143700D02*
D03*
Y-148700D02*
D03*
X-57882Y-153700D02*
D03*
D105*
X12206Y-51000D02*
D03*
D03*
X22206D02*
D03*
X32206D02*
D03*
M02*
