G04*
G04 #@! TF.GenerationSoftware,Altium Limited,Altium Designer,18.1.9 (240)*
G04*
G04 Layer_Color=2752767*
%FSLAX25Y25*%
%MOIN*%
G70*
G01*
G75*
%ADD10C,0.00200*%
%ADD11C,0.00267*%
D10*
X52400Y-201100D02*
Y-199500D01*
X54000D01*
Y-201100D01*
X52400D01*
X42400D02*
Y-199500D01*
X44000D01*
Y-201100D01*
X42400D01*
X32400D02*
Y-199500D01*
X34000D01*
Y-201100D01*
X32400D01*
X22400D02*
Y-199500D01*
X24000D01*
Y-201100D01*
X22400D01*
X12400D02*
Y-199500D01*
X14000D01*
Y-201100D01*
X12400D01*
X95545Y-142383D02*
X94745Y-140783D01*
X96345D01*
X95545Y-142383D01*
Y-177817D02*
X94745Y-176217D01*
X96345D01*
X95545Y-177817D01*
X81175Y-148722D02*
X81575Y-148321D01*
X81975D01*
X81575Y-147922D01*
X81975Y-147521D01*
X81575D01*
X81175Y-147122D01*
X80775Y-147521D01*
X80375D01*
X80775Y-147922D01*
X80375Y-148321D01*
X80775D01*
X81175Y-148722D01*
Y-171477D02*
X81575Y-171078D01*
X81975D01*
X81575Y-170677D01*
X81975Y-170278D01*
X81575D01*
X81175Y-169878D01*
X80775Y-170278D01*
X80375D01*
X80775Y-170677D01*
X80375Y-171078D01*
X80775D01*
X81175Y-171477D01*
X-75300Y-74800D02*
Y-73200D01*
X-73700D01*
Y-74800D01*
X-75300D01*
Y-94800D02*
Y-93200D01*
X-73700D01*
Y-94800D01*
X-75300D01*
Y-134800D02*
Y-133200D01*
X-73700D01*
Y-134800D01*
X-75300D01*
Y-144800D02*
Y-143200D01*
X-73700D01*
Y-144800D01*
X-75300D01*
Y-164800D02*
Y-163200D01*
X-73700D01*
Y-164800D01*
X-75300D01*
Y-204800D02*
Y-203200D01*
X-73700D01*
Y-204800D01*
X-75300D01*
Y-194800D02*
Y-193200D01*
X-73700D01*
Y-194800D01*
X-75300D01*
Y-184800D02*
Y-183200D01*
X-73700D01*
Y-184800D01*
X-75300D01*
Y-174800D02*
Y-173200D01*
X-73700D01*
Y-174800D01*
X-75300D01*
Y-154800D02*
Y-153200D01*
X-73700D01*
Y-154800D01*
X-75300D01*
Y-124800D02*
Y-123200D01*
X-73700D01*
Y-124800D01*
X-75300D01*
Y-114800D02*
Y-113200D01*
X-73700D01*
Y-114800D01*
X-75300D01*
Y-104800D02*
Y-103200D01*
X-73700D01*
Y-104800D01*
X-75300D01*
Y-84800D02*
Y-83200D01*
X-73700D01*
Y-84800D01*
X-75300D01*
Y-64800D02*
Y-63200D01*
X-73700D01*
Y-64800D01*
X-75300D01*
Y-54800D02*
Y-53200D01*
X-73700D01*
Y-54800D01*
X-75300D01*
X-6179Y-182220D02*
X-5779Y-181420D01*
X-6179Y-180620D01*
X-5379Y-181020D01*
X-4579Y-180620D01*
X-4979Y-181420D01*
X-4579Y-182220D01*
X-5379Y-181820D01*
X-6179Y-182220D01*
X50700Y-152779D02*
X51100Y-151979D01*
X50700Y-151179D01*
X51500Y-151579D01*
X52300Y-151179D01*
X51900Y-151979D01*
X52300Y-152779D01*
X51500Y-152379D01*
X50700Y-152779D01*
X93175Y-125157D02*
X93575Y-124357D01*
X93175Y-123557D01*
X93975Y-123958D01*
X94775Y-123557D01*
X94375Y-124357D01*
X94775Y-125157D01*
X93975Y-124758D01*
X93175Y-125157D01*
X40025D02*
X40425Y-124357D01*
X40025Y-123557D01*
X40825Y-123958D01*
X41625Y-123557D01*
X41225Y-124357D01*
X41625Y-125157D01*
X40825Y-124758D01*
X40025Y-125157D01*
X66800Y-74100D02*
X67200Y-73300D01*
X66800Y-72500D01*
X67600Y-72900D01*
X68400Y-72500D01*
X68000Y-73300D01*
X68400Y-74100D01*
X67600Y-73700D01*
X66800Y-74100D01*
X81000Y-64700D02*
X81400Y-63900D01*
X81000Y-63100D01*
X81800Y-63500D01*
X82600Y-63100D01*
X82200Y-63900D01*
X82600Y-64700D01*
X81800Y-64300D01*
X81000Y-64700D01*
X29100Y-140200D02*
X29500Y-139400D01*
X29100Y-138600D01*
X29900Y-139000D01*
X30700Y-138600D01*
X30300Y-139400D01*
X30700Y-140200D01*
X29900Y-139800D01*
X29100Y-140200D01*
X26600Y-133100D02*
X27000Y-132300D01*
X26600Y-131500D01*
X27400Y-131900D01*
X28200Y-131500D01*
X27800Y-132300D01*
X28200Y-133100D01*
X27400Y-132700D01*
X26600Y-133100D01*
X40025Y-60197D02*
X40425Y-59397D01*
X40025Y-58597D01*
X40825Y-58997D01*
X41625Y-58597D01*
X41225Y-59397D01*
X41625Y-60197D01*
X40825Y-59797D01*
X40025Y-60197D01*
Y-54291D02*
X40425Y-53491D01*
X40025Y-52691D01*
X40825Y-53091D01*
X41625Y-52691D01*
X41225Y-53491D01*
X41625Y-54291D01*
X40825Y-53891D01*
X40025Y-54291D01*
Y-119252D02*
X40425Y-118452D01*
X40025Y-117652D01*
X40825Y-118052D01*
X41625Y-117652D01*
X41225Y-118452D01*
X41625Y-119252D01*
X40825Y-118852D01*
X40025Y-119252D01*
X2877Y-188623D02*
X3277Y-187823D01*
X2877Y-187023D01*
X3677Y-187424D01*
X4476Y-187023D01*
X4076Y-187823D01*
X4476Y-188623D01*
X3677Y-188224D01*
X2877Y-188623D01*
X72300Y-197900D02*
X72700Y-197100D01*
X72300Y-196300D01*
X73100Y-196700D01*
X73900Y-196300D01*
X73500Y-197100D01*
X73900Y-197900D01*
X73100Y-197500D01*
X72300Y-197900D01*
X-13898Y-205300D02*
X-13498Y-204500D01*
X-13898Y-203700D01*
X-13098Y-204100D01*
X-12298Y-203700D01*
X-12698Y-204500D01*
X-12298Y-205300D01*
X-13098Y-204900D01*
X-13898Y-205300D01*
X-14800Y-202400D02*
X-14400Y-201600D01*
X-14800Y-200800D01*
X-14000Y-201200D01*
X-13200Y-200800D01*
X-13600Y-201600D01*
X-13200Y-202400D01*
X-14000Y-202000D01*
X-14800Y-202400D01*
X-30700Y-94793D02*
X-30300Y-93993D01*
X-30700Y-93193D01*
X-29900Y-93593D01*
X-29100Y-93193D01*
X-29500Y-93993D01*
X-29100Y-94793D01*
X-29900Y-94393D01*
X-30700Y-94793D01*
X-25008Y-69492D02*
X-24608Y-68692D01*
X-25008Y-67892D01*
X-24208Y-68292D01*
X-23408Y-67892D01*
X-23808Y-68692D01*
X-23408Y-69492D01*
X-24208Y-69092D01*
X-25008Y-69492D01*
X-48800Y-167200D02*
X-48400Y-166400D01*
X-48800Y-165600D01*
X-48000Y-166000D01*
X-47200Y-165600D01*
X-47600Y-166400D01*
X-47200Y-167200D01*
X-48000Y-166800D01*
X-48800Y-167200D01*
X-62100Y-134100D02*
X-61700Y-133300D01*
X-62100Y-132500D01*
X-61300Y-132900D01*
X-60500Y-132500D01*
X-60900Y-133300D01*
X-60500Y-134100D01*
X-61300Y-133700D01*
X-62100Y-134100D01*
X-28900Y-147500D02*
X-28500Y-146700D01*
X-28900Y-145900D01*
X-28100Y-146300D01*
X-27300Y-145900D01*
X-27700Y-146700D01*
X-27300Y-147500D01*
X-28100Y-147100D01*
X-28900Y-147500D01*
X11200Y-167200D02*
X11600Y-166400D01*
X11200Y-165600D01*
X12000Y-166000D01*
X12800Y-165600D01*
X12400Y-166400D01*
X12800Y-167200D01*
X12000Y-166800D01*
X11200Y-167200D01*
X-6300D02*
X-5900Y-166400D01*
X-6300Y-165600D01*
X-5500Y-166000D01*
X-4700Y-165600D01*
X-5100Y-166400D01*
X-4700Y-167200D01*
X-5500Y-166800D01*
X-6300Y-167200D01*
X2600D02*
X3000Y-166400D01*
X2600Y-165600D01*
X3400Y-166000D01*
X4200Y-165600D01*
X3800Y-166400D01*
X4200Y-167200D01*
X3400Y-166800D01*
X2600Y-167200D01*
X-10900Y-113900D02*
X-10500Y-113100D01*
X-10900Y-112300D01*
X-10100Y-112700D01*
X-9300Y-112300D01*
X-9700Y-113100D01*
X-9300Y-113900D01*
X-10100Y-113500D01*
X-10900Y-113900D01*
X-7500Y-112900D02*
X-7100Y-112100D01*
X-7500Y-111300D01*
X-6700Y-111700D01*
X-5900Y-111300D01*
X-6300Y-112100D01*
X-5900Y-112900D01*
X-6700Y-112500D01*
X-7500Y-112900D01*
X29100Y-153400D02*
X29500Y-152600D01*
X29100Y-151800D01*
X29900Y-152200D01*
X30700Y-151800D01*
X30300Y-152600D01*
X30700Y-153400D01*
X29900Y-153000D01*
X29100Y-153400D01*
X33800Y-168700D02*
X34200Y-167900D01*
X33800Y-167100D01*
X34600Y-167500D01*
X35400Y-167100D01*
X35000Y-167900D01*
X35400Y-168700D01*
X34600Y-168300D01*
X33800Y-168700D01*
X34400Y-186800D02*
X34800Y-186000D01*
X34400Y-185200D01*
X35200Y-185600D01*
X36000Y-185200D01*
X35600Y-186000D01*
X36000Y-186800D01*
X35200Y-186400D01*
X34400Y-186800D01*
X24776Y-97016D02*
X25176Y-96216D01*
X24776Y-95416D01*
X25576Y-95816D01*
X26376Y-95416D01*
X25976Y-96216D01*
X26376Y-97016D01*
X25576Y-96616D01*
X24776Y-97016D01*
X22292Y-97316D02*
X22692Y-96516D01*
X22292Y-95716D01*
X23092Y-96116D01*
X23892Y-95716D01*
X23492Y-96516D01*
X23892Y-97316D01*
X23092Y-96916D01*
X22292Y-97316D01*
X19508Y-100100D02*
X19908Y-99300D01*
X19508Y-98500D01*
X20308Y-98900D01*
X21108Y-98500D01*
X20708Y-99300D01*
X21108Y-100100D01*
X20308Y-99700D01*
X19508Y-100100D01*
X21992Y-99800D02*
X22392Y-99000D01*
X21992Y-98200D01*
X22792Y-98600D01*
X23592Y-98200D01*
X23192Y-99000D01*
X23592Y-99800D01*
X22792Y-99400D01*
X21992Y-99800D01*
X66800Y-164100D02*
X67200Y-163300D01*
X66800Y-162500D01*
X67600Y-162900D01*
X68400Y-162500D01*
X68000Y-163300D01*
X68400Y-164100D01*
X67600Y-163700D01*
X66800Y-164100D01*
X52955Y-167745D02*
X53355Y-166945D01*
X52955Y-166145D01*
X53755Y-166545D01*
X54555Y-166145D01*
X54155Y-166945D01*
X54555Y-167745D01*
X53755Y-167345D01*
X52955Y-167745D01*
X31353Y-99747D02*
X31753Y-98947D01*
X31353Y-98147D01*
X32153Y-98547D01*
X32953Y-98147D01*
X32553Y-98947D01*
X32953Y-99747D01*
X32153Y-99347D01*
X31353Y-99747D01*
X25500Y-94600D02*
X25900Y-93800D01*
X25500Y-93000D01*
X26300Y-93400D01*
X27100Y-93000D01*
X26700Y-93800D01*
X27100Y-94600D01*
X26300Y-94200D01*
X25500Y-94600D01*
X29100Y-83300D02*
X29500Y-82500D01*
X29100Y-81700D01*
X29900Y-82100D01*
X30700Y-81700D01*
X30300Y-82500D01*
X30700Y-83300D01*
X29900Y-82900D01*
X29100Y-83300D01*
X28000Y-80800D02*
X28400Y-80000D01*
X28000Y-79200D01*
X28800Y-79600D01*
X29600Y-79200D01*
X29200Y-80000D01*
X29600Y-80800D01*
X28800Y-80400D01*
X28000Y-80800D01*
X18405Y-61305D02*
X18805Y-60505D01*
X18405Y-59705D01*
X19205Y-60105D01*
X20005Y-59705D01*
X19605Y-60505D01*
X20005Y-61305D01*
X19205Y-60905D01*
X18405Y-61305D01*
X-2276Y-81100D02*
X-1876Y-80300D01*
X-2276Y-79500D01*
X-1476Y-79900D01*
X-676Y-79500D01*
X-1076Y-80300D01*
X-676Y-81100D01*
X-1476Y-80700D01*
X-2276Y-81100D01*
X3000Y-93700D02*
X3400Y-92900D01*
X3000Y-92100D01*
X3800Y-92500D01*
X4600Y-92100D01*
X4200Y-92900D01*
X4600Y-93700D01*
X3800Y-93300D01*
X3000Y-93700D01*
Y-86376D02*
X3400Y-85576D01*
X3000Y-84776D01*
X3800Y-85176D01*
X4600Y-84776D01*
X4200Y-85576D01*
X4600Y-86376D01*
X3800Y-85976D01*
X3000Y-86376D01*
Y-77000D02*
X3400Y-76200D01*
X3000Y-75400D01*
X3800Y-75800D01*
X4600Y-75400D01*
X4200Y-76200D01*
X4600Y-77000D01*
X3800Y-76600D01*
X3000Y-77000D01*
X-13600Y-115900D02*
X-13200Y-115100D01*
X-13600Y-114300D01*
X-12800Y-114700D01*
X-12000Y-114300D01*
X-12400Y-115100D01*
X-12000Y-115900D01*
X-12800Y-115500D01*
X-13600Y-115900D01*
X100Y-115600D02*
X500Y-114800D01*
X100Y-114000D01*
X900Y-114400D01*
X1700Y-114000D01*
X1300Y-114800D01*
X1700Y-115600D01*
X900Y-115200D01*
X100Y-115600D01*
X-2200Y-118000D02*
X-1800Y-117200D01*
X-2200Y-116400D01*
X-1400Y-116800D01*
X-600Y-116400D01*
X-1000Y-117200D01*
X-600Y-118000D01*
X-1400Y-117600D01*
X-2200Y-118000D01*
X9200Y-113700D02*
X9600Y-112900D01*
X9200Y-112100D01*
X10000Y-112500D01*
X10800Y-112100D01*
X10400Y-112900D01*
X10800Y-113700D01*
X10000Y-113300D01*
X9200Y-113700D01*
X-15900Y-57600D02*
X-15500Y-56800D01*
X-15900Y-56000D01*
X-15100Y-56400D01*
X-14300Y-56000D01*
X-14700Y-56800D01*
X-14300Y-57600D01*
X-15100Y-57200D01*
X-15900Y-57600D01*
X-18900Y-199500D02*
X-18500Y-198700D01*
X-18900Y-197900D01*
X-18100Y-198300D01*
X-17300Y-197900D01*
X-17700Y-198700D01*
X-17300Y-199500D01*
X-18100Y-199100D01*
X-18900Y-199500D01*
X-46000Y-62450D02*
X-45600Y-61650D01*
X-46000Y-60850D01*
X-45200Y-61250D01*
X-44400Y-60850D01*
X-44800Y-61650D01*
X-44400Y-62450D01*
X-45200Y-62050D01*
X-46000Y-62450D01*
X-46900Y-108900D02*
X-46500Y-108100D01*
X-46900Y-107300D01*
X-46100Y-107700D01*
X-45300Y-107300D01*
X-45700Y-108100D01*
X-45300Y-108900D01*
X-46100Y-108500D01*
X-46900Y-108900D01*
X-11432Y-100040D02*
X-11032Y-99240D01*
X-11432Y-98440D01*
X-10632Y-98840D01*
X-9832Y-98440D01*
X-10232Y-99240D01*
X-9832Y-100040D01*
X-10632Y-99640D01*
X-11432Y-100040D01*
X-11738Y-97562D02*
X-11338Y-96762D01*
X-11738Y-95962D01*
X-10938Y-96362D01*
X-10138Y-95962D01*
X-10538Y-96762D01*
X-10138Y-97562D01*
X-10938Y-97162D01*
X-11738Y-97562D01*
X-14216Y-97256D02*
X-13816Y-96456D01*
X-14216Y-95656D01*
X-13416Y-96056D01*
X-12616Y-95656D01*
X-13016Y-96456D01*
X-12616Y-97256D01*
X-13416Y-96856D01*
X-14216Y-97256D01*
X-14522Y-94778D02*
X-14122Y-93978D01*
X-14522Y-93178D01*
X-13722Y-93578D01*
X-12922Y-93178D01*
X-13322Y-93978D01*
X-12922Y-94778D01*
X-13722Y-94378D01*
X-14522Y-94778D01*
X-17000Y-94472D02*
X-16600Y-93672D01*
X-17000Y-92872D01*
X-16200Y-93272D01*
X-15400Y-92872D01*
X-15800Y-93672D01*
X-15400Y-94472D01*
X-16200Y-94072D01*
X-17000Y-94472D01*
X-62800Y-201400D02*
X-62400Y-200600D01*
X-62800Y-199800D01*
X-62000Y-200200D01*
X-61200Y-199800D01*
X-61600Y-200600D01*
X-61200Y-201400D01*
X-62000Y-201000D01*
X-62800Y-201400D01*
X-19150Y-125850D02*
X-18750Y-125050D01*
X-19150Y-124250D01*
X-18350Y-124650D01*
X-17550Y-124250D01*
X-17950Y-125050D01*
X-17550Y-125850D01*
X-18350Y-125450D01*
X-19150Y-125850D01*
X-19200Y-129700D02*
X-18800Y-128900D01*
X-19200Y-128100D01*
X-18400Y-128500D01*
X-17600Y-128100D01*
X-18000Y-128900D01*
X-17600Y-129700D01*
X-18400Y-129300D01*
X-19200Y-129700D01*
X-18918Y-133900D02*
X-18518Y-133100D01*
X-18918Y-132300D01*
X-18118Y-132700D01*
X-17318Y-132300D01*
X-17718Y-133100D01*
X-17318Y-133900D01*
X-18118Y-133500D01*
X-18918Y-133900D01*
X-25600Y-154500D02*
X-25200Y-153700D01*
X-25600Y-152900D01*
X-24800Y-153300D01*
X-24000Y-152900D01*
X-24400Y-153700D01*
X-24000Y-154500D01*
X-24800Y-154100D01*
X-25600Y-154500D01*
X-25900Y-161100D02*
X-25500Y-160300D01*
X-25900Y-159500D01*
X-25100Y-159900D01*
X-24300Y-159500D01*
X-24700Y-160300D01*
X-24300Y-161100D01*
X-25100Y-160700D01*
X-25900Y-161100D01*
Y-164500D02*
X-25500Y-163700D01*
X-25900Y-162900D01*
X-25100Y-163300D01*
X-24300Y-162900D01*
X-24700Y-163700D01*
X-24300Y-164500D01*
X-25100Y-164100D01*
X-25900Y-164500D01*
X-25700Y-169500D02*
X-25300Y-168700D01*
X-25700Y-167900D01*
X-24900Y-168300D01*
X-24100Y-167900D01*
X-24500Y-168700D01*
X-24100Y-169500D01*
X-24900Y-169100D01*
X-25700Y-169500D01*
X-26000Y-172800D02*
X-25600Y-172000D01*
X-26000Y-171200D01*
X-25200Y-171600D01*
X-24400Y-171200D01*
X-24800Y-172000D01*
X-24400Y-172800D01*
X-25200Y-172400D01*
X-26000Y-172800D01*
X-25900Y-179500D02*
X-25500Y-178700D01*
X-25900Y-177900D01*
X-25100Y-178300D01*
X-24300Y-177900D01*
X-24700Y-178700D01*
X-24300Y-179500D01*
X-25100Y-179100D01*
X-25900Y-179500D01*
X-64154Y-105746D02*
X-63754Y-104946D01*
X-64154Y-104146D01*
X-63354Y-104546D01*
X-62554Y-104146D01*
X-62954Y-104946D01*
X-62554Y-105746D01*
X-63354Y-105346D01*
X-64154Y-105746D01*
X-67000Y-94700D02*
X-66600Y-93900D01*
X-67000Y-93100D01*
X-66200Y-93500D01*
X-65400Y-93100D01*
X-65800Y-93900D01*
X-65400Y-94700D01*
X-66200Y-94300D01*
X-67000Y-94700D01*
X-67100Y-82400D02*
X-66700Y-81600D01*
X-67100Y-80800D01*
X-66300Y-81200D01*
X-65500Y-80800D01*
X-65900Y-81600D01*
X-65500Y-82400D01*
X-66300Y-82000D01*
X-67100Y-82400D01*
Y-66900D02*
X-66700Y-66100D01*
X-67100Y-65300D01*
X-66300Y-65700D01*
X-65500Y-65300D01*
X-65900Y-66100D01*
X-65500Y-66900D01*
X-66300Y-66500D01*
X-67100Y-66900D01*
X-29100Y-69100D02*
X-28700Y-68300D01*
X-29100Y-67500D01*
X-28300Y-67900D01*
X-27500Y-67500D01*
X-27900Y-68300D01*
X-27500Y-69100D01*
X-28300Y-68700D01*
X-29100Y-69100D01*
X-30800Y-100700D02*
X-30400Y-99900D01*
X-30800Y-99100D01*
X-30000Y-99500D01*
X-29200Y-99100D01*
X-29600Y-99900D01*
X-29200Y-100700D01*
X-30000Y-100300D01*
X-30800Y-100700D01*
X-45300Y-71100D02*
X-44900Y-70300D01*
X-45300Y-69500D01*
X-44500Y-69900D01*
X-43700Y-69500D01*
X-44100Y-70300D01*
X-43700Y-71100D01*
X-44500Y-70700D01*
X-45300Y-71100D01*
X-30700Y-75100D02*
X-30300Y-74300D01*
X-30700Y-73500D01*
X-29900Y-73900D01*
X-29100Y-73500D01*
X-29500Y-74300D01*
X-29100Y-75100D01*
X-29900Y-74700D01*
X-30700Y-75100D01*
X-46646Y-104961D02*
X-46246Y-104161D01*
X-46646Y-103361D01*
X-45845Y-103761D01*
X-45046Y-103361D01*
X-45445Y-104161D01*
X-45046Y-104961D01*
X-45845Y-104561D01*
X-46646Y-104961D01*
X-695Y-58300D02*
X-295Y-57500D01*
X-695Y-56700D01*
X106Y-57100D01*
X905Y-56700D01*
X506Y-57500D01*
X905Y-58300D01*
X106Y-57900D01*
X-695Y-58300D01*
X7700Y-130100D02*
X8100Y-129300D01*
X7700Y-128500D01*
X8500Y-128900D01*
X9300Y-128500D01*
X8900Y-129300D01*
X9300Y-130100D01*
X8500Y-129700D01*
X7700Y-130100D01*
X-1755Y-137983D02*
X-1355Y-137183D01*
X-1755Y-136383D01*
X-955Y-136783D01*
X-155Y-136383D01*
X-555Y-137183D01*
X-155Y-137983D01*
X-955Y-137583D01*
X-1755Y-137983D01*
X15902Y-122226D02*
X16302Y-121426D01*
X15902Y-120626D01*
X16702Y-121026D01*
X17502Y-120626D01*
X17102Y-121426D01*
X17502Y-122226D01*
X16702Y-121826D01*
X15902Y-122226D01*
D11*
X80006Y-177017D02*
G03*
X80006Y-177017I-800J0D01*
G01*
Y-141583D02*
G03*
X80006Y-141583I-800J0D01*
G01*
M02*
