G04*
G04 #@! TF.GenerationSoftware,Altium Limited,Altium Designer,18.1.9 (240)*
G04*
G04 Layer_Color=255*
%FSLAX25Y25*%
%MOIN*%
G70*
G01*
G75*
%ADD21R,0.01575X0.01968*%
%ADD39R,0.01968X0.01575*%
G04:AMPARAMS|DCode=47|XSize=55mil|YSize=50mil|CornerRadius=0mil|HoleSize=0mil|Usage=FLASHONLY|Rotation=180.000|XOffset=0mil|YOffset=0mil|HoleType=Round|Shape=Octagon|*
%AMOCTAGOND47*
4,1,8,-0.02750,0.01250,-0.02750,-0.01250,-0.01500,-0.02500,0.01500,-0.02500,0.02750,-0.01250,0.02750,0.01250,0.01500,0.02500,-0.01500,0.02500,-0.02750,0.01250,0.0*
%
%ADD47OCTAGOND47*%

%ADD48R,0.05500X0.05000*%
%ADD93R,0.06693X0.06693*%
%ADD94C,0.06693*%
%ADD95O,0.09055X0.04724*%
%ADD96O,0.07874X0.04724*%
%ADD97C,0.02953*%
%ADD98R,0.06693X0.06693*%
%ADD100R,0.08268X0.02165*%
%ADD101O,0.08268X0.02165*%
%ADD102C,0.03937*%
D21*
X56871Y-80400D02*
D03*
X53525D02*
D03*
X39571Y-208000D02*
D03*
X36225D02*
D03*
D39*
X76200Y-67247D02*
D03*
Y-63900D02*
D03*
D47*
X53800Y-64800D02*
D03*
X67600Y-73300D02*
D03*
D48*
X67300Y-64800D02*
D03*
X54100Y-73300D02*
D03*
D93*
X53200Y-200300D02*
D03*
D94*
X43200D02*
D03*
X33200D02*
D03*
X23200D02*
D03*
X13200D02*
D03*
X-74500Y-74000D02*
D03*
Y-94000D02*
D03*
Y-134000D02*
D03*
Y-144000D02*
D03*
Y-164000D02*
D03*
Y-194000D02*
D03*
Y-184000D02*
D03*
Y-174000D02*
D03*
Y-154000D02*
D03*
Y-124000D02*
D03*
Y-114000D02*
D03*
Y-104000D02*
D03*
Y-84000D02*
D03*
Y-64000D02*
D03*
Y-54000D02*
D03*
D95*
X79206Y-177017D02*
D03*
X79206Y-141584D02*
D03*
D96*
X95545Y-141583D02*
D03*
X95545Y-177016D02*
D03*
D97*
X81175Y-147922D02*
D03*
Y-170677D02*
D03*
D98*
X-74500Y-204000D02*
D03*
D100*
X-18118Y-138700D02*
D03*
D101*
Y-143700D02*
D03*
Y-148700D02*
D03*
X-18118Y-153700D02*
D03*
X-18118Y-158700D02*
D03*
Y-163700D02*
D03*
Y-168700D02*
D03*
Y-173700D02*
D03*
X-18118Y-178700D02*
D03*
X-18118Y-183700D02*
D03*
X-57882Y-158700D02*
D03*
Y-163700D02*
D03*
Y-168700D02*
D03*
Y-173700D02*
D03*
X-57882Y-178700D02*
D03*
X-57882Y-183700D02*
D03*
Y-188700D02*
D03*
Y-193700D02*
D03*
X-18118D02*
D03*
Y-188700D02*
D03*
X-57882Y-138700D02*
D03*
Y-143700D02*
D03*
Y-148700D02*
D03*
X-57882Y-153700D02*
D03*
D102*
X12206Y-51000D02*
D03*
D03*
X22206D02*
D03*
X32206D02*
D03*
M02*
