G04*
G04 #@! TF.GenerationSoftware,Altium Limited,Altium Designer,18.1.9 (240)*
G04*
G04 Layer_Color=16711935*
%FSLAX25Y25*%
%MOIN*%
G70*
G01*
G75*
%ADD106C,0.00591*%
%ADD107C,0.00394*%
D106*
X-24764Y-140200D02*
G03*
X-24764Y-140200I-2236J0D01*
G01*
X8168Y-69324D02*
G03*
X8168Y-69324I-1969J0D01*
G01*
X-53158Y-135885D02*
X-22842D01*
X-53158Y-196515D02*
Y-135885D01*
Y-196515D02*
X-22842D01*
Y-135885D01*
X-13287Y-83800D02*
X6200Y-64313D01*
Y-103287D02*
X25687Y-83800D01*
X6200Y-64313D02*
X25687Y-83800D01*
X-13287D02*
X6200Y-103287D01*
D107*
X14405Y-123395D02*
G03*
X14405Y-123395I-787J0D01*
G01*
X50169Y-172900D02*
G03*
X50169Y-172900I-1969J0D01*
G01*
X626Y-137174D02*
Y-121426D01*
Y-137174D02*
X16374D01*
X626Y-121426D02*
X16374D01*
Y-137174D02*
Y-121426D01*
X45113Y-189743D02*
Y-170057D01*
X59287Y-189743D02*
Y-170057D01*
X45113D02*
X59287D01*
X45113Y-189743D02*
X59287D01*
X16865Y-177483D02*
Y-162916D01*
X-9512Y-177483D02*
Y-162916D01*
X16865D01*
X-9512Y-177483D02*
X16865D01*
X-55688Y-96355D02*
X-36003D01*
Y-78245D01*
X-55688D02*
X-36003D01*
X-55688Y-96355D02*
Y-78245D01*
M02*
