G04*
G04 #@! TF.GenerationSoftware,Altium Limited,Altium Designer,18.1.9 (240)*
G04*
G04 Layer_Physical_Order=2*
G04 Layer_Color=16711680*
%FSLAX25Y25*%
%MOIN*%
G70*
G01*
G75*
%ADD12C,0.02000*%
%ADD15C,0.01000*%
%ADD21R,0.01575X0.01968*%
%ADD39R,0.01968X0.01575*%
G04:AMPARAMS|DCode=47|XSize=55mil|YSize=50mil|CornerRadius=0mil|HoleSize=0mil|Usage=FLASHONLY|Rotation=180.000|XOffset=0mil|YOffset=0mil|HoleType=Round|Shape=Octagon|*
%AMOCTAGOND47*
4,1,8,-0.02750,0.01250,-0.02750,-0.01250,-0.01500,-0.02500,0.01500,-0.02500,0.02750,-0.01250,0.02750,0.01250,0.01500,0.02500,-0.01500,0.02500,-0.02750,0.01250,0.0*
%
%ADD47OCTAGOND47*%

%ADD48R,0.05500X0.05000*%
%ADD92C,0.01500*%
%ADD93R,0.06693X0.06693*%
%ADD94C,0.06693*%
%ADD95O,0.09055X0.04724*%
%ADD96O,0.07874X0.04724*%
%ADD97C,0.02953*%
%ADD98R,0.06693X0.06693*%
%ADD99C,0.01600*%
%ADD100R,0.08268X0.02165*%
%ADD101O,0.08268X0.02165*%
%ADD102C,0.03937*%
G36*
X-87444Y-45149D02*
X-87078Y-45222D01*
X93062Y-45222D01*
X93062Y-45222D01*
X93035Y-45222D01*
X93202Y-45239D01*
X93415Y-45267D01*
X93560Y-45287D01*
X94052Y-45248D01*
X95864Y-45427D01*
X97657Y-45971D01*
X99309Y-46854D01*
X100758Y-48042D01*
X101946Y-49491D01*
X102829Y-51143D01*
X103373Y-52936D01*
X103557Y-54800D01*
X103551Y-54856D01*
X103478Y-55222D01*
X103478Y-202962D01*
X103478Y-202962D01*
X103478Y-202935D01*
X103461Y-203102D01*
X103433Y-203315D01*
X103413Y-203460D01*
X103452Y-203952D01*
X103273Y-205764D01*
X102729Y-207557D01*
X101846Y-209209D01*
X100658Y-210658D01*
X99209Y-211846D01*
X97557Y-212729D01*
X95764Y-213273D01*
X94020Y-213445D01*
X93523Y-213420D01*
X93334Y-213443D01*
X93173Y-213461D01*
X93004Y-213478D01*
X-87107Y-213478D01*
X-87402Y-213537D01*
X-87600Y-213557D01*
X-89464Y-213373D01*
X-91257Y-212829D01*
X-92909Y-211946D01*
X-94358Y-210758D01*
X-95546Y-209309D01*
X-96429Y-207657D01*
X-96973Y-205864D01*
X-97145Y-204120D01*
X-97119Y-203623D01*
X-97143Y-203434D01*
X-97162Y-203273D01*
X-97178Y-203104D01*
X-97179Y-55720D01*
X-97113Y-55622D01*
X-97104Y-55577D01*
X-97013Y-55141D01*
X-97013Y-55140D01*
X-97052Y-54648D01*
X-96873Y-52836D01*
X-96329Y-51043D01*
X-95446Y-49391D01*
X-94258Y-47942D01*
X-92809Y-46754D01*
X-91157Y-45871D01*
X-89364Y-45327D01*
X-87500Y-45143D01*
X-87444Y-45149D01*
D02*
G37*
%LPC*%
G36*
X12706Y-48072D02*
Y-50500D01*
X15134D01*
X15098Y-50225D01*
X14799Y-49503D01*
X14323Y-48883D01*
X13703Y-48407D01*
X12981Y-48108D01*
X12706Y-48072D01*
D02*
G37*
G36*
X11706D02*
X11431Y-48108D01*
X10709Y-48407D01*
X10089Y-48883D01*
X9613Y-49503D01*
X9314Y-50225D01*
X9278Y-50500D01*
X11706D01*
Y-48072D01*
D02*
G37*
G36*
X15134Y-51500D02*
X12706D01*
Y-53928D01*
X12981Y-53892D01*
X13703Y-53593D01*
X14323Y-53117D01*
X14799Y-52497D01*
X15098Y-51775D01*
X15134Y-51500D01*
D02*
G37*
G36*
X11706D02*
X9278D01*
X9314Y-51775D01*
X9613Y-52497D01*
X10089Y-53117D01*
X10709Y-53593D01*
X11431Y-53892D01*
X11706Y-53928D01*
Y-51500D01*
D02*
G37*
G36*
X-14600Y-55064D02*
Y-56300D01*
X-13364D01*
X-13404Y-56098D01*
X-13802Y-55502D01*
X-14398Y-55104D01*
X-14600Y-55064D01*
D02*
G37*
G36*
X-15600D02*
X-15802Y-55104D01*
X-16398Y-55502D01*
X-16796Y-56098D01*
X-16836Y-56300D01*
X-15600D01*
Y-55064D01*
D02*
G37*
G36*
X605Y-55764D02*
Y-57000D01*
X1841D01*
X1801Y-56798D01*
X1403Y-56202D01*
X808Y-55804D01*
X605Y-55764D01*
D02*
G37*
G36*
X-395D02*
X-597Y-55804D01*
X-1192Y-56202D01*
X-1590Y-56798D01*
X-1630Y-57000D01*
X-395D01*
Y-55764D01*
D02*
G37*
G36*
X-74500Y-50020D02*
X-75530Y-50155D01*
X-76490Y-50553D01*
X-77315Y-51185D01*
X-77947Y-52010D01*
X-78345Y-52970D01*
X-78480Y-54000D01*
X-78345Y-55030D01*
X-77947Y-55990D01*
X-77315Y-56815D01*
X-76490Y-57447D01*
X-75530Y-57845D01*
X-74500Y-57981D01*
X-73470Y-57845D01*
X-72510Y-57447D01*
X-71685Y-56815D01*
X-71053Y-55990D01*
X-70655Y-55030D01*
X-70520Y-54000D01*
X-70655Y-52970D01*
X-71053Y-52010D01*
X-71685Y-51185D01*
X-72510Y-50553D01*
X-73470Y-50155D01*
X-74500Y-50020D01*
D02*
G37*
G36*
X-13364Y-57300D02*
X-14600D01*
Y-58536D01*
X-14398Y-58496D01*
X-13802Y-58098D01*
X-13404Y-57502D01*
X-13364Y-57300D01*
D02*
G37*
G36*
X-15600D02*
X-16836D01*
X-16796Y-57502D01*
X-16398Y-58098D01*
X-15802Y-58496D01*
X-15600Y-58536D01*
Y-57300D01*
D02*
G37*
G36*
X1841Y-58000D02*
X605D01*
Y-59236D01*
X808Y-59196D01*
X1403Y-58798D01*
X1801Y-58202D01*
X1841Y-58000D01*
D02*
G37*
G36*
X-395D02*
X-1630D01*
X-1590Y-58202D01*
X-1192Y-58798D01*
X-597Y-59196D01*
X-395Y-59236D01*
Y-58000D01*
D02*
G37*
G36*
X19705Y-58769D02*
Y-60005D01*
X20941D01*
X20901Y-59803D01*
X20503Y-59207D01*
X19907Y-58810D01*
X19705Y-58769D01*
D02*
G37*
G36*
X18705D02*
X18503Y-58810D01*
X17907Y-59207D01*
X17510Y-59803D01*
X17469Y-60005D01*
X18705D01*
Y-58769D01*
D02*
G37*
G36*
X-44700Y-59914D02*
Y-61150D01*
X-43464D01*
X-43504Y-60948D01*
X-43902Y-60352D01*
X-44498Y-59954D01*
X-44700Y-59914D01*
D02*
G37*
G36*
X-45700D02*
X-45902Y-59954D01*
X-46498Y-60352D01*
X-46896Y-60948D01*
X-46936Y-61150D01*
X-45700D01*
Y-59914D01*
D02*
G37*
G36*
X20941Y-61005D02*
X19705D01*
Y-62241D01*
X19907Y-62201D01*
X20503Y-61803D01*
X20901Y-61207D01*
X20941Y-61005D01*
D02*
G37*
G36*
X18705D02*
X17469D01*
X17510Y-61207D01*
X17907Y-61803D01*
X18503Y-62201D01*
X18705Y-62241D01*
Y-61005D01*
D02*
G37*
G36*
X-43464Y-62150D02*
X-44700D01*
Y-63386D01*
X-44498Y-63346D01*
X-43902Y-62948D01*
X-43504Y-62352D01*
X-43464Y-62150D01*
D02*
G37*
G36*
X-45700D02*
X-46936D01*
X-46896Y-62352D01*
X-46498Y-62948D01*
X-45902Y-63346D01*
X-45700Y-63386D01*
Y-62150D01*
D02*
G37*
G36*
X40825Y-57766D02*
X40201Y-57890D01*
X39672Y-58243D01*
X39318Y-58773D01*
X39194Y-59397D01*
Y-60025D01*
X39318Y-60650D01*
X39672Y-61179D01*
X49412Y-70919D01*
X49416Y-70934D01*
X49448Y-70955D01*
X49458Y-70965D01*
X49472Y-71004D01*
X50214Y-71801D01*
X50477Y-72127D01*
X50679Y-72415D01*
X50750Y-72538D01*
Y-73289D01*
X50727Y-73333D01*
X50744Y-73386D01*
X50726Y-73439D01*
X50750Y-73486D01*
Y-76400D01*
X52340D01*
X52345Y-76416D01*
X52360Y-76510D01*
X52371Y-76635D01*
X52376Y-76805D01*
X52403Y-76867D01*
Y-78346D01*
X52376Y-78408D01*
X52365Y-78748D01*
X52359Y-78815D01*
X52138D01*
Y-79337D01*
X52100Y-79427D01*
X52125Y-79487D01*
X52112Y-79549D01*
X52138Y-79589D01*
Y-81984D01*
X54740D01*
X54912Y-81984D01*
X55240Y-82348D01*
Y-101730D01*
X39672Y-117298D01*
X39318Y-117828D01*
X39194Y-118452D01*
X39318Y-119076D01*
X39672Y-119606D01*
X40201Y-119959D01*
X40825Y-120083D01*
X41449Y-119959D01*
X41979Y-119606D01*
X58025Y-103559D01*
X58378Y-103030D01*
X58503Y-102406D01*
Y-82031D01*
X71200D01*
X71825Y-81907D01*
X72354Y-81553D01*
X77354Y-76553D01*
X77707Y-76024D01*
X77831Y-75400D01*
X77831Y-75400D01*
Y-67247D01*
X77784Y-67010D01*
Y-65859D01*
X77373D01*
X77343Y-65842D01*
X77303Y-65721D01*
X77558Y-65287D01*
X77784D01*
Y-65067D01*
X78009Y-65052D01*
X78182Y-65049D01*
X78246Y-65022D01*
X80618D01*
X80681Y-65049D01*
X80910Y-65054D01*
X80998Y-65061D01*
X81009Y-65063D01*
X81015Y-65064D01*
X81017Y-65064D01*
X81024Y-65065D01*
X81254Y-65219D01*
X81800Y-65327D01*
X82346Y-65219D01*
X82809Y-64909D01*
X83119Y-64446D01*
X83227Y-63900D01*
X83119Y-63354D01*
X82809Y-62891D01*
X82346Y-62581D01*
X81800Y-62473D01*
X81254Y-62581D01*
X81026Y-62733D01*
X80764Y-62750D01*
X80691Y-62751D01*
X80625Y-62778D01*
X78253D01*
X78192Y-62751D01*
X77852Y-62740D01*
X77784Y-62734D01*
Y-62513D01*
X77263D01*
X77172Y-62475D01*
X77113Y-62500D01*
X77050Y-62487D01*
X77011Y-62513D01*
X75389D01*
X75350Y-62487D01*
X75287Y-62500D01*
X75228Y-62475D01*
X75137Y-62513D01*
X74616D01*
Y-62733D01*
X74391Y-62748D01*
X74218Y-62751D01*
X74154Y-62778D01*
X71117D01*
X71055Y-62751D01*
X70882Y-62746D01*
X70755Y-62735D01*
X70658Y-62719D01*
X70650Y-62717D01*
Y-61700D01*
X63950D01*
Y-67900D01*
X70650D01*
Y-65083D01*
X70658Y-65081D01*
X70755Y-65065D01*
X70882Y-65054D01*
X71055Y-65049D01*
X71117Y-65022D01*
X74147D01*
X74208Y-65049D01*
X74548Y-65060D01*
X74616Y-65066D01*
Y-65287D01*
X74841D01*
X75097Y-65721D01*
X75057Y-65842D01*
X75027Y-65859D01*
X74616D01*
Y-67010D01*
X74569Y-67247D01*
Y-74724D01*
X70525Y-78768D01*
X56871D01*
X56634Y-78815D01*
X55484D01*
Y-79226D01*
X55467Y-79256D01*
X55346Y-79296D01*
X54912Y-79041D01*
Y-78815D01*
X54692D01*
X54677Y-78590D01*
X54674Y-78418D01*
X54646Y-78354D01*
Y-76867D01*
X54674Y-76805D01*
X54679Y-76635D01*
X54690Y-76510D01*
X54705Y-76416D01*
X54710Y-76400D01*
X57450D01*
Y-70200D01*
X54604D01*
X54594Y-70193D01*
X54549Y-70200D01*
X54542D01*
X54498Y-70177D01*
X54425Y-70200D01*
X53634D01*
X53403Y-70068D01*
X53130Y-69878D01*
X52447Y-69301D01*
X52063Y-68930D01*
X52021Y-68914D01*
X42445Y-59338D01*
X42332Y-58773D01*
X41979Y-58243D01*
X41449Y-57890D01*
X40825Y-57766D01*
D02*
G37*
G36*
X-65800Y-64364D02*
Y-65600D01*
X-64564D01*
X-64604Y-65398D01*
X-65002Y-64802D01*
X-65598Y-64404D01*
X-65800Y-64364D01*
D02*
G37*
G36*
X-66800D02*
X-67002Y-64404D01*
X-67598Y-64802D01*
X-67996Y-65398D01*
X-68036Y-65600D01*
X-66800D01*
Y-64364D01*
D02*
G37*
G36*
X-27800Y-66565D02*
Y-67800D01*
X-26564D01*
X-26605Y-67598D01*
X-27003Y-67003D01*
X-27598Y-66605D01*
X-27800Y-66565D01*
D02*
G37*
G36*
X-28800D02*
X-29003Y-66605D01*
X-29598Y-67003D01*
X-29996Y-67598D01*
X-30036Y-67800D01*
X-28800D01*
Y-66565D01*
D02*
G37*
G36*
X-64564Y-66600D02*
X-65800D01*
Y-67836D01*
X-65598Y-67796D01*
X-65002Y-67398D01*
X-64604Y-66802D01*
X-64564Y-66600D01*
D02*
G37*
G36*
X-66800D02*
X-68036D01*
X-67996Y-66802D01*
X-67598Y-67398D01*
X-67002Y-67796D01*
X-66800Y-67836D01*
Y-66600D01*
D02*
G37*
G36*
X42491Y-51860D02*
X40825D01*
X40201Y-51984D01*
X39672Y-52338D01*
X39318Y-52867D01*
X39194Y-53491D01*
X39318Y-54116D01*
X39672Y-54645D01*
X40201Y-54998D01*
X40825Y-55123D01*
X41816D01*
X49161Y-62468D01*
X49166Y-62489D01*
X49199Y-62508D01*
X49212Y-62544D01*
X49939Y-63326D01*
X50195Y-63645D01*
X50392Y-63927D01*
X50450Y-64029D01*
Y-64789D01*
X50427Y-64833D01*
X50444Y-64885D01*
X50426Y-64938D01*
X50450Y-64985D01*
Y-66350D01*
X52000Y-67900D01*
X55600D01*
X57150Y-66350D01*
Y-63250D01*
X55600Y-61700D01*
X54304D01*
X54294Y-61693D01*
X54249Y-61700D01*
X54242D01*
X54198Y-61677D01*
X54125Y-61700D01*
X53334D01*
X53103Y-61568D01*
X52830Y-61378D01*
X52148Y-60802D01*
X51763Y-60430D01*
X51721Y-60414D01*
X43645Y-52338D01*
X43116Y-51984D01*
X42491Y-51860D01*
D02*
G37*
G36*
X-74500Y-60019D02*
X-75530Y-60155D01*
X-76490Y-60553D01*
X-77315Y-61185D01*
X-77947Y-62010D01*
X-78345Y-62970D01*
X-78480Y-64000D01*
X-78345Y-65030D01*
X-77947Y-65990D01*
X-77315Y-66815D01*
X-76490Y-67447D01*
X-75530Y-67845D01*
X-74500Y-67980D01*
X-73470Y-67845D01*
X-72510Y-67447D01*
X-71685Y-66815D01*
X-71053Y-65990D01*
X-70655Y-65030D01*
X-70520Y-64000D01*
X-70655Y-62970D01*
X-71053Y-62010D01*
X-71685Y-61185D01*
X-72510Y-60553D01*
X-73470Y-60155D01*
X-74500Y-60019D01*
D02*
G37*
G36*
X-45000Y-68564D02*
X-45202Y-68604D01*
X-45798Y-69002D01*
X-46196Y-69598D01*
X-46236Y-69800D01*
X-45000D01*
Y-68564D01*
D02*
G37*
G36*
X-26564Y-68800D02*
X-27800D01*
Y-70036D01*
X-27598Y-69996D01*
X-27003Y-69598D01*
X-26605Y-69003D01*
X-26564Y-68800D01*
D02*
G37*
G36*
X-28800D02*
X-30036D01*
X-29996Y-69003D01*
X-29598Y-69598D01*
X-29003Y-69996D01*
X-28800Y-70036D01*
Y-68800D01*
D02*
G37*
G36*
X-45000Y-70800D02*
X-46236D01*
X-46196Y-71002D01*
X-45798Y-71598D01*
X-45202Y-71996D01*
X-45000Y-72036D01*
Y-70800D01*
D02*
G37*
G36*
X-29400Y-72564D02*
Y-73800D01*
X-28164D01*
X-28204Y-73598D01*
X-28602Y-73002D01*
X-29198Y-72604D01*
X-29400Y-72564D01*
D02*
G37*
G36*
X-44000Y-68564D02*
Y-70300D01*
Y-72036D01*
X-43798Y-71996D01*
X-43202Y-71598D01*
X-43085Y-71422D01*
X-34365D01*
X-31986Y-73800D01*
X-30962D01*
X-30400Y-73238D01*
Y-72214D01*
X-33107Y-69507D01*
X-33471Y-69264D01*
X-33900Y-69178D01*
X-33900Y-69178D01*
X-43085D01*
X-43202Y-69002D01*
X-43798Y-68604D01*
X-44000Y-68564D01*
D02*
G37*
G36*
X4300Y-74464D02*
Y-75700D01*
X5536D01*
X5496Y-75498D01*
X5098Y-74902D01*
X4502Y-74504D01*
X4300Y-74464D01*
D02*
G37*
G36*
X3300D02*
X3098Y-74504D01*
X2502Y-74902D01*
X2104Y-75498D01*
X2064Y-75700D01*
X3300D01*
Y-74464D01*
D02*
G37*
G36*
X-28164Y-74800D02*
X-29400D01*
Y-76036D01*
X-29198Y-75996D01*
X-28602Y-75598D01*
X-28204Y-75002D01*
X-28164Y-74800D01*
D02*
G37*
G36*
X-30400D02*
X-31636D01*
X-31596Y-75002D01*
X-31198Y-75598D01*
X-30602Y-75996D01*
X-30400Y-76036D01*
Y-74800D01*
D02*
G37*
G36*
X69400Y-70200D02*
X65800D01*
X64250Y-71750D01*
Y-74850D01*
X65800Y-76400D01*
X69400D01*
X70950Y-74850D01*
Y-71750D01*
X69400Y-70200D01*
D02*
G37*
G36*
X5536Y-76700D02*
X4300D01*
Y-77936D01*
X4502Y-77896D01*
X5098Y-77498D01*
X5496Y-76902D01*
X5536Y-76700D01*
D02*
G37*
G36*
X3300D02*
X2064D01*
X2104Y-76902D01*
X2502Y-77498D01*
X3098Y-77896D01*
X3300Y-77936D01*
Y-76700D01*
D02*
G37*
G36*
X-74500Y-70020D02*
X-75530Y-70155D01*
X-76490Y-70553D01*
X-77315Y-71185D01*
X-77947Y-72010D01*
X-78345Y-72970D01*
X-78480Y-74000D01*
X-78345Y-75030D01*
X-77947Y-75990D01*
X-77315Y-76815D01*
X-76490Y-77447D01*
X-75530Y-77845D01*
X-74500Y-77981D01*
X-73470Y-77845D01*
X-72510Y-77447D01*
X-71685Y-76815D01*
X-71053Y-75990D01*
X-70655Y-75030D01*
X-70520Y-74000D01*
X-70655Y-72970D01*
X-71053Y-72010D01*
X-71685Y-71185D01*
X-72510Y-70553D01*
X-73470Y-70155D01*
X-74500Y-70020D01*
D02*
G37*
G36*
X32206Y-48409D02*
X31536Y-48498D01*
X30911Y-48756D01*
X30374Y-49168D01*
X29963Y-49705D01*
X29704Y-50330D01*
X29616Y-51000D01*
X29704Y-51670D01*
X29963Y-52295D01*
X30374Y-52832D01*
X30911Y-53244D01*
X31536Y-53502D01*
X32206Y-53591D01*
X32278Y-54085D01*
Y-78535D01*
X31336Y-79478D01*
X30876Y-79231D01*
X30922Y-79000D01*
Y-58594D01*
X30922Y-58594D01*
X30836Y-58165D01*
X30593Y-57801D01*
X30593Y-57801D01*
X25109Y-52317D01*
X25085Y-52254D01*
X24978Y-52140D01*
X24901Y-52047D01*
X24840Y-51963D01*
X24796Y-51889D01*
X24766Y-51827D01*
X24748Y-51776D01*
X24739Y-51736D01*
X24737Y-51706D01*
X24738Y-51680D01*
X24751Y-51611D01*
X24738Y-51550D01*
X24762Y-51492D01*
X24739Y-51438D01*
X24797Y-51000D01*
X24709Y-50330D01*
X24450Y-49705D01*
X24038Y-49168D01*
X23502Y-48756D01*
X22877Y-48498D01*
X22206Y-48409D01*
X21536Y-48498D01*
X20911Y-48756D01*
X20374Y-49168D01*
X19963Y-49705D01*
X19704Y-50330D01*
X19616Y-51000D01*
X19704Y-51670D01*
X19963Y-52295D01*
X20374Y-52832D01*
X20911Y-53244D01*
X21536Y-53502D01*
X22206Y-53591D01*
X22644Y-53533D01*
X22698Y-53556D01*
X22756Y-53532D01*
X22817Y-53544D01*
X22886Y-53532D01*
X22912Y-53531D01*
X22942Y-53533D01*
X22982Y-53542D01*
X23033Y-53560D01*
X23096Y-53590D01*
X23169Y-53634D01*
X23254Y-53694D01*
X23346Y-53772D01*
X23460Y-53879D01*
X23523Y-53903D01*
X28678Y-59058D01*
Y-78492D01*
X28613Y-78555D01*
X28546Y-78612D01*
X28537Y-78619D01*
X28532Y-78622D01*
X28530Y-78623D01*
X28525Y-78627D01*
X28254Y-78681D01*
X27791Y-78991D01*
X27481Y-79454D01*
X27373Y-80000D01*
X27481Y-80546D01*
X27791Y-81009D01*
X28254Y-81319D01*
X28387Y-81345D01*
X28617Y-81901D01*
X28581Y-81954D01*
X28473Y-82500D01*
X28581Y-83046D01*
X28891Y-83509D01*
X29354Y-83819D01*
X29900Y-83927D01*
X30446Y-83819D01*
X30909Y-83509D01*
X31219Y-83046D01*
X31272Y-82778D01*
X31446Y-82580D01*
X31497Y-82529D01*
X31524Y-82462D01*
X34193Y-79793D01*
X34193Y-79793D01*
X34436Y-79429D01*
X34522Y-79000D01*
X34522Y-79000D01*
Y-53637D01*
X34549Y-53571D01*
X34554Y-53027D01*
X34580Y-52402D01*
X34608Y-52122D01*
X34621Y-52038D01*
X34632Y-51989D01*
X34647Y-51943D01*
X34642Y-51882D01*
X34673Y-51828D01*
X34661Y-51784D01*
X34709Y-51670D01*
X34797Y-51000D01*
X34709Y-50330D01*
X34450Y-49705D01*
X34038Y-49168D01*
X33501Y-48756D01*
X32877Y-48498D01*
X32206Y-48409D01*
D02*
G37*
G36*
X-976Y-78564D02*
Y-79800D01*
X260D01*
X220Y-79598D01*
X-178Y-79002D01*
X-773Y-78604D01*
X-976Y-78564D01*
D02*
G37*
G36*
X-1976D02*
X-2178Y-78604D01*
X-2774Y-79002D01*
X-3171Y-79598D01*
X-3212Y-79800D01*
X-1976D01*
Y-78564D01*
D02*
G37*
G36*
X-65800Y-79864D02*
Y-81100D01*
X-64564D01*
X-64604Y-80898D01*
X-65002Y-80302D01*
X-65598Y-79904D01*
X-65800Y-79864D01*
D02*
G37*
G36*
X-66800D02*
X-67002Y-79904D01*
X-67598Y-80302D01*
X-67996Y-80898D01*
X-68036Y-81100D01*
X-66800D01*
Y-79864D01*
D02*
G37*
G36*
X260Y-80800D02*
X-976D01*
Y-82036D01*
X-773Y-81996D01*
X-178Y-81598D01*
X220Y-81002D01*
X260Y-80800D01*
D02*
G37*
G36*
X-1976D02*
X-3212D01*
X-3171Y-81002D01*
X-2774Y-81598D01*
X-2178Y-81996D01*
X-1976Y-82036D01*
Y-80800D01*
D02*
G37*
G36*
X-64564Y-82100D02*
X-65800D01*
Y-83336D01*
X-65598Y-83296D01*
X-65002Y-82898D01*
X-64604Y-82302D01*
X-64564Y-82100D01*
D02*
G37*
G36*
X-66800D02*
X-68036D01*
X-67996Y-82302D01*
X-67598Y-82898D01*
X-67002Y-83296D01*
X-66800Y-83336D01*
Y-82100D01*
D02*
G37*
G36*
X4300Y-83840D02*
Y-85076D01*
X5536D01*
X5496Y-84873D01*
X5098Y-84278D01*
X4502Y-83880D01*
X4300Y-83840D01*
D02*
G37*
G36*
X3300D02*
X3098Y-83880D01*
X2502Y-84278D01*
X2104Y-84873D01*
X2064Y-85076D01*
X3300D01*
Y-83840D01*
D02*
G37*
G36*
X5536Y-86076D02*
X4300D01*
Y-87312D01*
X4502Y-87271D01*
X5098Y-86874D01*
X5496Y-86278D01*
X5536Y-86076D01*
D02*
G37*
G36*
X3300D02*
X2064D01*
X2104Y-86278D01*
X2502Y-86874D01*
X3098Y-87271D01*
X3300Y-87312D01*
Y-86076D01*
D02*
G37*
G36*
X-74500Y-80019D02*
X-75530Y-80155D01*
X-76490Y-80553D01*
X-77315Y-81185D01*
X-77947Y-82010D01*
X-78345Y-82970D01*
X-78480Y-84000D01*
X-78345Y-85030D01*
X-77947Y-85990D01*
X-77315Y-86815D01*
X-76490Y-87447D01*
X-75530Y-87845D01*
X-74500Y-87981D01*
X-73470Y-87845D01*
X-72510Y-87447D01*
X-71685Y-86815D01*
X-71053Y-85990D01*
X-70655Y-85030D01*
X-70520Y-84000D01*
X-70655Y-82970D01*
X-71053Y-82010D01*
X-71685Y-81185D01*
X-72510Y-80553D01*
X-73470Y-80155D01*
X-74500Y-80019D01*
D02*
G37*
G36*
X4300Y-91164D02*
Y-92400D01*
X5536D01*
X5496Y-92198D01*
X5098Y-91602D01*
X4502Y-91204D01*
X4300Y-91164D01*
D02*
G37*
G36*
X3300D02*
X3098Y-91204D01*
X2502Y-91602D01*
X2104Y-92198D01*
X2064Y-92400D01*
X3300D01*
Y-91164D01*
D02*
G37*
G36*
X26800Y-92064D02*
Y-93300D01*
X28036D01*
X27996Y-93098D01*
X27598Y-92502D01*
X27002Y-92104D01*
X26800Y-92064D01*
D02*
G37*
G36*
X25800D02*
X25598Y-92104D01*
X25002Y-92502D01*
X24604Y-93098D01*
X24564Y-93300D01*
X25800D01*
Y-92064D01*
D02*
G37*
G36*
X-65700Y-92164D02*
Y-93400D01*
X-64464D01*
X-64504Y-93198D01*
X-64902Y-92602D01*
X-65498Y-92204D01*
X-65700Y-92164D01*
D02*
G37*
G36*
X-66700D02*
X-66902Y-92204D01*
X-67498Y-92602D01*
X-67896Y-93198D01*
X-67936Y-93400D01*
X-66700D01*
Y-92164D01*
D02*
G37*
G36*
X5536Y-93400D02*
X4300D01*
Y-94636D01*
X4502Y-94596D01*
X5098Y-94198D01*
X5496Y-93602D01*
X5536Y-93400D01*
D02*
G37*
G36*
X3300D02*
X2064D01*
X2104Y-93602D01*
X2502Y-94198D01*
X3098Y-94596D01*
X3300Y-94636D01*
Y-93400D01*
D02*
G37*
G36*
X-24208Y-67264D02*
X-24755Y-67373D01*
X-25218Y-67682D01*
X-25527Y-68146D01*
X-25636Y-68692D01*
X-25585Y-68948D01*
Y-87731D01*
X-30692Y-92838D01*
X-30909Y-92984D01*
X-31219Y-93447D01*
X-31327Y-93993D01*
X-31219Y-94539D01*
X-30909Y-95002D01*
X-30446Y-95312D01*
X-29900Y-95420D01*
X-29354Y-95312D01*
X-28891Y-95002D01*
X-28745Y-94785D01*
X-23235Y-89275D01*
X-22937Y-88828D01*
X-22832Y-88301D01*
Y-68948D01*
X-22781Y-68692D01*
X-22889Y-68146D01*
X-23199Y-67682D01*
X-23662Y-67373D01*
X-24208Y-67264D01*
D02*
G37*
G36*
X-64464Y-94400D02*
X-65700D01*
Y-95636D01*
X-65498Y-95596D01*
X-64902Y-95198D01*
X-64504Y-94602D01*
X-64464Y-94400D01*
D02*
G37*
G36*
X-66700D02*
X-67936D01*
X-67896Y-94602D01*
X-67498Y-95198D01*
X-66902Y-95596D01*
X-66700Y-95636D01*
Y-94400D01*
D02*
G37*
G36*
X-74500Y-90020D02*
X-75530Y-90155D01*
X-76490Y-90553D01*
X-77315Y-91185D01*
X-77947Y-92010D01*
X-78345Y-92970D01*
X-78480Y-94000D01*
X-78345Y-95030D01*
X-77947Y-95990D01*
X-77315Y-96815D01*
X-76490Y-97447D01*
X-75530Y-97845D01*
X-74500Y-97980D01*
X-73470Y-97845D01*
X-72510Y-97447D01*
X-71685Y-96815D01*
X-71053Y-95990D01*
X-70655Y-95030D01*
X-70520Y-94000D01*
X-70655Y-92970D01*
X-71053Y-92010D01*
X-71685Y-91185D01*
X-72510Y-90553D01*
X-73470Y-90155D01*
X-74500Y-90020D01*
D02*
G37*
G36*
X32653Y-97211D02*
Y-98447D01*
X33889D01*
X33848Y-98245D01*
X33450Y-97650D01*
X32855Y-97252D01*
X32653Y-97211D01*
D02*
G37*
G36*
X-30000Y-98473D02*
X-30546Y-98581D01*
X-31009Y-98891D01*
X-31319Y-99354D01*
X-31372Y-99622D01*
X-31546Y-99820D01*
X-31597Y-99871D01*
X-31624Y-99938D01*
X-34725Y-103039D01*
X-44664D01*
X-44727Y-103011D01*
X-44956Y-103006D01*
X-45043Y-103000D01*
X-45055Y-102998D01*
X-45061Y-102996D01*
X-45063Y-102997D01*
X-45070Y-102995D01*
X-45299Y-102842D01*
X-45845Y-102733D01*
X-46392Y-102842D01*
X-46855Y-103151D01*
X-47164Y-103614D01*
X-47273Y-104161D01*
X-47164Y-104707D01*
X-46855Y-105170D01*
X-46392Y-105479D01*
X-45845Y-105588D01*
X-45299Y-105479D01*
X-45072Y-105327D01*
X-44809Y-105310D01*
X-44737Y-105310D01*
X-44671Y-105282D01*
X-34261D01*
X-34261Y-105282D01*
X-33831Y-105197D01*
X-33468Y-104954D01*
X-30042Y-101529D01*
X-29978Y-101504D01*
X-29813Y-101345D01*
X-29746Y-101288D01*
X-29737Y-101281D01*
X-29732Y-101278D01*
X-29730Y-101277D01*
X-29724Y-101273D01*
X-29454Y-101219D01*
X-28991Y-100909D01*
X-28681Y-100446D01*
X-28573Y-99900D01*
X-28681Y-99354D01*
X-28991Y-98891D01*
X-29454Y-98581D01*
X-30000Y-98473D01*
D02*
G37*
G36*
X-62854Y-103210D02*
Y-104446D01*
X-61618D01*
X-61659Y-104244D01*
X-62056Y-103648D01*
X-62652Y-103250D01*
X-62854Y-103210D01*
D02*
G37*
G36*
X-63854D02*
X-64056Y-103250D01*
X-64652Y-103648D01*
X-65050Y-104244D01*
X-65090Y-104446D01*
X-63854D01*
Y-103210D01*
D02*
G37*
G36*
X-61618Y-105446D02*
X-62854D01*
Y-106682D01*
X-62652Y-106641D01*
X-62056Y-106244D01*
X-61659Y-105648D01*
X-61618Y-105446D01*
D02*
G37*
G36*
X-63854D02*
X-65090D01*
X-65050Y-105648D01*
X-64652Y-106244D01*
X-64056Y-106641D01*
X-63854Y-106682D01*
Y-105446D01*
D02*
G37*
G36*
X-45600Y-106364D02*
Y-107600D01*
X-44364D01*
X-44404Y-107398D01*
X-44802Y-106802D01*
X-45398Y-106404D01*
X-45600Y-106364D01*
D02*
G37*
G36*
X-46600D02*
X-46802Y-106404D01*
X-47398Y-106802D01*
X-47796Y-107398D01*
X-47836Y-107600D01*
X-46600D01*
Y-106364D01*
D02*
G37*
G36*
X-74500Y-100020D02*
X-75530Y-100155D01*
X-76490Y-100553D01*
X-77315Y-101185D01*
X-77947Y-102010D01*
X-78345Y-102970D01*
X-78480Y-104000D01*
X-78345Y-105030D01*
X-77947Y-105990D01*
X-77315Y-106815D01*
X-76490Y-107447D01*
X-75530Y-107845D01*
X-74500Y-107981D01*
X-73470Y-107845D01*
X-72510Y-107447D01*
X-71685Y-106815D01*
X-71053Y-105990D01*
X-70655Y-105030D01*
X-70520Y-104000D01*
X-70655Y-102970D01*
X-71053Y-102010D01*
X-71685Y-101185D01*
X-72510Y-100553D01*
X-73470Y-100155D01*
X-74500Y-100020D01*
D02*
G37*
G36*
X-44364Y-108600D02*
X-45600D01*
Y-109836D01*
X-45398Y-109796D01*
X-44802Y-109398D01*
X-44404Y-108802D01*
X-44364Y-108600D01*
D02*
G37*
G36*
X-46600D02*
X-47836D01*
X-47796Y-108802D01*
X-47398Y-109398D01*
X-46802Y-109796D01*
X-46600Y-109836D01*
Y-108600D01*
D02*
G37*
G36*
X-6200Y-110364D02*
Y-111600D01*
X-4964D01*
X-5004Y-111398D01*
X-5402Y-110802D01*
X-5998Y-110404D01*
X-6200Y-110364D01*
D02*
G37*
G36*
X9500Y-111164D02*
X9298Y-111204D01*
X8702Y-111602D01*
X8304Y-112198D01*
X8264Y-112400D01*
X9500D01*
Y-111164D01*
D02*
G37*
G36*
Y-113400D02*
X8264D01*
X8304Y-113602D01*
X8702Y-114198D01*
X9298Y-114596D01*
X9500Y-114636D01*
Y-113400D01*
D02*
G37*
G36*
X-74500Y-110020D02*
X-75530Y-110155D01*
X-76490Y-110553D01*
X-77315Y-111185D01*
X-77947Y-112010D01*
X-78345Y-112970D01*
X-78480Y-114000D01*
X-78345Y-115030D01*
X-77947Y-115990D01*
X-77315Y-116815D01*
X-76490Y-117447D01*
X-75530Y-117845D01*
X-74500Y-117981D01*
X-73470Y-117845D01*
X-72510Y-117447D01*
X-71685Y-116815D01*
X-71053Y-115990D01*
X-70655Y-115030D01*
X-70520Y-114000D01*
X-70655Y-112970D01*
X-71053Y-112010D01*
X-71685Y-111185D01*
X-72510Y-110553D01*
X-73470Y-110155D01*
X-74500Y-110020D01*
D02*
G37*
G36*
X94475Y-122622D02*
Y-123857D01*
X95711D01*
X95670Y-123655D01*
X95272Y-123060D01*
X94677Y-122662D01*
X94475Y-122622D01*
D02*
G37*
G36*
X93475D02*
X93273Y-122662D01*
X92677Y-123060D01*
X92279Y-123655D01*
X92239Y-123857D01*
X93475D01*
Y-122622D01*
D02*
G37*
G36*
X41325D02*
Y-123857D01*
X42561D01*
X42521Y-123655D01*
X42123Y-123060D01*
X41528Y-122662D01*
X41325Y-122622D01*
D02*
G37*
G36*
X40325D02*
X40123Y-122662D01*
X39527Y-123060D01*
X39130Y-123655D01*
X39089Y-123857D01*
X40325D01*
Y-122622D01*
D02*
G37*
G36*
X-16200Y-92245D02*
X-16746Y-92354D01*
X-17209Y-92663D01*
X-17519Y-93126D01*
X-17572Y-93395D01*
X-17746Y-93592D01*
X-17797Y-93644D01*
X-17824Y-93710D01*
X-43992Y-119878D01*
X-61000D01*
X-61000Y-119878D01*
X-61429Y-119964D01*
X-61793Y-120207D01*
X-61793Y-120207D01*
X-69693Y-128107D01*
X-69936Y-128471D01*
X-70022Y-128900D01*
X-70022Y-128900D01*
Y-151300D01*
X-70022Y-151300D01*
X-69936Y-151729D01*
X-69693Y-152093D01*
X-63186Y-158600D01*
X-63161Y-158664D01*
X-62814Y-159029D01*
X-62653Y-159218D01*
X-62535Y-159375D01*
X-62502Y-159426D01*
X-62480Y-159466D01*
X-62456Y-159516D01*
X-62342Y-159620D01*
X-62146Y-159913D01*
X-61590Y-160285D01*
X-60933Y-160416D01*
X-54831D01*
X-54174Y-160285D01*
X-53618Y-159913D01*
X-53246Y-159356D01*
X-53115Y-158700D01*
X-53246Y-158044D01*
X-53618Y-157487D01*
X-54174Y-157115D01*
X-54831Y-156984D01*
X-60933D01*
X-61203Y-157038D01*
X-61277Y-157025D01*
X-61315Y-157051D01*
X-61361Y-157050D01*
X-61389Y-157075D01*
X-61438Y-157085D01*
X-61705Y-156863D01*
X-61874Y-156701D01*
X-61939Y-156675D01*
X-67778Y-150835D01*
Y-149815D01*
X-67317Y-149624D01*
X-63514Y-153427D01*
X-63487Y-153493D01*
X-62643Y-154349D01*
X-62413Y-154595D01*
X-62385Y-154629D01*
X-62310Y-154668D01*
X-62146Y-154913D01*
X-61590Y-155285D01*
X-60933Y-155416D01*
X-54831D01*
X-54174Y-155285D01*
X-53618Y-154913D01*
X-53246Y-154357D01*
X-53115Y-153700D01*
X-53246Y-153043D01*
X-53618Y-152487D01*
X-54174Y-152115D01*
X-54831Y-151984D01*
X-60933D01*
X-61375Y-152072D01*
X-61440Y-152065D01*
X-61473Y-152092D01*
X-61476Y-152092D01*
X-61517Y-152093D01*
X-61526Y-152102D01*
X-61572Y-152111D01*
X-61794Y-151928D01*
X-61960Y-151769D01*
X-61995Y-151755D01*
X-62014Y-151722D01*
X-62057Y-151711D01*
X-66178Y-147590D01*
Y-146361D01*
X-65716Y-146170D01*
X-63499Y-148387D01*
X-63473Y-148452D01*
X-62787Y-149155D01*
X-62495Y-149478D01*
X-62453Y-149529D01*
X-62441Y-149546D01*
X-62435Y-149557D01*
X-62431Y-149560D01*
X-62420Y-149576D01*
X-62379Y-149601D01*
X-62328Y-149642D01*
X-62146Y-149913D01*
X-61590Y-150285D01*
X-60933Y-150416D01*
X-54831D01*
X-54174Y-150285D01*
X-53618Y-149913D01*
X-53246Y-149356D01*
X-53115Y-148700D01*
X-53246Y-148044D01*
X-53618Y-147487D01*
X-54174Y-147115D01*
X-54831Y-146984D01*
X-60933D01*
X-61300Y-147057D01*
X-61389Y-147046D01*
X-61424Y-147073D01*
X-61468Y-147073D01*
X-61491Y-147095D01*
X-61524Y-147102D01*
X-61765Y-146904D01*
X-61931Y-146744D01*
X-61961Y-146732D01*
X-61976Y-146704D01*
X-62023Y-146690D01*
X-64578Y-144135D01*
Y-142898D01*
X-64117Y-142707D01*
X-63178Y-143645D01*
X-63153Y-143709D01*
X-62796Y-144081D01*
X-62631Y-144269D01*
X-62515Y-144417D01*
X-62486Y-144460D01*
X-62470Y-144487D01*
X-62453Y-144522D01*
X-62340Y-144623D01*
X-62146Y-144913D01*
X-61590Y-145285D01*
X-60933Y-145416D01*
X-54831D01*
X-54174Y-145285D01*
X-53618Y-144913D01*
X-53246Y-144357D01*
X-53115Y-143700D01*
X-53246Y-143043D01*
X-53618Y-142487D01*
X-54174Y-142115D01*
X-54831Y-141984D01*
X-60933D01*
X-61238Y-142045D01*
X-61322Y-142032D01*
X-61358Y-142059D01*
X-61404Y-142058D01*
X-61431Y-142083D01*
X-61470Y-142091D01*
X-61728Y-141878D01*
X-61895Y-141717D01*
X-61960Y-141691D01*
X-62978Y-140673D01*
Y-139797D01*
X-62879Y-139716D01*
X-62212Y-139815D01*
X-62146Y-139913D01*
X-61590Y-140285D01*
X-60933Y-140416D01*
X-54831D01*
X-54407Y-140331D01*
X-53276D01*
X-49631Y-143976D01*
Y-166400D01*
Y-192000D01*
X-49507Y-192624D01*
X-49154Y-193154D01*
X-34253Y-208053D01*
X-33724Y-208407D01*
X-33100Y-208531D01*
X16600D01*
X17224Y-208407D01*
X17753Y-208053D01*
X20628Y-205178D01*
X20667Y-205165D01*
X20865Y-204984D01*
X21054Y-204840D01*
X21257Y-204714D01*
X21475Y-204603D01*
X21709Y-204509D01*
X21961Y-204432D01*
X22232Y-204371D01*
X22522Y-204327D01*
X22831Y-204302D01*
X23179Y-204296D01*
X23219Y-204278D01*
X24230Y-204145D01*
X25190Y-203747D01*
X26015Y-203115D01*
X26647Y-202290D01*
X27045Y-201330D01*
X27180Y-200300D01*
X27045Y-199270D01*
X26647Y-198310D01*
X26015Y-197485D01*
X25190Y-196853D01*
X24230Y-196455D01*
X23200Y-196319D01*
X22170Y-196455D01*
X21210Y-196853D01*
X20385Y-197485D01*
X19753Y-198310D01*
X19355Y-199270D01*
X19222Y-200281D01*
X19204Y-200321D01*
X19198Y-200669D01*
X19173Y-200978D01*
X19129Y-201268D01*
X19069Y-201538D01*
X18991Y-201791D01*
X18897Y-202025D01*
X18786Y-202243D01*
X18660Y-202446D01*
X18516Y-202635D01*
X18336Y-202833D01*
X18322Y-202871D01*
X15924Y-205269D01*
X-11372D01*
X-11716Y-204791D01*
X-11718Y-204769D01*
X-11552Y-204580D01*
X-11501Y-204529D01*
X-11474Y-204462D01*
X-10407Y-203395D01*
X-10407Y-203395D01*
X-10164Y-203031D01*
X-10078Y-202602D01*
X-10078Y-202602D01*
Y-186800D01*
X-10164Y-186371D01*
X-10407Y-186007D01*
X-10407Y-186007D01*
X-12476Y-183938D01*
X-12503Y-183871D01*
X-13672Y-182701D01*
X-13725Y-182679D01*
X-13854Y-182487D01*
X-14410Y-182115D01*
X-15067Y-181984D01*
X-21169D01*
X-21826Y-182115D01*
X-22382Y-182487D01*
X-22754Y-183044D01*
X-22885Y-183700D01*
X-22754Y-184356D01*
X-22382Y-184913D01*
X-21826Y-185285D01*
X-21169Y-185416D01*
X-15067D01*
X-14558Y-185314D01*
X-14517Y-185318D01*
X-14498Y-185302D01*
X-14410Y-185285D01*
X-14394Y-185274D01*
X-14185Y-185447D01*
X-14020Y-185605D01*
X-13982Y-185620D01*
X-13961Y-185656D01*
X-13920Y-185666D01*
X-12322Y-187265D01*
Y-188739D01*
X-12339Y-188746D01*
X-12829Y-188845D01*
X-12941Y-188731D01*
X-13135Y-188515D01*
X-13296Y-188312D01*
X-13353Y-188231D01*
X-13464Y-188050D01*
X-13500Y-187981D01*
X-13539Y-187894D01*
X-13654Y-187786D01*
X-13854Y-187487D01*
X-14410Y-187115D01*
X-15067Y-186984D01*
X-21169D01*
X-21826Y-187115D01*
X-22382Y-187487D01*
X-22754Y-188043D01*
X-22885Y-188700D01*
X-22754Y-189357D01*
X-22382Y-189913D01*
X-21826Y-190285D01*
X-21169Y-190416D01*
X-15067D01*
X-14893Y-190381D01*
X-14841Y-190393D01*
X-14801Y-190367D01*
X-14753Y-190371D01*
X-14726Y-190348D01*
X-14650Y-190333D01*
X-14643Y-190337D01*
X-14355Y-190577D01*
X-14183Y-190743D01*
X-14118Y-190768D01*
X-14009Y-190877D01*
X-14035Y-191368D01*
X-14506Y-191688D01*
X-15067Y-191577D01*
X-17618D01*
Y-193700D01*
X-18118D01*
Y-194200D01*
X-23193D01*
X-23131Y-194513D01*
X-22671Y-195202D01*
X-21982Y-195662D01*
X-21169Y-195824D01*
X-19255D01*
X-19240Y-195859D01*
Y-197297D01*
X-19398Y-197402D01*
X-19796Y-197998D01*
X-19836Y-198200D01*
X-16364D01*
X-16404Y-197998D01*
X-16802Y-197402D01*
X-16997Y-197273D01*
Y-195859D01*
X-16981Y-195824D01*
X-15067D01*
X-14506Y-195712D01*
X-14006Y-196051D01*
Y-199990D01*
X-14022Y-199996D01*
X-14187Y-200155D01*
X-14254Y-200212D01*
X-14263Y-200219D01*
X-14268Y-200222D01*
X-14270Y-200223D01*
X-14276Y-200227D01*
X-14546Y-200281D01*
X-15009Y-200591D01*
X-15319Y-201054D01*
X-15427Y-201600D01*
X-15319Y-202146D01*
X-15009Y-202609D01*
X-14546Y-202919D01*
X-14242Y-202979D01*
X-14108Y-203491D01*
X-14417Y-203954D01*
X-14526Y-204500D01*
X-14472Y-204769D01*
X-14824Y-205269D01*
X-32424D01*
X-46369Y-191324D01*
Y-166400D01*
Y-143300D01*
X-46493Y-142676D01*
X-46847Y-142147D01*
X-51446Y-137547D01*
X-51976Y-137193D01*
X-52600Y-137069D01*
X-54407D01*
X-54831Y-136984D01*
X-57512D01*
X-57514Y-136984D01*
X-57620Y-136978D01*
X-57696Y-136966D01*
X-57776Y-136946D01*
X-57862Y-136915D01*
X-57955Y-136873D01*
X-58003Y-136846D01*
X-58847Y-136106D01*
X-59098Y-135858D01*
X-59165Y-135831D01*
X-60178Y-134817D01*
Y-134482D01*
X-60151Y-134419D01*
X-60146Y-134189D01*
X-60139Y-134102D01*
X-60137Y-134091D01*
X-60136Y-134085D01*
X-60136Y-134083D01*
X-60135Y-134076D01*
X-59981Y-133846D01*
X-59873Y-133300D01*
X-59981Y-132754D01*
X-60291Y-132291D01*
X-60754Y-131981D01*
X-61300Y-131873D01*
X-61846Y-131981D01*
X-62309Y-132291D01*
X-62478Y-132544D01*
X-62978Y-132392D01*
Y-131353D01*
X-58547Y-126922D01*
X-39976D01*
X-39976Y-126922D01*
X-39547Y-126836D01*
X-39183Y-126593D01*
X-16972Y-104382D01*
X-16472Y-104589D01*
Y-124250D01*
X-16472Y-124250D01*
X-16423Y-124495D01*
X-16826Y-124786D01*
X-16994Y-124692D01*
X-17031Y-124504D01*
X-17341Y-124041D01*
X-17804Y-123731D01*
X-18350Y-123623D01*
X-18896Y-123731D01*
X-19359Y-124041D01*
X-19669Y-124504D01*
X-19777Y-125050D01*
X-19669Y-125596D01*
X-19359Y-126059D01*
X-18896Y-126369D01*
X-18628Y-126422D01*
X-18430Y-126596D01*
X-18379Y-126647D01*
X-18312Y-126674D01*
X-17930Y-127056D01*
X-18176Y-127517D01*
X-18400Y-127473D01*
X-18946Y-127581D01*
X-19409Y-127891D01*
X-19719Y-128354D01*
X-19827Y-128900D01*
X-19719Y-129446D01*
X-19409Y-129909D01*
X-18946Y-130219D01*
X-18678Y-130272D01*
X-18480Y-130446D01*
X-18429Y-130497D01*
X-18362Y-130524D01*
X-17625Y-131261D01*
X-17872Y-131722D01*
X-18118Y-131673D01*
X-18664Y-131781D01*
X-19128Y-132091D01*
X-19437Y-132554D01*
X-19545Y-133100D01*
X-19437Y-133646D01*
X-19285Y-133874D01*
X-19268Y-134137D01*
X-19267Y-134209D01*
X-19240Y-134275D01*
Y-136550D01*
X-19267Y-136612D01*
X-19272Y-136782D01*
X-19283Y-136907D01*
X-19298Y-137001D01*
X-19303Y-137017D01*
X-22852D01*
Y-140383D01*
X-14006D01*
Y-141520D01*
X-14118Y-141632D01*
X-14183Y-141657D01*
X-14361Y-141829D01*
X-14510Y-141960D01*
X-14634Y-142057D01*
X-14650Y-142067D01*
X-14726Y-142052D01*
X-14753Y-142029D01*
X-14801Y-142033D01*
X-14841Y-142007D01*
X-14893Y-142019D01*
X-15067Y-141984D01*
X-21169D01*
X-21826Y-142115D01*
X-22382Y-142487D01*
X-22754Y-143043D01*
X-22885Y-143700D01*
X-22754Y-144357D01*
X-22382Y-144913D01*
X-21826Y-145285D01*
X-21169Y-145416D01*
X-15067D01*
X-14410Y-145285D01*
X-13854Y-144913D01*
X-13660Y-144624D01*
X-13547Y-144523D01*
X-13456Y-144335D01*
X-13417Y-144267D01*
X-13288Y-144078D01*
X-13225Y-143994D01*
X-12938Y-143666D01*
X-12906Y-143633D01*
X-12537Y-143712D01*
X-12406Y-143782D01*
Y-145320D01*
X-13864Y-146778D01*
X-13894Y-146784D01*
X-13925Y-146831D01*
X-13977Y-146851D01*
X-14350Y-147150D01*
X-14359Y-147149D01*
X-14410Y-147115D01*
X-15067Y-146984D01*
X-21169D01*
X-21826Y-147115D01*
X-22382Y-147487D01*
X-22754Y-148044D01*
X-22885Y-148700D01*
X-22754Y-149356D01*
X-22382Y-149913D01*
X-21826Y-150285D01*
X-21169Y-150416D01*
X-15067D01*
X-14410Y-150285D01*
X-13854Y-149913D01*
X-13734Y-149734D01*
X-13693Y-149719D01*
X-13553Y-149591D01*
X-13407Y-149493D01*
X-12973Y-149059D01*
X-12512Y-148637D01*
X-12479Y-148565D01*
X-11268Y-147354D01*
X-10806Y-147545D01*
Y-184216D01*
X-10806Y-184216D01*
X-10720Y-184645D01*
X-10477Y-185009D01*
X5607Y-201093D01*
X5607Y-201093D01*
X5971Y-201336D01*
X6400Y-201422D01*
X7781D01*
X7832Y-201447D01*
X8016Y-201462D01*
X8178Y-201499D01*
X8369Y-201567D01*
X8587Y-201670D01*
X8830Y-201811D01*
X9095Y-201991D01*
X9375Y-202205D01*
X10012Y-202767D01*
X10354Y-203104D01*
X10393Y-203120D01*
X11210Y-203747D01*
X12170Y-204145D01*
X13200Y-204280D01*
X14230Y-204145D01*
X15190Y-203747D01*
X16015Y-203115D01*
X16647Y-202290D01*
X17045Y-201330D01*
X17180Y-200300D01*
X17045Y-199270D01*
X16647Y-198310D01*
X16015Y-197485D01*
X15190Y-196853D01*
X14230Y-196455D01*
X13200Y-196319D01*
X12170Y-196455D01*
X11210Y-196853D01*
X10393Y-197479D01*
X10354Y-197495D01*
X10012Y-197833D01*
X9375Y-198395D01*
X9095Y-198609D01*
X8830Y-198789D01*
X8587Y-198930D01*
X8369Y-199033D01*
X8178Y-199101D01*
X8016Y-199138D01*
X7832Y-199153D01*
X7781Y-199178D01*
X6865D01*
X-8563Y-183751D01*
Y-141409D01*
X-8101Y-141218D01*
X-3159Y-146159D01*
X-2700Y-146349D01*
X18300D01*
X18759Y-146159D01*
X18830Y-145989D01*
X25559Y-139259D01*
X25749Y-138800D01*
Y-133250D01*
X26249Y-133098D01*
X26391Y-133309D01*
X26854Y-133619D01*
X27400Y-133727D01*
X27946Y-133619D01*
X28278Y-133397D01*
X28713Y-133563D01*
X28778Y-133618D01*
Y-138218D01*
X28751Y-138281D01*
X28746Y-138511D01*
X28739Y-138598D01*
X28737Y-138609D01*
X28736Y-138615D01*
X28736Y-138617D01*
X28735Y-138624D01*
X28581Y-138854D01*
X28473Y-139400D01*
X28581Y-139946D01*
X28733Y-140174D01*
X28750Y-140437D01*
X28751Y-140509D01*
X28778Y-140575D01*
Y-151418D01*
X28751Y-151481D01*
X28746Y-151710D01*
X28739Y-151797D01*
X28737Y-151809D01*
X28736Y-151815D01*
X28736Y-151817D01*
X28735Y-151824D01*
X28581Y-152054D01*
X28473Y-152600D01*
X28581Y-153146D01*
X28891Y-153609D01*
X29354Y-153919D01*
X29900Y-154027D01*
X30446Y-153919D01*
X30678Y-153764D01*
X31178Y-154031D01*
Y-183100D01*
X31178Y-183100D01*
X31264Y-183529D01*
X31507Y-183893D01*
X33571Y-185958D01*
X33596Y-186022D01*
X33755Y-186187D01*
X33812Y-186254D01*
X33819Y-186263D01*
X33822Y-186268D01*
X33823Y-186270D01*
X33827Y-186275D01*
X33881Y-186546D01*
X34191Y-187009D01*
X34654Y-187319D01*
X35200Y-187427D01*
X35746Y-187319D01*
X36209Y-187009D01*
X36519Y-186546D01*
X36627Y-186000D01*
X36519Y-185454D01*
X36209Y-184991D01*
X35746Y-184681D01*
X35478Y-184628D01*
X35280Y-184454D01*
X35229Y-184403D01*
X35162Y-184376D01*
X33422Y-182635D01*
Y-169398D01*
X33922Y-169130D01*
X34054Y-169219D01*
X34600Y-169327D01*
X35146Y-169219D01*
X35609Y-168909D01*
X35919Y-168446D01*
X36027Y-167900D01*
X35919Y-167354D01*
X35767Y-167126D01*
X35750Y-166863D01*
X35749Y-166791D01*
X35722Y-166725D01*
Y-105240D01*
X35722Y-105240D01*
X35636Y-104811D01*
X35393Y-104447D01*
X35393Y-104447D01*
X32211Y-101265D01*
X32388Y-100736D01*
X32855Y-100643D01*
X33450Y-100245D01*
X33848Y-99650D01*
X33889Y-99447D01*
X32153D01*
Y-98947D01*
X31653D01*
Y-97211D01*
X31450Y-97252D01*
X30855Y-97650D01*
X30457Y-98245D01*
X30364Y-98712D01*
X29835Y-98889D01*
X27204Y-96259D01*
X27180Y-96194D01*
X27021Y-96029D01*
X27001Y-96006D01*
X27002Y-95726D01*
X27008Y-95687D01*
X27057Y-95459D01*
X27598Y-95098D01*
X27996Y-94502D01*
X28036Y-94300D01*
X24564D01*
X24604Y-94502D01*
X24722Y-94678D01*
X24624Y-95168D01*
X24566Y-95207D01*
X24534Y-95255D01*
X24101Y-95507D01*
X23900Y-95372D01*
X23638Y-95197D01*
X23092Y-95089D01*
X22546Y-95197D01*
X22083Y-95507D01*
X21773Y-95970D01*
X21665Y-96516D01*
X21773Y-97062D01*
X21948Y-97324D01*
X22083Y-97526D01*
X21831Y-97958D01*
X21783Y-97991D01*
X21750Y-98039D01*
X21317Y-98291D01*
X21116Y-98156D01*
X20854Y-97981D01*
X20308Y-97873D01*
X19762Y-97981D01*
X19299Y-98291D01*
X18989Y-98754D01*
X18881Y-99300D01*
X18989Y-99846D01*
X19299Y-100309D01*
X19762Y-100619D01*
X20030Y-100672D01*
X20228Y-100846D01*
X20279Y-100897D01*
X20346Y-100924D01*
X26278Y-106857D01*
Y-130749D01*
X26249Y-130781D01*
X25749Y-130584D01*
Y-120400D01*
X25559Y-119941D01*
X25389Y-119870D01*
X23759Y-118241D01*
X23300Y-118051D01*
X21069D01*
X16259Y-113241D01*
X15800Y-113051D01*
X15559Y-113151D01*
X12400D01*
X12286Y-113198D01*
X11883Y-112931D01*
X11825Y-112848D01*
X11696Y-112198D01*
X11298Y-111602D01*
X10702Y-111204D01*
X10500Y-111164D01*
Y-112900D01*
Y-114636D01*
X10589Y-114618D01*
X10781Y-114652D01*
X11136Y-114907D01*
X11151Y-114941D01*
Y-117651D01*
X332D01*
X15Y-117264D01*
X27Y-117200D01*
X-81Y-116654D01*
X206Y-116184D01*
X354Y-116119D01*
X900Y-116227D01*
X1446Y-116119D01*
X1909Y-115809D01*
X2219Y-115346D01*
X2327Y-114800D01*
X2219Y-114254D01*
X1909Y-113791D01*
X1446Y-113481D01*
X900Y-113373D01*
X354Y-113481D01*
X126Y-113633D01*
X-137Y-113650D01*
X-209Y-113651D01*
X-275Y-113678D01*
X-4991D01*
X-5256Y-113178D01*
X-5004Y-112802D01*
X-4964Y-112600D01*
X-6700D01*
Y-112100D01*
X-7200D01*
Y-110364D01*
X-7402Y-110404D01*
X-7998Y-110802D01*
X-8396Y-111398D01*
X-8523Y-112040D01*
X-8705Y-112131D01*
X-9024Y-112190D01*
X-9091Y-112091D01*
X-9554Y-111781D01*
X-10100Y-111673D01*
X-10646Y-111781D01*
X-11109Y-112091D01*
X-11419Y-112554D01*
X-11527Y-113100D01*
X-11419Y-113646D01*
X-11109Y-114109D01*
X-10646Y-114419D01*
X-10378Y-114472D01*
X-10180Y-114646D01*
X-10129Y-114697D01*
X-10062Y-114724D01*
X-9208Y-115578D01*
X-9210Y-115641D01*
X-9367Y-116078D01*
X-10135D01*
X-11169Y-115045D01*
X-11195Y-114979D01*
X-11357Y-114813D01*
X-11446Y-114713D01*
X-11451Y-114705D01*
X-11481Y-114554D01*
X-11791Y-114091D01*
X-12254Y-113781D01*
X-12800Y-113673D01*
X-13346Y-113781D01*
X-13728Y-114037D01*
X-14033Y-113945D01*
X-14229Y-113818D01*
Y-104423D01*
X-10675Y-100869D01*
X-10610Y-100844D01*
X-10445Y-100685D01*
X-10379Y-100628D01*
X-10369Y-100621D01*
X-10363Y-100618D01*
X-10362Y-100617D01*
X-10356Y-100613D01*
X-10086Y-100559D01*
X-9623Y-100249D01*
X-9313Y-99786D01*
X-9205Y-99240D01*
X-9313Y-98694D01*
X-9623Y-98231D01*
X-9669Y-98199D01*
X-9928Y-97771D01*
X-9790Y-97564D01*
X-9619Y-97308D01*
X-9510Y-96762D01*
X-9619Y-96216D01*
X-9928Y-95753D01*
X-10391Y-95443D01*
X-10938Y-95334D01*
X-11484Y-95443D01*
X-11947Y-95753D01*
X-12375Y-95494D01*
X-12407Y-95447D01*
X-12453Y-95416D01*
X-12712Y-94987D01*
X-12573Y-94780D01*
X-12403Y-94524D01*
X-12294Y-93978D01*
X-12403Y-93432D01*
X-12712Y-92969D01*
X-13175Y-92659D01*
X-13722Y-92550D01*
X-14268Y-92659D01*
X-14731Y-92969D01*
X-15159Y-92710D01*
X-15191Y-92663D01*
X-15654Y-92354D01*
X-16200Y-92245D01*
D02*
G37*
G36*
X95711Y-124857D02*
X94475D01*
Y-126093D01*
X94677Y-126053D01*
X95272Y-125655D01*
X95670Y-125060D01*
X95711Y-124857D01*
D02*
G37*
G36*
X93475D02*
X92239D01*
X92279Y-125060D01*
X92677Y-125655D01*
X93273Y-126053D01*
X93475Y-126093D01*
Y-124857D01*
D02*
G37*
G36*
X42561D02*
X41325D01*
Y-126093D01*
X41528Y-126053D01*
X42123Y-125655D01*
X42521Y-125060D01*
X42561Y-124857D01*
D02*
G37*
G36*
X40325D02*
X39089D01*
X39130Y-125060D01*
X39527Y-125655D01*
X40123Y-126053D01*
X40325Y-126093D01*
Y-124857D01*
D02*
G37*
G36*
X-74500Y-120019D02*
X-75530Y-120155D01*
X-76490Y-120553D01*
X-77315Y-121185D01*
X-77947Y-122010D01*
X-78345Y-122970D01*
X-78480Y-124000D01*
X-78345Y-125030D01*
X-77947Y-125990D01*
X-77315Y-126815D01*
X-76490Y-127447D01*
X-75530Y-127845D01*
X-74500Y-127980D01*
X-73470Y-127845D01*
X-72510Y-127447D01*
X-71685Y-126815D01*
X-71053Y-125990D01*
X-70655Y-125030D01*
X-70520Y-124000D01*
X-70655Y-122970D01*
X-71053Y-122010D01*
X-71685Y-121185D01*
X-72510Y-120553D01*
X-73470Y-120155D01*
X-74500Y-120019D01*
D02*
G37*
G36*
Y-130019D02*
X-75530Y-130155D01*
X-76490Y-130553D01*
X-77315Y-131185D01*
X-77947Y-132010D01*
X-78345Y-132970D01*
X-78480Y-134000D01*
X-78345Y-135030D01*
X-77947Y-135990D01*
X-77315Y-136815D01*
X-76490Y-137447D01*
X-75530Y-137845D01*
X-74500Y-137980D01*
X-73470Y-137845D01*
X-72510Y-137447D01*
X-71685Y-136815D01*
X-71053Y-135990D01*
X-70655Y-135030D01*
X-70520Y-134000D01*
X-70655Y-132970D01*
X-71053Y-132010D01*
X-71685Y-131185D01*
X-72510Y-130553D01*
X-73470Y-130155D01*
X-74500Y-130019D01*
D02*
G37*
G36*
X95045Y-138192D02*
X93970D01*
X93092Y-138307D01*
X92274Y-138646D01*
X91572Y-139185D01*
X91033Y-139888D01*
X90808Y-140430D01*
X90651Y-140434D01*
X90588Y-140462D01*
X84752D01*
X84690Y-140435D01*
X84533Y-140431D01*
X84308Y-139888D01*
X83770Y-139186D01*
X83067Y-138647D01*
X82249Y-138308D01*
X81372Y-138193D01*
X79706D01*
Y-141584D01*
Y-144975D01*
X81372D01*
X82249Y-144860D01*
X83067Y-144521D01*
X83770Y-143982D01*
X84308Y-143279D01*
X84533Y-142736D01*
X84690Y-142733D01*
X84754Y-142705D01*
X90589D01*
X90651Y-142733D01*
X90808Y-142736D01*
X91033Y-143279D01*
X91572Y-143981D01*
X92274Y-144520D01*
X93092Y-144859D01*
X93970Y-144974D01*
X95045D01*
Y-141583D01*
Y-138192D01*
D02*
G37*
G36*
X97120D02*
X96045D01*
Y-141083D01*
X100445D01*
X100395Y-140706D01*
X100056Y-139888D01*
X99518Y-139185D01*
X98815Y-138646D01*
X97997Y-138307D01*
X97120Y-138192D01*
D02*
G37*
G36*
X100445Y-142083D02*
X96045D01*
Y-144974D01*
X97120D01*
X97997Y-144859D01*
X98815Y-144520D01*
X99518Y-143981D01*
X100056Y-143279D01*
X100395Y-142461D01*
X100445Y-142083D01*
D02*
G37*
G36*
X78706Y-138193D02*
X77041D01*
X76163Y-138308D01*
X75345Y-138647D01*
X74643Y-139186D01*
X74104Y-139888D01*
X73879Y-140431D01*
X73722Y-140435D01*
X73660Y-140462D01*
X58758D01*
X58329Y-140547D01*
X57965Y-140790D01*
X57722Y-141154D01*
X57636Y-141583D01*
X57722Y-142013D01*
X57965Y-142376D01*
X58329Y-142620D01*
X58758Y-142705D01*
X73658D01*
X73722Y-142733D01*
X73879Y-142736D01*
X74104Y-143279D01*
X74643Y-143982D01*
X75345Y-144521D01*
X76163Y-144860D01*
X77041Y-144975D01*
X78706D01*
Y-141584D01*
Y-138193D01*
D02*
G37*
G36*
X-27600Y-144964D02*
Y-146200D01*
X-26364D01*
X-26405Y-145998D01*
X-26802Y-145402D01*
X-27398Y-145004D01*
X-27600Y-144964D01*
D02*
G37*
G36*
X-28600D02*
X-28802Y-145004D01*
X-29398Y-145402D01*
X-29796Y-145998D01*
X-29836Y-146200D01*
X-28600D01*
Y-144964D01*
D02*
G37*
G36*
X-74500Y-140020D02*
X-75530Y-140155D01*
X-76490Y-140553D01*
X-77315Y-141185D01*
X-77947Y-142010D01*
X-78345Y-142970D01*
X-78480Y-144000D01*
X-78345Y-145030D01*
X-77947Y-145990D01*
X-77315Y-146815D01*
X-76490Y-147447D01*
X-75530Y-147845D01*
X-74500Y-147980D01*
X-73470Y-147845D01*
X-72510Y-147447D01*
X-71685Y-146815D01*
X-71053Y-145990D01*
X-70655Y-145030D01*
X-70520Y-144000D01*
X-70655Y-142970D01*
X-71053Y-142010D01*
X-71685Y-141185D01*
X-72510Y-140553D01*
X-73470Y-140155D01*
X-74500Y-140020D01*
D02*
G37*
G36*
X-26364Y-147200D02*
X-27600D01*
Y-148436D01*
X-27398Y-148396D01*
X-26802Y-147998D01*
X-26405Y-147402D01*
X-26364Y-147200D01*
D02*
G37*
G36*
X-28600D02*
X-29836D01*
X-29796Y-147402D01*
X-29398Y-147998D01*
X-28802Y-148396D01*
X-28600Y-148436D01*
Y-147200D01*
D02*
G37*
G36*
X81175Y-145804D02*
X80365Y-145966D01*
X79678Y-146424D01*
X79219Y-147111D01*
X79058Y-147922D01*
X79219Y-148732D01*
X79678Y-149418D01*
X80365Y-149877D01*
X81175Y-150039D01*
X81985Y-149877D01*
X82672Y-149418D01*
X83131Y-148732D01*
X83292Y-147922D01*
X83131Y-147111D01*
X82672Y-146424D01*
X81985Y-145966D01*
X81175Y-145804D01*
D02*
G37*
G36*
X52000Y-150243D02*
Y-151479D01*
X53236D01*
X53196Y-151277D01*
X52798Y-150681D01*
X52202Y-150284D01*
X52000Y-150243D01*
D02*
G37*
G36*
X51000D02*
X50798Y-150284D01*
X50202Y-150681D01*
X49804Y-151277D01*
X49764Y-151479D01*
X51000D01*
Y-150243D01*
D02*
G37*
G36*
X-15067Y-151984D02*
X-21169D01*
X-21826Y-152115D01*
X-21965Y-152208D01*
X-22086Y-152236D01*
X-22183Y-152305D01*
X-22264Y-152354D01*
X-22350Y-152398D01*
X-22441Y-152437D01*
X-22537Y-152470D01*
X-22640Y-152498D01*
X-22749Y-152521D01*
X-22866Y-152537D01*
X-22990Y-152547D01*
X-23138Y-152551D01*
X-23200Y-152578D01*
X-23618D01*
X-23681Y-152551D01*
X-23911Y-152546D01*
X-23998Y-152539D01*
X-24009Y-152537D01*
X-24015Y-152536D01*
X-24017Y-152536D01*
X-24024Y-152535D01*
X-24254Y-152381D01*
X-24800Y-152273D01*
X-25346Y-152381D01*
X-25809Y-152691D01*
X-26119Y-153154D01*
X-26227Y-153700D01*
X-26119Y-154246D01*
X-25809Y-154709D01*
X-25346Y-155019D01*
X-24800Y-155127D01*
X-24254Y-155019D01*
X-24026Y-154867D01*
X-23764Y-154850D01*
X-23691Y-154849D01*
X-23625Y-154822D01*
X-23200D01*
X-23138Y-154849D01*
X-22990Y-154853D01*
X-22866Y-154863D01*
X-22749Y-154879D01*
X-22640Y-154902D01*
X-22537Y-154930D01*
X-22441Y-154963D01*
X-22350Y-155002D01*
X-22264Y-155046D01*
X-22183Y-155095D01*
X-22086Y-155164D01*
X-21965Y-155192D01*
X-21826Y-155285D01*
X-21169Y-155416D01*
X-15067D01*
X-14410Y-155285D01*
X-13854Y-154913D01*
X-13482Y-154357D01*
X-13351Y-153700D01*
X-13482Y-153043D01*
X-13854Y-152487D01*
X-14410Y-152115D01*
X-15067Y-151984D01*
D02*
G37*
G36*
X53236Y-152479D02*
X52000D01*
Y-153715D01*
X52202Y-153675D01*
X52798Y-153277D01*
X53196Y-152682D01*
X53236Y-152479D01*
D02*
G37*
G36*
X51000D02*
X49764D01*
X49804Y-152682D01*
X50202Y-153277D01*
X50798Y-153675D01*
X51000Y-153715D01*
Y-152479D01*
D02*
G37*
G36*
X-15067Y-156984D02*
X-21169D01*
X-21826Y-157115D01*
X-21965Y-157208D01*
X-22086Y-157236D01*
X-22183Y-157305D01*
X-22264Y-157354D01*
X-22350Y-157398D01*
X-22441Y-157437D01*
X-22537Y-157470D01*
X-22640Y-157498D01*
X-22749Y-157520D01*
X-22866Y-157537D01*
X-22990Y-157547D01*
X-23138Y-157551D01*
X-23200Y-157578D01*
X-23500D01*
X-23500Y-157578D01*
X-23929Y-157664D01*
X-24293Y-157907D01*
X-24293Y-157907D01*
X-25058Y-158671D01*
X-25122Y-158696D01*
X-25287Y-158855D01*
X-25354Y-158912D01*
X-25363Y-158919D01*
X-25368Y-158922D01*
X-25370Y-158923D01*
X-25376Y-158927D01*
X-25646Y-158981D01*
X-26109Y-159291D01*
X-26419Y-159754D01*
X-26527Y-160300D01*
X-26419Y-160846D01*
X-26109Y-161309D01*
X-25646Y-161619D01*
X-25100Y-161727D01*
X-24554Y-161619D01*
X-24091Y-161309D01*
X-23781Y-160846D01*
X-23728Y-160578D01*
X-23554Y-160380D01*
X-23503Y-160329D01*
X-23476Y-160262D01*
X-23065Y-159851D01*
X-22990Y-159853D01*
X-22866Y-159863D01*
X-22749Y-159880D01*
X-22640Y-159902D01*
X-22537Y-159930D01*
X-22441Y-159963D01*
X-22350Y-160002D01*
X-22264Y-160046D01*
X-22183Y-160095D01*
X-22086Y-160164D01*
X-21965Y-160192D01*
X-21826Y-160285D01*
X-21169Y-160416D01*
X-15067D01*
X-14410Y-160285D01*
X-13854Y-159913D01*
X-13482Y-159356D01*
X-13351Y-158700D01*
X-13482Y-158044D01*
X-13854Y-157487D01*
X-14410Y-157115D01*
X-15067Y-156984D01*
D02*
G37*
G36*
X-74500Y-150020D02*
X-75530Y-150155D01*
X-76490Y-150553D01*
X-77315Y-151185D01*
X-77947Y-152010D01*
X-78345Y-152970D01*
X-78480Y-154000D01*
X-78345Y-155030D01*
X-77947Y-155990D01*
X-77315Y-156815D01*
X-76490Y-157447D01*
X-75530Y-157845D01*
X-74500Y-157981D01*
X-73470Y-157845D01*
X-72510Y-157447D01*
X-71685Y-156815D01*
X-71053Y-155990D01*
X-70655Y-155030D01*
X-70520Y-154000D01*
X-70655Y-152970D01*
X-71053Y-152010D01*
X-71685Y-151185D01*
X-72510Y-150553D01*
X-73470Y-150155D01*
X-74500Y-150020D01*
D02*
G37*
G36*
X-15067Y-161984D02*
X-21169D01*
X-21826Y-162115D01*
X-21965Y-162208D01*
X-22086Y-162236D01*
X-22183Y-162305D01*
X-22264Y-162354D01*
X-22350Y-162398D01*
X-22441Y-162437D01*
X-22537Y-162470D01*
X-22640Y-162498D01*
X-22749Y-162521D01*
X-22866Y-162537D01*
X-22990Y-162547D01*
X-23138Y-162551D01*
X-23200Y-162578D01*
X-23918D01*
X-23981Y-162551D01*
X-24211Y-162546D01*
X-24297Y-162539D01*
X-24309Y-162537D01*
X-24315Y-162536D01*
X-24317Y-162536D01*
X-24324Y-162535D01*
X-24554Y-162381D01*
X-25100Y-162273D01*
X-25646Y-162381D01*
X-26109Y-162691D01*
X-26419Y-163154D01*
X-26527Y-163700D01*
X-26419Y-164246D01*
X-26109Y-164709D01*
X-25646Y-165019D01*
X-25100Y-165127D01*
X-24554Y-165019D01*
X-24326Y-164867D01*
X-24063Y-164850D01*
X-23991Y-164849D01*
X-23925Y-164822D01*
X-23200D01*
X-23138Y-164849D01*
X-22990Y-164853D01*
X-22866Y-164863D01*
X-22749Y-164880D01*
X-22640Y-164902D01*
X-22537Y-164930D01*
X-22441Y-164963D01*
X-22350Y-165002D01*
X-22264Y-165046D01*
X-22183Y-165095D01*
X-22086Y-165164D01*
X-21965Y-165192D01*
X-21826Y-165285D01*
X-21169Y-165416D01*
X-15067D01*
X-14410Y-165285D01*
X-13854Y-164913D01*
X-13482Y-164357D01*
X-13351Y-163700D01*
X-13482Y-163043D01*
X-13854Y-162487D01*
X-14410Y-162115D01*
X-15067Y-161984D01*
D02*
G37*
G36*
X-54831Y-161576D02*
X-57382D01*
Y-163200D01*
X-52807D01*
X-52869Y-162887D01*
X-53329Y-162198D01*
X-54018Y-161738D01*
X-54831Y-161576D01*
D02*
G37*
G36*
X-58382D02*
X-60933D01*
X-61746Y-161738D01*
X-62435Y-162198D01*
X-62895Y-162887D01*
X-62957Y-163200D01*
X-58382D01*
Y-161576D01*
D02*
G37*
G36*
X67600Y-161873D02*
X67054Y-161981D01*
X66591Y-162291D01*
X66281Y-162754D01*
X66228Y-163022D01*
X66054Y-163220D01*
X66003Y-163271D01*
X65976Y-163338D01*
X63491Y-165823D01*
X54937D01*
X54874Y-165796D01*
X54645Y-165790D01*
X54558Y-165784D01*
X54546Y-165782D01*
X54540Y-165780D01*
X54538Y-165781D01*
X54531Y-165779D01*
X54301Y-165626D01*
X53755Y-165517D01*
X53209Y-165626D01*
X52746Y-165935D01*
X52436Y-166399D01*
X52328Y-166945D01*
X52436Y-167491D01*
X52746Y-167954D01*
X53209Y-168264D01*
X53755Y-168372D01*
X54301Y-168264D01*
X54529Y-168112D01*
X54792Y-168095D01*
X54864Y-168094D01*
X54930Y-168066D01*
X63955D01*
X63955Y-168066D01*
X64384Y-167981D01*
X64748Y-167738D01*
X67557Y-164929D01*
X67622Y-164904D01*
X67787Y-164745D01*
X67854Y-164688D01*
X67863Y-164681D01*
X67869Y-164678D01*
X67870Y-164676D01*
X67875Y-164673D01*
X68146Y-164619D01*
X68609Y-164309D01*
X68919Y-163846D01*
X69027Y-163300D01*
X68919Y-162754D01*
X68609Y-162291D01*
X68146Y-161981D01*
X67600Y-161873D01*
D02*
G37*
G36*
X12500Y-164664D02*
Y-165900D01*
X13736D01*
X13696Y-165698D01*
X13298Y-165102D01*
X12702Y-164704D01*
X12500Y-164664D01*
D02*
G37*
G36*
X11500D02*
X11298Y-164704D01*
X10702Y-165102D01*
X10304Y-165698D01*
X10264Y-165900D01*
X11500D01*
Y-164664D01*
D02*
G37*
G36*
X3900D02*
Y-165900D01*
X5136D01*
X5096Y-165698D01*
X4698Y-165102D01*
X4102Y-164704D01*
X3900Y-164664D01*
D02*
G37*
G36*
X2900D02*
X2698Y-164704D01*
X2102Y-165102D01*
X1704Y-165698D01*
X1664Y-165900D01*
X2900D01*
Y-164664D01*
D02*
G37*
G36*
X-5000D02*
Y-165900D01*
X-3764D01*
X-3804Y-165698D01*
X-4202Y-165102D01*
X-4798Y-164704D01*
X-5000Y-164664D01*
D02*
G37*
G36*
X-6000D02*
X-6202Y-164704D01*
X-6798Y-165102D01*
X-7196Y-165698D01*
X-7236Y-165900D01*
X-6000D01*
Y-164664D01*
D02*
G37*
G36*
X-15067Y-166984D02*
X-21169D01*
X-21826Y-167115D01*
X-21965Y-167208D01*
X-22086Y-167236D01*
X-22183Y-167305D01*
X-22264Y-167354D01*
X-22350Y-167398D01*
X-22441Y-167437D01*
X-22537Y-167470D01*
X-22640Y-167498D01*
X-22749Y-167520D01*
X-22866Y-167537D01*
X-22990Y-167547D01*
X-23138Y-167551D01*
X-23200Y-167578D01*
X-23718D01*
X-23781Y-167551D01*
X-24011Y-167546D01*
X-24098Y-167539D01*
X-24109Y-167537D01*
X-24115Y-167536D01*
X-24117Y-167536D01*
X-24124Y-167535D01*
X-24354Y-167381D01*
X-24900Y-167273D01*
X-25446Y-167381D01*
X-25909Y-167691D01*
X-26219Y-168154D01*
X-26327Y-168700D01*
X-26219Y-169246D01*
X-25909Y-169709D01*
X-25446Y-170019D01*
X-25115Y-170085D01*
X-25200Y-170573D01*
X-25746Y-170681D01*
X-26209Y-170991D01*
X-26519Y-171454D01*
X-26627Y-172000D01*
X-26519Y-172546D01*
X-26209Y-173009D01*
X-25746Y-173319D01*
X-25478Y-173372D01*
X-25280Y-173546D01*
X-25229Y-173597D01*
X-25162Y-173624D01*
X-24293Y-174493D01*
X-24293Y-174493D01*
X-23929Y-174736D01*
X-23500Y-174822D01*
X-23200D01*
X-23138Y-174849D01*
X-22990Y-174853D01*
X-22866Y-174863D01*
X-22749Y-174880D01*
X-22640Y-174902D01*
X-22537Y-174930D01*
X-22441Y-174963D01*
X-22350Y-175002D01*
X-22264Y-175046D01*
X-22183Y-175095D01*
X-22086Y-175164D01*
X-21965Y-175192D01*
X-21826Y-175285D01*
X-21169Y-175416D01*
X-15067D01*
X-14410Y-175285D01*
X-13854Y-174913D01*
X-13482Y-174356D01*
X-13351Y-173700D01*
X-13482Y-173044D01*
X-13854Y-172487D01*
X-14410Y-172115D01*
X-15067Y-171984D01*
X-21169D01*
X-21826Y-172115D01*
X-21965Y-172208D01*
X-22086Y-172236D01*
X-22183Y-172305D01*
X-22264Y-172354D01*
X-22350Y-172398D01*
X-22441Y-172437D01*
X-22537Y-172470D01*
X-22640Y-172498D01*
X-22749Y-172520D01*
X-22866Y-172537D01*
X-22990Y-172547D01*
X-23065Y-172549D01*
X-23571Y-172043D01*
X-23596Y-171978D01*
X-23755Y-171813D01*
X-23812Y-171746D01*
X-23819Y-171737D01*
X-23822Y-171731D01*
X-23823Y-171730D01*
X-23827Y-171724D01*
X-23881Y-171454D01*
X-24191Y-170991D01*
X-24654Y-170681D01*
X-24985Y-170615D01*
X-24900Y-170127D01*
X-24354Y-170019D01*
X-24126Y-169867D01*
X-23864Y-169850D01*
X-23791Y-169849D01*
X-23725Y-169822D01*
X-23200D01*
X-23138Y-169849D01*
X-22990Y-169853D01*
X-22866Y-169863D01*
X-22749Y-169879D01*
X-22640Y-169902D01*
X-22537Y-169930D01*
X-22441Y-169963D01*
X-22350Y-170002D01*
X-22264Y-170046D01*
X-22183Y-170095D01*
X-22086Y-170164D01*
X-21965Y-170192D01*
X-21826Y-170285D01*
X-21169Y-170416D01*
X-15067D01*
X-14410Y-170285D01*
X-13854Y-169913D01*
X-13482Y-169357D01*
X-13351Y-168700D01*
X-13482Y-168043D01*
X-13854Y-167487D01*
X-14410Y-167115D01*
X-15067Y-166984D01*
D02*
G37*
G36*
X-74500Y-160020D02*
X-75530Y-160155D01*
X-76490Y-160553D01*
X-77315Y-161185D01*
X-77947Y-162010D01*
X-78345Y-162970D01*
X-78480Y-164000D01*
X-78345Y-165030D01*
X-77947Y-165990D01*
X-77315Y-166815D01*
X-76490Y-167447D01*
X-75530Y-167845D01*
X-74500Y-167981D01*
X-73470Y-167845D01*
X-72510Y-167447D01*
X-71685Y-166815D01*
X-71053Y-165990D01*
X-70655Y-165030D01*
X-70520Y-164000D01*
X-70655Y-162970D01*
X-71053Y-162010D01*
X-71685Y-161185D01*
X-72510Y-160553D01*
X-73470Y-160155D01*
X-74500Y-160020D01*
D02*
G37*
G36*
X13736Y-166900D02*
X12500D01*
Y-168136D01*
X12702Y-168096D01*
X13298Y-167698D01*
X13696Y-167102D01*
X13736Y-166900D01*
D02*
G37*
G36*
X11500D02*
X10264D01*
X10304Y-167102D01*
X10702Y-167698D01*
X11298Y-168096D01*
X11500Y-168136D01*
Y-166900D01*
D02*
G37*
G36*
X5136D02*
X3900D01*
Y-168136D01*
X4102Y-168096D01*
X4698Y-167698D01*
X5096Y-167102D01*
X5136Y-166900D01*
D02*
G37*
G36*
X2900D02*
X1664D01*
X1704Y-167102D01*
X2102Y-167698D01*
X2698Y-168096D01*
X2900Y-168136D01*
Y-166900D01*
D02*
G37*
G36*
X-3764D02*
X-5000D01*
Y-168136D01*
X-4798Y-168096D01*
X-4202Y-167698D01*
X-3804Y-167102D01*
X-3764Y-166900D01*
D02*
G37*
G36*
X-6000D02*
X-7236D01*
X-7196Y-167102D01*
X-6798Y-167698D01*
X-6202Y-168096D01*
X-6000Y-168136D01*
Y-166900D01*
D02*
G37*
G36*
X-52807Y-164200D02*
X-57882D01*
X-62957D01*
X-62895Y-164513D01*
X-62435Y-165201D01*
X-61746Y-165662D01*
X-60933Y-165823D01*
X-59019D01*
X-59003Y-165859D01*
Y-166541D01*
X-59019Y-166577D01*
X-60933D01*
X-61746Y-166738D01*
X-62435Y-167199D01*
X-62895Y-167887D01*
X-62957Y-168200D01*
X-57882D01*
X-52807D01*
X-52869Y-167887D01*
X-53329Y-167199D01*
X-54018Y-166738D01*
X-54831Y-166577D01*
X-56744D01*
X-56760Y-166541D01*
Y-165859D01*
X-56744Y-165823D01*
X-54831D01*
X-54018Y-165662D01*
X-53329Y-165201D01*
X-52869Y-164513D01*
X-52807Y-164200D01*
D02*
G37*
G36*
Y-169200D02*
X-57382D01*
Y-170824D01*
X-54831D01*
X-54018Y-170662D01*
X-53329Y-170202D01*
X-52869Y-169513D01*
X-52807Y-169200D01*
D02*
G37*
G36*
X-58382D02*
X-62957D01*
X-62895Y-169513D01*
X-62435Y-170202D01*
X-61746Y-170662D01*
X-60933Y-170824D01*
X-58382D01*
Y-169200D01*
D02*
G37*
G36*
X81175Y-168560D02*
X80365Y-168722D01*
X79678Y-169181D01*
X79219Y-169867D01*
X79058Y-170677D01*
X79219Y-171488D01*
X79678Y-172175D01*
X80365Y-172633D01*
X81175Y-172795D01*
X81985Y-172633D01*
X82672Y-172175D01*
X83131Y-171488D01*
X83292Y-170677D01*
X83131Y-169867D01*
X82672Y-169181D01*
X81985Y-168722D01*
X81175Y-168560D01*
D02*
G37*
G36*
X-54831Y-171984D02*
X-60933D01*
X-61590Y-172115D01*
X-62146Y-172487D01*
X-62518Y-173044D01*
X-62649Y-173700D01*
X-62518Y-174356D01*
X-62146Y-174913D01*
X-61590Y-175285D01*
X-60933Y-175416D01*
X-54831D01*
X-54174Y-175285D01*
X-53618Y-174913D01*
X-53246Y-174356D01*
X-53115Y-173700D01*
X-53246Y-173044D01*
X-53618Y-172487D01*
X-54174Y-172115D01*
X-54831Y-171984D01*
D02*
G37*
G36*
X95045Y-173625D02*
X93970D01*
X93092Y-173741D01*
X92274Y-174080D01*
X91572Y-174618D01*
X91033Y-175321D01*
X90808Y-175864D01*
X90652Y-175867D01*
X90588Y-175895D01*
X84752D01*
X84690Y-175868D01*
X84534Y-175864D01*
X84309Y-175321D01*
X83770Y-174619D01*
X83067Y-174080D01*
X82249Y-173741D01*
X81372Y-173626D01*
X79706D01*
Y-177017D01*
Y-180408D01*
X81372D01*
X82249Y-180293D01*
X83067Y-179954D01*
X83770Y-179415D01*
X84309Y-178713D01*
X84534Y-178170D01*
X84690Y-178166D01*
X84754Y-178138D01*
X90589D01*
X90652Y-178166D01*
X90808Y-178169D01*
X91033Y-178712D01*
X91572Y-179414D01*
X92274Y-179953D01*
X93092Y-180292D01*
X93970Y-180408D01*
X95045D01*
Y-177016D01*
Y-173625D01*
D02*
G37*
G36*
X97120D02*
X96045D01*
Y-176516D01*
X100445D01*
X100395Y-176139D01*
X100057Y-175321D01*
X99518Y-174618D01*
X98815Y-174080D01*
X97997Y-173741D01*
X97120Y-173625D01*
D02*
G37*
G36*
X78706Y-173626D02*
X77041D01*
X76163Y-173741D01*
X75345Y-174080D01*
X74643Y-174619D01*
X74104Y-175321D01*
X73765Y-176139D01*
X73716Y-176517D01*
X78706D01*
Y-173626D01*
D02*
G37*
G36*
X-15067Y-176984D02*
X-21169D01*
X-21826Y-177115D01*
X-21965Y-177208D01*
X-22086Y-177236D01*
X-22183Y-177305D01*
X-22264Y-177354D01*
X-22350Y-177398D01*
X-22441Y-177437D01*
X-22537Y-177470D01*
X-22640Y-177498D01*
X-22749Y-177521D01*
X-22866Y-177537D01*
X-22990Y-177547D01*
X-23138Y-177551D01*
X-23200Y-177578D01*
X-23918D01*
X-23981Y-177551D01*
X-24211Y-177546D01*
X-24297Y-177539D01*
X-24309Y-177537D01*
X-24315Y-177536D01*
X-24317Y-177536D01*
X-24324Y-177535D01*
X-24554Y-177381D01*
X-25100Y-177273D01*
X-25646Y-177381D01*
X-26109Y-177691D01*
X-26419Y-178154D01*
X-26527Y-178700D01*
X-26419Y-179246D01*
X-26109Y-179709D01*
X-25646Y-180019D01*
X-25100Y-180127D01*
X-24554Y-180019D01*
X-24326Y-179867D01*
X-24063Y-179850D01*
X-23991Y-179849D01*
X-23925Y-179822D01*
X-23200D01*
X-23138Y-179849D01*
X-22990Y-179853D01*
X-22866Y-179863D01*
X-22749Y-179879D01*
X-22640Y-179902D01*
X-22537Y-179930D01*
X-22441Y-179963D01*
X-22350Y-180002D01*
X-22264Y-180046D01*
X-22183Y-180095D01*
X-22086Y-180164D01*
X-21965Y-180192D01*
X-21826Y-180285D01*
X-21169Y-180416D01*
X-15067D01*
X-14410Y-180285D01*
X-13854Y-179913D01*
X-13482Y-179357D01*
X-13351Y-178700D01*
X-13482Y-178043D01*
X-13854Y-177487D01*
X-14410Y-177115D01*
X-15067Y-176984D01*
D02*
G37*
G36*
X-74500Y-170019D02*
X-75530Y-170155D01*
X-76490Y-170553D01*
X-77315Y-171185D01*
X-77947Y-172010D01*
X-78345Y-172970D01*
X-78480Y-174000D01*
X-78345Y-175030D01*
X-77947Y-175990D01*
X-77315Y-176815D01*
X-76490Y-177447D01*
X-75530Y-177845D01*
X-74500Y-177980D01*
X-73470Y-177845D01*
X-72510Y-177447D01*
X-71685Y-176815D01*
X-71053Y-175990D01*
X-70655Y-175030D01*
X-70520Y-174000D01*
X-70655Y-172970D01*
X-71053Y-172010D01*
X-71685Y-171185D01*
X-72510Y-170553D01*
X-73470Y-170155D01*
X-74500Y-170019D01*
D02*
G37*
G36*
X100445Y-177516D02*
X96045D01*
Y-180408D01*
X97120D01*
X97997Y-180292D01*
X98815Y-179953D01*
X99518Y-179414D01*
X100057Y-178712D01*
X100395Y-177894D01*
X100445Y-177516D01*
D02*
G37*
G36*
X78706Y-177517D02*
X73716D01*
X73765Y-177895D01*
X74104Y-178713D01*
X74643Y-179415D01*
X75345Y-179954D01*
X76163Y-180293D01*
X77041Y-180408D01*
X78706D01*
Y-177517D01*
D02*
G37*
G36*
X-54831Y-176984D02*
X-60933D01*
X-61590Y-177115D01*
X-62146Y-177487D01*
X-62518Y-178043D01*
X-62649Y-178700D01*
X-62518Y-179357D01*
X-62146Y-179913D01*
X-61590Y-180285D01*
X-60933Y-180416D01*
X-54831D01*
X-54174Y-180285D01*
X-53618Y-179913D01*
X-53246Y-179357D01*
X-53115Y-178700D01*
X-53246Y-178043D01*
X-53618Y-177487D01*
X-54174Y-177115D01*
X-54831Y-176984D01*
D02*
G37*
G36*
X-4879Y-179684D02*
Y-180920D01*
X-3643D01*
X-3683Y-180718D01*
X-4081Y-180122D01*
X-4676Y-179725D01*
X-4879Y-179684D01*
D02*
G37*
G36*
X-5879D02*
X-6081Y-179725D01*
X-6676Y-180122D01*
X-7074Y-180718D01*
X-7114Y-180920D01*
X-5879D01*
Y-179684D01*
D02*
G37*
G36*
X-3643Y-181920D02*
X-4879D01*
Y-183156D01*
X-4676Y-183116D01*
X-4081Y-182718D01*
X-3683Y-182123D01*
X-3643Y-181920D01*
D02*
G37*
G36*
X-5879D02*
X-7114D01*
X-7074Y-182123D01*
X-6676Y-182718D01*
X-6081Y-183116D01*
X-5879Y-183156D01*
Y-181920D01*
D02*
G37*
G36*
X-54831Y-181984D02*
X-60933D01*
X-61590Y-182115D01*
X-62146Y-182487D01*
X-62518Y-183044D01*
X-62649Y-183700D01*
X-62518Y-184356D01*
X-62146Y-184913D01*
X-61590Y-185285D01*
X-60933Y-185416D01*
X-54831D01*
X-54174Y-185285D01*
X-53618Y-184913D01*
X-53246Y-184356D01*
X-53115Y-183700D01*
X-53246Y-183044D01*
X-53618Y-182487D01*
X-54174Y-182115D01*
X-54831Y-181984D01*
D02*
G37*
G36*
X-74500Y-180019D02*
X-75530Y-180155D01*
X-76490Y-180553D01*
X-77315Y-181185D01*
X-77947Y-182010D01*
X-78345Y-182970D01*
X-78480Y-184000D01*
X-78345Y-185030D01*
X-77947Y-185990D01*
X-77315Y-186815D01*
X-76490Y-187447D01*
X-75530Y-187845D01*
X-74500Y-187980D01*
X-73470Y-187845D01*
X-72510Y-187447D01*
X-71685Y-186815D01*
X-71053Y-185990D01*
X-70655Y-185030D01*
X-70520Y-184000D01*
X-70655Y-182970D01*
X-71053Y-182010D01*
X-71685Y-181185D01*
X-72510Y-180553D01*
X-73470Y-180155D01*
X-74500Y-180019D01*
D02*
G37*
G36*
X-54831Y-186984D02*
X-60933D01*
X-61590Y-187115D01*
X-62146Y-187487D01*
X-62518Y-188043D01*
X-62649Y-188700D01*
X-62518Y-189357D01*
X-62146Y-189913D01*
X-61590Y-190285D01*
X-60933Y-190416D01*
X-54831D01*
X-54174Y-190285D01*
X-53618Y-189913D01*
X-53246Y-189357D01*
X-53115Y-188700D01*
X-53246Y-188043D01*
X-53618Y-187487D01*
X-54174Y-187115D01*
X-54831Y-186984D01*
D02*
G37*
G36*
X-18618Y-191577D02*
X-21169D01*
X-21982Y-191738D01*
X-22671Y-192199D01*
X-23131Y-192887D01*
X-23193Y-193200D01*
X-18618D01*
Y-191577D01*
D02*
G37*
G36*
X-74500Y-190020D02*
X-75530Y-190155D01*
X-76490Y-190553D01*
X-77315Y-191185D01*
X-77947Y-192010D01*
X-78345Y-192970D01*
X-78480Y-194000D01*
X-78345Y-195030D01*
X-77947Y-195990D01*
X-77315Y-196815D01*
X-76490Y-197447D01*
X-75530Y-197845D01*
X-74500Y-197980D01*
X-73470Y-197845D01*
X-72510Y-197447D01*
X-71685Y-196815D01*
X-71053Y-195990D01*
X-70655Y-195030D01*
X-70520Y-194000D01*
X-70655Y-192970D01*
X-71053Y-192010D01*
X-71685Y-191185D01*
X-72510Y-190553D01*
X-73470Y-190155D01*
X-74500Y-190020D01*
D02*
G37*
G36*
X3677Y-186396D02*
X3130Y-186505D01*
X2667Y-186814D01*
X2358Y-187277D01*
X2249Y-187823D01*
X2358Y-188370D01*
X2667Y-188833D01*
X3130Y-189142D01*
X3399Y-189196D01*
X3596Y-189370D01*
X3648Y-189420D01*
X3714Y-189447D01*
X8060Y-193793D01*
X8060Y-193793D01*
X8424Y-194036D01*
X8853Y-194122D01*
X68536D01*
X71472Y-197057D01*
X71497Y-197121D01*
X71655Y-197287D01*
X71712Y-197353D01*
X71719Y-197363D01*
X71722Y-197368D01*
X71724Y-197369D01*
X71728Y-197375D01*
X71782Y-197646D01*
X72091Y-198109D01*
X72554Y-198418D01*
X73100Y-198527D01*
X73647Y-198418D01*
X74110Y-198109D01*
X74419Y-197646D01*
X74528Y-197100D01*
X74419Y-196553D01*
X74110Y-196090D01*
X73647Y-195781D01*
X73378Y-195728D01*
X73180Y-195554D01*
X73129Y-195503D01*
X73063Y-195476D01*
X69794Y-192207D01*
X69430Y-191964D01*
X69001Y-191878D01*
X69001Y-191878D01*
X9318D01*
X5305Y-187866D01*
X5280Y-187802D01*
X5122Y-187636D01*
X5065Y-187570D01*
X5058Y-187560D01*
X5055Y-187555D01*
X5053Y-187554D01*
X5049Y-187548D01*
X4995Y-187277D01*
X4686Y-186814D01*
X4223Y-186505D01*
X3677Y-186396D01*
D02*
G37*
G36*
X57547Y-195954D02*
X53700D01*
Y-199800D01*
X57547D01*
Y-195954D01*
D02*
G37*
G36*
X52700D02*
X48854D01*
Y-199800D01*
X52700D01*
Y-195954D01*
D02*
G37*
G36*
X-16364Y-199200D02*
X-17600D01*
Y-200436D01*
X-17398Y-200396D01*
X-16802Y-199998D01*
X-16404Y-199402D01*
X-16364Y-199200D01*
D02*
G37*
G36*
X-18600D02*
X-19836D01*
X-19796Y-199402D01*
X-19398Y-199998D01*
X-18802Y-200396D01*
X-18600Y-200436D01*
Y-199200D01*
D02*
G37*
G36*
X-54831Y-191984D02*
X-60933D01*
X-61590Y-192115D01*
X-62146Y-192487D01*
X-62518Y-193043D01*
X-62649Y-193700D01*
X-62518Y-194357D01*
X-62146Y-194913D01*
X-61692Y-195217D01*
X-61535Y-195767D01*
X-62793Y-197025D01*
X-63036Y-197389D01*
X-63122Y-197818D01*
X-63122Y-197818D01*
Y-199418D01*
X-63149Y-199481D01*
X-63154Y-199711D01*
X-63161Y-199797D01*
X-63163Y-199809D01*
X-63164Y-199815D01*
X-63164Y-199817D01*
X-63165Y-199824D01*
X-63319Y-200054D01*
X-63427Y-200600D01*
X-63319Y-201146D01*
X-63009Y-201609D01*
X-62546Y-201919D01*
X-62000Y-202027D01*
X-61454Y-201919D01*
X-60991Y-201609D01*
X-60681Y-201146D01*
X-60573Y-200600D01*
X-60681Y-200054D01*
X-60833Y-199826D01*
X-60850Y-199563D01*
X-60851Y-199491D01*
X-60878Y-199425D01*
Y-198283D01*
X-58578Y-195982D01*
X-58514Y-195958D01*
X-58383Y-195833D01*
X-58268Y-195734D01*
X-58158Y-195651D01*
X-58053Y-195582D01*
X-57955Y-195527D01*
X-57862Y-195485D01*
X-57776Y-195454D01*
X-57696Y-195434D01*
X-57620Y-195422D01*
X-57514Y-195416D01*
X-57512Y-195416D01*
X-54831D01*
X-54174Y-195285D01*
X-53618Y-194913D01*
X-53246Y-194357D01*
X-53115Y-193700D01*
X-53246Y-193043D01*
X-53618Y-192487D01*
X-54174Y-192115D01*
X-54831Y-191984D01*
D02*
G37*
G36*
X57547Y-200800D02*
X53700D01*
Y-204646D01*
X57547D01*
Y-200800D01*
D02*
G37*
G36*
X52700D02*
X48854D01*
Y-204646D01*
X52700D01*
Y-200800D01*
D02*
G37*
G36*
X43200Y-196319D02*
X42170Y-196455D01*
X41210Y-196853D01*
X40385Y-197485D01*
X39753Y-198310D01*
X39355Y-199270D01*
X39219Y-200300D01*
X39355Y-201330D01*
X39753Y-202290D01*
X40385Y-203115D01*
X41210Y-203747D01*
X41521Y-203876D01*
X41618Y-204366D01*
X40231Y-205754D01*
X40224Y-205755D01*
X40203Y-205781D01*
X40163Y-205822D01*
X40101Y-205845D01*
X39704Y-206216D01*
X39556Y-206335D01*
X39443Y-206415D01*
X39252D01*
X39220Y-206396D01*
X39164Y-206411D01*
X39111Y-206390D01*
X39055Y-206415D01*
X38184D01*
Y-209584D01*
X40959D01*
Y-208761D01*
X40978Y-208729D01*
X40959Y-208655D01*
Y-208357D01*
X40999Y-208287D01*
X41077Y-208175D01*
X41346Y-207857D01*
X41521Y-207675D01*
X41547Y-207610D01*
X43993Y-205164D01*
X43993Y-205164D01*
X44236Y-204800D01*
X44293Y-204513D01*
X44349Y-204387D01*
X44352Y-204263D01*
X44359Y-204174D01*
X44370Y-204106D01*
X44374Y-204085D01*
X45190Y-203747D01*
X46015Y-203115D01*
X46647Y-202290D01*
X47045Y-201330D01*
X47181Y-200300D01*
X47045Y-199270D01*
X46647Y-198310D01*
X46015Y-197485D01*
X45190Y-196853D01*
X44230Y-196455D01*
X43200Y-196319D01*
D02*
G37*
G36*
X-70553Y-200054D02*
X-78447D01*
Y-207946D01*
X-70553D01*
Y-200054D01*
D02*
G37*
G36*
X33200Y-196319D02*
X32170Y-196455D01*
X31210Y-196853D01*
X30385Y-197485D01*
X29753Y-198310D01*
X29355Y-199270D01*
X29219Y-200300D01*
X29355Y-201330D01*
X29753Y-202290D01*
X30385Y-203115D01*
X31210Y-203747D01*
X31287Y-203779D01*
X31324Y-203828D01*
X31497Y-203928D01*
X31622Y-204018D01*
X31726Y-204111D01*
X31812Y-204207D01*
X31883Y-204308D01*
X31941Y-204416D01*
X31986Y-204534D01*
X32021Y-204665D01*
X32042Y-204811D01*
X32051Y-205005D01*
X32109Y-205127D01*
X32164Y-205404D01*
X32407Y-205768D01*
X34243Y-207604D01*
X34266Y-207666D01*
X34604Y-208031D01*
X34714Y-208168D01*
X34797Y-208287D01*
X34837Y-208357D01*
Y-208655D01*
X34818Y-208729D01*
X34837Y-208761D01*
Y-209584D01*
X37612D01*
Y-206415D01*
X36742D01*
X36685Y-206390D01*
X36632Y-206411D01*
X36577Y-206396D01*
X36544Y-206415D01*
X36354D01*
X36248Y-206340D01*
X35905Y-206048D01*
X35704Y-205854D01*
X35639Y-205828D01*
X35593Y-205781D01*
X35572Y-205755D01*
X35565Y-205754D01*
X34399Y-204588D01*
X34413Y-204534D01*
X34459Y-204416D01*
X34517Y-204308D01*
X34588Y-204207D01*
X34674Y-204111D01*
X34778Y-204018D01*
X34903Y-203928D01*
X35076Y-203828D01*
X35113Y-203779D01*
X35190Y-203747D01*
X36015Y-203115D01*
X36647Y-202290D01*
X37045Y-201330D01*
X37181Y-200300D01*
X37045Y-199270D01*
X36647Y-198310D01*
X36015Y-197485D01*
X35190Y-196853D01*
X34230Y-196455D01*
X33200Y-196319D01*
D02*
G37*
%LPD*%
G36*
X81229Y-64460D02*
X81213Y-64449D01*
X81188Y-64438D01*
X81156Y-64429D01*
X81115Y-64422D01*
X81066Y-64415D01*
X80943Y-64405D01*
X80695Y-64400D01*
Y-63400D01*
X80786Y-63399D01*
X81115Y-63378D01*
X81156Y-63371D01*
X81188Y-63362D01*
X81213Y-63351D01*
X81229Y-63340D01*
Y-64460D01*
D02*
G37*
G36*
X77182Y-63177D02*
X77212Y-63224D01*
X77262Y-63265D01*
X77332Y-63301D01*
X77422Y-63331D01*
X77532Y-63356D01*
X77662Y-63375D01*
X77812Y-63389D01*
X78172Y-63400D01*
Y-64400D01*
X77982Y-64403D01*
X77662Y-64425D01*
X77532Y-64444D01*
X77422Y-64469D01*
X77332Y-64499D01*
X77262Y-64535D01*
X77212Y-64576D01*
X77182Y-64623D01*
X77172Y-64675D01*
Y-63125D01*
X77182Y-63177D01*
D02*
G37*
G36*
X75228Y-64675D02*
X75218Y-64623D01*
X75188Y-64576D01*
X75138Y-64535D01*
X75068Y-64499D01*
X74978Y-64469D01*
X74868Y-64444D01*
X74738Y-64425D01*
X74588Y-64411D01*
X74228Y-64400D01*
Y-63400D01*
X74418Y-63397D01*
X74738Y-63375D01*
X74868Y-63356D01*
X74978Y-63331D01*
X75068Y-63301D01*
X75138Y-63265D01*
X75188Y-63224D01*
X75218Y-63177D01*
X75228Y-63125D01*
Y-64675D01*
D02*
G37*
G36*
X70036Y-62995D02*
X70066Y-63080D01*
X70117Y-63155D01*
X70188Y-63220D01*
X70279Y-63275D01*
X70390Y-63320D01*
X70522Y-63355D01*
X70674Y-63380D01*
X70846Y-63395D01*
X71038Y-63400D01*
Y-64400D01*
X70846Y-64405D01*
X70674Y-64420D01*
X70522Y-64445D01*
X70390Y-64480D01*
X70279Y-64525D01*
X70188Y-64580D01*
X70117Y-64645D01*
X70066Y-64720D01*
X70036Y-64805D01*
X70026Y-64900D01*
Y-62900D01*
X70036Y-62995D01*
D02*
G37*
G36*
X52012Y-69784D02*
X52734Y-70394D01*
X53056Y-70617D01*
X53352Y-70787D01*
X53622Y-70903D01*
X53865Y-70964D01*
X54083Y-70971D01*
X54275Y-70925D01*
X54440Y-70824D01*
X51374Y-73390D01*
X51497Y-73247D01*
X51561Y-73073D01*
X51566Y-72868D01*
X51512Y-72631D01*
X51399Y-72364D01*
X51227Y-72066D01*
X50996Y-71736D01*
X50705Y-71376D01*
X49948Y-70562D01*
X51612Y-69398D01*
X52012Y-69784D01*
D02*
G37*
G36*
X54430Y-75798D02*
X54345Y-75828D01*
X54270Y-75878D01*
X54205Y-75948D01*
X54150Y-76038D01*
X54105Y-76148D01*
X54070Y-76278D01*
X54045Y-76428D01*
X54030Y-76598D01*
X54025Y-76788D01*
X53025D01*
X53020Y-76598D01*
X53005Y-76428D01*
X52980Y-76278D01*
X52945Y-76148D01*
X52900Y-76038D01*
X52845Y-75948D01*
X52780Y-75878D01*
X52705Y-75828D01*
X52620Y-75798D01*
X52525Y-75788D01*
X54525D01*
X54430Y-75798D01*
D02*
G37*
G36*
X54028Y-78617D02*
X54050Y-78937D01*
X54069Y-79067D01*
X54094Y-79177D01*
X54124Y-79267D01*
X54160Y-79337D01*
X54201Y-79387D01*
X54248Y-79417D01*
X54300Y-79427D01*
X52750D01*
X52802Y-79417D01*
X52849Y-79387D01*
X52890Y-79337D01*
X52926Y-79267D01*
X52956Y-79177D01*
X52981Y-79067D01*
X53000Y-78937D01*
X53014Y-78787D01*
X53025Y-78427D01*
X54025D01*
X54028Y-78617D01*
D02*
G37*
G36*
X51712Y-61284D02*
X52434Y-61893D01*
X52756Y-62117D01*
X53052Y-62287D01*
X53321Y-62402D01*
X53565Y-62464D01*
X53783Y-62471D01*
X53975Y-62425D01*
X54140Y-62324D01*
X51074Y-64890D01*
X51198Y-64748D01*
X51263Y-64574D01*
X51270Y-64371D01*
X51219Y-64138D01*
X51109Y-63874D01*
X50941Y-63580D01*
X50715Y-63256D01*
X50431Y-62901D01*
X49688Y-62102D01*
X51312Y-60898D01*
X51712Y-61284D01*
D02*
G37*
G36*
X-43913Y-69751D02*
X-43889Y-69762D01*
X-43856Y-69771D01*
X-43815Y-69778D01*
X-43766Y-69785D01*
X-43643Y-69795D01*
X-43396Y-69800D01*
Y-70800D01*
X-43486Y-70801D01*
X-43815Y-70822D01*
X-43856Y-70829D01*
X-43889Y-70838D01*
X-43913Y-70849D01*
X-43929Y-70860D01*
Y-69740D01*
X-43913Y-69751D01*
D02*
G37*
G36*
X24091Y-51605D02*
X24086Y-51720D01*
X24096Y-51837D01*
X24123Y-51955D01*
X24165Y-52075D01*
X24223Y-52197D01*
X24297Y-52320D01*
X24386Y-52445D01*
X24492Y-52571D01*
X24613Y-52700D01*
X23906Y-53407D01*
X23778Y-53286D01*
X23651Y-53180D01*
X23526Y-53091D01*
X23403Y-53017D01*
X23281Y-52959D01*
X23161Y-52917D01*
X23043Y-52890D01*
X22926Y-52880D01*
X22811Y-52885D01*
X22698Y-52906D01*
X24112Y-51492D01*
X24091Y-51605D01*
D02*
G37*
G36*
X34005Y-51817D02*
X33983Y-51917D01*
X33964Y-52040D01*
X33932Y-52357D01*
X33905Y-53011D01*
X33900Y-53565D01*
X32900Y-53842D01*
X32895Y-53664D01*
X32882Y-53505D01*
X32858Y-53367D01*
X32826Y-53248D01*
X32785Y-53149D01*
X32734Y-53070D01*
X32674Y-53012D01*
X32605Y-52973D01*
X32527Y-52954D01*
X32439Y-52955D01*
X34030Y-51742D01*
X34005Y-51817D01*
D02*
G37*
G36*
X29935Y-79573D02*
X29871Y-79637D01*
X29653Y-79885D01*
X29630Y-79919D01*
X29613Y-79948D01*
X29603Y-79973D01*
X29600Y-79992D01*
X28808Y-79200D01*
X28827Y-79197D01*
X28852Y-79187D01*
X28881Y-79170D01*
X28915Y-79147D01*
X28955Y-79117D01*
X29049Y-79036D01*
X29227Y-78865D01*
X29935Y-79573D01*
D02*
G37*
G36*
X31035Y-82073D02*
X30971Y-82137D01*
X30753Y-82385D01*
X30730Y-82419D01*
X30713Y-82448D01*
X30703Y-82473D01*
X30700Y-82492D01*
X29908Y-81700D01*
X29927Y-81697D01*
X29952Y-81687D01*
X29981Y-81670D01*
X30015Y-81647D01*
X30055Y-81617D01*
X30149Y-81536D01*
X30327Y-81365D01*
X31035Y-82073D01*
D02*
G37*
G36*
X-30008Y-100700D02*
X-30027Y-100703D01*
X-30052Y-100713D01*
X-30081Y-100730D01*
X-30115Y-100753D01*
X-30155Y-100783D01*
X-30249Y-100864D01*
X-30427Y-101035D01*
X-31135Y-100327D01*
X-31071Y-100263D01*
X-30853Y-100015D01*
X-30830Y-99981D01*
X-30813Y-99952D01*
X-30803Y-99927D01*
X-30800Y-99908D01*
X-30008Y-100700D01*
D02*
G37*
G36*
X-45258Y-103612D02*
X-45234Y-103622D01*
X-45202Y-103631D01*
X-45161Y-103639D01*
X-45112Y-103646D01*
X-44988Y-103655D01*
X-44741Y-103661D01*
Y-104661D01*
X-44832Y-104661D01*
X-45161Y-104682D01*
X-45202Y-104690D01*
X-45234Y-104699D01*
X-45258Y-104709D01*
X-45274Y-104721D01*
Y-103601D01*
X-45258Y-103612D01*
D02*
G37*
G36*
X-16208Y-94472D02*
X-16227Y-94476D01*
X-16251Y-94485D01*
X-16281Y-94502D01*
X-16315Y-94525D01*
X-16355Y-94555D01*
X-16449Y-94636D01*
X-16627Y-94807D01*
X-17334Y-94100D01*
X-17271Y-94035D01*
X-17053Y-93788D01*
X-17030Y-93753D01*
X-17013Y-93724D01*
X-17003Y-93700D01*
X-17000Y-93680D01*
X-16208Y-94472D01*
D02*
G37*
G36*
X-13730Y-94778D02*
X-13749Y-94781D01*
X-13773Y-94791D01*
X-13803Y-94808D01*
X-13837Y-94831D01*
X-13876Y-94861D01*
X-13970Y-94942D01*
X-14149Y-95113D01*
X-14856Y-94405D01*
X-14792Y-94341D01*
X-14575Y-94093D01*
X-14551Y-94059D01*
X-14535Y-94030D01*
X-14525Y-94005D01*
X-14522Y-93986D01*
X-13730Y-94778D01*
D02*
G37*
G36*
X26379Y-96243D02*
X26389Y-96268D01*
X26406Y-96297D01*
X26429Y-96332D01*
X26459Y-96371D01*
X26539Y-96465D01*
X26710Y-96644D01*
X26003Y-97351D01*
X25939Y-97287D01*
X25691Y-97069D01*
X25657Y-97046D01*
X25627Y-97029D01*
X25603Y-97019D01*
X25584Y-97016D01*
X26376Y-96224D01*
X26379Y-96243D01*
D02*
G37*
G36*
X-13424Y-97256D02*
X-13443Y-97259D01*
X-13468Y-97269D01*
X-13497Y-97286D01*
X-13531Y-97309D01*
X-13571Y-97339D01*
X-13665Y-97420D01*
X-13843Y-97591D01*
X-14550Y-96884D01*
X-14487Y-96819D01*
X-14269Y-96572D01*
X-14246Y-96537D01*
X-14229Y-96508D01*
X-14219Y-96483D01*
X-14216Y-96464D01*
X-13424Y-97256D01*
D02*
G37*
G36*
X23895Y-96543D02*
X23905Y-96568D01*
X23922Y-96597D01*
X23945Y-96632D01*
X23975Y-96671D01*
X24056Y-96765D01*
X24227Y-96944D01*
X23519Y-97651D01*
X23455Y-97587D01*
X23207Y-97369D01*
X23173Y-97346D01*
X23144Y-97329D01*
X23119Y-97319D01*
X23100Y-97316D01*
X23892Y-96524D01*
X23895Y-96543D01*
D02*
G37*
G36*
X-10946Y-97562D02*
X-10965Y-97565D01*
X-10989Y-97575D01*
X-11019Y-97592D01*
X-11053Y-97615D01*
X-11093Y-97645D01*
X-11186Y-97725D01*
X-11365Y-97896D01*
X-12072Y-97189D01*
X-12009Y-97125D01*
X-11791Y-96877D01*
X-11767Y-96843D01*
X-11751Y-96813D01*
X-11741Y-96789D01*
X-11738Y-96770D01*
X-10946Y-97562D01*
D02*
G37*
G36*
X23595Y-99027D02*
X23605Y-99052D01*
X23622Y-99081D01*
X23645Y-99115D01*
X23675Y-99155D01*
X23755Y-99249D01*
X23926Y-99427D01*
X23219Y-100135D01*
X23155Y-100071D01*
X22907Y-99853D01*
X22873Y-99830D01*
X22844Y-99813D01*
X22819Y-99803D01*
X22800Y-99800D01*
X23592Y-99008D01*
X23595Y-99027D01*
D02*
G37*
G36*
X-10640Y-100040D02*
X-10659Y-100043D01*
X-10684Y-100053D01*
X-10713Y-100070D01*
X-10747Y-100093D01*
X-10787Y-100123D01*
X-10881Y-100204D01*
X-11060Y-100375D01*
X-11767Y-99668D01*
X-11703Y-99603D01*
X-11485Y-99356D01*
X-11462Y-99321D01*
X-11445Y-99292D01*
X-11435Y-99267D01*
X-11432Y-99248D01*
X-10640Y-100040D01*
D02*
G37*
G36*
X21111Y-99327D02*
X21121Y-99352D01*
X21138Y-99381D01*
X21161Y-99415D01*
X21191Y-99455D01*
X21272Y-99549D01*
X21443Y-99727D01*
X20735Y-100435D01*
X20671Y-100371D01*
X20424Y-100153D01*
X20389Y-100130D01*
X20360Y-100113D01*
X20335Y-100103D01*
X20316Y-100100D01*
X21108Y-99308D01*
X21111Y-99327D01*
D02*
G37*
G36*
X-9297Y-113127D02*
X-9287Y-113152D01*
X-9270Y-113181D01*
X-9247Y-113215D01*
X-9217Y-113255D01*
X-9136Y-113349D01*
X-8965Y-113527D01*
X-9673Y-114234D01*
X-9737Y-114171D01*
X-9985Y-113953D01*
X-10019Y-113930D01*
X-10048Y-113913D01*
X-10073Y-113903D01*
X-10092Y-113900D01*
X-9300Y-113108D01*
X-9297Y-113127D01*
D02*
G37*
G36*
X329Y-115360D02*
X313Y-115349D01*
X289Y-115338D01*
X256Y-115329D01*
X215Y-115322D01*
X166Y-115315D01*
X43Y-115305D01*
X-204Y-115300D01*
Y-114300D01*
X-114Y-114299D01*
X215Y-114278D01*
X256Y-114271D01*
X289Y-114262D01*
X313Y-114251D01*
X329Y-114240D01*
Y-115360D01*
D02*
G37*
G36*
X-11998Y-115052D02*
X-11987Y-115071D01*
X-11970Y-115097D01*
X-11946Y-115128D01*
X-11833Y-115255D01*
X-11661Y-115432D01*
X-12287Y-116220D01*
X-12351Y-116157D01*
X-12562Y-115972D01*
X-12604Y-115943D01*
X-12640Y-115921D01*
X-12672Y-115906D01*
X-12699Y-115898D01*
X-12721Y-115896D01*
X-12003Y-115037D01*
X-11998Y-115052D01*
D02*
G37*
G36*
X-1971Y-117760D02*
X-1987Y-117749D01*
X-2011Y-117738D01*
X-2044Y-117729D01*
X-2085Y-117722D01*
X-2134Y-117715D01*
X-2257Y-117705D01*
X-2505Y-117700D01*
Y-116700D01*
X-2414Y-116699D01*
X-2085Y-116678D01*
X-2044Y-116671D01*
X-2011Y-116662D01*
X-1987Y-116651D01*
X-1971Y-116640D01*
Y-117760D01*
D02*
G37*
G36*
X20800Y-118700D02*
X23300D01*
X25000Y-120400D01*
X25100D01*
Y-138800D01*
X18300Y-145600D01*
Y-145700D01*
X-2700D01*
X-8563Y-139837D01*
Y-129916D01*
X-8563Y-129916D01*
X-8648Y-129487D01*
X-8891Y-129123D01*
X-9200Y-128814D01*
Y-125500D01*
X-7300Y-123600D01*
Y-123500D01*
X-4900D01*
X-3700Y-122300D01*
X-3600D01*
Y-119400D01*
X-3500Y-119300D01*
X-2456Y-118351D01*
X-2290Y-118354D01*
X-2203Y-118361D01*
X-2191Y-118363D01*
X-2185Y-118364D01*
X-2183Y-118364D01*
X-2176Y-118365D01*
X-1946Y-118519D01*
X-1400Y-118627D01*
X-854Y-118519D01*
X-526Y-118300D01*
X11800D01*
Y-114800D01*
X11700Y-114700D01*
X12400Y-114000D01*
Y-113800D01*
X15700D01*
X15800Y-113700D01*
X20800Y-118700D01*
D02*
G37*
G36*
X-17547Y-125077D02*
X-17537Y-125102D01*
X-17520Y-125131D01*
X-17497Y-125165D01*
X-17467Y-125205D01*
X-17386Y-125299D01*
X-17215Y-125477D01*
X-17923Y-126184D01*
X-17987Y-126121D01*
X-18235Y-125903D01*
X-18269Y-125880D01*
X-18298Y-125863D01*
X-18323Y-125853D01*
X-18342Y-125850D01*
X-17550Y-125058D01*
X-17547Y-125077D01*
D02*
G37*
G36*
X-17597Y-128927D02*
X-17587Y-128952D01*
X-17570Y-128981D01*
X-17547Y-129015D01*
X-17517Y-129055D01*
X-17436Y-129149D01*
X-17266Y-129327D01*
X-17973Y-130034D01*
X-18037Y-129971D01*
X-18285Y-129753D01*
X-18319Y-129730D01*
X-18348Y-129713D01*
X-18373Y-129703D01*
X-18392Y-129700D01*
X-17600Y-128908D01*
X-17597Y-128927D01*
D02*
G37*
G36*
X27901Y-131286D02*
X27922Y-131615D01*
X27929Y-131656D01*
X27938Y-131688D01*
X27949Y-131713D01*
X27960Y-131729D01*
X26840D01*
X26851Y-131713D01*
X26862Y-131688D01*
X26871Y-131656D01*
X26878Y-131615D01*
X26885Y-131566D01*
X26895Y-131443D01*
X26900Y-131195D01*
X27900D01*
X27901Y-131286D01*
D02*
G37*
G36*
X-17570Y-133687D02*
X-17580Y-133712D01*
X-17589Y-133744D01*
X-17596Y-133785D01*
X-17603Y-133834D01*
X-17613Y-133957D01*
X-17618Y-134204D01*
X-18618D01*
X-18619Y-134114D01*
X-18640Y-133785D01*
X-18647Y-133744D01*
X-18656Y-133712D01*
X-18667Y-133687D01*
X-18678Y-133671D01*
X-17558D01*
X-17570Y-133687D01*
D02*
G37*
G36*
X-60751Y-133887D02*
X-60762Y-133912D01*
X-60771Y-133944D01*
X-60778Y-133985D01*
X-60785Y-134034D01*
X-60795Y-134157D01*
X-60800Y-134405D01*
X-61800D01*
X-61801Y-134314D01*
X-61822Y-133985D01*
X-61829Y-133944D01*
X-61838Y-133912D01*
X-61849Y-133887D01*
X-61860Y-133871D01*
X-60740D01*
X-60751Y-133887D01*
D02*
G37*
G36*
X-17613Y-136819D02*
X-17598Y-136989D01*
X-17573Y-137139D01*
X-17538Y-137269D01*
X-17493Y-137379D01*
X-17438Y-137469D01*
X-17373Y-137539D01*
X-17298Y-137589D01*
X-17213Y-137619D01*
X-17118Y-137629D01*
X-19118D01*
X-19023Y-137619D01*
X-18938Y-137589D01*
X-18863Y-137539D01*
X-18798Y-137469D01*
X-18743Y-137379D01*
X-18698Y-137269D01*
X-18663Y-137139D01*
X-18638Y-136989D01*
X-18623Y-136819D01*
X-18618Y-136629D01*
X-17618D01*
X-17613Y-136819D01*
D02*
G37*
G36*
X-59290Y-136582D02*
X-58380Y-137379D01*
X-58249Y-137452D01*
X-58108Y-137517D01*
X-57967Y-137567D01*
X-57827Y-137603D01*
X-57687Y-137625D01*
X-57548Y-137632D01*
X-58063D01*
X-58042Y-137645D01*
X-57951Y-137686D01*
X-57881Y-137700D01*
X-58882Y-138701D01*
X-58896Y-138631D01*
X-58937Y-138540D01*
X-59006Y-138427D01*
X-59103Y-138292D01*
X-59379Y-137957D01*
X-59682Y-137632D01*
X-60376D01*
X-60247Y-137625D01*
X-60146Y-137603D01*
X-60074Y-137567D01*
X-60031Y-137517D01*
X-60017Y-137452D01*
X-60031Y-137373D01*
X-60074Y-137280D01*
X-60146Y-137172D01*
X-60247Y-137050D01*
X-60376Y-136913D01*
X-60148D01*
X-59555Y-136320D01*
X-59290Y-136582D01*
D02*
G37*
G36*
X30401Y-138386D02*
X30422Y-138715D01*
X30429Y-138756D01*
X30438Y-138788D01*
X30449Y-138813D01*
X30460Y-138829D01*
X29340D01*
X29351Y-138813D01*
X29362Y-138788D01*
X29371Y-138756D01*
X29378Y-138715D01*
X29385Y-138666D01*
X29395Y-138543D01*
X29400Y-138295D01*
X30400D01*
X30401Y-138386D01*
D02*
G37*
G36*
X30449Y-139987D02*
X30438Y-140012D01*
X30429Y-140044D01*
X30422Y-140085D01*
X30415Y-140134D01*
X30405Y-140257D01*
X30400Y-140505D01*
X29400D01*
X29399Y-140414D01*
X29378Y-140085D01*
X29371Y-140044D01*
X29362Y-140012D01*
X29351Y-139987D01*
X29340Y-139971D01*
X30460D01*
X30449Y-139987D01*
D02*
G37*
G36*
X-13294Y-143101D02*
X-13415Y-143225D01*
X-13728Y-143583D01*
X-13816Y-143698D01*
X-13967Y-143922D01*
X-14030Y-144030D01*
X-14132Y-144240D01*
X-14951Y-142647D01*
X-14897Y-142725D01*
X-14827Y-142774D01*
X-14742Y-142794D01*
X-14643Y-142785D01*
X-14528Y-142747D01*
X-14399Y-142680D01*
X-14254Y-142585D01*
X-14095Y-142460D01*
X-13921Y-142307D01*
X-13732Y-142125D01*
X-13294Y-143101D01*
D02*
G37*
G36*
X-62161Y-142362D02*
X-61836Y-142632D01*
X-61696Y-142723D01*
X-61571Y-142785D01*
X-61461Y-142818D01*
X-61365Y-142823D01*
X-61285Y-142799D01*
X-61220Y-142745D01*
X-61170Y-142663D01*
X-61868Y-144240D01*
X-61897Y-144180D01*
X-61938Y-144111D01*
X-61990Y-144034D01*
X-62130Y-143855D01*
X-62317Y-143642D01*
X-62685Y-143259D01*
X-62345Y-142184D01*
X-62161Y-142362D01*
D02*
G37*
G36*
X-12951Y-148158D02*
X-14132Y-149240D01*
X-14639Y-147731D01*
X-14596Y-147822D01*
X-14538Y-147883D01*
X-14465Y-147915D01*
X-14377Y-147917D01*
X-14273Y-147891D01*
X-14154Y-147835D01*
X-14020Y-147750D01*
X-13871Y-147636D01*
X-13706Y-147492D01*
X-13527Y-147320D01*
X-12951Y-148158D01*
D02*
G37*
G36*
X-62197Y-147389D02*
X-61875Y-147655D01*
X-61736Y-147745D01*
X-61612Y-147805D01*
X-61504Y-147837D01*
X-61410Y-147839D01*
X-61332Y-147813D01*
X-61268Y-147757D01*
X-61220Y-147673D01*
X-61868Y-149240D01*
X-61893Y-149197D01*
X-61937Y-149135D01*
X-62001Y-149056D01*
X-62313Y-148710D01*
X-63008Y-147999D01*
X-62381Y-147212D01*
X-62197Y-147389D01*
D02*
G37*
G36*
X30401Y-151586D02*
X30422Y-151915D01*
X30429Y-151956D01*
X30438Y-151988D01*
X30449Y-152013D01*
X30460Y-152029D01*
X29340D01*
X29351Y-152013D01*
X29362Y-151988D01*
X29371Y-151956D01*
X29378Y-151915D01*
X29385Y-151866D01*
X29395Y-151743D01*
X29400Y-151496D01*
X30400D01*
X30401Y-151586D01*
D02*
G37*
G36*
X-62227Y-152413D02*
X-61905Y-152679D01*
X-61768Y-152767D01*
X-61645Y-152827D01*
X-61537Y-152858D01*
X-61445Y-152859D01*
X-61367Y-152831D01*
X-61305Y-152775D01*
X-61258Y-152689D01*
X-61868Y-154240D01*
X-61886Y-154214D01*
X-61925Y-154166D01*
X-62174Y-153899D01*
X-63024Y-153037D01*
X-62410Y-152237D01*
X-62227Y-152413D01*
D02*
G37*
G36*
X-62138Y-157347D02*
X-61812Y-157619D01*
X-61670Y-157711D01*
X-61544Y-157775D01*
X-61433Y-157809D01*
X-61336Y-157815D01*
X-61255Y-157792D01*
X-61189Y-157740D01*
X-61137Y-157659D01*
X-61868Y-159240D01*
X-61902Y-159168D01*
X-61947Y-159089D01*
X-62002Y-159004D01*
X-62145Y-158812D01*
X-62331Y-158594D01*
X-62691Y-158216D01*
X-62325Y-157168D01*
X-62138Y-157347D01*
D02*
G37*
G36*
X35101Y-166886D02*
X35122Y-167215D01*
X35129Y-167256D01*
X35138Y-167288D01*
X35149Y-167313D01*
X35160Y-167329D01*
X34040D01*
X34051Y-167313D01*
X34062Y-167288D01*
X34071Y-167256D01*
X34078Y-167215D01*
X34085Y-167166D01*
X34095Y-167043D01*
X34100Y-166796D01*
X35100D01*
X35101Y-166886D01*
D02*
G37*
G36*
X-12963Y-184330D02*
X-13570Y-185137D01*
X-13752Y-184962D01*
X-14071Y-184699D01*
X-14208Y-184612D01*
X-14329Y-184553D01*
X-14436Y-184524D01*
X-14527Y-184524D01*
X-14603Y-184553D01*
X-14664Y-184611D01*
X-14710Y-184698D01*
X-14132Y-183160D01*
X-12963Y-184330D01*
D02*
G37*
G36*
X34837Y-184929D02*
X35085Y-185147D01*
X35119Y-185170D01*
X35148Y-185187D01*
X35173Y-185197D01*
X35192Y-185200D01*
X34400Y-185992D01*
X34397Y-185973D01*
X34387Y-185948D01*
X34370Y-185919D01*
X34347Y-185885D01*
X34317Y-185845D01*
X34236Y-185751D01*
X34065Y-185573D01*
X34773Y-184865D01*
X34837Y-184929D01*
D02*
G37*
G36*
X-14085Y-188264D02*
X-14030Y-188370D01*
X-13895Y-188589D01*
X-13816Y-188702D01*
X-13632Y-188934D01*
X-13415Y-189175D01*
X-13294Y-189299D01*
X-13732Y-190275D01*
X-13921Y-190093D01*
X-14254Y-189815D01*
X-14399Y-189720D01*
X-14528Y-189653D01*
X-14643Y-189615D01*
X-14742Y-189606D01*
X-14827Y-189626D01*
X-14897Y-189675D01*
X-14951Y-189753D01*
X-14132Y-188160D01*
X-14085Y-188264D01*
D02*
G37*
G36*
X-17213Y-194778D02*
X-17298Y-194808D01*
X-17373Y-194859D01*
X-17438Y-194930D01*
X-17493Y-195021D01*
X-17538Y-195132D01*
X-17573Y-195264D01*
X-17598Y-195416D01*
X-17613Y-195588D01*
X-17618Y-195780D01*
X-18618D01*
X-18623Y-195588D01*
X-18638Y-195416D01*
X-18663Y-195264D01*
X-18698Y-195132D01*
X-18743Y-195021D01*
X-18798Y-194930D01*
X-18863Y-194859D01*
X-18938Y-194808D01*
X-19023Y-194778D01*
X-19118Y-194768D01*
X-17118D01*
X-17213Y-194778D01*
D02*
G37*
G36*
X-17617Y-197672D02*
X-17595Y-198001D01*
X-17586Y-198042D01*
X-17576Y-198075D01*
X-17565Y-198100D01*
X-17553Y-198116D01*
X-18673Y-198142D01*
X-18662Y-198126D01*
X-18653Y-198102D01*
X-18645Y-198070D01*
X-18638Y-198030D01*
X-18627Y-197923D01*
X-18620Y-197784D01*
X-18618Y-197610D01*
X-17618Y-197581D01*
X-17617Y-197672D01*
D02*
G37*
G36*
X-12866Y-201173D02*
X-12929Y-201237D01*
X-13147Y-201485D01*
X-13170Y-201519D01*
X-13187Y-201548D01*
X-13197Y-201573D01*
X-13200Y-201592D01*
X-13992Y-200800D01*
X-13973Y-200797D01*
X-13948Y-200787D01*
X-13919Y-200770D01*
X-13885Y-200747D01*
X-13845Y-200717D01*
X-13751Y-200636D01*
X-13573Y-200465D01*
X-12866Y-201173D01*
D02*
G37*
G36*
X10810Y-202642D02*
X10456Y-202292D01*
X9788Y-201703D01*
X9475Y-201463D01*
X9175Y-201261D01*
X8890Y-201095D01*
X8617Y-200966D01*
X8359Y-200874D01*
X8114Y-200818D01*
X7883Y-200800D01*
Y-199800D01*
X8114Y-199782D01*
X8359Y-199726D01*
X8617Y-199634D01*
X8890Y-199505D01*
X9175Y-199339D01*
X9475Y-199137D01*
X9788Y-198897D01*
X10456Y-198308D01*
X10810Y-197958D01*
Y-202642D01*
D02*
G37*
G36*
X-11964Y-204073D02*
X-12027Y-204137D01*
X-12245Y-204385D01*
X-12268Y-204419D01*
X-12285Y-204448D01*
X-12295Y-204473D01*
X-12298Y-204492D01*
X-13090Y-203700D01*
X-13071Y-203697D01*
X-13047Y-203687D01*
X-13017Y-203670D01*
X-12983Y-203647D01*
X-12943Y-203617D01*
X-12849Y-203536D01*
X-12671Y-203365D01*
X-11964Y-204073D01*
D02*
G37*
G36*
X23167Y-203646D02*
X22799Y-203653D01*
X22447Y-203682D01*
X22113Y-203732D01*
X21794Y-203803D01*
X21492Y-203897D01*
X21207Y-204011D01*
X20938Y-204147D01*
X20685Y-204305D01*
X20449Y-204484D01*
X20229Y-204685D01*
X18815Y-203271D01*
X19016Y-203051D01*
X19195Y-202815D01*
X19353Y-202562D01*
X19489Y-202293D01*
X19603Y-202008D01*
X19696Y-201706D01*
X19768Y-201387D01*
X19818Y-201052D01*
X19847Y-200701D01*
X19854Y-200333D01*
X23167Y-203646D01*
D02*
G37*
%LPC*%
G36*
X17202Y-119690D02*
Y-120926D01*
X18438D01*
X18397Y-120724D01*
X18000Y-120128D01*
X17404Y-119730D01*
X17202Y-119690D01*
D02*
G37*
G36*
X16202D02*
X15999Y-119730D01*
X15404Y-120128D01*
X15006Y-120724D01*
X14966Y-120926D01*
X16202D01*
Y-119690D01*
D02*
G37*
G36*
X18438Y-121926D02*
X17202D01*
Y-123162D01*
X17404Y-123122D01*
X18000Y-122724D01*
X18397Y-122128D01*
X18438Y-121926D01*
D02*
G37*
G36*
X16202D02*
X14966D01*
X15006Y-122128D01*
X15404Y-122724D01*
X15999Y-123122D01*
X16202Y-123162D01*
Y-121926D01*
D02*
G37*
G36*
X8500Y-127873D02*
X7954Y-127981D01*
X7491Y-128291D01*
X7181Y-128754D01*
X7073Y-129300D01*
X7181Y-129846D01*
X7491Y-130309D01*
X7954Y-130619D01*
X8500Y-130727D01*
X9046Y-130619D01*
X9509Y-130309D01*
X9819Y-129846D01*
X9927Y-129300D01*
X9819Y-128754D01*
X9509Y-128291D01*
X9046Y-127981D01*
X8500Y-127873D01*
D02*
G37*
G36*
X-455Y-135447D02*
Y-136683D01*
X781D01*
X740Y-136481D01*
X342Y-135885D01*
X-253Y-135487D01*
X-455Y-135447D01*
D02*
G37*
G36*
X-1455D02*
X-1658Y-135487D01*
X-2253Y-135885D01*
X-2651Y-136481D01*
X-2691Y-136683D01*
X-1455D01*
Y-135447D01*
D02*
G37*
G36*
X781Y-137683D02*
X-455D01*
Y-138919D01*
X-253Y-138879D01*
X342Y-138481D01*
X740Y-137885D01*
X781Y-137683D01*
D02*
G37*
G36*
X-1455D02*
X-2691D01*
X-2651Y-137885D01*
X-2253Y-138481D01*
X-1658Y-138879D01*
X-1455Y-138919D01*
Y-137683D01*
D02*
G37*
%LPD*%
G36*
X91850Y-142578D02*
X91838Y-142484D01*
X91803Y-142400D01*
X91744Y-142325D01*
X91661Y-142261D01*
X91554Y-142207D01*
X91424Y-142162D01*
X91270Y-142128D01*
X91092Y-142103D01*
X90891Y-142088D01*
X90666Y-142083D01*
Y-141083D01*
X90891Y-141078D01*
X91270Y-141039D01*
X91424Y-141004D01*
X91554Y-140960D01*
X91661Y-140905D01*
X91744Y-140841D01*
X91803Y-140767D01*
X91838Y-140683D01*
X91850Y-140589D01*
Y-142578D01*
D02*
G37*
G36*
X83503Y-140683D02*
X83539Y-140767D01*
X83598Y-140842D01*
X83681Y-140906D01*
X83788Y-140960D01*
X83918Y-141005D01*
X84072Y-141039D01*
X84249Y-141064D01*
X84451Y-141079D01*
X84676Y-141084D01*
Y-142084D01*
X84451Y-142089D01*
X84072Y-142128D01*
X83918Y-142163D01*
X83788Y-142207D01*
X83681Y-142262D01*
X83598Y-142326D01*
X83539Y-142400D01*
X83503Y-142484D01*
X83491Y-142578D01*
Y-140589D01*
X83503Y-140683D01*
D02*
G37*
G36*
X74921Y-142578D02*
X74909Y-142484D01*
X74874Y-142400D01*
X74814Y-142326D01*
X74732Y-142262D01*
X74625Y-142207D01*
X74495Y-142163D01*
X74341Y-142128D01*
X74163Y-142104D01*
X73962Y-142089D01*
X73737Y-142084D01*
Y-141084D01*
X73962Y-141079D01*
X74341Y-141039D01*
X74495Y-141005D01*
X74625Y-140960D01*
X74732Y-140906D01*
X74814Y-140842D01*
X74874Y-140767D01*
X74909Y-140683D01*
X74921Y-140589D01*
Y-142578D01*
D02*
G37*
G36*
X-24213Y-153151D02*
X-24189Y-153162D01*
X-24156Y-153171D01*
X-24115Y-153178D01*
X-24066Y-153185D01*
X-23943Y-153195D01*
X-23696Y-153200D01*
Y-154200D01*
X-23786Y-154201D01*
X-24115Y-154222D01*
X-24156Y-154229D01*
X-24189Y-154238D01*
X-24213Y-154249D01*
X-24229Y-154260D01*
Y-153140D01*
X-24213Y-153151D01*
D02*
G37*
G36*
X-21709Y-154635D02*
X-21825Y-154552D01*
X-21947Y-154479D01*
X-22074Y-154413D01*
X-22207Y-154357D01*
X-22346Y-154309D01*
X-22490Y-154270D01*
X-22639Y-154239D01*
X-22794Y-154217D01*
X-22955Y-154204D01*
X-23121Y-154200D01*
Y-153200D01*
X-22955Y-153196D01*
X-22794Y-153183D01*
X-22639Y-153161D01*
X-22490Y-153130D01*
X-22346Y-153091D01*
X-22207Y-153043D01*
X-22074Y-152987D01*
X-21947Y-152921D01*
X-21825Y-152848D01*
X-21709Y-152765D01*
Y-154635D01*
D02*
G37*
G36*
Y-159635D02*
X-21825Y-159553D01*
X-21947Y-159478D01*
X-22074Y-159413D01*
X-22207Y-159357D01*
X-22346Y-159309D01*
X-22490Y-159270D01*
X-22639Y-159239D01*
X-22794Y-159217D01*
X-22955Y-159204D01*
X-23121Y-159200D01*
Y-158200D01*
X-22955Y-158196D01*
X-22794Y-158183D01*
X-22639Y-158161D01*
X-22490Y-158130D01*
X-22346Y-158091D01*
X-22207Y-158043D01*
X-22074Y-157987D01*
X-21947Y-157922D01*
X-21825Y-157847D01*
X-21709Y-157765D01*
Y-159635D01*
D02*
G37*
G36*
X-23966Y-159873D02*
X-24029Y-159937D01*
X-24247Y-160185D01*
X-24270Y-160219D01*
X-24287Y-160248D01*
X-24297Y-160273D01*
X-24300Y-160292D01*
X-25092Y-159500D01*
X-25073Y-159497D01*
X-25048Y-159487D01*
X-25019Y-159470D01*
X-24985Y-159447D01*
X-24945Y-159417D01*
X-24851Y-159336D01*
X-24673Y-159166D01*
X-23966Y-159873D01*
D02*
G37*
G36*
X-24513Y-163151D02*
X-24488Y-163162D01*
X-24456Y-163171D01*
X-24415Y-163178D01*
X-24366Y-163185D01*
X-24243Y-163195D01*
X-23995Y-163200D01*
Y-164200D01*
X-24086Y-164201D01*
X-24415Y-164222D01*
X-24456Y-164229D01*
X-24488Y-164238D01*
X-24513Y-164249D01*
X-24529Y-164260D01*
Y-163140D01*
X-24513Y-163151D01*
D02*
G37*
G36*
X-21709Y-164635D02*
X-21825Y-164552D01*
X-21947Y-164479D01*
X-22074Y-164413D01*
X-22207Y-164357D01*
X-22346Y-164309D01*
X-22490Y-164270D01*
X-22639Y-164239D01*
X-22794Y-164217D01*
X-22955Y-164204D01*
X-23121Y-164200D01*
Y-163200D01*
X-22955Y-163196D01*
X-22794Y-163183D01*
X-22639Y-163161D01*
X-22490Y-163130D01*
X-22346Y-163091D01*
X-22207Y-163043D01*
X-22074Y-162987D01*
X-21947Y-162922D01*
X-21825Y-162847D01*
X-21709Y-162765D01*
Y-164635D01*
D02*
G37*
G36*
X67592Y-164100D02*
X67573Y-164103D01*
X67548Y-164113D01*
X67519Y-164130D01*
X67485Y-164153D01*
X67445Y-164183D01*
X67351Y-164264D01*
X67173Y-164435D01*
X66465Y-163727D01*
X66529Y-163663D01*
X66747Y-163415D01*
X66770Y-163381D01*
X66787Y-163352D01*
X66797Y-163327D01*
X66800Y-163308D01*
X67592Y-164100D01*
D02*
G37*
G36*
X54342Y-166396D02*
X54367Y-166406D01*
X54399Y-166415D01*
X54440Y-166423D01*
X54489Y-166430D01*
X54612Y-166439D01*
X54860Y-166445D01*
Y-167445D01*
X54769Y-167445D01*
X54440Y-167466D01*
X54399Y-167474D01*
X54367Y-167483D01*
X54342Y-167493D01*
X54326Y-167505D01*
Y-166385D01*
X54342Y-166396D01*
D02*
G37*
G36*
X-24313Y-168151D02*
X-24288Y-168162D01*
X-24256Y-168171D01*
X-24215Y-168178D01*
X-24166Y-168185D01*
X-24043Y-168195D01*
X-23796Y-168200D01*
Y-169200D01*
X-23886Y-169201D01*
X-24215Y-169222D01*
X-24256Y-169229D01*
X-24288Y-169238D01*
X-24313Y-169249D01*
X-24329Y-169260D01*
Y-168140D01*
X-24313Y-168151D01*
D02*
G37*
G36*
X-21709Y-169635D02*
X-21825Y-169553D01*
X-21947Y-169478D01*
X-22074Y-169413D01*
X-22207Y-169357D01*
X-22346Y-169309D01*
X-22490Y-169270D01*
X-22639Y-169239D01*
X-22794Y-169217D01*
X-22955Y-169204D01*
X-23121Y-169200D01*
Y-168200D01*
X-22955Y-168196D01*
X-22794Y-168183D01*
X-22639Y-168161D01*
X-22490Y-168130D01*
X-22346Y-168091D01*
X-22207Y-168043D01*
X-22074Y-167987D01*
X-21947Y-167921D01*
X-21825Y-167848D01*
X-21709Y-167765D01*
Y-169635D01*
D02*
G37*
G36*
X-24397Y-172027D02*
X-24387Y-172052D01*
X-24370Y-172081D01*
X-24347Y-172115D01*
X-24317Y-172155D01*
X-24236Y-172249D01*
X-24066Y-172427D01*
X-24773Y-173135D01*
X-24837Y-173071D01*
X-25085Y-172853D01*
X-25119Y-172830D01*
X-25148Y-172813D01*
X-25173Y-172803D01*
X-25192Y-172800D01*
X-24400Y-172008D01*
X-24397Y-172027D01*
D02*
G37*
G36*
X-21709Y-174635D02*
X-21825Y-174553D01*
X-21947Y-174478D01*
X-22074Y-174413D01*
X-22207Y-174357D01*
X-22346Y-174309D01*
X-22490Y-174270D01*
X-22639Y-174239D01*
X-22794Y-174217D01*
X-22955Y-174204D01*
X-23121Y-174200D01*
Y-173200D01*
X-22955Y-173196D01*
X-22794Y-173183D01*
X-22639Y-173161D01*
X-22490Y-173130D01*
X-22346Y-173091D01*
X-22207Y-173043D01*
X-22074Y-172987D01*
X-21947Y-172922D01*
X-21825Y-172847D01*
X-21709Y-172765D01*
Y-174635D01*
D02*
G37*
G36*
X-56977Y-164778D02*
X-57062Y-164808D01*
X-57137Y-164859D01*
X-57202Y-164930D01*
X-57257Y-165021D01*
X-57302Y-165132D01*
X-57337Y-165264D01*
X-57362Y-165416D01*
X-57377Y-165588D01*
X-57382Y-165780D01*
X-58382D01*
X-58387Y-165588D01*
X-58402Y-165416D01*
X-58427Y-165264D01*
X-58462Y-165132D01*
X-58507Y-165021D01*
X-58562Y-164930D01*
X-58627Y-164859D01*
X-58702Y-164808D01*
X-58787Y-164778D01*
X-58882Y-164768D01*
X-56882D01*
X-56977Y-164778D01*
D02*
G37*
G36*
X-57377Y-166812D02*
X-57362Y-166984D01*
X-57337Y-167136D01*
X-57302Y-167268D01*
X-57257Y-167379D01*
X-57202Y-167470D01*
X-57137Y-167541D01*
X-57062Y-167592D01*
X-56977Y-167622D01*
X-56882Y-167632D01*
X-58882D01*
X-58787Y-167622D01*
X-58702Y-167592D01*
X-58627Y-167541D01*
X-58562Y-167470D01*
X-58507Y-167379D01*
X-58462Y-167268D01*
X-58427Y-167136D01*
X-58402Y-166984D01*
X-58387Y-166812D01*
X-58382Y-166620D01*
X-57382D01*
X-57377Y-166812D01*
D02*
G37*
G36*
X91850Y-178011D02*
X91839Y-177917D01*
X91803Y-177833D01*
X91744Y-177759D01*
X91661Y-177694D01*
X91554Y-177640D01*
X91424Y-177595D01*
X91270Y-177561D01*
X91092Y-177536D01*
X90891Y-177521D01*
X90666Y-177516D01*
Y-176516D01*
X90891Y-176512D01*
X91270Y-176472D01*
X91424Y-176437D01*
X91554Y-176393D01*
X91661Y-176338D01*
X91744Y-176274D01*
X91803Y-176200D01*
X91839Y-176116D01*
X91850Y-176022D01*
Y-178011D01*
D02*
G37*
G36*
X83503Y-176117D02*
X83539Y-176201D01*
X83598Y-176275D01*
X83681Y-176339D01*
X83788Y-176393D01*
X83918Y-176438D01*
X84072Y-176472D01*
X84250Y-176497D01*
X84451Y-176512D01*
X84676Y-176517D01*
Y-177517D01*
X84451Y-177522D01*
X84072Y-177561D01*
X83918Y-177596D01*
X83788Y-177641D01*
X83681Y-177695D01*
X83598Y-177759D01*
X83539Y-177833D01*
X83503Y-177917D01*
X83491Y-178011D01*
Y-176023D01*
X83503Y-176117D01*
D02*
G37*
G36*
X-24513Y-178151D02*
X-24488Y-178162D01*
X-24456Y-178171D01*
X-24415Y-178178D01*
X-24366Y-178185D01*
X-24243Y-178195D01*
X-23995Y-178200D01*
Y-179200D01*
X-24086Y-179201D01*
X-24415Y-179222D01*
X-24456Y-179229D01*
X-24488Y-179238D01*
X-24513Y-179249D01*
X-24529Y-179260D01*
Y-178140D01*
X-24513Y-178151D01*
D02*
G37*
G36*
X-21709Y-179635D02*
X-21825Y-179552D01*
X-21947Y-179479D01*
X-22074Y-179413D01*
X-22207Y-179357D01*
X-22346Y-179309D01*
X-22490Y-179270D01*
X-22639Y-179239D01*
X-22794Y-179217D01*
X-22955Y-179204D01*
X-23121Y-179200D01*
Y-178200D01*
X-22955Y-178196D01*
X-22794Y-178183D01*
X-22639Y-178161D01*
X-22490Y-178130D01*
X-22346Y-178091D01*
X-22207Y-178043D01*
X-22074Y-177987D01*
X-21947Y-177921D01*
X-21825Y-177848D01*
X-21709Y-177765D01*
Y-179635D01*
D02*
G37*
G36*
X4480Y-187851D02*
X4490Y-187875D01*
X4506Y-187905D01*
X4530Y-187939D01*
X4560Y-187978D01*
X4640Y-188072D01*
X4811Y-188251D01*
X4104Y-188958D01*
X4039Y-188894D01*
X3792Y-188677D01*
X3758Y-188653D01*
X3728Y-188637D01*
X3704Y-188627D01*
X3684Y-188623D01*
X4476Y-187831D01*
X4480Y-187851D01*
D02*
G37*
G36*
X72737Y-196029D02*
X72985Y-196247D01*
X73019Y-196270D01*
X73049Y-196287D01*
X73073Y-196297D01*
X73092Y-196300D01*
X72300Y-197092D01*
X72297Y-197072D01*
X72287Y-197048D01*
X72271Y-197019D01*
X72247Y-196984D01*
X72217Y-196945D01*
X72137Y-196851D01*
X71966Y-196672D01*
X72673Y-195965D01*
X72737Y-196029D01*
D02*
G37*
G36*
X-57687Y-194775D02*
X-57827Y-194797D01*
X-57967Y-194833D01*
X-58108Y-194883D01*
X-58249Y-194948D01*
X-58390Y-195027D01*
X-58533Y-195120D01*
X-58675Y-195228D01*
X-58818Y-195350D01*
X-58962Y-195487D01*
X-60376D01*
X-60247Y-195350D01*
X-60146Y-195228D01*
X-60074Y-195120D01*
X-60031Y-195027D01*
X-60017Y-194948D01*
X-60031Y-194883D01*
X-60074Y-194833D01*
X-60146Y-194797D01*
X-60247Y-194775D01*
X-60376Y-194768D01*
X-57548D01*
X-57687Y-194775D01*
D02*
G37*
G36*
X-61499Y-199586D02*
X-61478Y-199915D01*
X-61471Y-199956D01*
X-61462Y-199988D01*
X-61451Y-200013D01*
X-61440Y-200029D01*
X-62560D01*
X-62549Y-200013D01*
X-62538Y-199988D01*
X-62529Y-199956D01*
X-62522Y-199915D01*
X-62515Y-199866D01*
X-62505Y-199743D01*
X-62500Y-199495D01*
X-61500D01*
X-61499Y-199586D01*
D02*
G37*
G36*
X43980Y-203562D02*
X43921Y-203600D01*
X43869Y-203651D01*
X43824Y-203714D01*
X43786Y-203791D01*
X43755Y-203881D01*
X43731Y-203984D01*
X43714Y-204100D01*
X43703Y-204229D01*
X43700Y-204371D01*
X42700D01*
X42697Y-204229D01*
X42686Y-204100D01*
X42669Y-203984D01*
X42645Y-203881D01*
X42614Y-203791D01*
X42576Y-203714D01*
X42531Y-203651D01*
X42479Y-203600D01*
X42420Y-203562D01*
X42355Y-203538D01*
X44045D01*
X43980Y-203562D01*
D02*
G37*
G36*
X41054Y-207224D02*
X40863Y-207422D01*
X40562Y-207779D01*
X40450Y-207939D01*
X40365Y-208087D01*
X40306Y-208222D01*
X40274Y-208345D01*
X40268Y-208455D01*
X40288Y-208553D01*
X40335Y-208639D01*
X39129Y-207039D01*
X39197Y-207104D01*
X39281Y-207137D01*
X39382Y-207141D01*
X39499Y-207115D01*
X39632Y-207058D01*
X39782Y-206971D01*
X39948Y-206854D01*
X40130Y-206706D01*
X40544Y-206320D01*
X41054Y-207224D01*
D02*
G37*
G36*
X34550Y-203382D02*
X34372Y-203510D01*
X34214Y-203650D01*
X34078Y-203803D01*
X33962Y-203967D01*
X33868Y-204144D01*
X33795Y-204334D01*
X33742Y-204535D01*
X33711Y-204749D01*
X33700Y-204975D01*
X32700D01*
X32689Y-204749D01*
X32658Y-204535D01*
X32605Y-204334D01*
X32532Y-204144D01*
X32438Y-203967D01*
X32322Y-203803D01*
X32186Y-203650D01*
X32028Y-203510D01*
X31850Y-203382D01*
X31650Y-203266D01*
X34750D01*
X34550Y-203382D01*
D02*
G37*
G36*
X35467Y-206528D02*
X35848Y-206854D01*
X36014Y-206971D01*
X36164Y-207058D01*
X36297Y-207115D01*
X36414Y-207141D01*
X36515Y-207137D01*
X36599Y-207104D01*
X36667Y-207039D01*
X35462Y-208639D01*
X35508Y-208553D01*
X35528Y-208455D01*
X35522Y-208345D01*
X35490Y-208222D01*
X35431Y-208087D01*
X35346Y-207939D01*
X35235Y-207779D01*
X35097Y-207607D01*
X34742Y-207224D01*
X35253Y-206320D01*
X35467Y-206528D01*
D02*
G37*
D12*
X40825Y-60025D02*
Y-59397D01*
Y-60025D02*
X54100Y-73300D01*
X40825Y-53491D02*
X42491D01*
X53800Y-64800D01*
X76200Y-75400D02*
Y-67247D01*
X71200Y-80400D02*
X76200Y-75400D01*
X56871Y-80400D02*
X71200D01*
X56871Y-102406D02*
Y-80400D01*
X40825Y-118452D02*
X56871Y-102406D01*
X16600Y-206900D02*
X23200Y-200300D01*
X-33100Y-206900D02*
X16600D01*
X-48000Y-192000D02*
X-33100Y-206900D01*
X-57882Y-138700D02*
X-52600D01*
X-48000Y-143300D01*
Y-166400D02*
Y-143300D01*
Y-192000D02*
Y-166400D01*
D15*
X6400Y-200300D02*
X13200D01*
X-9684Y-184216D02*
X6400Y-200300D01*
X-9684Y-184216D02*
Y-129916D01*
X76200Y-63900D02*
X81800D01*
X29900Y-139400D02*
Y-106108D01*
Y-152600D02*
Y-139400D01*
X27400Y-132300D02*
Y-106392D01*
X20308Y-99300D02*
X27400Y-106392D01*
X22792Y-99000D02*
X29900Y-106108D01*
X53525Y-73875D02*
X54100Y-73300D01*
X53525Y-80400D02*
Y-73875D01*
X68200Y-63900D02*
X76200D01*
X67300Y-64800D02*
X68200Y-63900D01*
X22206Y-51000D02*
X29800Y-58594D01*
Y-79000D02*
Y-58594D01*
X32206Y-51000D02*
X33400Y-52194D01*
Y-79000D02*
Y-52194D01*
X29900Y-82500D02*
X33400Y-79000D01*
X3677Y-187823D02*
X8853Y-193000D01*
X69001D02*
X73100Y-197100D01*
X8853Y-193000D02*
X69001D01*
X-13098Y-204500D02*
X-11200Y-202602D01*
X-14000Y-201600D02*
X-12884Y-200484D01*
X-61300Y-135282D02*
X-57882Y-138700D01*
X-61300Y-135282D02*
Y-133300D01*
X-57882Y-168700D02*
Y-163700D01*
X79206Y-177017D02*
X95545D01*
X58758Y-141583D02*
X95545D01*
X-14300Y-183700D02*
X-11200Y-186800D01*
Y-202602D02*
Y-186800D01*
X-14600Y-188700D02*
X-12884Y-190416D01*
Y-200484D02*
Y-190416D01*
X-15350Y-124250D02*
X-9684Y-129916D01*
X-14200Y-148700D02*
X-11284Y-145784D01*
Y-132116D01*
X-18350Y-125050D02*
X-11284Y-132116D01*
X-8400Y-114800D02*
X900D01*
X-10100Y-113100D02*
X-8400Y-114800D01*
X-12750Y-115050D02*
X-10600Y-117200D01*
X-1400D01*
X-15350Y-103958D02*
X-10632Y-99240D01*
X-15350Y-124250D02*
Y-103958D01*
X-18118Y-148700D02*
X-14200D01*
X-18400Y-128900D02*
X-12884Y-134416D01*
X-14600Y-143700D02*
X-12884Y-141984D01*
Y-134416D01*
X32300Y-183100D02*
Y-105724D01*
X23092Y-96516D02*
X32300Y-105724D01*
X34600Y-167900D02*
Y-105240D01*
X25576Y-96216D02*
X34600Y-105240D01*
X32300Y-183100D02*
X35200Y-186000D01*
X39571Y-208000D02*
X43200Y-204371D01*
Y-200300D01*
X33200Y-204975D02*
X36225Y-208000D01*
X33200Y-204975D02*
Y-200300D01*
X53755Y-166945D02*
X63955D01*
X67600Y-163300D01*
X28800Y-80000D02*
X29800Y-79000D01*
X-18118Y-198682D02*
X-18100Y-198700D01*
X-18118Y-198682D02*
Y-193700D01*
Y-183700D02*
X-14300D01*
X-18118Y-188700D02*
X-14600D01*
X-59012Y-125800D02*
X-39976D01*
X-64100Y-130888D02*
X-59012Y-125800D01*
X-64100Y-141137D02*
Y-130888D01*
X-59675Y-124200D02*
X-41160D01*
X-65700Y-130226D02*
X-59675Y-124200D01*
X-65700Y-144600D02*
Y-130226D01*
X-60337Y-122600D02*
X-42344D01*
X-67300Y-129563D02*
X-60337Y-122600D01*
X-67300Y-148054D02*
Y-129563D01*
X-61000Y-121000D02*
X-43527D01*
X-68900Y-128900D02*
X-61000Y-121000D01*
X-68900Y-151300D02*
Y-128900D01*
X-39976Y-125800D02*
X-10938Y-96762D01*
X-41160Y-124200D02*
X-13416Y-96456D01*
X-42344Y-122600D02*
X-13722Y-93978D01*
X-43527Y-121000D02*
X-16200Y-93672D01*
X-61500Y-158700D02*
X-57882D01*
X-68900Y-151300D02*
X-61500Y-158700D01*
X-61654Y-153700D02*
X-57882D01*
X-67300Y-148054D02*
X-61654Y-153700D01*
X-64100Y-141137D02*
X-61537Y-143700D01*
X-57882D01*
X-61600Y-148700D02*
X-57882D01*
X-65700Y-144600D02*
X-61600Y-148700D01*
X-62000Y-197818D02*
X-57882Y-193700D01*
X-62000Y-200600D02*
Y-197818D01*
X-18118Y-143700D02*
X-14600D01*
X-18118Y-138700D02*
Y-133100D01*
X-23500Y-158700D02*
X-18118D01*
X-25100Y-160300D02*
X-23500Y-158700D01*
X-24800Y-153700D02*
X-18118D01*
X-25100Y-163700D02*
X-18118D01*
X-23500Y-173700D02*
X-18118D01*
X-25200Y-172000D02*
X-23500Y-173700D01*
X-24900Y-168700D02*
X-18118D01*
X-25100Y-178700D02*
X-18118D01*
X-34261Y-104161D02*
X-30000Y-99900D01*
X-45845Y-104161D02*
X-34261D01*
X-44500Y-70300D02*
X-33900D01*
X-29900Y-74300D01*
D21*
X56871Y-80400D02*
D03*
X53525D02*
D03*
X39571Y-208000D02*
D03*
X36225D02*
D03*
D39*
X76200Y-67247D02*
D03*
Y-63900D02*
D03*
D47*
X53800Y-64800D02*
D03*
X67600Y-73300D02*
D03*
D48*
X67300Y-64800D02*
D03*
X54100Y-73300D02*
D03*
D92*
X-29900Y-93993D02*
X-24208Y-88301D01*
Y-68692D01*
D93*
X53200Y-200300D02*
D03*
D94*
X43200D02*
D03*
X33200D02*
D03*
X23200D02*
D03*
X13200D02*
D03*
X-74500Y-74000D02*
D03*
Y-94000D02*
D03*
Y-134000D02*
D03*
Y-144000D02*
D03*
Y-164000D02*
D03*
Y-194000D02*
D03*
Y-184000D02*
D03*
Y-174000D02*
D03*
Y-154000D02*
D03*
Y-124000D02*
D03*
Y-114000D02*
D03*
Y-104000D02*
D03*
Y-84000D02*
D03*
Y-64000D02*
D03*
Y-54000D02*
D03*
D95*
X79206Y-177017D02*
D03*
X79206Y-141584D02*
D03*
D96*
X95545Y-141583D02*
D03*
X95545Y-177016D02*
D03*
D97*
X81175Y-147922D02*
D03*
Y-170677D02*
D03*
D98*
X-74500Y-204000D02*
D03*
D99*
X-5379Y-181420D02*
D03*
X51500Y-151979D02*
D03*
X93975Y-124357D02*
D03*
X40825D02*
D03*
X67600Y-73300D02*
D03*
X81800Y-63900D02*
D03*
X29900Y-139400D02*
D03*
X27400Y-132300D02*
D03*
X40825Y-59397D02*
D03*
Y-53491D02*
D03*
Y-118452D02*
D03*
X3677Y-187823D02*
D03*
X73100Y-197100D02*
D03*
X-13098Y-204500D02*
D03*
X-14000Y-201600D02*
D03*
X-29900Y-93993D02*
D03*
X-24208Y-68692D02*
D03*
X-48000Y-166400D02*
D03*
X-61300Y-133300D02*
D03*
X-28100Y-146700D02*
D03*
X12000Y-166400D02*
D03*
X-5500D02*
D03*
X3400D02*
D03*
X-10100Y-113100D02*
D03*
X-6700Y-112100D02*
D03*
X29900Y-152600D02*
D03*
X34600Y-167900D02*
D03*
X35200Y-186000D02*
D03*
X25576Y-96216D02*
D03*
X23092Y-96516D02*
D03*
X20308Y-99300D02*
D03*
X22792Y-99000D02*
D03*
X67600Y-163300D02*
D03*
X53755Y-166945D02*
D03*
X32153Y-98947D02*
D03*
X26300Y-93800D02*
D03*
X29900Y-82500D02*
D03*
X28800Y-80000D02*
D03*
X19205Y-60505D02*
D03*
X-1476Y-80300D02*
D03*
X3800Y-92900D02*
D03*
Y-85576D02*
D03*
Y-76200D02*
D03*
X-12800Y-115100D02*
D03*
X900Y-114800D02*
D03*
X-1400Y-117200D02*
D03*
X10000Y-112900D02*
D03*
X-15100Y-56800D02*
D03*
X-18100Y-198700D02*
D03*
X-45200Y-61650D02*
D03*
X-46100Y-108100D02*
D03*
X-10632Y-99240D02*
D03*
X-10938Y-96762D02*
D03*
X-13416Y-96456D02*
D03*
X-13722Y-93978D02*
D03*
X-16200Y-93672D02*
D03*
X-62000Y-200600D02*
D03*
X-18350Y-125050D02*
D03*
X-18400Y-128900D02*
D03*
X-18118Y-133100D02*
D03*
X-24800Y-153700D02*
D03*
X-25100Y-160300D02*
D03*
Y-163700D02*
D03*
X-24900Y-168700D02*
D03*
X-25200Y-172000D02*
D03*
X-25100Y-178700D02*
D03*
X-63354Y-104946D02*
D03*
X-66200Y-93900D02*
D03*
X-66300Y-81600D02*
D03*
Y-66100D02*
D03*
X-28300Y-68300D02*
D03*
X-30000Y-99900D02*
D03*
X-44500Y-70300D02*
D03*
X-29900Y-74300D02*
D03*
X-45845Y-104161D02*
D03*
X106Y-57500D02*
D03*
X8500Y-129300D02*
D03*
X-955Y-137183D02*
D03*
X16702Y-121426D02*
D03*
D100*
X-18118Y-138700D02*
D03*
D101*
Y-143700D02*
D03*
Y-148700D02*
D03*
X-18118Y-153700D02*
D03*
X-18118Y-158700D02*
D03*
Y-163700D02*
D03*
Y-168700D02*
D03*
Y-173700D02*
D03*
X-18118Y-178700D02*
D03*
X-18118Y-183700D02*
D03*
X-57882Y-158700D02*
D03*
Y-163700D02*
D03*
Y-168700D02*
D03*
Y-173700D02*
D03*
X-57882Y-178700D02*
D03*
X-57882Y-183700D02*
D03*
Y-188700D02*
D03*
Y-193700D02*
D03*
X-18118D02*
D03*
Y-188700D02*
D03*
X-57882Y-138700D02*
D03*
Y-143700D02*
D03*
Y-148700D02*
D03*
X-57882Y-153700D02*
D03*
D102*
X12206Y-51000D02*
D03*
D03*
X22206D02*
D03*
X32206D02*
D03*
M02*
