M48
;Layer_Color=9474304
;FILE_FORMAT=2:5
INCH,TZ
;TYPE=PLATED
T1F00S00C0.01200
T3F00S00C0.03543
T4F00S00C0.04331
%
T01
X197794Y169400
X203700
Y222550
X191700Y222400
X185984Y222550
X180026Y209241
X155000Y204400
X136600Y200900
X130600
X135300Y208300
X132834Y222550
X141100Y187600
X138739Y169400
X125600Y169700
T03
X119374Y181590
Y191653
Y199527
Y209590
T04
X111500Y186784
Y204500
M30
