G04*
G04 #@! TF.GenerationSoftware,Altium Limited,Altium Designer,18.1.9 (240)*
G04*
G04 Layer_Color=32896*
%FSLAX25Y25*%
%MOIN*%
G70*
G01*
G75*
%ADD14C,0.00800*%
%ADD15C,0.01000*%
%ADD43C,0.02000*%
D14*
X125391Y222106D02*
X129791D01*
X125391Y219605D02*
Y222106D01*
Y169806D02*
Y172306D01*
Y169806D02*
X129791D01*
X206691Y222106D02*
X231491D01*
Y169806D02*
Y222106D01*
X206691Y169806D02*
X231491D01*
D15*
X101000Y170248D02*
X104020D01*
X101000D02*
Y221035D01*
X104807D01*
X107998Y189642D02*
X103833D01*
X103000Y190475D01*
Y192141D01*
X103833Y192974D01*
X107998D01*
X107165Y197972D02*
X107998Y197139D01*
Y195473D01*
X107165Y194640D01*
X106332D01*
X105499Y195473D01*
Y197139D01*
X104666Y197972D01*
X103833D01*
X103000Y197139D01*
Y195473D01*
X103833Y194640D01*
X107998Y199638D02*
X103000D01*
Y202138D01*
X103833Y202971D01*
X104666D01*
X105499Y202138D01*
Y199638D01*
Y202138D01*
X106332Y202971D01*
X107165D01*
X107998Y202138D01*
Y199638D01*
D43*
X216991Y196806D02*
Y202306D01*
X228491D01*
Y207306D01*
X216991D02*
X228491D01*
X216991D02*
Y213305D01*
Y180306D02*
X228491D01*
Y171806D02*
Y174805D01*
X216991D02*
X228491D01*
X216991D02*
Y180306D01*
X228491D02*
Y185805D01*
X216991D02*
X228491D01*
X216991D02*
Y191305D01*
X228491D01*
Y196806D01*
X216991D02*
X228491D01*
X216991Y213305D02*
X228491D01*
Y217305D01*
X210491D02*
X228491D01*
M02*
