G04*
G04 #@! TF.GenerationSoftware,Altium Limited,Altium Designer,18.1.9 (240)*
G04*
G04 Layer_Color=2752767*
%FSLAX25Y25*%
%MOIN*%
G70*
G01*
G75*
%ADD10C,0.00200*%
%ADD11C,0.00267*%
D10*
X110700Y203700D02*
Y205300D01*
X112300D01*
Y203700D01*
X110700D01*
Y185984D02*
Y187583D01*
X112300D01*
Y185984D01*
X110700D01*
X119374Y208790D02*
X118574Y210390D01*
X120174D01*
X119374Y208790D01*
Y198727D02*
X118574Y200327D01*
X120174D01*
X119374Y198727D01*
Y190853D02*
X118574Y192453D01*
X120174D01*
X119374Y190853D01*
Y180790D02*
X118574Y182390D01*
X120174D01*
X119374Y180790D01*
X130600Y200100D02*
X131000Y200500D01*
X131400D01*
X131000Y200900D01*
X131400Y201300D01*
X131000D01*
X130600Y201700D01*
X130200Y201300D01*
X129800D01*
X130200Y200900D01*
X129800Y200500D01*
X130200D01*
X130600Y200100D01*
X136600D02*
X137000Y200500D01*
X137400D01*
X137000Y200900D01*
X137400Y201300D01*
X137000D01*
X136600Y201700D01*
X136200Y201300D01*
X135800D01*
X136200Y200900D01*
X135800Y200500D01*
X136200D01*
X136600Y200100D01*
X135300Y207500D02*
X135700Y207900D01*
X136100D01*
X135700Y208300D01*
X136100Y208700D01*
X135700D01*
X135300Y209100D01*
X134900Y208700D01*
X134500D01*
X134900Y208300D01*
X134500Y207900D01*
X134900D01*
X135300Y207500D01*
X155000Y203600D02*
X155400Y204000D01*
X155800D01*
X155400Y204400D01*
X155800Y204800D01*
X155400D01*
X155000Y205200D01*
X154600Y204800D01*
X154200D01*
X154600Y204400D01*
X154200Y204000D01*
X154600D01*
X155000Y203600D01*
X180026Y208441D02*
X180426Y208841D01*
X180826D01*
X180426Y209241D01*
X180826Y209641D01*
X180426D01*
X180026Y210041D01*
X179626Y209641D01*
X179226D01*
X179626Y209241D01*
X179226Y208841D01*
X179626D01*
X180026Y208441D01*
X141100Y186800D02*
X141500Y187200D01*
X141900D01*
X141500Y187600D01*
X141900Y188000D01*
X141500D01*
X141100Y188400D01*
X140700Y188000D01*
X140300D01*
X140700Y187600D01*
X140300Y187200D01*
X140700D01*
X141100Y186800D01*
X125600Y168900D02*
X126000Y169300D01*
X126400D01*
X126000Y169700D01*
X126400Y170100D01*
X126000D01*
X125600Y170500D01*
X125200Y170100D01*
X124800D01*
X125200Y169700D01*
X124800Y169300D01*
X125200D01*
X125600Y168900D01*
X132834Y221750D02*
X133234Y222150D01*
X133634D01*
X133234Y222550D01*
X133634Y222950D01*
X133234D01*
X132834Y223350D01*
X132434Y222950D01*
X132034D01*
X132434Y222550D01*
X132034Y222150D01*
X132434D01*
X132834Y221750D01*
X138739Y168600D02*
X139139Y169000D01*
X139539D01*
X139139Y169400D01*
X139539Y169800D01*
X139139D01*
X138739Y170200D01*
X138339Y169800D01*
X137939D01*
X138339Y169400D01*
X137939Y169000D01*
X138339D01*
X138739Y168600D01*
X197794D02*
X198195Y169000D01*
X198594D01*
X198195Y169400D01*
X198594Y169800D01*
X198195D01*
X197794Y170200D01*
X197395Y169800D01*
X196994D01*
X197395Y169400D01*
X196994Y169000D01*
X197395D01*
X197794Y168600D01*
X203700D02*
X204100Y169000D01*
X204500D01*
X204100Y169400D01*
X204500Y169800D01*
X204100D01*
X203700Y170200D01*
X203300Y169800D01*
X202900D01*
X203300Y169400D01*
X202900Y169000D01*
X203300D01*
X203700Y168600D01*
Y221750D02*
X204100Y222150D01*
X204500D01*
X204100Y222550D01*
X204500Y222950D01*
X204100D01*
X203700Y223350D01*
X203300Y222950D01*
X202900D01*
X203300Y222550D01*
X202900Y222150D01*
X203300D01*
X203700Y221750D01*
X191700Y221600D02*
X192100Y222000D01*
X192500D01*
X192100Y222400D01*
X192500Y222800D01*
X192100D01*
X191700Y223200D01*
X191300Y222800D01*
X190900D01*
X191300Y222400D01*
X190900Y222000D01*
X191300D01*
X191700Y221600D01*
X185984Y221750D02*
X186383Y222150D01*
X186784D01*
X186383Y222550D01*
X186784Y222950D01*
X186383D01*
X185984Y223350D01*
X185583Y222950D01*
X185184D01*
X185583Y222550D01*
X185184Y222150D01*
X185583D01*
X185984Y221750D01*
D11*
X112300Y218870D02*
G03*
X112300Y218870I-800J0D01*
G01*
Y172413D02*
G03*
X112300Y172413I-800J0D01*
G01*
M02*
