G04*
G04 #@! TF.GenerationSoftware,Altium Limited,Altium Designer,18.1.9 (240)*
G04*
G04 Layer_Color=8388736*
%FSLAX25Y25*%
%MOIN*%
G70*
G01*
G75*
%ADD28P,0.12804X8X292.5*%
%ADD29R,0.02375X0.02769*%
%ADD30R,0.02769X0.02375*%
%ADD31R,0.04147X0.01784*%
%ADD32R,0.01784X0.04147*%
%ADD33R,0.04737X0.02769*%
%ADD34R,0.04300X0.05800*%
G04:AMPARAMS|DCode=35|XSize=58mil|YSize=43mil|CornerRadius=0mil|HoleSize=0mil|Usage=FLASHONLY|Rotation=270.000|XOffset=0mil|YOffset=0mil|HoleType=Round|Shape=Octagon|*
%AMOCTAGOND35*
4,1,8,-0.01075,-0.02900,0.01075,-0.02900,0.02150,-0.01825,0.02150,0.01825,0.01075,0.02900,-0.01075,0.02900,-0.02150,0.01825,-0.02150,-0.01825,-0.01075,-0.02900,0.0*
%
%ADD35OCTAGOND35*%

%ADD36R,0.05800X0.04300*%
G04:AMPARAMS|DCode=37|XSize=58mil|YSize=43mil|CornerRadius=0mil|HoleSize=0mil|Usage=FLASHONLY|Rotation=180.000|XOffset=0mil|YOffset=0mil|HoleType=Round|Shape=Octagon|*
%AMOCTAGOND37*
4,1,8,-0.02900,0.01075,-0.02900,-0.01075,-0.01825,-0.02150,0.01825,-0.02150,0.02900,-0.01075,0.02900,0.01075,0.01825,0.02150,-0.01825,0.02150,-0.02900,0.01075,0.0*
%
%ADD37OCTAGOND37*%

G04:AMPARAMS|DCode=38|XSize=63mil|YSize=58mil|CornerRadius=0mil|HoleSize=0mil|Usage=FLASHONLY|Rotation=270.000|XOffset=0mil|YOffset=0mil|HoleType=Round|Shape=Octagon|*
%AMOCTAGOND38*
4,1,8,-0.01450,-0.03150,0.01450,-0.03150,0.02900,-0.01700,0.02900,0.01700,0.01450,0.03150,-0.01450,0.03150,-0.02900,0.01700,-0.02900,-0.01700,-0.01450,-0.03150,0.0*
%
%ADD38OCTAGOND38*%

%ADD39R,0.05800X0.06300*%
%ADD40C,0.05131*%
%ADD41O,0.15800X0.06800*%
%ADD42O,0.09461X0.07099*%
D28*
X141100Y187600D02*
D03*
D29*
X164471Y187000D02*
D03*
X161125D02*
D03*
X164471Y191200D02*
D03*
X161125D02*
D03*
X164471Y203900D02*
D03*
X161125D02*
D03*
X164471Y199700D02*
D03*
X161125D02*
D03*
X123429Y175100D02*
D03*
X126775D02*
D03*
X161129Y195500D02*
D03*
X164475D02*
D03*
X125871Y216800D02*
D03*
X122525D02*
D03*
X145929Y204400D02*
D03*
X149472Y204400D02*
D03*
D30*
X145500Y209357D02*
D03*
X145500Y212900D02*
D03*
X150100Y209357D02*
D03*
X150100Y212900D02*
D03*
X126775Y191600D02*
D03*
Y194947D02*
D03*
X185900Y211129D02*
D03*
Y214475D02*
D03*
X191800Y211229D02*
D03*
Y214575D02*
D03*
X203800Y211129D02*
D03*
Y214475D02*
D03*
X191600Y178129D02*
D03*
Y181475D02*
D03*
X173700Y177729D02*
D03*
Y181075D02*
D03*
D31*
X150647Y193506D02*
D03*
Y191537D02*
D03*
Y189568D02*
D03*
Y187600D02*
D03*
Y185632D02*
D03*
Y183663D02*
D03*
Y181694D02*
D03*
X131553D02*
D03*
Y183663D02*
D03*
Y185632D02*
D03*
Y187600D02*
D03*
Y191537D02*
D03*
Y193506D02*
D03*
D32*
X147005Y178053D02*
D03*
X145037D02*
D03*
X143069D02*
D03*
X141100D02*
D03*
X139131D02*
D03*
X137163D02*
D03*
X135195D02*
D03*
Y197147D02*
D03*
X137163D02*
D03*
X139131D02*
D03*
X141100D02*
D03*
X143069D02*
D03*
X145037D02*
D03*
X147005D02*
D03*
D33*
X139649Y204560D02*
D03*
Y212040D02*
D03*
X130200Y208300D02*
D03*
Y212040D02*
D03*
Y204560D02*
D03*
D34*
X180026Y216300D02*
D03*
X197726Y216400D02*
D03*
X162800Y172700D02*
D03*
Y218100D02*
D03*
D35*
X180026Y209299D02*
D03*
X197726Y209400D02*
D03*
X162800Y179700D02*
D03*
Y211100D02*
D03*
D36*
X132600Y169700D02*
D03*
X124500Y222200D02*
D03*
D37*
X125600Y169700D02*
D03*
X131500Y222200D02*
D03*
D38*
X198300Y180450D02*
D03*
X180200Y193800D02*
D03*
D39*
X198300Y193950D02*
D03*
X180200Y180300D02*
D03*
D40*
X111500Y204500D02*
D03*
Y186784D02*
D03*
D41*
Y218870D02*
D03*
Y172413D02*
D03*
D42*
X119374Y209590D02*
D03*
Y199527D02*
D03*
Y191653D02*
D03*
Y181590D02*
D03*
M02*
