G04*
G04 #@! TF.GenerationSoftware,Altium Limited,Altium Designer,18.1.9 (240)*
G04*
G04 Layer_Physical_Order=1*
G04 Layer_Color=255*
%FSLAX25Y25*%
%MOIN*%
G70*
G01*
G75*
%ADD15C,0.01000*%
%ADD16P,0.11938X8X292.5*%
%ADD17R,0.01575X0.01968*%
%ADD18R,0.01968X0.01575*%
%ADD19R,0.03347X0.00984*%
%ADD20R,0.00984X0.03347*%
%ADD21R,0.03937X0.01968*%
%ADD22R,0.03500X0.05000*%
G04:AMPARAMS|DCode=23|XSize=50mil|YSize=35mil|CornerRadius=0mil|HoleSize=0mil|Usage=FLASHONLY|Rotation=270.000|XOffset=0mil|YOffset=0mil|HoleType=Round|Shape=Octagon|*
%AMOCTAGOND23*
4,1,8,-0.00875,-0.02500,0.00875,-0.02500,0.01750,-0.01625,0.01750,0.01625,0.00875,0.02500,-0.00875,0.02500,-0.01750,0.01625,-0.01750,-0.01625,-0.00875,-0.02500,0.0*
%
%ADD23OCTAGOND23*%

%ADD24R,0.05000X0.03500*%
G04:AMPARAMS|DCode=25|XSize=50mil|YSize=35mil|CornerRadius=0mil|HoleSize=0mil|Usage=FLASHONLY|Rotation=180.000|XOffset=0mil|YOffset=0mil|HoleType=Round|Shape=Octagon|*
%AMOCTAGOND25*
4,1,8,-0.02500,0.00875,-0.02500,-0.00875,-0.01625,-0.01750,0.01625,-0.01750,0.02500,-0.00875,0.02500,0.00875,0.01625,0.01750,-0.01625,0.01750,-0.02500,0.00875,0.0*
%
%ADD25OCTAGOND25*%

G04:AMPARAMS|DCode=26|XSize=55mil|YSize=50mil|CornerRadius=0mil|HoleSize=0mil|Usage=FLASHONLY|Rotation=270.000|XOffset=0mil|YOffset=0mil|HoleType=Round|Shape=Octagon|*
%AMOCTAGOND26*
4,1,8,-0.01250,-0.02750,0.01250,-0.02750,0.02500,-0.01500,0.02500,0.01500,0.01250,0.02750,-0.01250,0.02750,-0.02500,0.01500,-0.02500,-0.01500,-0.01250,-0.02750,0.0*
%
%ADD26OCTAGOND26*%

%ADD27R,0.05000X0.05500*%
%ADD43C,0.02000*%
%ADD44C,0.03000*%
%ADD45C,0.04331*%
%ADD46O,0.15000X0.06000*%
%ADD47O,0.08661X0.06299*%
%ADD48C,0.01600*%
G36*
X208104Y225310D02*
X208088Y225226D01*
X207545Y225062D01*
X204753Y227853D01*
X204224Y228207D01*
X203600Y228331D01*
X171400D01*
X170776Y228207D01*
X170247Y227853D01*
X164885Y222492D01*
X164845Y222477D01*
X164007Y221695D01*
X163669Y221420D01*
X163373Y221210D01*
X163356Y221200D01*
X162631D01*
X162627Y221204D01*
X162600Y221200D01*
X162562D01*
X162519Y221223D01*
X162446Y221200D01*
X160450D01*
Y219377D01*
X160434Y219357D01*
X160450Y219240D01*
Y218475D01*
X160386Y218325D01*
X160251Y218087D01*
X160069Y217821D01*
X159526Y217172D01*
X159180Y216812D01*
X159163Y216771D01*
X153382Y210989D01*
X152533D01*
X152084Y211113D01*
X152084Y211489D01*
Y212400D01*
X150100D01*
Y212900D01*
X149600D01*
Y214688D01*
X148116D01*
Y214049D01*
X148054Y214022D01*
X147553D01*
X147492Y214050D01*
X147484Y214050D01*
Y214688D01*
X146000D01*
Y213606D01*
X146053Y213617D01*
X146139Y213664D01*
X146000Y213559D01*
Y212900D01*
X145500D01*
Y212400D01*
X143516D01*
X143516Y211113D01*
X143067Y210989D01*
X143062D01*
X142693Y211383D01*
X142412Y211728D01*
X142217Y212001D01*
Y212777D01*
X142233Y212802D01*
X142217Y212873D01*
Y213624D01*
X140178D01*
X140127Y213649D01*
X140020Y213655D01*
X139943Y213667D01*
X139861Y213688D01*
X139775Y213719D01*
X139682Y213761D01*
X139675Y213766D01*
X138684Y214634D01*
X138432Y214882D01*
X138366Y214909D01*
X135682Y217593D01*
X135319Y217836D01*
X134889Y217921D01*
X134889Y217921D01*
X127725D01*
X127663Y217949D01*
X127492Y217953D01*
X127364Y217964D01*
X127268Y217979D01*
X127259Y217981D01*
Y218384D01*
X126737D01*
X126647Y218421D01*
X126611Y218407D01*
X126575Y218417D01*
X126514Y218384D01*
X124484D01*
Y215215D01*
X126514D01*
X126575Y215182D01*
X126611Y215193D01*
X126647Y215178D01*
X126737Y215215D01*
X127259D01*
Y215618D01*
X127268Y215620D01*
X127364Y215636D01*
X127492Y215646D01*
X127663Y215650D01*
X127725Y215678D01*
X134425D01*
X136772Y213331D01*
X136798Y213265D01*
X136921Y213140D01*
X137051Y212996D01*
X137063Y212965D01*
X137050Y212913D01*
X137080Y212864D01*
Y210456D01*
X138484D01*
X138682Y210370D01*
X138921Y210234D01*
X139184Y210054D01*
X139820Y209523D01*
X140171Y209186D01*
X140213Y209169D01*
X140230Y209152D01*
X140250Y209121D01*
X140264Y209118D01*
X141178Y208204D01*
X141707Y207850D01*
X142332Y207726D01*
X154057D01*
X154682Y207850D01*
X155211Y208204D01*
X159950Y212943D01*
X160450Y212736D01*
Y209175D01*
X161625Y208000D01*
X163320D01*
X163322Y207899D01*
X163350Y207836D01*
Y205953D01*
X163322Y205892D01*
X163312Y205552D01*
X163306Y205484D01*
X163084D01*
Y204962D01*
X163047Y204872D01*
X163071Y204813D01*
X163058Y204750D01*
X163084Y204711D01*
Y202315D01*
X165859D01*
Y204711D01*
X165885Y204750D01*
X165872Y204813D01*
X165896Y204872D01*
X165859Y204962D01*
Y205484D01*
X165639D01*
X165623Y205709D01*
X165621Y205881D01*
X165593Y205946D01*
Y208354D01*
X165621Y208424D01*
X165616Y208705D01*
X165611Y208717D01*
X165615Y208730D01*
X165603Y208972D01*
X165595Y208988D01*
X165600Y209006D01*
X165593Y209071D01*
Y209429D01*
X165593Y209429D01*
X165507Y209858D01*
X165264Y210222D01*
X165264Y210222D01*
X165150Y210336D01*
Y213025D01*
X163975Y214200D01*
X162011D01*
X161834Y214700D01*
X161928Y214776D01*
X162223Y214985D01*
X162250Y215000D01*
X162953D01*
X162974Y214984D01*
X163030Y214992D01*
X163080Y214965D01*
X163192Y215000D01*
X165150D01*
Y216838D01*
X165154Y216843D01*
X165150Y216869D01*
Y217738D01*
X165207Y217870D01*
X165343Y218109D01*
X165526Y218375D01*
X166072Y219026D01*
X166420Y219388D01*
X166436Y219429D01*
X172076Y225069D01*
X202924D01*
X203538Y224455D01*
X203374Y223912D01*
X203154Y223868D01*
X202691Y223559D01*
X202381Y223096D01*
X202273Y222550D01*
X202381Y222003D01*
X202637Y221621D01*
X202650Y221441D01*
X202650Y221371D01*
X202671Y221323D01*
X202659Y221272D01*
X202678Y221241D01*
Y216329D01*
X202650Y216267D01*
X202646Y216096D01*
X202636Y215968D01*
X202620Y215871D01*
X202618Y215862D01*
X202215D01*
Y215341D01*
X202178Y215250D01*
X202193Y215215D01*
X202182Y215179D01*
X202215Y215118D01*
Y213088D01*
X201815Y212916D01*
Y211629D01*
X203800D01*
Y211129D01*
X204300D01*
Y210470D01*
X204438Y210365D01*
X204353Y210412D01*
X204300Y210423D01*
Y209341D01*
X205769D01*
Y169261D01*
X205582Y169125D01*
X205127Y169400D01*
X205019Y169946D01*
X204867Y170174D01*
X204850Y170437D01*
X204849Y170509D01*
X204821Y170575D01*
Y175050D01*
X204736Y175479D01*
X204493Y175843D01*
X204493Y175843D01*
X201846Y178491D01*
X201820Y178555D01*
X201669Y178713D01*
X201552Y178847D01*
X201463Y178963D01*
X201401Y179057D01*
X201400Y179060D01*
Y179397D01*
X201418Y179471D01*
X201400Y179502D01*
Y179539D01*
X201401Y179551D01*
X201400Y179553D01*
Y182250D01*
X199850Y183800D01*
X196750D01*
X195200Y182250D01*
Y178650D01*
X196750Y177100D01*
X199850D01*
X199922Y177172D01*
X199954Y177148D01*
X200061Y177057D01*
X200197Y176928D01*
X200260Y176903D01*
X202578Y174585D01*
Y170582D01*
X202551Y170519D01*
X202546Y170290D01*
X202539Y170203D01*
X202537Y170191D01*
X202536Y170185D01*
X202536Y170183D01*
X202535Y170176D01*
X202381Y169946D01*
X202330Y169691D01*
X201788Y169527D01*
X200739Y170576D01*
X200731Y170616D01*
X200488Y170980D01*
X200487Y170980D01*
X193785Y177682D01*
X193766Y177740D01*
X193758Y177744D01*
X193754Y177752D01*
X193397Y178136D01*
X193281Y178280D01*
X193194Y178403D01*
X193184Y178421D01*
Y178648D01*
X193209Y178703D01*
X193190Y178755D01*
X193204Y178809D01*
X193184Y178843D01*
Y179516D01*
X190015D01*
Y176741D01*
X190971D01*
X190992Y176727D01*
X191045Y176738D01*
X191094Y176716D01*
X191160Y176741D01*
X191409D01*
X191446Y176720D01*
X191560Y176640D01*
X191888Y176362D01*
X192077Y176179D01*
X192142Y176154D01*
X197129Y171166D01*
X197021Y170567D01*
X197021Y170567D01*
X196758Y170550D01*
X196686Y170549D01*
X196620Y170522D01*
X191565D01*
X183888Y178198D01*
X183863Y178263D01*
X183686Y178446D01*
X183546Y178605D01*
X183435Y178745D01*
X183354Y178862D01*
X183302Y178953D01*
X183300Y178958D01*
Y179215D01*
X183327Y179339D01*
X183302Y179379D01*
X183306Y179427D01*
X183300Y179434D01*
Y183650D01*
X177100D01*
Y182258D01*
X177092Y182256D01*
X176995Y182240D01*
X176867Y182229D01*
X176695Y182224D01*
X176633Y182197D01*
X175753D01*
X175692Y182224D01*
X175352Y182235D01*
X175284Y182241D01*
Y182463D01*
X174762D01*
X174672Y182500D01*
X174613Y182475D01*
X174550Y182488D01*
X174511Y182463D01*
X172115D01*
Y179688D01*
X174511D01*
X174550Y179662D01*
X174613Y179675D01*
X174672Y179650D01*
X174762Y179688D01*
X175284D01*
Y179908D01*
X175509Y179923D01*
X175681Y179926D01*
X175746Y179954D01*
X176633D01*
X176695Y179926D01*
X176867Y179921D01*
X176995Y179910D01*
X177092Y179894D01*
X177100Y179892D01*
Y176950D01*
X181437D01*
X181530Y176913D01*
X181582Y176935D01*
X181637Y176923D01*
X181680Y176950D01*
X181836D01*
X181941Y176876D01*
X182285Y176583D01*
X182486Y176388D01*
X182551Y176362D01*
X190307Y168607D01*
X190307Y168607D01*
X190671Y168364D01*
X191100Y168278D01*
X191100Y168278D01*
X196613D01*
X196676Y168251D01*
X196905Y168246D01*
X196992Y168239D01*
X197004Y168237D01*
X197010Y168236D01*
X197012Y168236D01*
X197019Y168235D01*
X197248Y168081D01*
X197794Y167973D01*
X198341Y168081D01*
X198804Y168391D01*
X198900Y168535D01*
X199535Y168607D01*
X201435Y166707D01*
X201799Y166464D01*
X202228Y166378D01*
X202228Y166378D01*
X202418D01*
X202609Y165917D01*
X201724Y165031D01*
X180242D01*
X180213Y165050D01*
X179135Y165994D01*
X178884Y166242D01*
X178817Y166269D01*
X174821Y170265D01*
Y175875D01*
X174849Y175937D01*
X174853Y176108D01*
X174864Y176236D01*
X174879Y176332D01*
X174881Y176341D01*
X175284D01*
Y176863D01*
X175321Y176953D01*
X175307Y176988D01*
X175317Y177025D01*
X175284Y177086D01*
Y179116D01*
X172115D01*
Y177086D01*
X172082Y177025D01*
X172093Y176988D01*
X172078Y176953D01*
X172115Y176863D01*
Y176341D01*
X172518D01*
X172520Y176332D01*
X172536Y176236D01*
X172546Y176108D01*
X172550Y175937D01*
X172578Y175875D01*
Y169800D01*
X172578Y169800D01*
X172663Y169371D01*
X172907Y169007D01*
X176367Y165547D01*
X176369Y165451D01*
X176084Y165031D01*
X168342D01*
X168313Y165050D01*
X167235Y165994D01*
X166984Y166242D01*
X166917Y166269D01*
X164086Y169100D01*
X164278Y169600D01*
X165150D01*
Y175800D01*
X160450D01*
Y169600D01*
X161617D01*
X161619Y169592D01*
X161635Y169495D01*
X161646Y169368D01*
X161651Y169195D01*
X161678Y169133D01*
Y168800D01*
X161678Y168800D01*
X161764Y168371D01*
X162007Y168007D01*
X164467Y165547D01*
X164469Y165451D01*
X164184Y165031D01*
X145415D01*
X139893Y170554D01*
X139364Y170907D01*
X138739Y171031D01*
X138115Y170907D01*
X137586Y170554D01*
X137232Y170024D01*
X137108Y169400D01*
X137232Y168776D01*
X137586Y168246D01*
X143586Y162247D01*
X143773Y162122D01*
X143621Y161622D01*
X109465D01*
X101622Y169465D01*
Y222035D01*
X108565Y228978D01*
X204435D01*
X208104Y225310D01*
D02*
G37*
G36*
X204322Y222041D02*
X204317Y222021D01*
X204313Y221992D01*
X204307Y221907D01*
X204300Y221631D01*
X204300Y221540D01*
X203300Y221377D01*
X203299Y221467D01*
X203279Y221747D01*
X203269Y221796D01*
X203258Y221838D01*
X203246Y221871D01*
X203232Y221896D01*
X203216Y221913D01*
X204327Y222053D01*
X204322Y222041D01*
D02*
G37*
G36*
X165952Y219838D02*
X165589Y219460D01*
X165009Y218768D01*
X164793Y218454D01*
X164625Y218161D01*
X164507Y217888D01*
X164438Y217637D01*
X164418Y217407D01*
X164448Y217198D01*
X164526Y217010D01*
X162460Y220576D01*
X162580Y220430D01*
X162737Y220349D01*
X162930Y220332D01*
X163159Y220378D01*
X163424Y220489D01*
X163725Y220663D01*
X164062Y220902D01*
X164434Y221205D01*
X165288Y222002D01*
X165952Y219838D01*
D02*
G37*
G36*
X126657Y217682D02*
X126687Y217602D01*
X126737Y217531D01*
X126807Y217470D01*
X126897Y217418D01*
X127007Y217375D01*
X127137Y217342D01*
X127287Y217319D01*
X127457Y217304D01*
X127647Y217300D01*
Y216300D01*
X127457Y216295D01*
X127287Y216281D01*
X127137Y216257D01*
X127007Y216224D01*
X126897Y216182D01*
X126807Y216130D01*
X126737Y216068D01*
X126687Y215997D01*
X126657Y215917D01*
X126647Y215827D01*
Y217772D01*
X126657Y217682D01*
D02*
G37*
G36*
X163140Y215612D02*
X163019Y215759D01*
X162861Y215842D01*
X162668Y215861D01*
X162438Y215815D01*
X162173Y215706D01*
X161873Y215532D01*
X161536Y215295D01*
X161164Y214993D01*
X160312Y214198D01*
X159648Y216362D01*
X160010Y216738D01*
X160587Y217429D01*
X160802Y217743D01*
X160968Y218036D01*
X161085Y218308D01*
X161153Y218560D01*
X161172Y218791D01*
X161141Y219001D01*
X161062Y219190D01*
X163140Y215612D01*
D02*
G37*
G36*
X204304Y216060D02*
X204319Y215891D01*
X204342Y215740D01*
X204375Y215611D01*
X204418Y215500D01*
X204470Y215410D01*
X204531Y215340D01*
X204602Y215290D01*
X204682Y215261D01*
X204772Y215250D01*
X202827D01*
X202917Y215261D01*
X202997Y215290D01*
X203068Y215340D01*
X203130Y215410D01*
X203182Y215500D01*
X203224Y215611D01*
X203257Y215740D01*
X203281Y215891D01*
X203295Y216060D01*
X203300Y216250D01*
X204300D01*
X204304Y216060D01*
D02*
G37*
G36*
X138241Y214158D02*
X139298Y213232D01*
X139388Y213182D01*
X139529Y213117D01*
X139670Y213067D01*
X139811Y213030D01*
X139951Y213008D01*
X140091Y213000D01*
X139612Y213003D01*
X138649Y212039D01*
X138635Y212109D01*
X138594Y212200D01*
X138524Y212314D01*
X138428Y212448D01*
X138152Y212783D01*
X137939Y213011D01*
X137692Y213012D01*
X137738Y213019D01*
X137764Y213041D01*
X137770Y213076D01*
X137757Y213126D01*
X137723Y213189D01*
X137671Y213267D01*
X137598Y213359D01*
X137394Y213585D01*
X137262Y213720D01*
X137275D01*
X137976Y214420D01*
X138241Y214158D01*
D02*
G37*
G36*
X149128Y212125D02*
X149118Y212177D01*
X149088Y212224D01*
X149038Y212265D01*
X148968Y212301D01*
X148878Y212332D01*
X148768Y212356D01*
X148638Y212375D01*
X148488Y212389D01*
X148128Y212400D01*
Y213400D01*
X148318Y213403D01*
X148638Y213425D01*
X148768Y213444D01*
X148878Y213469D01*
X148968Y213499D01*
X149038Y213535D01*
X149088Y213577D01*
X149118Y213623D01*
X149128Y213676D01*
Y212125D01*
D02*
G37*
G36*
X146482Y213623D02*
X146512Y213577D01*
X146562Y213535D01*
X146632Y213499D01*
X146722Y213469D01*
X146832Y213444D01*
X146962Y213425D01*
X147112Y213411D01*
X147472Y213400D01*
Y212400D01*
X147282Y212398D01*
X146962Y212375D01*
X146832Y212356D01*
X146722Y212332D01*
X146632Y212301D01*
X146562Y212265D01*
X146512Y212224D01*
X146482Y212177D01*
X146472Y212125D01*
Y213676D01*
X146482Y213623D01*
D02*
G37*
G36*
X141437Y212802D02*
X141348Y212653D01*
X141324Y212466D01*
X141367Y212241D01*
X141477Y211977D01*
X141653Y211675D01*
X141895Y211335D01*
X142203Y210956D01*
X143019Y210084D01*
X140621Y209654D01*
X140254Y210007D01*
X139576Y210573D01*
X139265Y210785D01*
X138973Y210951D01*
X138699Y211071D01*
X138445Y211143D01*
X138208Y211169D01*
X137991Y211148D01*
X137793Y211080D01*
X141593Y212912D01*
X141437Y212802D01*
D02*
G37*
G36*
X164759Y209567D02*
X164815Y209518D01*
X164863Y209431D01*
X164902Y209305D01*
X164932Y209140D01*
X164954Y208937D01*
X164967Y208695D01*
X164971Y208414D01*
X163971Y207914D01*
X163966Y208121D01*
X163951Y208298D01*
X163926Y208445D01*
X163891Y208561D01*
X163846Y208647D01*
X163791Y208703D01*
X163726Y208729D01*
X163651Y208724D01*
X163566Y208689D01*
X163471Y208624D01*
X164538Y209481D01*
X164620Y209548D01*
X164694Y209577D01*
X164759Y209567D01*
D02*
G37*
G36*
X164974Y205682D02*
X164996Y205362D01*
X165015Y205232D01*
X165040Y205122D01*
X165070Y205032D01*
X165106Y204962D01*
X165148Y204912D01*
X165194Y204882D01*
X165247Y204872D01*
X163696D01*
X163748Y204882D01*
X163795Y204912D01*
X163836Y204962D01*
X163872Y205032D01*
X163902Y205122D01*
X163927Y205232D01*
X163946Y205362D01*
X163960Y205512D01*
X163971Y205872D01*
X164971D01*
X164974Y205682D01*
D02*
G37*
G36*
X174682Y181798D02*
X174712Y181751D01*
X174762Y181710D01*
X174832Y181674D01*
X174922Y181644D01*
X175032Y181619D01*
X175162Y181600D01*
X175312Y181586D01*
X175672Y181575D01*
Y180575D01*
X175482Y180572D01*
X175162Y180550D01*
X175032Y180531D01*
X174922Y180506D01*
X174832Y180476D01*
X174762Y180440D01*
X174712Y180399D01*
X174682Y180352D01*
X174672Y180300D01*
Y181851D01*
X174682Y181798D01*
D02*
G37*
G36*
X177724Y180075D02*
X177714Y180170D01*
X177683Y180255D01*
X177633Y180330D01*
X177562Y180395D01*
X177471Y180450D01*
X177360Y180495D01*
X177228Y180530D01*
X177076Y180555D01*
X176904Y180570D01*
X176712Y180575D01*
Y181575D01*
X176904Y181580D01*
X177076Y181595D01*
X177228Y181620D01*
X177360Y181655D01*
X177471Y181700D01*
X177562Y181755D01*
X177633Y181820D01*
X177683Y181895D01*
X177714Y181980D01*
X177724Y182075D01*
Y180075D01*
D02*
G37*
G36*
X200728Y179292D02*
X200704Y179198D01*
X200703Y179094D01*
X200726Y178981D01*
X200772Y178859D01*
X200841Y178727D01*
X200934Y178586D01*
X201050Y178435D01*
X201189Y178275D01*
X201352Y178105D01*
X200645Y177398D01*
X200496Y177540D01*
X200356Y177658D01*
X200226Y177753D01*
X200105Y177825D01*
X199993Y177873D01*
X199891Y177897D01*
X199798Y177898D01*
X199715Y177876D01*
X199640Y177830D01*
X199575Y177760D01*
X200776Y179376D01*
X200728Y179292D01*
D02*
G37*
G36*
X182643Y179137D02*
X182623Y179036D01*
X182629Y178924D01*
X182661Y178800D01*
X182719Y178665D01*
X182803Y178517D01*
X182912Y178358D01*
X183047Y178188D01*
X183208Y178006D01*
X183395Y177812D01*
X182938Y176855D01*
X182722Y177064D01*
X182339Y177390D01*
X182173Y177507D01*
X182023Y177593D01*
X181890Y177649D01*
X181773Y177673D01*
X181674Y177667D01*
X181590Y177630D01*
X181524Y177562D01*
X182688Y179226D01*
X182643Y179137D01*
D02*
G37*
G36*
X192503Y178649D02*
X192474Y178559D01*
X192474Y178455D01*
X192503Y178336D01*
X192561Y178202D01*
X192647Y178053D01*
X192762Y177889D01*
X192905Y177711D01*
X193279Y177310D01*
X192528Y176646D01*
X192324Y176843D01*
X191957Y177154D01*
X191795Y177268D01*
X191647Y177354D01*
X191512Y177412D01*
X191392Y177442D01*
X191285Y177444D01*
X191193Y177419D01*
X191114Y177365D01*
X192560Y178724D01*
X192503Y178649D01*
D02*
G37*
G36*
X174582Y176943D02*
X174502Y176913D01*
X174431Y176863D01*
X174370Y176793D01*
X174318Y176703D01*
X174275Y176593D01*
X174242Y176463D01*
X174219Y176313D01*
X174204Y176143D01*
X174200Y175953D01*
X173200D01*
X173195Y176143D01*
X173181Y176313D01*
X173157Y176463D01*
X173124Y176593D01*
X173082Y176703D01*
X173030Y176793D01*
X172968Y176863D01*
X172897Y176913D01*
X172817Y176943D01*
X172727Y176953D01*
X174672D01*
X174582Y176943D01*
D02*
G37*
G36*
X204201Y170414D02*
X204222Y170085D01*
X204229Y170044D01*
X204238Y170011D01*
X204249Y169987D01*
X204260Y169971D01*
X203140D01*
X203151Y169987D01*
X203162Y170011D01*
X203171Y170044D01*
X203178Y170085D01*
X203185Y170134D01*
X203195Y170257D01*
X203200Y170504D01*
X204200D01*
X204201Y170414D01*
D02*
G37*
G36*
X163705Y170214D02*
X163620Y170184D01*
X163545Y170133D01*
X163480Y170062D01*
X163425Y169971D01*
X163380Y169860D01*
X163345Y169728D01*
X163320Y169576D01*
X163305Y169404D01*
X163300Y169212D01*
X162300D01*
X162295Y169404D01*
X162280Y169576D01*
X162255Y169728D01*
X162220Y169860D01*
X162175Y169971D01*
X162120Y170062D01*
X162055Y170133D01*
X161980Y170184D01*
X161895Y170214D01*
X161800Y170224D01*
X163800D01*
X163705Y170214D01*
D02*
G37*
G36*
X197223Y168840D02*
X197207Y168851D01*
X197183Y168862D01*
X197151Y168871D01*
X197110Y168878D01*
X197061Y168885D01*
X196937Y168895D01*
X196690Y168900D01*
Y169900D01*
X196781Y169901D01*
X197110Y169922D01*
X197151Y169929D01*
X197183Y169938D01*
X197207Y169949D01*
X197223Y169960D01*
Y168840D01*
D02*
G37*
G36*
X178692Y165518D02*
X179827Y164524D01*
X179940Y164455D01*
X180031Y164414D01*
X180101Y164400D01*
X179515Y163814D01*
X180100Y163400D01*
Y162400D01*
X176393Y164400D01*
X176766Y164407D01*
X177085Y164428D01*
X177349Y164464D01*
X177560Y164513D01*
X177716Y164577D01*
X177818Y164655D01*
X177866Y164746D01*
X177860Y164852D01*
X177800Y164973D01*
X177686Y165107D01*
X177726Y165079D01*
X178427Y165780D01*
X178692Y165518D01*
D02*
G37*
G36*
X166792D02*
X167927Y164524D01*
X168040Y164455D01*
X168131Y164414D01*
X168201Y164400D01*
X167615Y163814D01*
X168200Y163400D01*
Y162400D01*
X164493Y164400D01*
X164866Y164407D01*
X165185Y164428D01*
X165449Y164464D01*
X165660Y164513D01*
X165816Y164577D01*
X165918Y164655D01*
X165966Y164746D01*
X165960Y164852D01*
X165900Y164973D01*
X165786Y165107D01*
X165826Y165079D01*
X166527Y165780D01*
X166792Y165518D01*
D02*
G37*
%LPC*%
G36*
X127800Y227022D02*
X127800Y227022D01*
X118530D01*
X118530Y227022D01*
X118101Y226936D01*
X117737Y226693D01*
X117737Y226693D01*
X114119Y223075D01*
X114055Y223050D01*
X113924Y222925D01*
X113899Y222905D01*
X112000D01*
Y219370D01*
X119969D01*
X119897Y219914D01*
X119494Y220887D01*
X118853Y221723D01*
X118017Y222364D01*
X117501Y222578D01*
X117384Y223168D01*
X118994Y224779D01*
X120995D01*
X121400Y224550D01*
Y219850D01*
X121403D01*
Y218853D01*
X121376Y218792D01*
X121365Y218451D01*
X121359Y218384D01*
X121137D01*
Y217862D01*
X121100Y217772D01*
X121124Y217713D01*
X121112Y217650D01*
X121137Y217611D01*
Y215215D01*
X123912D01*
Y217611D01*
X123938Y217650D01*
X123925Y217713D01*
X123950Y217772D01*
X123912Y217862D01*
Y218384D01*
X123692D01*
X123677Y218609D01*
X123674Y218781D01*
X123646Y218846D01*
Y219760D01*
X123736Y219850D01*
X127600D01*
Y220584D01*
X128100Y220725D01*
X129375Y219450D01*
X131000D01*
Y222200D01*
Y223861D01*
X129123Y223163D01*
X129212Y223208D01*
X129273Y223267D01*
X129307Y223340D01*
X129312Y223426D01*
X129290Y223526D01*
X129240Y223640D01*
X129162Y223767D01*
X129056Y223908D01*
X128922Y224063D01*
X128761Y224232D01*
X129762Y224645D01*
X129939Y224475D01*
X130270Y224199D01*
X130424Y224095D01*
X130569Y224012D01*
X130707Y223951D01*
X130836Y223912D01*
X130957Y223895D01*
X131000Y223896D01*
Y224950D01*
X130384D01*
X130373Y224959D01*
X130212Y225113D01*
X130148Y225139D01*
X128593Y226693D01*
X128229Y226936D01*
X127800Y227022D01*
D02*
G37*
G36*
X133625Y224950D02*
X132000D01*
Y222745D01*
X132015Y222751D01*
X132044Y222766D01*
X132064Y222784D01*
X132075Y222804D01*
X132834Y222074D01*
X133592Y222804D01*
X133604Y222784D01*
X133624Y222766D01*
X133653Y222751D01*
X133690Y222737D01*
X133737Y222726D01*
X133792Y222717D01*
X133855Y222709D01*
X133857Y222709D01*
Y223200D01*
X133868Y223105D01*
X133902Y223020D01*
X133959Y222945D01*
X134038Y222880D01*
X134140Y222825D01*
X134264Y222780D01*
X134411Y222745D01*
X134581Y222720D01*
X134773Y222705D01*
X134988Y222700D01*
Y221700D01*
X134773Y221695D01*
X134581Y221680D01*
X134411Y221655D01*
X134264Y221620D01*
X134140Y221575D01*
X134038Y221520D01*
X133959Y221455D01*
X133902Y221380D01*
X133868Y221295D01*
X133857Y221200D01*
Y221720D01*
X133117Y221801D01*
X132834Y222074D01*
X132551Y221801D01*
X132000Y221740D01*
Y219450D01*
X133625D01*
X135000Y220825D01*
Y221051D01*
X135003Y221051D01*
X135066Y221078D01*
X135736D01*
X143254Y213560D01*
X143255Y213553D01*
X143282Y213532D01*
X143323Y213492D01*
X143346Y213430D01*
X143373Y213400D01*
X144254D01*
X144206Y213459D01*
X143821Y213873D01*
X144725Y214383D01*
X144922Y214192D01*
X145000Y214126D01*
Y214986D01*
X136993Y222993D01*
X136629Y223236D01*
X136200Y223322D01*
X136200Y223322D01*
X135066D01*
X135003Y223349D01*
X135000Y223349D01*
Y223575D01*
X133625Y224950D01*
D02*
G37*
G36*
X111000Y222905D02*
X107000D01*
X105956Y222767D01*
X104983Y222364D01*
X104147Y221723D01*
X103506Y220887D01*
X103103Y219914D01*
X103031Y219370D01*
X111000D01*
Y222905D01*
D02*
G37*
G36*
X185984Y223977D02*
X185437Y223868D01*
X184974Y223559D01*
X184665Y223096D01*
X184556Y222550D01*
X184665Y222003D01*
X184730Y221906D01*
X184750Y221592D01*
X184750Y221520D01*
X184778Y221454D01*
Y216329D01*
X184750Y216267D01*
X184746Y216096D01*
X184736Y215968D01*
X184720Y215871D01*
X184718Y215862D01*
X184315D01*
Y215341D01*
X184278Y215250D01*
X184200Y215122D01*
X183835Y215020D01*
X183559Y215055D01*
X182966Y215648D01*
X182941Y215712D01*
X182817Y215843D01*
X182718Y215958D01*
X182635Y216068D01*
X182566Y216173D01*
X182511Y216272D01*
X182469Y216364D01*
X182438Y216450D01*
X182418Y216530D01*
X182406Y216606D01*
X182401Y216712D01*
X182376Y216764D01*
Y219399D01*
X177676D01*
Y213199D01*
X178410D01*
X178551Y212700D01*
X177276Y211424D01*
Y209800D01*
X180026D01*
Y209299D01*
X180526D01*
Y205800D01*
X181401D01*
X182776Y207174D01*
Y208092D01*
X182781Y208092D01*
X182843Y208120D01*
X194908D01*
X194971Y208092D01*
X194976Y208092D01*
Y207275D01*
X196351Y205900D01*
X197226D01*
Y209400D01*
X198226D01*
Y205900D01*
X199101D01*
X200476Y207275D01*
Y208250D01*
X200481Y208250D01*
X200543Y208278D01*
X202070D01*
X202070Y208278D01*
X202500Y208363D01*
X202864Y208607D01*
X203300Y209043D01*
Y209901D01*
X203024Y209646D01*
X202120Y210156D01*
X202328Y210371D01*
X202548Y210629D01*
X201674D01*
X201654Y210608D01*
X201628Y210543D01*
X201606Y210521D01*
X200543D01*
X200481Y210549D01*
X200476Y210549D01*
Y211525D01*
X199201Y212800D01*
X199342Y213299D01*
X200076D01*
Y219499D01*
X195376D01*
Y216185D01*
X195339Y216108D01*
X195334Y215999D01*
X195322Y215920D01*
X195301Y215838D01*
X195271Y215751D01*
X195229Y215659D01*
X195176Y215561D01*
X195108Y215458D01*
X195027Y215350D01*
X194932Y215237D01*
X194810Y215109D01*
X194785Y215045D01*
X193846Y214106D01*
X193384Y214297D01*
Y215218D01*
X193417Y215279D01*
X193407Y215315D01*
X193421Y215351D01*
X193384Y215441D01*
Y215963D01*
X192981D01*
X192979Y215971D01*
X192964Y216068D01*
X192953Y216196D01*
X192949Y216367D01*
X192921Y216429D01*
Y221322D01*
X192949Y221389D01*
X192949Y221473D01*
X192955Y221725D01*
X192958Y221763D01*
X193019Y221854D01*
X193127Y222400D01*
X193019Y222946D01*
X192709Y223409D01*
X192246Y223719D01*
X191700Y223827D01*
X191154Y223719D01*
X190691Y223409D01*
X190381Y222946D01*
X190273Y222400D01*
X190381Y221854D01*
X190637Y221472D01*
X190650Y221291D01*
X190650Y221221D01*
X190671Y221174D01*
X190659Y221123D01*
X190678Y221091D01*
Y216429D01*
X190650Y216367D01*
X190646Y216196D01*
X190636Y216068D01*
X190620Y215971D01*
X190618Y215963D01*
X190215D01*
Y215441D01*
X190178Y215351D01*
X190193Y215315D01*
X190182Y215279D01*
X190215Y215218D01*
Y213188D01*
X191678D01*
X191817Y213024D01*
X191910Y212688D01*
X191832Y212616D01*
X190215D01*
Y210363D01*
X187484D01*
Y212516D01*
X186661D01*
X186629Y212535D01*
X186628Y212535D01*
X186511Y212595D01*
X186808Y213088D01*
X187484D01*
Y215118D01*
X187517Y215179D01*
X187507Y215215D01*
X187521Y215250D01*
X187484Y215341D01*
Y215862D01*
X187081D01*
X187079Y215871D01*
X187064Y215968D01*
X187053Y216096D01*
X187049Y216267D01*
X187021Y216329D01*
Y221261D01*
X187043Y221299D01*
X187032Y221341D01*
X187049Y221381D01*
X187050Y221460D01*
X187055Y221586D01*
X187061Y221642D01*
X187302Y222003D01*
X187411Y222550D01*
X187302Y223096D01*
X186993Y223559D01*
X186530Y223868D01*
X185984Y223977D01*
D02*
G37*
G36*
X119969Y218370D02*
X112000D01*
Y214836D01*
X116000D01*
X117044Y214973D01*
X118017Y215376D01*
X118853Y216017D01*
X119494Y216853D01*
X119897Y217826D01*
X119969Y218370D01*
D02*
G37*
G36*
X111000D02*
X103031D01*
X103103Y217826D01*
X103506Y216853D01*
X104147Y216017D01*
X104983Y215376D01*
X105956Y214973D01*
X107000Y214836D01*
X111000D01*
Y218370D01*
D02*
G37*
G36*
X125500Y214189D02*
X125142Y214181D01*
X121824D01*
X121005Y214018D01*
X120980Y214002D01*
X120749Y213968D01*
X120710Y213945D01*
X120666Y213951D01*
X120331Y213856D01*
X120223Y213771D01*
X120093Y213731D01*
X119958Y213619D01*
X119873Y213458D01*
X119799Y213372D01*
X118193D01*
X117214Y213243D01*
X116302Y212865D01*
X115519Y212264D01*
X114918Y211481D01*
X114633Y210793D01*
X114550Y210773D01*
X114428Y210755D01*
X114274Y210744D01*
X114075Y210739D01*
X114012Y210711D01*
X110090D01*
X110090Y210711D01*
X109661Y210626D01*
X109297Y210383D01*
X106207Y207293D01*
X105964Y206929D01*
X105878Y206500D01*
X105878Y206500D01*
Y185300D01*
X105878Y185300D01*
X105964Y184871D01*
X106207Y184507D01*
X113804Y176910D01*
X113613Y176448D01*
X112000D01*
Y172913D01*
X119969D01*
X119897Y173458D01*
X119494Y174431D01*
X118920Y175178D01*
X119063Y175678D01*
X121264D01*
X121447Y175496D01*
X121470Y175434D01*
X121808Y175069D01*
X121918Y174932D01*
X122001Y174813D01*
X122041Y174743D01*
Y174445D01*
X122022Y174371D01*
X122041Y174339D01*
Y173516D01*
X124816D01*
Y176685D01*
X123945D01*
X123889Y176710D01*
X123836Y176689D01*
X123780Y176704D01*
X123748Y176685D01*
X123557D01*
X123451Y176760D01*
X123108Y177052D01*
X122908Y177246D01*
X122843Y177272D01*
X122796Y177319D01*
X122776Y177345D01*
X122680Y177801D01*
X122703Y177951D01*
X122749Y178043D01*
X123515Y178630D01*
X124180Y179497D01*
X124598Y180507D01*
X124675Y181090D01*
X114073D01*
X114150Y180507D01*
X114195Y180398D01*
X113771Y180115D01*
X110027Y183859D01*
X110310Y184283D01*
X110778Y184089D01*
X111500Y183994D01*
X112222Y184089D01*
X112895Y184368D01*
X113472Y184811D01*
X113916Y185389D01*
X114194Y186062D01*
X114289Y186784D01*
X114194Y187505D01*
X113916Y188178D01*
X113472Y188756D01*
X112895Y189199D01*
X112222Y189478D01*
X111500Y189573D01*
X110778Y189478D01*
X110105Y189199D01*
X109528Y188756D01*
X109084Y188178D01*
X108806Y187505D01*
X108711Y186784D01*
X108806Y186062D01*
X109000Y185593D01*
X108576Y185310D01*
X108122Y185765D01*
Y206035D01*
X110554Y208468D01*
X114012D01*
X114075Y208440D01*
X114274Y208436D01*
X114428Y208424D01*
X114550Y208406D01*
X114633Y208387D01*
X114918Y207699D01*
X115519Y206915D01*
X116302Y206314D01*
X117214Y205937D01*
X118193Y205808D01*
X119513D01*
X119728Y205715D01*
X120113Y205496D01*
X120536Y205206D01*
X121529Y204375D01*
X122076Y203848D01*
X122095Y203840D01*
X122732Y203204D01*
X122446Y202802D01*
X121534Y203180D01*
X120555Y203309D01*
X118193D01*
X117214Y203180D01*
X116302Y202802D01*
X115519Y202201D01*
X114918Y201418D01*
X114540Y200506D01*
X114411Y199527D01*
X114540Y198548D01*
X114918Y197636D01*
X115519Y196853D01*
X116302Y196251D01*
X117214Y195874D01*
X117455Y195842D01*
Y195338D01*
X117214Y195306D01*
X116302Y194928D01*
X115519Y194327D01*
X114918Y193544D01*
X114540Y192632D01*
X114411Y191653D01*
X114540Y190674D01*
X114918Y189762D01*
X115519Y188979D01*
X116302Y188377D01*
X117214Y188000D01*
X118193Y187871D01*
X120555D01*
X121056Y187937D01*
X121095Y187916D01*
X121220Y187951D01*
X121349Y187936D01*
X121498Y187979D01*
X121630Y188012D01*
X122091Y188098D01*
X122225Y188115D01*
X122719Y188148D01*
X122882Y188151D01*
X122947Y188178D01*
X129279D01*
Y184539D01*
Y180602D01*
X133384Y180602D01*
X133540Y180602D01*
X133668Y180569D01*
X133875Y180489D01*
X133941Y180441D01*
X133989Y180375D01*
X134069Y180168D01*
X134102Y180040D01*
X134102Y179884D01*
X134102Y175779D01*
X148098D01*
X148098Y179884D01*
X148098Y180040D01*
X148131Y180168D01*
X148211Y180375D01*
X148259Y180441D01*
X148325Y180489D01*
X148532Y180569D01*
X148660Y180602D01*
X148817Y180602D01*
X152920D01*
Y182571D01*
Y186478D01*
X157525D01*
X157525Y186478D01*
X157954Y186564D01*
X158318Y186807D01*
X159238Y187726D01*
X159738Y187519D01*
Y185415D01*
X162512D01*
Y187811D01*
X162538Y187850D01*
X162525Y187913D01*
X162550Y187972D01*
X162512Y188062D01*
Y188584D01*
X162292D01*
X162277Y188809D01*
X162274Y188981D01*
X162246Y189046D01*
Y189146D01*
X162274Y189208D01*
X162284Y189548D01*
X162291Y189615D01*
X162512D01*
Y190137D01*
X162550Y190227D01*
X162525Y190287D01*
X162538Y190349D01*
X162512Y190389D01*
Y192784D01*
X160652D01*
X160621Y192858D01*
X160599Y193346D01*
X160996Y193716D01*
X161144Y193836D01*
X161258Y193916D01*
X161448D01*
X161480Y193897D01*
X161536Y193911D01*
X161589Y193891D01*
X161645Y193916D01*
X162516D01*
Y194605D01*
X162916Y194881D01*
X163016Y194866D01*
X163069Y194771D01*
X163088Y194739D01*
Y193916D01*
X165863D01*
Y197085D01*
X164992D01*
X164936Y197110D01*
X164882Y197089D01*
X164827Y197104D01*
X164794Y197085D01*
X164604D01*
X164498Y197160D01*
X164155Y197452D01*
X163987Y197615D01*
X163998Y197763D01*
X164128Y198115D01*
X165114D01*
X165175Y198082D01*
X165211Y198093D01*
X165247Y198078D01*
X165337Y198115D01*
X165859D01*
Y198518D01*
X165868Y198520D01*
X165964Y198536D01*
X166092Y198546D01*
X166263Y198550D01*
X166325Y198578D01*
X173836D01*
X176655Y195759D01*
X176680Y195695D01*
X176831Y195537D01*
X176948Y195403D01*
X177037Y195287D01*
X177099Y195193D01*
X177100Y195190D01*
Y194853D01*
X177082Y194779D01*
X177100Y194748D01*
Y194711D01*
X177099Y194699D01*
X177100Y194697D01*
Y192000D01*
X178650Y190450D01*
X181750D01*
X183300Y192000D01*
Y195600D01*
X181750Y197150D01*
X178650D01*
X178204Y197382D01*
X175093Y200493D01*
X174730Y200736D01*
X174300Y200821D01*
X174300Y200821D01*
X166325D01*
X166263Y200849D01*
X166092Y200853D01*
X165964Y200864D01*
X165868Y200879D01*
X165859Y200881D01*
Y201284D01*
X165337D01*
X165247Y201321D01*
X165211Y201307D01*
X165175Y201317D01*
X165114Y201284D01*
X163084D01*
Y199729D01*
X162793Y199522D01*
X162584Y199490D01*
X162512Y199572D01*
Y200511D01*
X162538Y200550D01*
X162525Y200613D01*
X162550Y200672D01*
X162512Y200762D01*
Y201284D01*
X162292D01*
X162277Y201509D01*
X162274Y201681D01*
X162246Y201746D01*
Y201846D01*
X162274Y201908D01*
X162284Y202248D01*
X162291Y202315D01*
X162512D01*
Y202837D01*
X162550Y202927D01*
X162525Y202987D01*
X162538Y203049D01*
X162512Y203089D01*
Y205484D01*
X159738D01*
Y203089D01*
X159712Y203049D01*
X159724Y202987D01*
X159700Y202927D01*
X159738Y202837D01*
Y202315D01*
X159958D01*
X159973Y202090D01*
X159976Y201918D01*
X160003Y201853D01*
Y201753D01*
X159976Y201692D01*
X159965Y201351D01*
X159959Y201284D01*
X159738D01*
Y200762D01*
X159700Y200672D01*
X159724Y200613D01*
X159712Y200550D01*
X159738Y200511D01*
Y198940D01*
X159735Y198937D01*
X159737Y198900D01*
X159716Y198871D01*
X159738Y198746D01*
Y198115D01*
X160126D01*
X160735Y197585D01*
X160548Y197085D01*
X159741D01*
Y196262D01*
X159722Y196229D01*
X159741Y196156D01*
Y195858D01*
X159701Y195788D01*
X159623Y195676D01*
X159354Y195358D01*
X159179Y195176D01*
X159153Y195111D01*
X154732Y190690D01*
X152920D01*
Y194598D01*
X148817Y194598D01*
X148660Y194598D01*
X148532Y194631D01*
X148325Y194711D01*
X148259Y194759D01*
X148211Y194825D01*
X148131Y195032D01*
X148098Y195160D01*
X148098Y195317D01*
Y199420D01*
X145337D01*
X145074Y199920D01*
X145182Y200078D01*
X146272D01*
X146272Y200078D01*
X146701Y200164D01*
X147065Y200407D01*
X148812Y202154D01*
X148819Y202155D01*
X148839Y202182D01*
X148880Y202222D01*
X148942Y202246D01*
X148972Y202273D01*
Y203154D01*
X148913Y203106D01*
X148499Y202721D01*
X147989Y203625D01*
X148179Y203822D01*
X148481Y204179D01*
X148593Y204340D01*
X148678Y204487D01*
X148737Y204622D01*
X148769Y204745D01*
X148775Y204855D01*
X148755Y204953D01*
X148708Y205039D01*
X148972Y204689D01*
Y206384D01*
X147684D01*
Y206303D01*
X147316Y205985D01*
X146317D01*
X146193Y206067D01*
X145569Y206191D01*
X139649D01*
X139412Y206144D01*
X137080D01*
Y202976D01*
X139412D01*
X139649Y202928D01*
X144086D01*
X144206Y202793D01*
X144023Y202247D01*
X143971Y202236D01*
X143607Y201993D01*
X143607Y201993D01*
X142275Y200662D01*
X142032Y200298D01*
X141947Y199869D01*
X141576Y199820D01*
Y199420D01*
X140253D01*
Y199969D01*
X140253Y199969D01*
X140168Y200398D01*
X139925Y200762D01*
X139925Y200762D01*
X138993Y201693D01*
X138629Y201936D01*
X138200Y202022D01*
X138200Y202022D01*
X137782D01*
X137719Y202049D01*
X137489Y202054D01*
X137402Y202061D01*
X137391Y202063D01*
X137385Y202064D01*
X137383Y202064D01*
X137376Y202065D01*
X137146Y202219D01*
X136600Y202327D01*
X136054Y202219D01*
X135591Y201909D01*
X135412Y201641D01*
X134825Y201521D01*
X134169Y202177D01*
X134144Y202241D01*
X133446Y202970D01*
X132918Y203589D01*
X132768Y203788D01*
Y206144D01*
X133168Y206316D01*
Y207151D01*
X133173Y207151D01*
X133235Y207178D01*
X133885D01*
X134002Y207002D01*
X134598Y206604D01*
X134800Y206564D01*
Y208300D01*
Y210036D01*
X134598Y209996D01*
X134002Y209598D01*
X133885Y209421D01*
X133235D01*
X133173Y209449D01*
X133168Y209449D01*
Y210284D01*
X132768Y210456D01*
Y213624D01*
X131609D01*
X131019Y214018D01*
X130200Y214181D01*
X125521D01*
X125500Y214189D01*
D02*
G37*
G36*
X152084Y214688D02*
X150600D01*
Y213400D01*
X152084D01*
Y214688D01*
D02*
G37*
G36*
X135800Y210036D02*
Y208800D01*
X137036D01*
X136996Y209002D01*
X136598Y209598D01*
X136002Y209996D01*
X135800Y210036D01*
D02*
G37*
G36*
X137036Y207800D02*
X135800D01*
Y206564D01*
X136002Y206604D01*
X136598Y207002D01*
X136996Y207598D01*
X137036Y207800D01*
D02*
G37*
G36*
X179526Y208800D02*
X177276D01*
Y207174D01*
X178651Y205800D01*
X179526D01*
Y208800D01*
D02*
G37*
G36*
X155500Y206136D02*
Y204900D01*
X156736D01*
X156696Y205102D01*
X156298Y205698D01*
X155702Y206096D01*
X155500Y206136D01*
D02*
G37*
G36*
X156736Y203900D02*
X155500D01*
Y202664D01*
X155702Y202704D01*
X156298Y203102D01*
X156696Y203698D01*
X156736Y203900D01*
D02*
G37*
G36*
X151259Y206384D02*
X149972D01*
Y204400D01*
Y202416D01*
X151259D01*
Y203251D01*
X151263Y203251D01*
X151326Y203278D01*
X153585D01*
X153702Y203102D01*
X154298Y202704D01*
X154500Y202664D01*
Y204400D01*
Y206136D01*
X154298Y206096D01*
X153702Y205698D01*
X153585Y205521D01*
X151326D01*
X151263Y205549D01*
X151259Y205549D01*
Y206384D01*
D02*
G37*
G36*
X111500Y207289D02*
X110778Y207194D01*
X110105Y206915D01*
X109528Y206472D01*
X109084Y205895D01*
X108806Y205222D01*
X108711Y204500D01*
X108806Y203778D01*
X109084Y203105D01*
X109528Y202528D01*
X110105Y202084D01*
X110778Y201806D01*
X111500Y201711D01*
X112222Y201806D01*
X112895Y202084D01*
X113472Y202528D01*
X113916Y203105D01*
X114194Y203778D01*
X114289Y204500D01*
X114194Y205222D01*
X113916Y205895D01*
X113472Y206472D01*
X112895Y206915D01*
X112222Y207194D01*
X111500Y207289D01*
D02*
G37*
G36*
X201400Y197300D02*
X195200D01*
Y190600D01*
X197117D01*
X197119Y190592D01*
X197135Y190495D01*
X197146Y190367D01*
X197151Y190195D01*
X197178Y190133D01*
Y188640D01*
X191995Y183457D01*
X191934Y183434D01*
X191602Y183127D01*
X191457Y183249D01*
X191275Y183425D01*
X191210Y183450D01*
X187668Y186993D01*
X187304Y187236D01*
X186875Y187322D01*
X186875Y187322D01*
X177365D01*
X172693Y191993D01*
X172329Y192236D01*
X171900Y192321D01*
X171900Y192321D01*
X166325D01*
X166263Y192349D01*
X166092Y192353D01*
X165964Y192364D01*
X165868Y192379D01*
X165859Y192381D01*
Y192784D01*
X165337D01*
X165247Y192821D01*
X165211Y192807D01*
X165175Y192817D01*
X165114Y192784D01*
X163084D01*
Y189615D01*
X165114D01*
X165175Y189582D01*
X165211Y189593D01*
X165247Y189578D01*
X165337Y189615D01*
X165859D01*
Y190018D01*
X165868Y190020D01*
X165964Y190035D01*
X166092Y190046D01*
X166263Y190050D01*
X166325Y190078D01*
X171436D01*
X176107Y185407D01*
X176107Y185407D01*
X176471Y185164D01*
X176900Y185078D01*
X176900Y185078D01*
X186410D01*
X189354Y182135D01*
X189355Y182128D01*
X189381Y182107D01*
X189422Y182067D01*
X189445Y182004D01*
X189816Y181607D01*
X189935Y181460D01*
X190015Y181346D01*
Y181156D01*
X189996Y181123D01*
X190011Y181068D01*
X189990Y181015D01*
X190015Y180958D01*
Y180088D01*
X193184D01*
Y180958D01*
X193209Y181015D01*
X193189Y181068D01*
X193203Y181123D01*
X193184Y181156D01*
Y181346D01*
X193259Y181453D01*
X193552Y181795D01*
X193746Y181996D01*
X193771Y182061D01*
X193818Y182107D01*
X193845Y182128D01*
X193845Y182135D01*
X199093Y187382D01*
X199093Y187382D01*
X199336Y187746D01*
X199422Y188175D01*
Y190133D01*
X199449Y190195D01*
X199454Y190367D01*
X199465Y190495D01*
X199481Y190592D01*
X199483Y190600D01*
X201400D01*
Y197300D01*
D02*
G37*
G36*
X120555Y185775D02*
X119874D01*
Y182090D01*
X124675D01*
X124598Y182673D01*
X124180Y183683D01*
X123515Y184549D01*
X122648Y185214D01*
X121638Y185633D01*
X120555Y185775D01*
D02*
G37*
G36*
X118874D02*
X118193D01*
X117110Y185633D01*
X116100Y185214D01*
X115233Y184549D01*
X114568Y183683D01*
X114150Y182673D01*
X114073Y182090D01*
X118874D01*
Y185775D01*
D02*
G37*
G36*
X165859Y188584D02*
X163084D01*
Y186189D01*
X163058Y186149D01*
X163071Y186087D01*
X163047Y186027D01*
X163084Y185937D01*
Y185415D01*
X163304D01*
X163320Y185190D01*
X163322Y185018D01*
X163350Y184953D01*
Y182964D01*
X163322Y182901D01*
X163320Y182800D01*
X161625D01*
X160450Y181625D01*
Y177775D01*
X161625Y176600D01*
X163975D01*
X165150Y177775D01*
Y180464D01*
X165264Y180578D01*
X165264Y180578D01*
X165507Y180942D01*
X165593Y181371D01*
X165593Y181371D01*
Y181777D01*
X165614Y182055D01*
X165608Y182075D01*
X165616Y182095D01*
X165621Y182376D01*
X165593Y182446D01*
Y184946D01*
X165621Y185008D01*
X165631Y185348D01*
X165637Y185415D01*
X165859D01*
Y185937D01*
X165896Y186027D01*
X165872Y186087D01*
X165885Y186149D01*
X165859Y186189D01*
Y188584D01*
D02*
G37*
G36*
X111000Y176448D02*
X107000D01*
X105956Y176310D01*
X104983Y175907D01*
X104147Y175266D01*
X103506Y174431D01*
X103103Y173458D01*
X103031Y172913D01*
X111000D01*
Y176448D01*
D02*
G37*
G36*
X125100Y172450D02*
X123475D01*
X122100Y171075D01*
Y170200D01*
X125100D01*
Y172450D01*
D02*
G37*
G36*
X119969Y171913D02*
X112000D01*
Y168379D01*
X116000D01*
X117044Y168516D01*
X118017Y168919D01*
X118853Y169561D01*
X119494Y170396D01*
X119897Y171369D01*
X119969Y171913D01*
D02*
G37*
G36*
X111000D02*
X103031D01*
X103103Y171369D01*
X103506Y170396D01*
X104147Y169561D01*
X104983Y168919D01*
X105956Y168516D01*
X107000Y168379D01*
X111000D01*
Y171913D01*
D02*
G37*
G36*
X127497Y176720D02*
X127428Y176685D01*
X125388D01*
Y173516D01*
X126856D01*
X126906Y173508D01*
X126918Y173516D01*
X127089D01*
X127134Y173484D01*
X127501Y173167D01*
X127720Y172955D01*
X127570Y172476D01*
X127557Y172450D01*
X126100D01*
Y169700D01*
Y166950D01*
X127725D01*
X129000Y168225D01*
X129500Y168084D01*
Y167350D01*
X135700D01*
Y172050D01*
X132386D01*
X132309Y172087D01*
X132199Y172092D01*
X132121Y172104D01*
X132038Y172124D01*
X131951Y172155D01*
X131859Y172196D01*
X131762Y172250D01*
X131658Y172317D01*
X131550Y172398D01*
X131438Y172494D01*
X131309Y172616D01*
X131246Y172640D01*
X129103Y174783D01*
X129077Y174848D01*
X128888Y175044D01*
X128574Y175403D01*
X128460Y175553D01*
X128365Y175692D01*
X128294Y175814D01*
X128245Y175916D01*
X128217Y175994D01*
X128204Y176046D01*
X128198Y176126D01*
X128163Y176195D01*
Y176685D01*
X127607D01*
X127497Y176720D01*
D02*
G37*
G36*
X125100Y169200D02*
X122100D01*
Y168325D01*
X123475Y166950D01*
X125100D01*
Y169200D01*
D02*
G37*
%LPD*%
G36*
X115787Y222443D02*
X115687Y222321D01*
X115615Y222213D01*
X115571Y222119D01*
X115557Y222040D01*
X115571Y221976D01*
X115615Y221925D01*
X115687Y221889D01*
X115787Y221868D01*
X115917Y221861D01*
X113088D01*
X113227Y221868D01*
X113367Y221889D01*
X113507Y221925D01*
X113648Y221976D01*
X113789Y222040D01*
X113931Y222119D01*
X114073Y222213D01*
X114216Y222321D01*
X114359Y222443D01*
X114503Y222580D01*
X115917D01*
X115787Y222443D01*
D02*
G37*
G36*
X123028Y218582D02*
X123050Y218262D01*
X123069Y218132D01*
X123094Y218022D01*
X123124Y217932D01*
X123160Y217862D01*
X123201Y217812D01*
X123248Y217782D01*
X123300Y217772D01*
X121749D01*
X121802Y217782D01*
X121849Y217812D01*
X121890Y217862D01*
X121926Y217932D01*
X121956Y218022D01*
X121981Y218132D01*
X122000Y218262D01*
X122014Y218412D01*
X122025Y218772D01*
X123025D01*
X123028Y218582D01*
D02*
G37*
G36*
X186480Y221923D02*
X186465Y221906D01*
X186451Y221881D01*
X186439Y221848D01*
X186429Y221806D01*
X186420Y221757D01*
X186407Y221633D01*
X186400Y221477D01*
X186400Y221386D01*
X185400Y221523D01*
X185399Y221614D01*
X185373Y222028D01*
X185367Y222040D01*
X186480Y221923D01*
D02*
G37*
G36*
X192322Y221892D02*
X192317Y221871D01*
X192313Y221842D01*
X192306Y221758D01*
X192300Y221482D01*
X192300Y221391D01*
X191300Y221227D01*
X191299Y221318D01*
X191279Y221597D01*
X191269Y221647D01*
X191259Y221688D01*
X191246Y221721D01*
X191232Y221746D01*
X191216Y221763D01*
X192327Y221903D01*
X192322Y221892D01*
D02*
G37*
G36*
X192304Y216160D02*
X192319Y215990D01*
X192342Y215841D01*
X192375Y215710D01*
X192418Y215600D01*
X192470Y215511D01*
X192531Y215441D01*
X192602Y215390D01*
X192682Y215360D01*
X192772Y215351D01*
X190827D01*
X190917Y215360D01*
X190997Y215390D01*
X191068Y215441D01*
X191130Y215511D01*
X191182Y215600D01*
X191224Y215710D01*
X191257Y215841D01*
X191281Y215990D01*
X191295Y216160D01*
X191300Y216351D01*
X192300D01*
X192304Y216160D01*
D02*
G37*
G36*
X186404Y216060D02*
X186419Y215891D01*
X186442Y215740D01*
X186475Y215611D01*
X186518Y215500D01*
X186570Y215410D01*
X186631Y215340D01*
X186702Y215290D01*
X186782Y215261D01*
X186872Y215250D01*
X184927D01*
X185017Y215261D01*
X185097Y215290D01*
X185168Y215340D01*
X185230Y215410D01*
X185282Y215500D01*
X185324Y215611D01*
X185357Y215740D01*
X185381Y215891D01*
X185395Y216060D01*
X185400Y216250D01*
X186400D01*
X186404Y216060D01*
D02*
G37*
G36*
X195988Y213912D02*
X195981Y213913D01*
X195959Y213899D01*
X195924Y213870D01*
X195733Y213693D01*
X195281Y213247D01*
Y214662D01*
X195415Y214803D01*
X195535Y214944D01*
X195641Y215086D01*
X195733Y215227D01*
X195811Y215369D01*
X195875Y215510D01*
X195924Y215651D01*
X195959Y215793D01*
X195981Y215934D01*
X195988Y216076D01*
Y213912D01*
D02*
G37*
G36*
X181759Y216539D02*
X181781Y216400D01*
X181817Y216259D01*
X181867Y216119D01*
X181932Y215978D01*
X182011Y215836D01*
X182104Y215694D01*
X182212Y215551D01*
X182334Y215408D01*
X182471Y215264D01*
Y213850D01*
X182334Y213980D01*
X182212Y214080D01*
X182104Y214152D01*
X182011Y214195D01*
X181932Y214210D01*
X181867Y214195D01*
X181817Y214152D01*
X181781Y214080D01*
X181759Y213980D01*
X181752Y213850D01*
Y216679D01*
X181759Y216539D01*
D02*
G37*
G36*
X193833Y211799D02*
X193631Y211595D01*
X192942Y210806D01*
X192867Y210694D01*
X192814Y210598D01*
X192782Y210518D01*
X192772Y210453D01*
X191916Y211992D01*
X191975Y211919D01*
X192052Y211878D01*
X192148Y211869D01*
X192262Y211893D01*
X192394Y211948D01*
X192544Y212037D01*
X192713Y212157D01*
X192901Y212309D01*
X193330Y212711D01*
X193833Y211799D01*
D02*
G37*
G36*
X185322Y212421D02*
X185679Y212119D01*
X185839Y212007D01*
X185987Y211923D01*
X186122Y211864D01*
X186245Y211831D01*
X186355Y211825D01*
X186453Y211845D01*
X186539Y211892D01*
X184939Y210687D01*
X185004Y210755D01*
X185038Y210839D01*
X185041Y210940D01*
X185015Y211056D01*
X184958Y211190D01*
X184871Y211339D01*
X184754Y211505D01*
X184606Y211687D01*
X184220Y212101D01*
X185124Y212611D01*
X185322Y212421D01*
D02*
G37*
G36*
X180613Y209790D02*
X180637Y209780D01*
X180670Y209771D01*
X180711Y209763D01*
X180760Y209756D01*
X180883Y209747D01*
X181130Y209741D01*
Y208741D01*
X181040Y208741D01*
X180711Y208720D01*
X180670Y208712D01*
X180637Y208703D01*
X180613Y208693D01*
X180597Y208681D01*
Y209801D01*
X180613Y209790D01*
D02*
G37*
G36*
X199462Y210304D02*
X199492Y210220D01*
X199543Y210144D01*
X199613Y210080D01*
X199705Y210024D01*
X199816Y209980D01*
X199948Y209945D01*
X200099Y209920D01*
X200271Y209905D01*
X200464Y209899D01*
Y208899D01*
X200271Y208894D01*
X200099Y208879D01*
X199948Y208855D01*
X199816Y208820D01*
X199705Y208774D01*
X199613Y208719D01*
X199543Y208654D01*
X199492Y208579D01*
X199462Y208494D01*
X199452Y208400D01*
Y210400D01*
X199462Y210304D01*
D02*
G37*
G36*
X196000Y208241D02*
X195990Y208336D01*
X195959Y208421D01*
X195908Y208496D01*
X195838Y208561D01*
X195747Y208616D01*
X195635Y208661D01*
X195504Y208696D01*
X195352Y208721D01*
X195180Y208736D01*
X194988Y208741D01*
Y209741D01*
X195180Y209746D01*
X195352Y209761D01*
X195504Y209786D01*
X195635Y209821D01*
X195747Y209866D01*
X195838Y209921D01*
X195908Y209986D01*
X195959Y210061D01*
X195990Y210146D01*
X196000Y210241D01*
Y208241D01*
D02*
G37*
G36*
X181762Y210146D02*
X181792Y210061D01*
X181843Y209986D01*
X181914Y209921D01*
X182005Y209866D01*
X182116Y209821D01*
X182248Y209786D01*
X182400Y209761D01*
X182572Y209746D01*
X182764Y209741D01*
Y208741D01*
X182572Y208736D01*
X182400Y208721D01*
X182248Y208696D01*
X182116Y208661D01*
X182005Y208616D01*
X181914Y208561D01*
X181843Y208496D01*
X181792Y208421D01*
X181762Y208336D01*
X181752Y208241D01*
Y210241D01*
X181762Y210146D01*
D02*
G37*
G36*
X118314Y208528D02*
X118179Y208635D01*
X118000Y208731D01*
X117776Y208815D01*
X117508Y208888D01*
X117194Y208949D01*
X116837Y209000D01*
X115988Y209067D01*
X115229Y209084D01*
Y208593D01*
X115218Y208688D01*
X115183Y208772D01*
X115126Y208846D01*
X115047Y208911D01*
X114944Y208966D01*
X114819Y209010D01*
X114671Y209045D01*
X114500Y209070D01*
X114306Y209085D01*
X114089Y209090D01*
Y210090D01*
X114306Y210095D01*
X114500Y210110D01*
X114671Y210135D01*
X114819Y210169D01*
X114944Y210214D01*
X115047Y210268D01*
X115126Y210333D01*
X115183Y210407D01*
X115218Y210492D01*
X115229Y210586D01*
Y210093D01*
X115496Y210095D01*
X117194Y210230D01*
X117508Y210292D01*
X117776Y210365D01*
X118000Y210449D01*
X118179Y210544D01*
X118314Y210651D01*
Y208528D01*
D02*
G37*
G36*
X126546Y210540D02*
X125811Y210525D01*
X124637Y210405D01*
X124199Y210300D01*
X123859Y210166D01*
X123618Y210001D01*
X123476Y209806D01*
X123432Y209581D01*
X123475Y209387D01*
X123688Y209508D01*
X123483Y209349D01*
X123488Y209326D01*
X123642Y209041D01*
X123453Y209320D01*
X123322Y209114D01*
X123269Y208850D01*
X123302Y208542D01*
X123423Y208190D01*
X123629Y207793D01*
X123923Y207352D01*
X124303Y206867D01*
X124769Y206337D01*
X125322Y205763D01*
X122527Y204316D01*
X121963Y204858D01*
X120929Y205724D01*
X120458Y206047D01*
X120018Y206297D01*
X119609Y206474D01*
X119232Y206577D01*
X118885Y206608D01*
X118569Y206565D01*
X118284Y206449D01*
X123426Y209360D01*
X121170Y212682D01*
X120704Y212845D01*
X120439Y212991D01*
X120373Y213120D01*
X120507Y213231D01*
X120842Y213326D01*
X121376Y213403D01*
X122111Y213463D01*
X125515Y213540D01*
X126546Y210540D01*
D02*
G37*
G36*
X134729Y207740D02*
X134713Y207751D01*
X134688Y207762D01*
X134656Y207771D01*
X134615Y207778D01*
X134566Y207785D01*
X134443Y207795D01*
X134195Y207800D01*
Y208800D01*
X134286Y208801D01*
X134615Y208822D01*
X134656Y208829D01*
X134688Y208838D01*
X134713Y208849D01*
X134729Y208860D01*
Y207740D01*
D02*
G37*
G36*
X132167Y209183D02*
X132196Y209102D01*
X132246Y209031D01*
X132317Y208970D01*
X132406Y208918D01*
X132517Y208876D01*
X132647Y208842D01*
X132797Y208819D01*
X132966Y208805D01*
X133157Y208800D01*
Y207800D01*
X132966Y207795D01*
X132797Y207781D01*
X132647Y207757D01*
X132517Y207724D01*
X132406Y207682D01*
X132317Y207630D01*
X132246Y207569D01*
X132196Y207498D01*
X132167Y207417D01*
X132157Y207328D01*
Y209272D01*
X132167Y209183D01*
D02*
G37*
G36*
X131720Y204390D02*
X131779Y204196D01*
X131878Y203978D01*
X132016Y203736D01*
X132116Y203588D01*
X132157Y203588D01*
X132161Y203531D01*
X132164Y203516D01*
X132194Y203471D01*
X132411Y203183D01*
X132964Y202535D01*
X133675Y201792D01*
X132968Y201085D01*
X132585Y201460D01*
X131288Y202566D01*
X131023Y202744D01*
X130782Y202882D01*
X130564Y202981D01*
X130370Y203040D01*
X130199Y203060D01*
X130523Y203383D01*
X130461Y203418D01*
X130320Y203483D01*
X130179Y203533D01*
X130038Y203570D01*
X129898Y203592D01*
X129758Y203600D01*
X130734Y203595D01*
X131700Y204561D01*
X131720Y204390D01*
D02*
G37*
G36*
X161848Y202917D02*
X161801Y202887D01*
X161760Y202837D01*
X161724Y202767D01*
X161694Y202677D01*
X161669Y202567D01*
X161650Y202437D01*
X161636Y202287D01*
X161625Y201927D01*
X160625D01*
X160622Y202117D01*
X160600Y202437D01*
X160581Y202567D01*
X160556Y202677D01*
X160526Y202767D01*
X160490Y202837D01*
X160449Y202887D01*
X160402Y202917D01*
X160350Y202927D01*
X161900D01*
X161848Y202917D01*
D02*
G37*
G36*
X161628Y201482D02*
X161650Y201162D01*
X161669Y201032D01*
X161694Y200922D01*
X161724Y200832D01*
X161760Y200762D01*
X161801Y200712D01*
X161848Y200682D01*
X161900Y200672D01*
X160350D01*
X160402Y200682D01*
X160449Y200712D01*
X160490Y200762D01*
X160526Y200832D01*
X160556Y200922D01*
X160581Y201032D01*
X160600Y201162D01*
X160614Y201312D01*
X160625Y201672D01*
X161625D01*
X161628Y201482D01*
D02*
G37*
G36*
X137187Y201449D02*
X137212Y201438D01*
X137244Y201429D01*
X137285Y201422D01*
X137334Y201415D01*
X137457Y201405D01*
X137705Y201400D01*
Y200400D01*
X137614Y200399D01*
X137285Y200378D01*
X137244Y200371D01*
X137212Y200362D01*
X137187Y200351D01*
X137171Y200340D01*
Y201460D01*
X137187Y201449D01*
D02*
G37*
G36*
X130029Y200340D02*
X130013Y200351D01*
X129989Y200362D01*
X129956Y200371D01*
X129915Y200378D01*
X129866Y200385D01*
X129743Y200395D01*
X129496Y200400D01*
Y201400D01*
X129586Y201401D01*
X129915Y201422D01*
X129956Y201429D01*
X129989Y201438D01*
X130013Y201449D01*
X130029Y201460D01*
Y200340D01*
D02*
G37*
G36*
X122663Y201798D02*
X122744Y201714D01*
X122844Y201641D01*
X122963Y201577D01*
X123101Y201523D01*
X123258Y201479D01*
X123434Y201444D01*
X123629Y201420D01*
X123843Y201405D01*
X124077Y201400D01*
X124569Y200400D01*
X124348Y200395D01*
X124156Y200380D01*
X123993Y200355D01*
X123859Y200320D01*
X123754Y200275D01*
X123677Y200220D01*
X123629Y200154D01*
X123610Y200079D01*
X123620Y199994D01*
X123659Y199899D01*
X122601Y201891D01*
X122663Y201798D01*
D02*
G37*
G36*
X165257Y200582D02*
X165287Y200502D01*
X165337Y200431D01*
X165407Y200370D01*
X165497Y200318D01*
X165607Y200275D01*
X165737Y200242D01*
X165887Y200219D01*
X166057Y200204D01*
X166247Y200200D01*
Y199200D01*
X166057Y199195D01*
X165887Y199181D01*
X165737Y199157D01*
X165607Y199124D01*
X165497Y199082D01*
X165407Y199030D01*
X165337Y198968D01*
X165287Y198897D01*
X165257Y198817D01*
X165247Y198727D01*
Y200672D01*
X165257Y200582D01*
D02*
G37*
G36*
X161822Y199433D02*
X161777Y199358D01*
X161765Y199264D01*
X161786Y199151D01*
X161840Y199019D01*
X161927Y198868D01*
X162048Y198699D01*
X162201Y198510D01*
X162607Y198075D01*
X161602Y197667D01*
X161398Y197868D01*
X160461Y198685D01*
X160397Y198717D01*
X160350Y198727D01*
X161900Y199489D01*
X161822Y199433D01*
D02*
G37*
G36*
X134714Y195486D02*
X134622Y195484D01*
X134534Y195477D01*
X134452Y195465D01*
X134374Y195449D01*
X134301Y195428D01*
X134232Y195402D01*
X134169Y195372D01*
X134110Y195337D01*
X134056Y195297D01*
X134007Y195253D01*
Y196667D01*
X134143Y196810D01*
X134265Y196953D01*
X134373Y197095D01*
X134466Y197237D01*
X134545Y197379D01*
X134610Y197520D01*
X134660Y197661D01*
X134697Y197801D01*
X134719Y197942D01*
X134726Y198081D01*
X134714Y195486D01*
D02*
G37*
G36*
X178004Y196710D02*
X178144Y196591D01*
X178274Y196497D01*
X178395Y196425D01*
X178507Y196377D01*
X178609Y196353D01*
X178702Y196352D01*
X178785Y196374D01*
X178860Y196420D01*
X178925Y196490D01*
X177724Y194874D01*
X177772Y194958D01*
X177796Y195052D01*
X177797Y195156D01*
X177774Y195268D01*
X177728Y195391D01*
X177659Y195523D01*
X177566Y195664D01*
X177450Y195815D01*
X177311Y195975D01*
X177148Y196145D01*
X177855Y196852D01*
X178004Y196710D01*
D02*
G37*
G36*
X163718Y196972D02*
X164099Y196646D01*
X164265Y196529D01*
X164414Y196442D01*
X164547Y196385D01*
X164664Y196359D01*
X164765Y196362D01*
X164849Y196396D01*
X164917Y196461D01*
X163712Y194861D01*
X163758Y194947D01*
X163779Y195045D01*
X163772Y195155D01*
X163740Y195278D01*
X163681Y195413D01*
X163596Y195561D01*
X163485Y195721D01*
X163347Y195893D01*
X162993Y196276D01*
X163503Y197180D01*
X163718Y196972D01*
D02*
G37*
G36*
X161571Y194540D02*
X161503Y194604D01*
X161418Y194638D01*
X161318Y194642D01*
X161201Y194615D01*
X161068Y194559D01*
X160918Y194471D01*
X160752Y194354D01*
X160570Y194207D01*
X160156Y193821D01*
X159646Y194725D01*
X159837Y194922D01*
X160138Y195280D01*
X160250Y195440D01*
X160335Y195587D01*
X160394Y195723D01*
X160426Y195845D01*
X160432Y195956D01*
X160412Y196054D01*
X160365Y196139D01*
X161571Y194540D01*
D02*
G37*
G36*
X133403Y194644D02*
X133363Y194590D01*
X133328Y194531D01*
X133298Y194468D01*
X133272Y194399D01*
X133251Y194326D01*
X133235Y194248D01*
X133223Y194166D01*
X133216Y194078D01*
X133214Y193986D01*
X130619Y193974D01*
X130759Y193981D01*
X130899Y194003D01*
X131039Y194040D01*
X131180Y194090D01*
X131321Y194155D01*
X131463Y194234D01*
X131605Y194327D01*
X131747Y194435D01*
X131890Y194557D01*
X132033Y194693D01*
X133447D01*
X133403Y194644D01*
D02*
G37*
G36*
X127679Y195245D02*
X127652Y195169D01*
X127652Y195076D01*
X127682Y194967D01*
X127739Y194842D01*
X127825Y194701D01*
X127940Y194544D01*
X128083Y194370D01*
X128454Y193974D01*
X127550Y193464D01*
X127361Y193647D01*
X127019Y193940D01*
X126867Y194049D01*
X126728Y194133D01*
X126601Y194193D01*
X126487Y194228D01*
X126385Y194238D01*
X126296Y194223D01*
X126219Y194183D01*
X127735Y195305D01*
X127679Y195245D01*
D02*
G37*
G36*
X143573Y193879D02*
X143613Y193500D01*
X143647Y193343D01*
X143691Y193210D01*
X143746Y193098D01*
X143809Y193009D01*
X143883Y192943D01*
X143967Y192899D01*
X144060Y192877D01*
X142069Y193091D01*
X142164Y193091D01*
X142248Y193114D01*
X142324Y193159D01*
X142388Y193227D01*
X142444Y193317D01*
X142489Y193429D01*
X142524Y193564D01*
X142549Y193721D01*
X142563Y193901D01*
X142569Y194103D01*
X143569D01*
X143573Y193879D01*
D02*
G37*
G36*
X127757Y192311D02*
X127787Y192254D01*
X127837Y192203D01*
X127907Y192159D01*
X127997Y192122D01*
X128107Y192091D01*
X128237Y192068D01*
X128387Y192051D01*
X128557Y192040D01*
X128747Y192037D01*
Y191037D01*
X128557Y191035D01*
X128107Y191003D01*
X127997Y190984D01*
X127907Y190961D01*
X127837Y190933D01*
X127787Y190901D01*
X127757Y190865D01*
X127747Y190825D01*
Y192375D01*
X127757Y192311D01*
D02*
G37*
G36*
X161567Y190239D02*
X161499Y190304D01*
X161415Y190338D01*
X161314Y190341D01*
X161197Y190315D01*
X161064Y190258D01*
X161012Y190227D01*
X161900D01*
X161848Y190217D01*
X161801Y190187D01*
X161760Y190137D01*
X161724Y190067D01*
X161694Y189977D01*
X161669Y189867D01*
X161650Y189737D01*
X161636Y189587D01*
X161625Y189227D01*
X160625D01*
X160622Y189417D01*
X160600Y189737D01*
X160581Y189867D01*
X160571Y189910D01*
X160566Y189906D01*
X160153Y189520D01*
X159642Y190424D01*
X159833Y190622D01*
X160135Y190979D01*
X160246Y191139D01*
X160331Y191287D01*
X160390Y191422D01*
X160422Y191545D01*
X160428Y191655D01*
X160408Y191753D01*
X160362Y191839D01*
X161567Y190239D01*
D02*
G37*
G36*
X123271Y190210D02*
X123203Y190124D01*
X123175Y190048D01*
X123186Y189982D01*
X123238Y189926D01*
X123329Y189881D01*
X123460Y189846D01*
X123632Y189820D01*
X123843Y189805D01*
X124094Y189800D01*
X122874Y188800D01*
X122692Y188798D01*
X122162Y188762D01*
X121991Y188740D01*
X121491Y188647D01*
X121329Y188606D01*
X121170Y188560D01*
X123379Y190306D01*
X123271Y190210D01*
D02*
G37*
G36*
X147655Y194874D02*
X147811Y194874D01*
X147939Y194841D01*
X148147Y194760D01*
X148213Y194713D01*
X148260Y194647D01*
X148340Y194439D01*
X148374Y194311D01*
X148374Y194155D01*
Y192413D01*
Y188476D01*
Y184539D01*
X148374Y181045D01*
X148374Y180889D01*
X148340Y180761D01*
X148260Y180553D01*
X148213Y180487D01*
X148147Y180440D01*
X147939Y180359D01*
X147811Y180326D01*
X147655Y180326D01*
X134545Y180326D01*
X134389Y180326D01*
X134261Y180359D01*
X134053Y180440D01*
X133987Y180487D01*
X133940Y180553D01*
X133860Y180761D01*
X133826Y180889D01*
X133826Y181045D01*
Y184539D01*
Y187883D01*
X134105Y188023D01*
X134585Y187728D01*
Y184343D01*
X137843Y181085D01*
X140600D01*
Y187600D01*
X141100D01*
Y188100D01*
X141408D01*
X141108Y188400D01*
X141127Y188403D01*
X141152Y188413D01*
X141181Y188430D01*
X141215Y188453D01*
X141255Y188483D01*
X141349Y188564D01*
X141527Y188734D01*
X142162Y188100D01*
X147615D01*
Y190857D01*
X144498Y193974D01*
X144561Y194474D01*
X144860Y194874D01*
X147655Y194874D01*
D02*
G37*
G36*
X161628Y188782D02*
X161650Y188462D01*
X161669Y188332D01*
X161694Y188222D01*
X161724Y188132D01*
X161760Y188062D01*
X161801Y188012D01*
X161848Y187982D01*
X161900Y187972D01*
X160350D01*
X160402Y187982D01*
X160449Y188012D01*
X160490Y188062D01*
X160526Y188132D01*
X160556Y188222D01*
X160581Y188332D01*
X160600Y188462D01*
X160614Y188612D01*
X160625Y188972D01*
X161625D01*
X161628Y188782D01*
D02*
G37*
G36*
X122671Y176572D02*
X123052Y176247D01*
X123218Y176129D01*
X123368Y176042D01*
X123501Y175985D01*
X123618Y175959D01*
X123719Y175962D01*
X123803Y175996D01*
X123871Y176061D01*
X122665Y174461D01*
X122712Y174547D01*
X122732Y174645D01*
X122726Y174755D01*
X122694Y174878D01*
X122635Y175013D01*
X122550Y175161D01*
X122438Y175321D01*
X122301Y175493D01*
X121946Y175876D01*
X122456Y176780D01*
X122671Y176572D01*
D02*
G37*
%LPC*%
G36*
X147615Y187100D02*
X141600D01*
Y181085D01*
X144357D01*
X147615Y184343D01*
Y187100D01*
D02*
G37*
%LPD*%
G36*
X154429Y203840D02*
X154413Y203851D01*
X154388Y203862D01*
X154356Y203871D01*
X154315Y203878D01*
X154266Y203885D01*
X154143Y203895D01*
X153895Y203900D01*
Y204900D01*
X153986Y204901D01*
X154315Y204922D01*
X154356Y204929D01*
X154388Y204938D01*
X154413Y204949D01*
X154429Y204960D01*
Y203840D01*
D02*
G37*
G36*
X150257Y205282D02*
X150287Y205202D01*
X150337Y205131D01*
X150407Y205070D01*
X150497Y205018D01*
X150607Y204976D01*
X150737Y204942D01*
X150887Y204919D01*
X151057Y204905D01*
X151247Y204900D01*
Y203900D01*
X151057Y203895D01*
X150887Y203881D01*
X150737Y203857D01*
X150607Y203824D01*
X150497Y203782D01*
X150407Y203730D01*
X150337Y203669D01*
X150287Y203598D01*
X150257Y203518D01*
X150247Y203428D01*
Y205372D01*
X150257Y205282D01*
D02*
G37*
G36*
X165257Y192082D02*
X165287Y192002D01*
X165337Y191931D01*
X165407Y191870D01*
X165497Y191818D01*
X165607Y191775D01*
X165737Y191742D01*
X165887Y191719D01*
X166057Y191704D01*
X166247Y191700D01*
Y190700D01*
X166057Y190695D01*
X165887Y190681D01*
X165737Y190657D01*
X165607Y190624D01*
X165497Y190582D01*
X165407Y190530D01*
X165337Y190468D01*
X165287Y190397D01*
X165257Y190317D01*
X165247Y190227D01*
Y192172D01*
X165257Y192082D01*
D02*
G37*
G36*
X199205Y191214D02*
X199120Y191183D01*
X199045Y191133D01*
X198980Y191062D01*
X198925Y190971D01*
X198880Y190860D01*
X198845Y190728D01*
X198820Y190576D01*
X198805Y190404D01*
X198800Y190212D01*
X197800D01*
X197795Y190404D01*
X197780Y190576D01*
X197755Y190728D01*
X197720Y190860D01*
X197675Y190971D01*
X197620Y191062D01*
X197555Y191133D01*
X197480Y191183D01*
X197395Y191214D01*
X197300Y191224D01*
X199300D01*
X199205Y191214D01*
D02*
G37*
G36*
X193279Y182447D02*
X193071Y182232D01*
X192746Y181852D01*
X192629Y181686D01*
X192542Y181536D01*
X192485Y181403D01*
X192458Y181286D01*
X192462Y181185D01*
X192496Y181101D01*
X192560Y181033D01*
X191600Y181757D01*
X190639Y181033D01*
X190704Y181101D01*
X190737Y181185D01*
X190741Y181286D01*
X190715Y181403D01*
X190658Y181536D01*
X190571Y181686D01*
X190454Y181852D01*
X190306Y182034D01*
X189920Y182447D01*
X190824Y182958D01*
X191022Y182767D01*
X191379Y182465D01*
X191539Y182354D01*
X191600Y182319D01*
X191660Y182354D01*
X191820Y182465D01*
X191993Y182603D01*
X192375Y182958D01*
X193279Y182447D01*
D02*
G37*
G36*
X165194Y186017D02*
X165148Y185987D01*
X165106Y185937D01*
X165070Y185867D01*
X165040Y185777D01*
X165015Y185667D01*
X164996Y185537D01*
X164982Y185387D01*
X164971Y185027D01*
X163971D01*
X163969Y185217D01*
X163946Y185537D01*
X163927Y185667D01*
X163902Y185777D01*
X163872Y185867D01*
X163836Y185937D01*
X163795Y185987D01*
X163748Y186017D01*
X163696Y186027D01*
X165247D01*
X165194Y186017D01*
D02*
G37*
G36*
X164971Y182386D02*
X164967Y182105D01*
X164932Y181660D01*
X164902Y181495D01*
X164863Y181369D01*
X164815Y181282D01*
X164759Y181233D01*
X164694Y181223D01*
X164620Y181252D01*
X164538Y181319D01*
X163471Y182176D01*
X163566Y182111D01*
X163651Y182076D01*
X163726Y182071D01*
X163791Y182097D01*
X163846Y182153D01*
X163891Y182239D01*
X163926Y182355D01*
X163951Y182502D01*
X163966Y182678D01*
X163971Y182886D01*
X164971Y182386D01*
D02*
G37*
G36*
X127561Y175945D02*
X127593Y175808D01*
X127646Y175663D01*
X127720Y175509D01*
X127816Y175345D01*
X127932Y175173D01*
X128070Y174992D01*
X128410Y174604D01*
X128611Y174396D01*
X128172Y173421D01*
X127940Y173646D01*
X127536Y173995D01*
X127364Y174118D01*
X127212Y174207D01*
X127081Y174262D01*
X126970Y174282D01*
X126879Y174269D01*
X126808Y174222D01*
X126758Y174140D01*
X127550Y176073D01*
X127561Y175945D01*
D02*
G37*
G36*
X131003Y172011D02*
X131145Y171891D01*
X131286Y171784D01*
X131428Y171693D01*
X131569Y171615D01*
X131711Y171551D01*
X131852Y171502D01*
X131993Y171466D01*
X132135Y171445D01*
X132276Y171438D01*
X130112D01*
X130113Y171445D01*
X130099Y171466D01*
X130070Y171502D01*
X129894Y171693D01*
X129448Y172145D01*
X130862D01*
X131003Y172011D01*
D02*
G37*
D15*
X119374Y191653D02*
X121727Y189300D01*
X133685D01*
X134485Y190100D01*
Y191485D01*
X137300Y194300D01*
X140005D01*
X141100Y195395D01*
Y197147D01*
X131553Y193506D02*
X135195Y197147D01*
X119374Y199527D02*
X120747Y200900D01*
X130600D01*
X136600D02*
X138200D01*
X139131Y199969D01*
Y197147D02*
Y199969D01*
X131500Y222200D02*
X136200D01*
X127800Y225900D02*
X131500Y222200D01*
X118530Y225900D02*
X127800D01*
X111500Y218870D02*
X118530Y225900D01*
X136200Y222200D02*
X145500Y212900D01*
X150100D01*
X130200Y208300D02*
X135300D01*
X149472Y204400D02*
X155000D01*
X162800Y168800D02*
X168200Y163400D01*
X162800Y168800D02*
Y172700D01*
X173700Y169800D02*
X180100Y163400D01*
X173700Y169800D02*
Y177729D01*
X202228Y167500D02*
X206500D01*
X199695Y170034D02*
X202228Y167500D01*
X199695Y170034D02*
Y170187D01*
X191753Y178129D02*
X199695Y170187D01*
X191600Y178129D02*
X191753D01*
X157525Y187600D02*
X161125Y191200D01*
X150647Y187600D02*
X157525D01*
X161125Y187000D02*
Y191200D01*
X162800Y179700D02*
X164471Y181371D01*
Y187000D01*
X198300Y188175D02*
Y193950D01*
X191600Y181475D02*
X198300Y188175D01*
X186875Y186200D02*
X191600Y181475D01*
X176900Y186200D02*
X186875D01*
X171900Y191200D02*
X176900Y186200D01*
X164471Y191200D02*
X171900D01*
X174300Y199700D02*
X180200Y193800D01*
X164471Y199700D02*
X174300D01*
X164471Y203900D02*
Y209429D01*
X162800Y211100D02*
X164471Y209429D01*
X161125Y199700D02*
Y203900D01*
Y198851D02*
Y199700D01*
Y198851D02*
X164475Y195500D01*
X155197Y189568D02*
X161129Y195500D01*
X150647Y189568D02*
X155197D01*
X191100Y169400D02*
X197794D01*
X180200Y180300D02*
X191100Y169400D01*
X179425Y181075D02*
X180200Y180300D01*
X173700Y181075D02*
X179425D01*
X203700Y169400D02*
Y175050D01*
X198300Y180450D02*
X203700Y175050D01*
X180026Y209241D02*
X197567D01*
X197726Y209400D01*
X180026Y209241D02*
Y209299D01*
X197726Y209400D02*
X202070D01*
X203800Y211129D01*
X192555Y211229D02*
X197726Y216400D01*
X191800Y211229D02*
X192555D01*
X180026Y216300D02*
X180729D01*
X185900Y211129D01*
X203700Y222550D02*
X203800Y222450D01*
Y214475D02*
Y222450D01*
X191700Y222400D02*
X191800Y222300D01*
Y214575D02*
Y222300D01*
X185900Y222466D02*
X185984Y222550D01*
X185900Y214475D02*
Y222466D01*
X126775Y191600D02*
X126838Y191537D01*
X131553D01*
X126775Y194947D02*
X128216Y193506D01*
X131553D01*
X135195Y197147D02*
Y199565D01*
X130200Y204560D02*
X135195Y199565D01*
X127200Y175100D02*
X132600Y169700D01*
X126775Y175100D02*
X127200D01*
X121729Y176800D02*
X123429Y175100D01*
X115500Y176800D02*
X121729D01*
X107000Y185300D02*
X115500Y176800D01*
X107000Y185300D02*
Y206500D01*
X110090Y209590D01*
X119374D01*
X141100Y187600D02*
X143069Y189568D01*
Y197147D01*
X146272Y201200D02*
X149472Y204400D01*
X144400Y201200D02*
X146272D01*
X143069Y199869D02*
X144400Y201200D01*
X143069Y197147D02*
Y199869D01*
X125871Y216800D02*
X134889D01*
X139649Y212040D01*
X122525Y216800D02*
Y220225D01*
X124500Y222200D01*
D16*
X141100Y187600D02*
D03*
D17*
X164471Y187000D02*
D03*
X161125D02*
D03*
X164471Y191200D02*
D03*
X161125D02*
D03*
X164471Y203900D02*
D03*
X161125D02*
D03*
X164471Y199700D02*
D03*
X161125D02*
D03*
X123429Y175100D02*
D03*
X126775D02*
D03*
X161129Y195500D02*
D03*
X164475D02*
D03*
X125871Y216800D02*
D03*
X122525D02*
D03*
X145929Y204400D02*
D03*
X149472Y204400D02*
D03*
D18*
X145500Y209357D02*
D03*
X145500Y212900D02*
D03*
X150100Y209357D02*
D03*
X150100Y212900D02*
D03*
X126775Y191600D02*
D03*
Y194947D02*
D03*
X185900Y211129D02*
D03*
Y214475D02*
D03*
X191800Y211229D02*
D03*
Y214575D02*
D03*
X203800Y211129D02*
D03*
Y214475D02*
D03*
X191600Y178129D02*
D03*
Y181475D02*
D03*
X173700Y177729D02*
D03*
Y181075D02*
D03*
D19*
X150647Y193506D02*
D03*
Y191537D02*
D03*
Y189568D02*
D03*
Y187600D02*
D03*
Y185632D02*
D03*
Y183663D02*
D03*
Y181694D02*
D03*
X131553D02*
D03*
Y183663D02*
D03*
Y185632D02*
D03*
Y187600D02*
D03*
Y191537D02*
D03*
Y193506D02*
D03*
D20*
X147005Y178053D02*
D03*
X145037D02*
D03*
X143069D02*
D03*
X141100D02*
D03*
X139131D02*
D03*
X137163D02*
D03*
X135195D02*
D03*
Y197147D02*
D03*
X137163D02*
D03*
X139131D02*
D03*
X141100D02*
D03*
X143069D02*
D03*
X145037D02*
D03*
X147005D02*
D03*
D21*
X139649Y204560D02*
D03*
Y212040D02*
D03*
X130200Y208300D02*
D03*
Y212040D02*
D03*
Y204560D02*
D03*
D22*
X180026Y216300D02*
D03*
X197726Y216400D02*
D03*
X162800Y172700D02*
D03*
Y218100D02*
D03*
D23*
X180026Y209299D02*
D03*
X197726Y209400D02*
D03*
X162800Y179700D02*
D03*
Y211100D02*
D03*
D24*
X132600Y169700D02*
D03*
X124500Y222200D02*
D03*
D25*
X125600Y169700D02*
D03*
X131500Y222200D02*
D03*
D26*
X198300Y180450D02*
D03*
X180200Y193800D02*
D03*
D27*
X198300Y193950D02*
D03*
X180200Y180300D02*
D03*
D43*
X168200Y163400D02*
X180100D01*
X144739D02*
X168200D01*
X180100D02*
X202400D01*
X206500Y167500D02*
X207400Y168400D01*
X202400Y163400D02*
X206500Y167500D01*
X138739Y169400D02*
X144739Y163400D01*
X207400Y168400D02*
Y222900D01*
X203600Y226700D02*
X207400Y222900D01*
X171400Y226700D02*
X203600D01*
X162800Y218100D02*
X171400Y226700D01*
X154057Y209357D02*
X162800Y218100D01*
X150100Y209357D02*
X154057D01*
X145500D02*
X150100D01*
X142332D02*
X145500D01*
X139649Y212040D02*
X142332Y209357D01*
X139649Y204560D02*
X145569D01*
D44*
X124404D02*
X130200D01*
X119374Y209590D02*
X124404Y204560D01*
X121824Y212040D02*
X130200D01*
X119374Y209590D02*
X121824Y212040D01*
D45*
X111500Y204500D02*
D03*
Y186784D02*
D03*
D46*
Y218870D02*
D03*
Y172413D02*
D03*
D47*
X119374Y209590D02*
D03*
Y199527D02*
D03*
Y191653D02*
D03*
Y181590D02*
D03*
D48*
X130600Y200900D02*
D03*
X136600D02*
D03*
X135300Y208300D02*
D03*
X155000Y204400D02*
D03*
X180026Y209241D02*
D03*
X141100Y187600D02*
D03*
X125600Y169700D02*
D03*
X132834Y222550D02*
D03*
X138739Y169400D02*
D03*
X197794D02*
D03*
X203700D02*
D03*
Y222550D02*
D03*
X191700Y222400D02*
D03*
X185984Y222550D02*
D03*
M02*
