G04*
G04 #@! TF.GenerationSoftware,Altium Limited,Altium Designer,18.1.9 (240)*
G04*
G04 Layer_Color=8421504*
%FSLAX25Y25*%
%MOIN*%
G70*
G01*
G75*
%ADD16P,0.11938X8X292.5*%
%ADD17R,0.01575X0.01968*%
%ADD18R,0.01968X0.01575*%
%ADD19R,0.03347X0.00984*%
%ADD20R,0.00984X0.03347*%
%ADD21R,0.03937X0.01968*%
%ADD22R,0.03500X0.05000*%
G04:AMPARAMS|DCode=23|XSize=50mil|YSize=35mil|CornerRadius=0mil|HoleSize=0mil|Usage=FLASHONLY|Rotation=270.000|XOffset=0mil|YOffset=0mil|HoleType=Round|Shape=Octagon|*
%AMOCTAGOND23*
4,1,8,-0.00875,-0.02500,0.00875,-0.02500,0.01750,-0.01625,0.01750,0.01625,0.00875,0.02500,-0.00875,0.02500,-0.01750,0.01625,-0.01750,-0.01625,-0.00875,-0.02500,0.0*
%
%ADD23OCTAGOND23*%

%ADD24R,0.05000X0.03500*%
G04:AMPARAMS|DCode=25|XSize=50mil|YSize=35mil|CornerRadius=0mil|HoleSize=0mil|Usage=FLASHONLY|Rotation=180.000|XOffset=0mil|YOffset=0mil|HoleType=Round|Shape=Octagon|*
%AMOCTAGOND25*
4,1,8,-0.02500,0.00875,-0.02500,-0.00875,-0.01625,-0.01750,0.01625,-0.01750,0.02500,-0.00875,0.02500,0.00875,0.01625,0.01750,-0.01625,0.01750,-0.02500,0.00875,0.0*
%
%ADD25OCTAGOND25*%

G04:AMPARAMS|DCode=26|XSize=55mil|YSize=50mil|CornerRadius=0mil|HoleSize=0mil|Usage=FLASHONLY|Rotation=270.000|XOffset=0mil|YOffset=0mil|HoleType=Round|Shape=Octagon|*
%AMOCTAGOND26*
4,1,8,-0.01250,-0.02750,0.01250,-0.02750,0.02500,-0.01500,0.02500,0.01500,0.01250,0.02750,-0.01250,0.02750,-0.02500,0.01500,-0.02500,-0.01500,-0.01250,-0.02750,0.0*
%
%ADD26OCTAGOND26*%

%ADD27R,0.05000X0.05500*%
D16*
X141100Y187600D02*
D03*
D17*
X164471Y187000D02*
D03*
X161125D02*
D03*
X164471Y191200D02*
D03*
X161125D02*
D03*
X164471Y203900D02*
D03*
X161125D02*
D03*
X164471Y199700D02*
D03*
X161125D02*
D03*
X123429Y175100D02*
D03*
X126775D02*
D03*
X161129Y195500D02*
D03*
X164475D02*
D03*
X125871Y216800D02*
D03*
X122525D02*
D03*
X145929Y204400D02*
D03*
X149472Y204400D02*
D03*
D18*
X145500Y209357D02*
D03*
X145500Y212900D02*
D03*
X150100Y209357D02*
D03*
X150100Y212900D02*
D03*
X126775Y191600D02*
D03*
Y194947D02*
D03*
X185900Y211129D02*
D03*
Y214475D02*
D03*
X191800Y211229D02*
D03*
Y214575D02*
D03*
X203800Y211129D02*
D03*
Y214475D02*
D03*
X191600Y178129D02*
D03*
Y181475D02*
D03*
X173700Y177729D02*
D03*
Y181075D02*
D03*
D19*
X150647Y193506D02*
D03*
Y191537D02*
D03*
Y189568D02*
D03*
Y187600D02*
D03*
Y185632D02*
D03*
Y183663D02*
D03*
Y181694D02*
D03*
X131553D02*
D03*
Y183663D02*
D03*
Y185632D02*
D03*
Y187600D02*
D03*
Y191537D02*
D03*
Y193506D02*
D03*
D20*
X147005Y178053D02*
D03*
X145037D02*
D03*
X143069D02*
D03*
X141100D02*
D03*
X139131D02*
D03*
X137163D02*
D03*
X135195D02*
D03*
Y197147D02*
D03*
X137163D02*
D03*
X139131D02*
D03*
X141100D02*
D03*
X143069D02*
D03*
X145037D02*
D03*
X147005D02*
D03*
D21*
X139649Y204560D02*
D03*
Y212040D02*
D03*
X130200Y208300D02*
D03*
Y212040D02*
D03*
Y204560D02*
D03*
D22*
X180026Y216300D02*
D03*
X197726Y216400D02*
D03*
X162800Y172700D02*
D03*
Y218100D02*
D03*
D23*
X180026Y209299D02*
D03*
X197726Y209400D02*
D03*
X162800Y179700D02*
D03*
Y211100D02*
D03*
D24*
X132600Y169700D02*
D03*
X124500Y222200D02*
D03*
D25*
X125600Y169700D02*
D03*
X131500Y222200D02*
D03*
D26*
X198300Y180450D02*
D03*
X180200Y193800D02*
D03*
D27*
X198300Y193950D02*
D03*
X180200Y180300D02*
D03*
M02*
